<?xml version="1.0" encoding="UTF-8"?>
<svg width="36px" height="36px" viewBox="0 0 36 36" version="1.1" xmlns="http://www.w3.org/2000/svg" xmlns:xlink="http://www.w3.org/1999/xlink">
    <title>EAA8AC84-D42E-460F-AED4-5073101A929D</title>
    <g id="Home-e-Busca---UI" stroke="none" stroke-width="1" fill="none" fill-rule="evenodd">
        <g id="3.-group/home-mobile-v3" transform="translate(-361.000000, -9.000000)">
            <rect fill="#FFFFFF" x="0" y="0" width="414" height="6822"></rect>
            <g id="2.-component_navbar">
                <rect id="navbar" fill="#F3E9E9" x="0" y="0" width="414" height="54"></rect>
                <g id="1.-assets-icon-nav" transform="translate(361.000000, 9.000000)" fill="#2C1338">
                    <path d="M28.9993054,24 C29.5124974,24 29.9354624,24.3827202 29.9932676,24.8826674 L30,25 C30,25.5522847 29.5525308,26 28.9993054,26 L7.00069463,26 C6.44802625,26 6,25.5561352 6,25 C6,24.4477153 6.44746922,24 7.00069463,24 L28.9993054,24 Z M28.9993054,17 C29.5124974,17 29.9354624,17.3827202 29.9932676,17.8826674 L30,18 C30,18.5522847 29.5525308,19 28.9993054,19 L7.00069463,19 C6.44802625,19 6,18.5561352 6,18 C6,17.4477153 6.44746922,17 7.00069463,17 L28.9993054,17 Z M28.9993054,10 C29.5124974,10 29.9354624,10.3827202 29.9932676,10.8826674 L30,11 C30,11.5522847 29.5525308,12 28.9993054,12 L7.00069463,12 C6.44802625,12 6,11.5561352 6,11 C6,10.4477153 6.44746922,10 7.00069463,10 L28.9993054,10 Z" id="Combined-Shape"></path>
                </g>
            </g>
        </g>
    </g>
</svg>