<?xml version="1.0" encoding="UTF-8"?>
<svg width="36px" height="36px" viewBox="0 0 36 36" version="1.1" xmlns="http://www.w3.org/2000/svg" xmlns:xlink="http://www.w3.org/1999/xlink">
    <title>C6FA88ED-A098-4280-B787-D77B10921603</title>
    <g id="Home-e-Busca---UI" stroke="none" stroke-width="1" fill="none" fill-rule="evenodd">
        <g id="desk_Home" transform="translate(-1057.000000, -9.000000)">
            <rect fill="#FFFFFF" x="0" y="0" width="1220" height="4208"></rect>
            <g id="2.-component/navbar-desktop">
                <rect id="navbar" fill="#F3E9E9" x="0" y="0" width="1220" height="54"></rect>
                <g id="Group-2" transform="translate(673.000000, 6.000000)">
                    <g id="Group" transform="translate(384.000000, 3.000000)">
                        <g id="1.-assets/icon/alert" fill="#2C1338" fill-rule="nonzero">
                            <path d="M18.000061,6 C18.4140625,6 18.750061,6.33599855 18.750061,6.75 L18.7508906,9.03998213 C22.2590063,9.41574559 25,12.3936885 25,15.999939 L25,18.7880859 C25,20.7670898 25.8670044,22.6349487 27.3779907,23.9130249 C27.7769776,24.2530518 28,24.7379151 28,25.250061 C28,26.2150268 27.2150268,27 26.250061,27 L21.6746123,27.0006484 C21.3260251,28.7100887 19.8110472,30 18.000061,30 C16.1890748,30 14.674097,28.7100887 14.3255098,27.0006484 L9.75006105,27 C8.78491211,27 7.99993895,26.2150268 7.99993895,25.250061 C7.99993895,24.7379151 8.22296144,24.2530518 8.61206055,23.9199829 C10.1329346,22.6349487 10.999939,20.7670898 10.999939,18.7880859 L10.999939,15.999939 C10.999939,12.3933448 13.7414551,9.41517804 17.2502006,9.03987477 L17.250061,6.75 C17.250061,6.33599855 17.5860596,6 18.000061,6 Z M20.121429,27.0005701 L15.8786737,27.0005701 C16.1882383,27.8734956 17.0220619,28.5 18.000061,28.5 C18.9779159,28.5 19.8118226,27.8734956 20.121429,27.0005701 Z M18.000061,10.5 C14.966919,10.5 12.499939,12.96698 12.499939,15.999939 L12.499939,18.7880859 C12.499939,21.2089233 11.4390259,23.4949951 9.59002684,25.0579834 C9.55505369,25.0880127 9.49993895,25.1500854 9.49993895,25.250061 C9.49993895,25.3859253 9.61401367,25.5 9.75006105,25.5 L26.250061,25.5 C26.3859253,25.5 26.5,25.3859253 26.5,25.250061 C26.5,25.1500854 26.4450684,25.0880127 26.4119263,25.0599975 C24.5609131,23.4949951 23.5,21.2089233 23.5,18.7880859 L23.5,15.999939 C23.5,12.96698 21.03302,10.5 18.000061,10.5 Z M25.4130859,7.33703616 C27.7260742,9.65093995 28.999939,12.7280273 28.999939,15.999939 C28.999939,16.4139404 28.6639404,16.749939 28.249939,16.749939 C27.8359375,16.749939 27.499939,16.4139404 27.499939,15.999939 C27.499939,13.1279297 26.3820801,10.4289551 24.3519897,8.39794922 C24.059021,8.10498047 24.059021,7.63000491 24.3519897,7.33703616 C24.6449585,7.04406741 25.1199341,7.04406741 25.4130859,7.33703616 Z M11.6490479,7.33795167 C11.9420166,7.63092042 11.9420166,8.10607913 11.6490479,8.39904788 C9.61804197,10.4289551 8.5,13.1279297 8.5,15.999939 C8.5,16.4139404 8.16400145,16.749939 7.75,16.749939 C7.33599855,16.749939 7,16.4139404 7,15.999939 C7,12.7280273 8.27404788,9.65093995 10.5879517,7.33795167 C10.8809204,7.04498292 11.3560791,7.04498292 11.6490479,7.33795167 Z" id="Combined-Shape"></path>
                        </g>
                        <circle id="Oval" fill="#FF8500" cx="30" cy="11" r="5"></circle>
                    </g>
                </g>
            </g>
        </g>
    </g>
</svg>