<?xml version="1.0" encoding="UTF-8"?>
<svg width="28px" height="28px" viewBox="0 0 28 28" version="1.1" xmlns="http://www.w3.org/2000/svg" xmlns:xlink="http://www.w3.org/1999/xlink">
    <title>2E9AA9FD-78C6-48B2-BDF6-9A82BCFEC504</title>
    <defs>
        <filter id="filter-1">
            <feColorMatrix in="SourceGraphic" type="matrix" values="0 0 0 0 0.180392 0 0 0 0 0.098039 0 0 0 0 0.309804 0 0 0 1.000000 0"></feColorMatrix>
        </filter>
    </defs>
    <g id="Home-e-Busca---UI" stroke="none" stroke-width="1" fill="none" fill-rule="evenodd">
        <g id="desk_Home" transform="translate(-728.000000, -306.000000)">
            <rect fill="#FFFFFF" x="0" y="0" width="1220" height="4208"></rect>
            <g id="topo" transform="translate(0.000000, 54.000000)">
                <rect id="Rectangle" fill="#F3E9E9" x="0" y="0" width="1220" height="442"></rect>
                <g id="Group" transform="translate(120.000000, 236.000000)">
                    <g id="form-control-lg" transform="translate(601.000000, 0.000000)">
                        <path d="M0,10.0088711 C0,4.48112423 4.47779571,0 10.007896,0 L172.514297,0 C178.041506,0 182.522193,4.48521396 182.522193,10.0088711 L182.522193,60 L0,60 L0,10.0088711 Z" id="form-control"></path>
                        <g id="1.-assets-icon-search" transform="translate(7.000000, 16.000000)" filter="url(#filter-1)">
                            <g>
                                <path d="M19.7469136,3.11111111 C19.9138765,3.11111111 20.0493827,3.30081975 20.0493827,3.5345679 L20.0491111,4.92511111 L22.6203704,4.92592593 C23.8707778,4.92592593 24.8888889,5.94403704 24.8888889,7.19444444 L24.8888889,22.6203704 C24.8888889,23.8707778 23.8707778,24.8888889 22.6203704,24.8888889 L5.37962963,24.8888889 C4.12922222,24.8888889 3.11111111,23.8707778 3.11111111,22.6203704 L3.11111111,7.19444444 C3.11111111,5.94403704 4.12922222,4.92592593 5.37962963,4.92592593 L7.34511111,4.92511111 L7.34567901,3.5345679 C7.34567901,3.30081975 7.61669136,3.11111111 7.95061728,3.11111111 C8.28454321,3.11111111 8.55555556,3.30081975 8.55555556,3.5345679 L8.55511111,4.92511111 L19.4441111,4.92511111 L19.4444444,3.5345679 C19.4444444,3.30081975 19.5799506,3.11111111 19.7469136,3.11111111 Z M23.9811111,11.5801111 L4.01811111,11.5801111 L4.01851852,22.6203704 C4.01851852,23.3707963 4.6292037,23.9814815 5.37962963,23.9814815 L22.6203704,23.9814815 C23.3707963,23.9814815 23.9814815,23.3707963 23.9814815,22.6203704 L23.9811111,11.5801111 Z M7.34511111,5.83311111 L5.37962963,5.83333333 C4.6292037,5.83333333 4.01851852,6.44401852 4.01851852,7.19444444 L4.01811111,10.3701111 L23.9811111,10.3701111 L23.9814815,7.19444444 C23.9814815,6.44401852 23.3707963,5.83333333 22.6203704,5.83333333 L20.0491111,5.83311111 L20.0493827,6.92222222 C20.0493827,7.15597037 19.9138765,7.34567901 19.7469136,7.34567901 C19.5799506,7.34567901 19.4444444,7.15597037 19.4444444,6.92222222 L19.4441111,5.83311111 L8.55511111,5.83311111 L8.55555556,6.92222222 C8.55555556,7.15597037 8.28454321,7.34567901 7.95061728,7.34567901 C7.61669136,7.34567901 7.34567901,7.15597037 7.34567901,6.92222222 L7.34511111,5.83311111 Z" id="Combined-Shape" fill="#2C1338" fill-rule="nonzero"></path>
                            </g>
                        </g>
                    </g>
                    <rect id="hotspot-copy-2" x="601" y="0" width="183" height="60"></rect>
                </g>
            </g>
        </g>
    </g>
</svg>