<?xml version="1.0" encoding="UTF-8"?>
<svg width="76px" height="76px" viewBox="0 0 76 76" version="1.1" xmlns="http://www.w3.org/2000/svg" xmlns:xlink="http://www.w3.org/1999/xlink">
    <title>A55741A4-AB8C-4243-9929-2EC1F5870828</title>
    <g id="Home-e-Busca---UI" stroke="none" stroke-width="1" fill="none" fill-rule="evenodd">
        <g id="desk_Home" transform="translate(-20.000000, -689.000000)">
            <rect fill="#FFFFFF" x="0" y="0" width="1220" height="4208"></rect>
            <g id="estatisticas-QD" transform="translate(0.000000, 496.000000)">
                <rect id="bg-copy-2" fill="#2C1338" x="0" y="0" width="1220" height="460"></rect>
                <g id="Group-17" transform="translate(20.000000, 193.000000)">
                    <g id="Group-7" transform="translate(0.000000, 0.000000)">
                        <g id="1.-assets/icon/nivel/3" transform="translate(0.000000, 0.000000)">
                            <circle id="Oval" fill="#5E3F8E" cx="38" cy="38" r="38"></circle>
                            <path d="M36.1291105,51.8828035 C34.3373458,53.6390655 31.4300519,53.6390655 29.6391519,51.8828035 L19.5838235,42.0267152 C17.7920588,40.2713008 17.7920588,37.4216131 19.5838235,35.6661986 C21.3747235,33.9099366 24.2820175,33.9099366 26.0737822,35.6661986 L32.0647793,41.5376403 C32.5170443,41.9800963 33.2512181,41.9800963 33.7043478,41.5376403 L49.9262178,25.6371965 C51.7171178,23.8809345 54.6244117,23.8809345 56.4161765,25.6371965 C57.276604,26.4805753 57.76,27.6248579 57.76,28.8174548 C57.76,30.0100517 57.276604,31.1543344 56.4161765,31.9977131 L36.1291105,51.8828035 Z" id="Path" fill="#966BE8" fill-rule="nonzero"></path>
                        </g>
                    </g>
                </g>
            </g>
        </g>
    </g>
</svg>