<?xml version="1.0" encoding="UTF-8"?>
<svg width="50px" height="50px" viewBox="0 0 50 50" version="1.1" xmlns="http://www.w3.org/2000/svg" xmlns:xlink="http://www.w3.org/1999/xlink">
    <title>1. assets/icon/nivel/3</title>
    <defs>
        <filter color-interpolation-filters="auto" id="filter-1">
            <feColorMatrix in="SourceGraphic" type="matrix" values="0 0 0 0 0.952941 0 0 0 0 0.913725 0 0 0 0 0.913725 0 0 0 1.000000 0"></feColorMatrix>
        </filter>
        <path d="M15,13.5837018 L19.9570436,8.62665829 C20.3481435,8.23555835 20.9822418,8.23555835 21.3733417,8.62665829 C21.7644417,9.01775822 21.7644417,9.65185651 21.3733417,10.0429564 L16.4162982,15 L21.3733417,19.9570436 C21.7644417,20.3481435 21.7644417,20.9822418 21.3733417,21.3733417 C20.9822418,21.7644417 20.3481435,21.7644417 19.9570436,21.3733417 L15,16.4162982 L10.0429564,21.3733417 C9.65185651,21.7644417 9.01775822,21.7644417 8.62665829,21.3733417 C8.23555835,20.9822418 8.23555835,20.3481435 8.62665829,19.9570436 L13.5837018,15 L8.62665829,10.0429564 C8.23555835,9.65185651 8.23555835,9.01775822 8.62665829,8.62665829 C9.01775822,8.23555835 9.65185651,8.23555835 10.0429564,8.62665829 L15,13.5837018 Z" id="path-2"></path>
    </defs>
    <g id="Home-e-Busca---UI" stroke="none" stroke-width="1" fill="none" fill-rule="evenodd">
        <g id="desk_VideoPreview" transform="translate(-1149.000000, -28.000000)">
            <g id="1.-assets/icon/nivel/3" transform="translate(1149.000000, 28.000000)">
                <circle id="Oval" stroke="#F3E9E9" cx="25" cy="25" r="24.5"></circle>
                <g id="1.-assets/icon/long-arrow" transform="translate(10.000000, 10.000000)" filter="url(#filter-1)">
                    <g>
                        <mask id="mask-3" fill="white">
                            <use xlink:href="#path-2"></use>
                        </mask>
                        <use id="Path" fill="#373A3C" xlink:href="#path-2"></use>
                    </g>
                </g>
            </g>
        </g>
    </g>
</svg>