<?xml version="1.0" encoding="UTF-8"?>
<svg width="36px" height="61px" viewBox="0 0 36 61" version="1.1" xmlns="http://www.w3.org/2000/svg" xmlns:xlink="http://www.w3.org/1999/xlink">
    <title>9FFD1606-48AF-40B1-9B16-5C88EE3AE808</title>
    <g id="Home-e-Busca---UI" stroke="none" stroke-width="1" fill="none" fill-rule="evenodd">
        <g id="desk_Home" transform="translate(-424.000000, -1127.000000)" fill="#F3E9E9">
            <g id="apoio" transform="translate(0.000000, 956.000000)">
                <g id="censo" transform="translate(420.000000, 171.000000)">
                    <path d="M28.200453,19.2001454 L40,30.9290468 L40,56.5493877 C40,58.7899846 38.1837123,60.6067084 35.9426792,60.6067084 L35.9426792,60.6067084 L8.05732075,60.6067084 C5.81628772,60.6067084 4,58.7899846 4,56.5493877 L4,56.5493877 L4,23.2579022 C4,21.0168692 5.81628772,19.2001454 8.05732075,19.2001454 L8.05732075,19.2001454 L28.200453,19.2001454 Z M24.7257398,22.8793817 L8.05732075,22.8793817 C7.84800068,22.8793817 7.67880029,23.0490182 7.67880029,23.2579022 L7.67880029,23.2579022 L7.67880029,56.5493877 C7.67880029,56.7578356 7.84800068,56.9279081 8.05732075,56.9279081 L8.05732075,56.9279081 L35.9426792,56.9279081 C36.1515632,56.9279081 36.3211997,56.7578356 36.3211997,56.5493877 L36.3211997,56.5493877 L36.3211997,34.7085824 L29.8750136,34.7085824 C27.0356741,34.7085824 24.7257398,32.2564849 24.7257398,29.2422759 L24.7257398,29.2422759 L24.7257398,22.8793817 Z M28.4045401,24.5905733 L28.4045401,29.2422759 C28.4045401,30.2278245 29.0643344,31.0297821 29.8750136,31.0297821 L29.8750136,31.0297821 L34.8834325,31.0297821 L28.4045401,24.5905733 Z M21.4837644,0.294356353 C21.7157608,-0.0981187843 22.2835415,-0.0981187843 22.515974,0.294356353 L22.515974,0.294356353 L28.063392,9.66142963 C28.3494628,10.144174 27.8741318,10.7206764 27.3455986,10.5318523 L27.3455986,10.5318523 L23.283917,9.08361901 L23.283917,13.5853088 C23.283917,14.2943806 22.709159,14.8691386 22.0000872,14.8691386 C21.2910155,14.8691386 20.7158214,14.2943806 20.7158214,13.5853088 L20.7158214,13.5853088 L20.7158214,9.08361901 L16.6541398,10.5318523 C16.1251705,10.7206764 15.6502756,10.144174 15.9363463,9.66142963 L15.9363463,9.66142963 Z" id="Combined-Shape"></path>
                </g>
            </g>
        </g>
    </g>
</svg>