<?xml version="1.0" encoding="UTF-8"?>
<svg width="88px" height="17px" viewBox="0 0 88 17" version="1.1" xmlns="http://www.w3.org/2000/svg" xmlns:xlink="http://www.w3.org/1999/xlink">
    <title>1. assets/logo_empatia</title>
    <defs>
        <filter color-interpolation-filters="auto" id="filter-1">
            <feColorMatrix in="SourceGraphic" type="matrix" values="0 0 0 0 0.368627 0 0 0 0 0.247059 0 0 0 0 0.556863 0 0 0 1.000000 0"></feColorMatrix>
        </filter>
    </defs>
    <g id="Home-e-Busca---UI" stroke="none" stroke-width="1" fill="none" fill-rule="evenodd">
        <g id="desk_Home-1920" transform="translate(-1151.000000, -3621.000000)">
            <g id="logos" transform="translate(0.000000, 3485.000000)">
                <g id="Group-10" transform="translate(870.500000, 82.000000)">
                    <g id="1.-assets/logo_empatia" transform="translate(280.771629, 54.248213)" filter="url(#filter-1)">
                        <g>
                            <path d="M86.8090724,14.7813479 C86.8513914,14.7813479 86.8868213,14.8158562 86.8868213,14.8592379 L86.8868213,15.7899738 C86.8858371,15.8323696 86.8513914,15.8678638 86.8090724,15.8678638 L71.1254525,15.8678638 C71.0831335,15.8678638 71.0477036,15.8333556 71.0477036,15.7899738 L71.0477036,14.8592379 C71.0477036,14.8168421 71.0821493,14.7813479 71.1254525,14.7813479 L86.8090724,14.7813479 Z M40.7492647,2.78333413 C42.9106739,2.78333413 44.3499173,3.29128792 45.2582802,4.18966091 L45.3905769,4.32733032 C46.1867647,5.10820195 46.5764932,6.22824006 46.5764932,7.60265301 C46.5764932,9.09735175 46.1365724,10.1996428 45.3236538,10.9637533 C44.3749208,11.9309693 42.816991,12.4564801 40.8516176,12.4564801 C39.0446946,12.4564801 37.3105995,12.1035104 36.3795814,11.1924935 C36.2211312,11.0376995 35.9563914,11.1451679 35.9563914,11.3670064 L35.9563914,15.2269969 C35.9563914,15.3088307 35.8904525,15.3748893 35.808767,15.3748893 L34.7645701,15.3748893 C34.6828846,15.3748893 34.6169457,15.3088307 34.6169457,15.2269969 L34.6169457,3.15207907 C34.6169457,3.0702453 34.6828846,3.00418671 34.7645701,3.00418671 L35.7585747,3.00418671 C35.839276,3.00418671 35.9052149,3.06925935 35.9061991,3.15010717 L35.9150566,4.07788521 C35.9170249,4.30465349 36.1916063,4.40817814 36.3451357,4.2425387 C37.1649434,3.35419862 38.763224,2.78333413 40.7492647,2.78333413 Z M6.14806561,2.75079781 C10.4370475,2.75079781 12.3906109,4.84199571 12.2528281,7.98717314 C12.2488914,8.06604906 12.1829525,8.13013575 12.1042195,8.13013575 L1.60320136,8.13013575 C1.45262443,8.13013575 1.3394457,8.26323887 1.35617647,8.41408907 C1.56088235,10.292322 3.34418552,11.3719362 6.26616516,11.3719362 C9.30821267,11.3719362 10.4173643,10.272603 10.7027715,9.56764944 C10.7263914,9.5104644 10.778552,9.47102643 10.8405543,9.47102643 L11.9497059,9.47102643 C12.047138,9.47102643 12.1209502,9.56469159 12.0914253,9.65835675 C11.6387104,11.104744 10.0483032,12.5077495 6.23270362,12.5077495 C2.30294118,12.5077495 -1.81626051e-14,11.0140367 -1.81626051e-14,7.55236961 C-1.81626051e-14,4.42986902 2.30392534,2.75079781 6.14806561,2.75079781 Z M64.8061425,0.729602286 C64.8878281,0.729602286 64.953767,0.795660872 64.953767,0.877494642 L64.953767,2.77248869 C64.953767,2.9095356 65.0649774,3.02094784 65.201776,3.02094784 L68.9730882,3.02094784 C69.0547738,3.02094784 69.1207127,3.08700643 69.1207127,3.1688402 L69.1207127,4.07887116 C69.1207127,4.16070493 69.0547738,4.22676352 68.9730882,4.22676352 L65.2155543,4.22676352 C65.0787557,4.22676352 64.9675452,4.33817576 64.9675452,4.47522267 L64.9675452,9.38524887 C64.9675452,10.8957228 65.594457,11.2861586 67.0677489,11.2861586 C67.5125905,11.2861586 68.3707805,11.221086 68.8294005,11.1481257 C68.9189593,11.1333365 68.9996606,11.2023529 68.9996606,11.2930603 L68.9996606,12.1419624 C68.9996606,12.2099929 68.9543891,12.2681638 68.8884502,12.284925 C68.4298303,12.4042248 67.5194796,12.4900024 66.6790045,12.4900024 C64.7313462,12.4900024 63.6133371,11.8284306 63.6133371,9.7579376 L63.6133371,4.47522267 C63.6133371,4.33817576 63.5021267,4.22676352 63.3653281,4.22676352 L61.4068439,4.22676352 C61.3251584,4.22676352 61.2592195,4.16070493 61.2592195,4.07887116 L61.2592195,3.1688402 C61.2592195,3.08700643 61.3251584,3.02094784 61.4068439,3.02094784 L63.3692647,3.02094784 C63.5011425,3.02094784 63.6094005,2.91939509 63.6172738,2.78826387 C63.6458145,2.29233151 63.6586086,1.25807097 63.6635294,0.875522744 C63.6645136,0.794674923 63.7304525,0.729602286 63.8111538,0.729602286 L64.8061425,0.729602286 Z M54.3494118,2.75178376 C57.6689932,2.75178376 59.244638,3.71899976 59.4641063,5.60216242 C59.5152828,6.00935937 59.5487443,7.06136699 59.5320136,7.65490831 C59.5320136,8.09562753 59.5152828,9.62286259 59.5152828,10.2509121 C59.5152828,10.9262872 59.5999208,11.7347654 59.6983371,12.1419624 C59.7199887,12.2336556 59.649129,12.3204191 59.5546493,12.3204191 L58.4641968,12.3204191 C58.4504186,12.3214051 58.320509,11.6618052 58.2949208,11.1836199 C58.29,11.0938985 58.1817421,11.0554465 58.120724,11.1215051 C57.4150792,11.8747702 55.9634389,12.4742272 53.2304186,12.4742272 C50.0633824,12.4742272 48.5044683,11.5750417 48.5044683,9.69089307 C48.5044683,7.8757609 49.9275679,6.75572279 54.4497964,6.72121457 C55.47431,6.70543939 56.8068665,6.77741367 58.0380543,6.88389617 C58.1846946,6.8967135 58.3126357,6.77938557 58.3077149,6.63247916 C58.2368552,4.56001429 57.3186312,3.90534413 54.3149661,3.90534413 C51.6449321,3.90534413 50.5908937,4.58762086 50.4019344,5.81414146 C50.3911086,5.88710169 50.3310747,5.94231484 50.2582466,5.94231484 L49.2229072,5.94231484 C49.1313801,5.94231484 49.0595362,5.85752322 49.076267,5.76780186 C49.4620588,3.66871636 51.1833597,2.75178376 54.3494118,2.75178376 Z M81.466052,2.74981186 C84.7856335,2.74981186 86.3612783,3.71702786 86.5817308,5.60019052 C86.6329072,6.00738747 86.6663688,7.05939509 86.649638,7.65293641 C86.649638,8.09365563 86.6329072,9.62089069 86.6329072,10.2489402 C86.6329072,10.9243153 86.7175452,11.7327935 86.8159615,12.1399905 C86.8376131,12.2316837 86.7667534,12.3184472 86.6722738,12.3184472 L85.5808371,12.3184472 L85.5808371,12.3214051 C85.5670588,12.3214051 85.4371493,11.6618052 85.4115611,11.1836199 C85.4066403,11.0938985 85.2983824,11.0554465 85.2373643,11.1215051 C84.5317195,11.8747702 83.0800792,12.4732412 80.3470588,12.4732412 C77.1800226,12.4732412 75.6211086,11.5740557 75.6211086,9.68990712 C75.6211086,7.87477495 77.0442081,6.75473684 81.5664367,6.72022863 C82.5909502,6.70445344 83.9235068,6.77642772 85.1546946,6.88291022 C85.3013348,6.89572755 85.429276,6.77839962 85.4243552,6.63149321 C85.3534955,4.55902834 84.4352715,3.90435818 81.4316063,3.90435818 C78.7625566,3.90435818 77.7075339,4.58663491 77.5185747,5.81315551 C77.5077489,5.88611574 77.4477149,5.94034294 77.3748869,5.94034294 L76.3395475,5.94034294 C76.2480204,5.94034294 76.1761765,5.85555132 76.1929072,5.76582996 C76.5786991,3.66674446 78.3,2.74981186 81.466052,2.74981186 Z M27.8360633,2.78333413 C30.885,2.78333413 31.9518326,4.36183853 31.9518326,6.41458442 L31.9519136,7.07383655 C31.9519412,7.17935618 31.9519761,7.28272749 31.9520188,7.38399477 L31.9529303,8.50104425 C31.956276,11.0553616 31.9681378,11.875543 32.0000566,12.1577376 C32.0098982,12.2445011 31.9410068,12.3194332 31.8534163,12.3194332 L30.8448211,12.3193518 L30.8448211,12.3193518 L30.8340246,12.3173162 C30.773598,12.2954837 30.7572325,12.0681604 30.7528001,9.99640057 L30.7521512,9.62286798 C30.7520605,9.55749928 30.7519781,9.49054847 30.7519032,9.42197732 L30.7511538,6.84051441 L30.7511538,6.84051441 C30.7511538,5.33004049 30.1409729,4.05718028 27.5162104,4.05718028 C25.6187443,4.05718028 23.9929072,4.77002143 23.9929072,6.78924506 L23.9929072,12.1735127 C23.9929072,12.2553465 23.9269683,12.3214051 23.8452828,12.3214051 L22.8689932,12.3214051 C22.7873077,12.3214051 22.7213688,12.2553465 22.7213688,12.1735127 L22.7213688,6.60290069 C22.7213688,4.99087402 21.501991,4.05718028 19.5031561,4.05718028 C17.351776,4.05718028 15.9631222,5.39807097 15.9631222,6.80600619 L15.9631222,12.1735127 C15.9631222,12.2553465 15.8971833,12.3214051 15.8154977,12.3214051 L14.7713009,12.3214051 C14.6896154,12.3214051 14.6236765,12.2553465 14.6236765,12.1735127 L14.6236765,3.13531793 C14.6236765,3.05348416 14.6896154,2.98742558 14.7713009,2.98742558 L15.7643213,2.98742558 C15.8460068,2.98742558 15.9119457,3.05348416 15.9119457,3.13531793 L15.9119457,3.99802334 C15.9119457,4.23465111 16.2032579,4.33226006 16.3558032,4.15084544 C17.1214819,3.24180043 18.5130882,2.78333413 19.9263462,2.78333413 C21.4852602,2.78333413 22.8847398,3.28814003 23.4909842,4.43874256 C23.5785747,4.60536794 23.8177262,4.61621338 23.9141742,4.45550369 C24.6552489,3.23194094 26.184638,2.78333413 27.8360633,2.78333413 Z M72.6125226,2.98841153 C72.6942081,2.98841153 72.7601471,3.05447011 72.7601471,3.13630388 L72.7601471,11.5237723 C72.7601471,11.8382901 72.7699887,12.0266063 72.7955769,12.1439343 C72.8152602,12.2366135 72.7463688,12.3214051 72.6518891,12.3214051 L71.6067081,12.3214051 C71.551595,12.3214051 71.4994344,12.2928126 71.4758145,12.2435151 C71.4295588,12.1429483 71.4039706,11.9428007 71.4039706,11.5415194 L71.4039706,3.13630388 C71.4039706,3.05447011 71.4699095,2.98841153 71.551595,2.98841153 L72.6125226,2.98841153 Z M54.6869796,7.72195285 C51.2827602,7.73871398 49.8763914,8.36676352 49.8763914,9.6051155 C49.8763914,10.7083925 50.9097624,11.3867254 53.4843326,11.3867254 C56.2695136,11.3867254 58.1886312,10.8888211 58.29,8.11140271 C58.2949208,7.97928554 58.1915837,7.86688735 58.0597059,7.85702786 C56.942681,7.78012384 55.7626697,7.70617766 54.6869796,7.72195285 Z M81.8036199,7.72195285 C78.3994005,7.73871398 76.9930317,8.36676352 76.9930317,9.6051155 C76.9930317,10.7083925 78.0264027,11.3867254 80.6009729,11.3867254 C83.3861538,11.3867254 85.3052715,10.8888211 85.4066403,8.11140271 C85.4115611,7.97928554 85.308224,7.86688735 85.1763462,7.85702786 C84.0593213,7.78012384 82.87931,7.70617766 81.8036199,7.72195285 Z M40.4461425,4.00689688 C38.8035747,4.00689688 37.5330204,4.41409383 36.7870249,5.17721839 C36.1768439,5.78850679 35.9229299,6.56839247 35.9229299,7.72293879 C35.9229299,8.80945463 36.2112896,9.52130984 36.7358484,10.0645678 C37.4808597,10.8789617 38.8025905,11.2693975 40.5297964,11.2693975 C42.2402715,11.2693975 43.4773643,10.8789617 44.2391063,10.1493594 C44.8660181,9.57257919 45.1878394,8.75818528 45.1878394,7.62138604 C45.1878394,6.55163134 44.8660181,5.66920695 44.2400905,5.09242677 C43.4606335,4.37958562 42.1733484,4.00689688 40.4461425,4.00689688 Z M6.13133484,3.92111931 C3.15424208,3.92111931 1.5225,5.03918552 1.36700226,6.76558228 C1.35322398,6.91347464 1.46640271,7.04263396 1.61501131,7.04263396 L10.5974661,7.04263396 C10.7441063,7.04263396 10.8572851,6.91544653 10.8454751,6.76854013 C10.7096606,5.08355323 9.28262443,3.92111931 6.13133484,3.92111931 Z M74.9302262,-1.88095153e-14 C74.9725452,-1.88095153e-14 75.0079751,0.0345082162 75.0079751,0.0778899738 L75.0079751,1.00862586 C75.006991,1.05200762 74.9725452,1.08651584 74.9302262,1.08651584 L71.1254525,1.08651584 C71.0831335,1.08651584 71.0477036,1.05200762 71.0477036,1.00862586 L71.0477036,0.0778899738 C71.0477036,0.0354941653 71.0821493,-1.88095153e-14 71.1254525,-1.88095153e-14 L74.9302262,-1.88095153e-14 Z" id="logo-empatia" fill="#FFFFFF" fill-rule="nonzero"></path>
                        </g>
                    </g>
                </g>
            </g>
        </g>
    </g>
</svg>