<?xml version="1.0" encoding="UTF-8"?>
<svg width="36px" height="36px" viewBox="0 0 36 36" version="1.1" xmlns="http://www.w3.org/2000/svg" xmlns:xlink="http://www.w3.org/1999/xlink">
    <title>A211A4D4-E5A7-49F7-9AC7-A22CCBC6D9AF</title>
    <g id="Home-e-Busca---UI" stroke="none" stroke-width="1" fill="none" fill-rule="evenodd">
        <g id="desk_Home" transform="translate(-1003.000000, -3852.000000)">
            <rect fill="#FFFFFF" x="0" y="0" width="1220" height="4208"></rect>
            <g id="3.-group/footer-desktop" transform="translate(0.000000, 3733.000000)">
                <rect id="Rectangle" fill="#2C1338" x="0" y="0" width="1220" height="475"></rect>
                <g id="Group-2" transform="translate(20.000000, 84.000000)" fill="#FF8500">
                    <g id="Group-5" transform="translate(898.000000, 0.000000)">
                        <g id="1.-assets/icon/redes_twitter-copy-2" transform="translate(85.000000, 35.000000)">
                            <path d="M20.9925,10.6529167 L23.0009167,10.6529167 L23.0009167,7.15491667 C22.6544167,7.10725 21.46275,7 20.0749167,7 C17.1791667,7 15.1955,8.82141667 15.1955,12.1690833 L15.1955,15.25 L12,15.25 L12,19.1605 L15.1955,19.1605 L15.1955,29 L19.1133333,29 L19.1133333,19.1614167 L22.1795833,19.1614167 L22.6663333,15.2509167 L19.1124167,15.2509167 L19.1124167,12.5568333 C19.1133333,11.4265833 19.4176667,10.6529167 20.9925,10.6529167 L20.9925,10.6529167 Z" id="Combined-Shape"></path>
                        </g>
                    </g>
                </g>
            </g>
        </g>
    </g>
</svg>