<?xml version="1.0" encoding="UTF-8"?>
<svg width="40px" height="40px" viewBox="0 0 40 40" version="1.1" xmlns="http://www.w3.org/2000/svg" xmlns:xlink="http://www.w3.org/1999/xlink">
    <title>111EE2B6-BD40-4196-A043-71F7A1413BAB</title>
    <g id="Home-e-Busca---UI" stroke="none" stroke-width="1" fill="none" fill-rule="evenodd">
        <g id="desk_Home" transform="translate(-821.000000, -1138.000000)" fill="#F3E9E9">
            <g id="apoio" transform="translate(0.000000, 956.000000)">
                <g id="dev" transform="translate(819.000000, 182.000000)">
                    <path d="M38.1371511,27.5613846 C40.2673073,27.5613846 42,29.2940773 42,31.4242335 L42,35.6776819 C42,37.8078381 40.2673073,39.5405308 38.1371511,39.5405308 L5.86186834,39.5405308 C3.73236582,39.5405308 2,37.8078381 2,35.6776819 L2,31.4242335 C2,29.2940773 3.73236582,27.5613846 5.86186834,27.5613846 L38.1371511,27.5613846 Z M38.1371511,29.6781395 L5.86186834,29.6781395 C4.89926129,29.6781395 4.1161012,30.4612996 4.1161012,31.4242335 L4.1161012,35.6776819 C4.1161012,36.6409427 4.89926129,37.4241028 5.86186834,37.4241028 L38.1371511,37.4241028 C39.100085,37.4241028 39.8835719,36.6409427 39.8835719,35.6776819 L39.8835719,31.4242335 C39.8835719,30.4612996 39.100085,29.6781395 38.1371511,29.6781395 Z M25.438452,31.6970975 C25.6731385,31.6970975 25.8633719,31.8873308 25.8633719,32.1220174 L25.8633719,35.4795385 C25.8633719,35.6881487 25.713064,35.8616355 25.5148344,35.8976127 L25.438452,35.9044584 C25.2037654,35.9044584 25.0135321,35.714225 25.0135321,35.4795385 L25.0135321,32.1220174 C25.0135321,31.8873308 25.2037654,31.6970975 25.438452,31.6970975 Z M28.20017,31.6970975 C28.4348565,31.6970975 28.6250899,31.8873308 28.6250899,32.1220174 L28.6250899,35.4795385 C28.6250899,35.6881487 28.474782,35.8616355 28.2765524,35.8976127 L28.20017,35.9044584 C27.9654834,35.9044584 27.77525,35.714225 27.77525,35.4795385 L27.77525,32.1220174 C27.77525,31.8873308 27.9654834,31.6970975 28.20017,31.6970975 Z M30.961888,31.6970975 C31.1965745,31.6970975 31.3868079,31.8873308 31.3868079,32.1220174 L31.3868079,35.4795385 C31.3868079,35.6881487 31.2365,35.8616355 31.0382704,35.8976127 L30.961888,35.9044584 C30.7272014,35.9044584 30.536968,35.714225 30.536968,35.4795385 L30.536968,32.1220174 C30.536968,31.8873308 30.7272014,31.6970975 30.961888,31.6970975 Z M33.7236386,31.6970975 C33.9583252,31.6970975 34.1485585,31.8873308 34.1485585,32.1220174 L34.1485585,35.4795385 C34.1485585,35.6881487 33.9982507,35.8616355 33.8000211,35.8976127 L33.7236386,35.9044584 C33.4889521,35.9044584 33.2987187,35.714225 33.2987187,35.4795385 L33.2987187,32.1220174 C33.2987187,31.8873308 33.4889521,31.6970975 33.7236386,31.6970975 Z M36.4853566,31.6970975 C36.7200431,31.6970975 36.9102765,31.8873308 36.9102765,32.1220174 L36.9102765,35.4795385 C36.9102765,35.6881487 36.7599687,35.8616355 36.5617391,35.8976127 L36.4853566,35.9044584 C36.2503432,35.9044584 36.0604367,35.714225 36.0604367,35.4795385 L36.0604367,32.1220174 C36.0604367,31.8873308 36.2503432,31.6970975 36.4853566,31.6970975 Z M8.29191998,32.3788651 C8.93943257,32.3788651 9.46404524,32.9038047 9.46404524,33.5509904 C9.46404524,34.1981761 8.93943257,34.7231156 8.29191998,34.7231156 C7.64473426,34.7231156 7.11979473,34.1981761 7.11979473,33.5509904 C7.11979473,32.9038047 7.64473426,32.3788651 8.29191998,32.3788651 Z M13.7617507,32.3788651 C14.4092633,32.3788651 14.9338759,32.9038047 14.9338759,33.5509904 C14.9338759,34.1981761 14.4092633,34.7231156 13.7617507,34.7231156 C13.1145649,34.7231156 12.5896254,34.1981761 12.5896254,33.5509904 C12.5896254,32.9038047 13.1145649,32.3788651 13.7617507,32.3788651 Z M38.1371511,13.7808721 C40.2673073,13.7808721 42,15.5135648 42,17.6433941 L42,21.8971694 C42,24.0269988 40.2673073,25.7596914 38.1371511,25.7596914 L5.86186834,25.7596914 C3.73236582,25.7596914 2,24.0269988 2,21.8971694 L2,17.6433941 C2,15.5135648 3.73236582,13.7808721 5.86186834,13.7808721 L38.1371511,13.7808721 Z M38.1371511,15.8973001 L5.86186834,15.8973001 C4.89926129,15.8973001 4.1161012,16.6804602 4.1161012,17.6433941 L4.1161012,21.8971694 C4.1161012,22.8601033 4.89926129,23.6432634 5.86186834,23.6432634 L38.1371511,23.6432634 C39.100085,23.6432634 39.8835719,22.8601033 39.8835719,21.8971694 L39.8835719,17.6433941 C39.8835719,16.6804602 39.100085,15.8973001 38.1371511,15.8973001 Z M25.438452,17.666634 C25.6731385,17.666634 25.8633719,17.8568674 25.8633719,18.0915539 L25.8633719,21.449075 C25.8633719,21.6576852 25.713064,21.831172 25.5148344,21.8671492 L25.438452,21.8739949 C25.2037654,21.8739949 25.0135321,21.6837615 25.0135321,21.449075 L25.0135321,18.0915539 C25.0135321,17.8568674 25.2037654,17.666634 25.438452,17.666634 Z M28.20017,17.666634 C28.4348565,17.666634 28.6250899,17.8568674 28.6250899,18.0915539 L28.6250899,21.449075 C28.6250899,21.6576852 28.474782,21.831172 28.2765524,21.8671492 L28.20017,21.8739949 C27.9654834,21.8739949 27.77525,21.6837615 27.77525,21.449075 L27.77525,18.0915539 C27.77525,17.8568674 27.9654834,17.666634 28.20017,17.666634 Z M30.961888,17.666634 C31.1965745,17.666634 31.3868079,17.8568674 31.3868079,18.0915539 L31.3868079,21.449075 C31.3868079,21.6576852 31.2365,21.831172 31.0382704,21.8671492 L30.961888,21.8739949 C30.7272014,21.8739949 30.536968,21.6837615 30.536968,21.449075 L30.536968,18.0915539 C30.536968,17.8568674 30.7272014,17.666634 30.961888,17.666634 Z M33.7236386,17.666634 C33.9583252,17.666634 34.1485585,17.8568674 34.1485585,18.0915539 L34.1485585,21.449075 C34.1485585,21.6576852 33.9982507,21.831172 33.8000211,21.8671492 L33.7236386,21.8739949 C33.4889521,21.8739949 33.2987187,21.6837615 33.2987187,21.449075 L33.2987187,18.0915539 C33.2987187,17.8568674 33.4889521,17.666634 33.7236386,17.666634 Z M36.4853566,17.666634 C36.7200431,17.666634 36.9102765,17.8568674 36.9102765,18.0915539 L36.9102765,21.449075 C36.9102765,21.6576852 36.7599687,21.831172 36.5617391,21.8671492 L36.4853566,21.8739949 C36.2503432,21.8739949 36.0604367,21.6837615 36.0604367,21.449075 L36.0604367,18.0915539 C36.0604367,17.8568674 36.2503432,17.666634 36.4853566,17.666634 Z M8.29191998,18.5980258 C8.93943257,18.5980258 9.46404524,19.1229653 9.46404524,19.770151 C9.46404524,20.4173367 8.93943257,20.9422763 8.29191998,20.9422763 C7.64473426,20.9422763 7.11979473,20.4173367 7.11979473,19.770151 C7.11979473,19.1229653 7.64473426,18.5980258 8.29191998,18.5980258 Z M13.7617507,18.5980258 C14.4092633,18.5980258 14.9338759,19.1229653 14.9338759,19.770151 C14.9338759,20.4173367 14.4092633,20.9422763 13.7617507,20.9422763 C13.1145649,20.9422763 12.5896254,20.4173367 12.5896254,19.770151 C12.5896254,19.1229653 13.1145649,18.5980258 13.7617507,18.5980258 Z M38.1371511,2.30926389e-14 C40.2673073,2.30926389e-14 42,1.73269268 42,3.86284892 L42,8.11629731 C42,10.2461267 40.2673073,11.9788194 38.1371511,11.9788194 L5.86186834,11.9788194 C3.73236582,11.9788194 2,10.2461267 2,8.11629731 L2,3.86284892 C2,1.73269268 3.73236582,2.30926389e-14 5.86186834,2.30926389e-14 L38.1371511,2.30926389e-14 Z M38.1371511,2.11642806 L5.86186834,2.11642806 C4.89926129,2.11642806 4.1161012,2.89958815 4.1161012,3.86284892 L4.1161012,8.11629731 C4.1161012,9.07955808 4.89926129,9.86239132 5.86186834,9.86239132 L38.1371511,9.86239132 C39.100085,9.86239132 39.8835719,9.07955808 39.8835719,8.11629731 L39.8835719,3.86284892 C39.8835719,2.89958815 39.100085,2.11642806 38.1371511,2.11642806 Z M25.438452,3.63617049 C25.6731385,3.63617049 25.8633719,3.82640387 25.8633719,4.06109041 L25.8633719,7.41861149 C25.8633719,7.62722175 25.713064,7.80070852 25.5148344,7.8366857 L25.438452,7.84353141 C25.2037654,7.84353141 25.0135321,7.65329803 25.0135321,7.41861149 L25.0135321,4.06109041 C25.0135321,3.82640387 25.2037654,3.63617049 25.438452,3.63617049 Z M28.20017,3.63617049 C28.4348565,3.63617049 28.6250899,3.82640387 28.6250899,4.06109041 L28.6250899,7.41861149 C28.6250899,7.62722175 28.474782,7.80070852 28.2765524,7.8366857 L28.20017,7.84353141 C27.9654834,7.84353141 27.77525,7.65329803 27.77525,7.41861149 L27.77525,4.06109041 C27.77525,3.82640387 27.9654834,3.63617049 28.20017,3.63617049 Z M30.961888,3.63617049 C31.1965745,3.63617049 31.3868079,3.82640387 31.3868079,4.06109041 L31.3868079,7.41861149 C31.3868079,7.62722175 31.2365,7.80070852 31.0382704,7.8366857 L30.961888,7.84353141 C30.7272014,7.84353141 30.536968,7.65329803 30.536968,7.41861149 L30.536968,4.06109041 C30.536968,3.82640387 30.7272014,3.63617049 30.961888,3.63617049 Z M33.7236386,3.63617049 C33.9583252,3.63617049 34.1485585,3.82640387 34.1485585,4.06109041 L34.1485585,7.41861149 C34.1485585,7.62722175 33.9982507,7.80070852 33.8000211,7.8366857 L33.7236386,7.84353141 C33.4889521,7.84353141 33.2987187,7.65329803 33.2987187,7.41861149 L33.2987187,4.06109041 C33.2987187,3.82640387 33.4889521,3.63617049 33.7236386,3.63617049 Z M36.4853566,3.63617049 C36.7200431,3.63617049 36.9102765,3.82640387 36.9102765,4.06109041 L36.9102765,7.41861149 C36.9102765,7.62722175 36.7599687,7.80070852 36.5617391,7.8366857 L36.4853566,7.84353141 C36.2503432,7.84353141 36.0604367,7.65329803 36.0604367,7.41861149 L36.0604367,4.06109041 C36.0604367,3.82640387 36.2503432,3.63617049 36.4853566,3.63617049 Z M8.29191998,4.81748055 C8.93943257,4.81748055 9.46404524,5.34242008 9.46404524,5.98960581 C9.46404524,6.63679153 8.93943257,7.16173106 8.29191998,7.16173106 C7.64473426,7.16173106 7.11979473,6.63679153 7.11979473,5.98960581 C7.11979473,5.34242008 7.64473426,4.81748055 8.29191998,4.81748055 Z M13.7617507,4.81748055 C14.4092633,4.81748055 14.9338759,5.34242008 14.9338759,5.98960581 C14.9338759,6.63679153 14.4092633,7.16173106 13.7617507,7.16173106 C13.1145649,7.16173106 12.5896254,6.63679153 12.5896254,5.98960581 C12.5896254,5.34242008 13.1145649,4.81748055 13.7617507,4.81748055 Z" id="Combined-Shape"></path>
                </g>
            </g>
        </g>
    </g>
</svg>