<?xml version="1.0" encoding="UTF-8"?>
<svg width="40px" height="54px" viewBox="0 0 40 54" version="1.1" xmlns="http://www.w3.org/2000/svg" xmlns:xlink="http://www.w3.org/1999/xlink">
    <title>833D8FCC-8080-4E41-AF68-D17B95C93D21</title>
    <g id="Home-e-Busca---UI" stroke="none" stroke-width="1" fill="none" fill-rule="evenodd">
        <g id="desk_Home" transform="translate(-23.000000, -1131.000000)" fill="#F3E9E9">
            <g id="apoio" transform="translate(0.000000, 956.000000)">
                <g id="Media-body" transform="translate(21.000000, 175.000000)">
                    <path d="M23.8464598,16.8676669 C23.8690174,16.8676669 23.8912782,16.8685574 23.9138358,16.8700414 L23.9138358,16.8700414 L23.9491563,16.8724159 C23.9705267,16.8747904 23.9913034,16.8783521 24.0120802,16.881617 C24.0224686,16.8833979 24.0334506,16.8842883 24.0441358,16.886366 L24.0441358,16.886366 L40.8860692,20.34807 C41.0193372,20.3753766 41.1386552,20.4320674 41.2425389,20.5068637 C41.3384088,20.5496045 41.4298265,20.6024368 41.5135272,20.6677352 C41.8210231,20.906371 42,21.2664025 42,21.6466171 L42,21.6466171 L42,47.7917872 C42,48.3836279 41.5711084,48.8953297 40.9703634,49.0208806 L40.9703634,49.0208806 L20.4251221,53.1886974 C20.4179986,53.1898847 20.4105783,53.1904783 20.4034549,53.1916656 C20.3737738,53.1976018 20.3440927,53.2023507 20.313818,53.2059125 C20.3010552,53.2073965 20.2879955,53.2094742 20.2749358,53.2106614 C20.2330855,53.21452 20.1909384,53.2168945 20.1487912,53.2168945 C20.1066441,53.2168945 20.0647938,53.21452 20.0235371,53.2109583 C20.0104774,53.209771 19.9977146,53.2076933 19.9849517,53.2059125 C19.9552706,53.2023507 19.9261832,53.1981954 19.8967989,53.192556 C19.8899722,53.1910719 19.8828488,53.1907751 19.8760221,53.1895879 L19.8760221,53.1895879 L3.03379191,49.7275871 C2.43067242,49.603817 2,49.0915216 2,48.4979001 L2,48.4979001 L2,22.3530267 C2,21.9734058 2.17808646,21.6139679 2.48469198,21.3750352 C2.56868943,21.3094401 2.66070077,21.2563109 2.75686746,21.2132734 C2.86015761,21.1390707 2.9785851,21.0826766 3.11066589,21.0550732 L3.11066589,21.0550732 L23.6559073,16.8872564 C23.6713414,16.8839915 23.6864788,16.8825075 23.7013193,16.880133 C23.7158631,16.8780553 23.7304068,16.8750872 23.7452473,16.8736031 C23.7669145,16.8709318 23.7885817,16.8700414 23.8105457,16.8688542 C23.8224181,16.8685574 23.8342905,16.8676669 23.8464598,16.8676669 Z M4.61282519,23.9071279 L4.61282519,47.4804328 L18.8419334,50.4052061 L18.8419334,26.8319012 L4.61282519,23.9071279 Z M39.3871748,23.2060609 L21.4550554,26.8286363 L21.4550554,50.3998635 L39.3871748,46.7775849 L39.3871748,23.2060609 Z M22.9293145,18.8557054 L7.56431147,21.9419438 L20.1464168,24.528056 L22.9293145,24.0677025 L22.9293145,18.8557054 Z M24.7736966,18.8518469 L24.7736966,23.682739 L36.4350949,21.2485939 L24.7736966,18.8518469 Z M9.79822804,4.52897615 L16.1692712,10.6937358 C16.4661032,11.1493191 16.3677891,11.7482197 15.9594054,12.0873943 L15.8596975,12.1608714 C15.3690693,12.4805366 14.7122271,12.3416292 14.3925619,11.851001 L8.02122197,5.68653815 C7.70185358,5.19561314 7.8401674,4.53877091 8.33109241,4.21910571 C8.82172061,3.89973732 9.47856284,4.03834795 9.79822804,4.52897615 Z M31.8868557,4.2600656 C32.2062241,3.76973421 32.8630664,3.63082677 33.3539914,3.95049196 C33.8446196,4.27015716 33.983527,4.92699939 33.6638618,5.41762759 L33.6638618,5.41762759 L28.3601502,11.851001 C28.040485,12.3416292 27.3836428,12.4805366 26.8930146,12.1608714 L26.8930146,12.1608714 L26.7933067,12.0873943 C26.384923,11.7482197 26.286609,11.1493191 26.5834409,10.6937358 L26.5834409,10.6937358 Z M21.7022988,-7.99360578e-15 C22.2882033,-7.99360578e-15 22.7625069,0.474600419 22.7625069,1.06020806 L22.7625069,1.06020806 L22.7625069,9.65139575 C22.7625069,10.2370034 22.2882033,10.7116038 21.7022988,10.7116038 L21.7022988,10.7116038 L21.5867651,10.7053835 C21.0555204,10.6478304 20.6420907,10.1979629 20.6420907,9.65139575 L20.6420907,9.65139575 L20.6420907,1.06020806 C20.6420907,0.474600419 21.1166912,-7.99360578e-15 21.7022988,-7.99360578e-15 Z" id="Combined-Shape"></path>
                </g>
            </g>
        </g>
    </g>
</svg>