<?xml version="1.0" encoding="UTF-8"?>
<svg width="36px" height="36px" viewBox="0 0 36 36" version="1.1" xmlns="http://www.w3.org/2000/svg" xmlns:xlink="http://www.w3.org/1999/xlink">
    <title>11426FB4-9CEB-4507-8D85-D74BD384EB23</title>
    <defs>
        <filter x="-5.7%" y="-6.5%" width="111.2%" height="112.8%" filterUnits="objectBoundingBox" id="filter-1">
            <feOffset dx="0" dy="2" in="SourceAlpha" result="shadowOffsetOuter1"></feOffset>
            <feGaussianBlur stdDeviation="5" in="shadowOffsetOuter1" result="shadowBlurOuter1"></feGaussianBlur>
            <feColorMatrix values="0 0 0 0 0   0 0 0 0 0   0 0 0 0 0  0 0 0 0.2 0" type="matrix" in="shadowBlurOuter1" result="shadowMatrixOuter1"></feColorMatrix>
            <feMerge>
                <feMergeNode in="shadowMatrixOuter1"></feMergeNode>
                <feMergeNode in="SourceGraphic"></feMergeNode>
            </feMerge>
        </filter>
    </defs>
    <g id="Home-e-Busca---UI" stroke="none" stroke-width="1" fill="none" fill-rule="evenodd">
        <g id="desk_Home-inputdelocal" transform="translate(-537.000000, -544.000000)">
            <g id="Group" filter="url(#filter-1)" transform="translate(521.000000, 352.000000)">
                <rect id="Rectangle" stroke="#979797" fill="#FFFFFF" x="0" y="0" width="382" height="292"></rect>
                <g id="3.-layout_list-search-suggestion">
                    <rect id="Rectangle" fill="#FEF8F8" x="0" y="0" width="414" height="362"></rect>
                    <g id="sugestao-copy-5" transform="translate(0.000000, 180.000000)">
                        <rect id="Rectangle" fill="#FEF8F8" x="0" y="0" width="414" height="60"></rect>
                        <g id="1.-assets_icon-pin" transform="translate(16.000000, 12.000000)" fill="#2C1338" fill-rule="nonzero">
                            <path d="M17.8333333,3 C23.8069608,3 28.6666667,7.97131682 28.6666667,14.0821382 C28.6666667,16.0945241 27.7853431,18.2581486 27.7483824,18.3487614 C27.4635294,19.0404172 26.9021078,20.1147327 26.4961765,20.7444589 L26.4961765,20.7444589 L19.0676961,32.2581486 C18.7637255,32.7294654 18.3138235,33 17.8333333,33 C17.3528431,33 16.9029412,32.7294654 16.5989706,32.2574967 L16.5989706,32.2574967 L9.17112745,20.7444589 C8.76583333,20.1147327 8.20377451,19.0404172 7.91892157,18.3487614 C7.88196078,18.2574967 7,16.0938722 7,14.0821382 C7,7.97131682 11.8597059,3 17.8333333,3 Z M17.8333333,4.30378096 C12.562598,4.30378096 8.2745098,8.69035202 8.2745098,14.0821382 C8.2745098,15.8239896 9.08318627,17.815515 9.09401961,17.8422425 C9.34828431,18.4621904 9.87147059,19.4621904 10.2353431,20.0267275 L10.2353431,20.0267275 L17.6638235,31.5404172 C17.8103922,31.767927 17.8569118,31.767927 18.0034804,31.5404172 L18.0034804,31.5404172 L25.4319608,20.0267275 C25.7958333,19.4621904 26.3190196,18.4628422 26.5732843,17.8428944 C26.5815686,17.8233377 27.3921569,15.8265971 27.3921569,14.0821382 C27.3921569,8.69035202 23.1040686,4.30378096 17.8333333,4.30378096 Z M17.8333333,8 C21.0500926,8 23.6666667,10.6172222 23.6666667,13.8333333 C23.6666667,17.0494444 21.0500926,19.6666667 17.8333333,19.6666667 C14.6165741,19.6666667 12,17.0494444 12,13.8333333 C12,10.6172222 14.6165741,8 17.8333333,8 Z M17.8333333,9.2962963 C15.3321296,9.2962963 13.2962963,11.3314815 13.2962963,13.8333333 C13.2962963,16.3351852 15.3321296,18.3703704 17.8333333,18.3703704 C20.334537,18.3703704 22.3703704,16.3351852 22.3703704,13.8333333 C22.3703704,11.3314815 20.334537,9.2962963 17.8333333,9.2962963 Z" id="Combined-Shape"></path>
                        </g>
                    </g>
                </g>
            </g>
        </g>
    </g>
</svg>