<?xml version="1.0" encoding="UTF-8" standalone="no"?>
<svg
   width="60 px"
   height="24px"
   viewBox="0 0 60 24"
   version="1.1"
   id="svg641"
   sodipodi:docname="icict.svg"
   inkscape:version="1.1.2 (0a00cf5339, 2022-02-04, custom)"
   xmlns:inkscape="http://www.inkscape.org/namespaces/inkscape"
   xmlns:sodipodi="http://sodipodi.sourceforge.net/DTD/sodipodi-0.dtd"
   xmlns="http://www.w3.org/2000/svg"
   xmlns:svg="http://www.w3.org/2000/svg"
   xmlns:rdf="http://www.w3.org/1999/02/22-rdf-syntax-ns#"
   xmlns:cc="http://creativecommons.org/ns#"
   xmlns:dc="http://purl.org/dc/elements/1.1/">
  <sodipodi:namedview
     id="namedview643"
     pagecolor="#ffffff"
     bordercolor="#999999"
     borderopacity="1"
     inkscape:pageshadow="0"
     inkscape:pageopacity="0"
     inkscape:pagecheckerboard="0"
     showgrid="false"
     inkscape:zoom="4.8148148"
     inkscape:cx="-20.665385"
     inkscape:cy="2.7"
     inkscape:window-width="1904"
     inkscape:window-height="1020"
     inkscape:window-x="1928"
     inkscape:window-y="32"
     inkscape:window-maximized="1"
     inkscape:current-layer="logo-ju1.-assets_logo-jurema"
     inkscape:snap-to-guides="true"
     inkscape:snap-grids="true"
     showguides="true" />
  <title
     id="title624">FDF78F6A-ECBB-4793-A66D-1B95BD760FF7</title>
  <defs
     id="defs629">
    <filter
       id="logo-jufilter-1"
       x="0"
       y="0"
       width="1"
       height="1">
      <feColorMatrix
         in="SourceGraphic"
         type="matrix"
         values="0 0 0 0 0.952941 0 0 0 0 0.913725 0 0 0 0 0.913725 0 0 0 1.000000 0"
         id="feColorMatrix626" />
    </filter>
  </defs>
  <g
     id="logo-juHome-e-Busca---UI"
     stroke="none"
     stroke-width="1"
     fill="none"
     fill-rule="evenodd"
     style="display:inline"
     transform="translate(2.3773873,-25.0838)">
    <g
       id="logo-judesk_Home"
       transform="translate(-671,-3621)">
      <g
         id="logo-julogos"
         transform="translate(0,3485)">
        <g
           id="logo-ju1.-assets_logo-jurema"
           transform="translate(522.20417,69.512881)"
           filter="url(#logo-jufilter-1)">
          <g
             transform="matrix(0.0075833,0,0,-0.0075833,139.07848,122.68776)"
             fill="#000000"
             stroke="none"
             id="g3513">
            <path
               id="path3511"
               d="m 7585.4701,1066.5745 c -22,-13 -47,-61 -47,-92.00002 0,-72 44,-117 114,-117 47,0 66,9 66,31 0,16 -4,17 -26,9 -38,-15 -62,-12 -84,10 -39,39 -27,50 56,50 h 77 l -6,36 c -9,54.00002 -42,84.00002 -91,84.00002 -23,0 -49,-5 -59,-11 z m 91,-31 c 7,-7 12,-20 12,-30 0,-15.00002 -9,-18.00002 -50,-18.00002 -37,0 -50,4 -50,14.00002 0,37 61,61 88,34 z m -638,-48.00002 c 0,-77 3,-93 20,-110 23,-23 88,-27 109,-7 11,10 14,10 18,0 3,-7 13,-13 24,-13 18,0 19,8 19,110 0,101.00002 -2,110.00002 -19,110.00002 -16,0 -19,-9 -23,-74 -4,-79.00002 -23,-116.00002 -59,-116.00002 -37,0 -49,27 -49,111 0,72.00002 -2,79.00002 -20,79.00002 -19,0 -20,-7 -20,-90.00002 z m -218,78.00002 c -22,-22 -12,-28 34,-21 39,5 49,3 60,-12 21,-28 18,-32 -31,-37.00002 -64,-8 -95,-31 -95,-72 0,-19 8,-40 18,-49 21,-19 73,-22 102,-7 13,7 21,7 25,0 3,-5 13,-10 21,-10 11,0 14,18 14,90 0,77.00002 -3,93.00002 -20,110.00002 -23,23 -108,28 -128,8 z m 103,-128.00002 c 0,-32 -46,-60 -72,-44 -26,16 -22,46 7,61 38,20 65,13 65,-17 z m -825,29 c 0,-100 2,-110 18,-107 14,3 18,17 22,79 5,78.00002 19,109.00002 49,109.00002 33,0 41,-22 41,-107.00002 0,-76 2,-83 20,-83 18,0 20,7 20,59 0,77 15,119.00002 47,127.00002 38,10 48,-10 52,-101.00002 3,-77 5,-85 23,-85 19,0 20,6 16,96 -2,81.00002 -6,98.00002 -22,110.00002 -26,18 -76,18 -103,-1 -18,-13 -22,-13 -33,0 -14,17 -86,20 -96,4 -4,-8 -9,-8 -17,0 -6,6 -17,11 -24,11 -10,0 -13,-27 -13,-111.00002 z m -224,80.00002 c -20,-24 -26,-41 -26,-81.00002 0,-41 5,-54 29,-79 24,-23 38,-29 74,-29 59,0 77,8 77,32 0,15 -4,18 -17,13 -45,-19 -72,-17 -97,8 -40,40 -33,47 49,47 h 75 v 35 c 0,52.00002 -36,85.00002 -94,85.00002 -37,0 -48,-5 -70,-31 z m 106,-16 c 32,-29 22,-43.00002 -31,-43.00002 -57,0 -66,8 -45,38.00002 18,26 50,28 76,5 z m -449,40 c -7,-2 -13,-13 -13,-24 0,-16 3,-18 19,-9 29,15 67,12 85,-6 25,-24 19,-31 -29,-36.00002 -64,-8 -95,-31 -95,-72 0,-19 8,-40 18,-49 21,-19 73,-22 102,-7 13,7 21,7 25,0 3,-5 13,-10 21,-10 11,0 14,17 14,81 0,77.00002 -10,115.00002 -34,131.00002 -12,9 -94,9 -113,1 z m 103,-117.00002 c 16,-41 -52,-84 -83,-53 -19,19 -11,45 19,57 34,13 58,12 64,-4 z m -289,104.00002 c -36,-29 -52,-81.00002 -37,-125.00002 16,-49 53,-75 106,-75 37,0 44,3 44,20 0,16 -5,19 -28,14 -42,-9 -82,27 -82,75 0,52.00002 31,84.00002 76,79.00002 28,-3 34,-1 34,14 0,26 -78,25 -113,-2 z m -137,-90.00002 c 0,-103 1,-110 20,-110 19,0 20,7 20,110 0,103.00002 -1,110.00002 -20,110.00002 -19,0 -20,-7 -20,-110.00002 z m -242,93.00002 c -43,-49 -50,-109.00002 -18,-160.00002 22,-36 74,-52 108,-34 29,15 32,14 32,-14 0,-15 -9,-31 -25,-41 -24,-15 -40,-15 -97,2 -13,4 -18,0 -18,-14 0,-21 25,-32 77,-32 91,0 113,39 113,200 0,102.00002 -1,110.00002 -19,110.00002 -11,0 -21,-6 -24,-12 -4,-10 -7,-10 -18,0 -20,19 -93,15 -111,-5 z m 104,-30 c 23,-21 24,-89.00002 1,-115.00002 -30,-34 -75,-21 -93,26 -26,70.00002 41,135.00002 92,89.00002 z m -364,24 c -95,-88.00002 7,-240.00002 125,-186.00002 69,32 75,163.00002 8,199.00002 -36,19 -106,12 -133,-13 z m 118,-28 c 28,-31.00002 25,-96.00002 -5,-120.00002 -49,-40 -101,-8 -101,61 0,70.00002 64,106.00002 106,59.00002 z m -485,35 c -37,-26 -54,-77.00002 -41,-124.00002 14,-53 51,-80 107,-80 36,0 50,6 74,29 25,25 29,37 29,81 0,44.00002 -4,56.00002 -29,81.00002 -24,23 -38,29 -73,29 -24,0 -54,-7 -67,-16 z m 108,-40 c 12,-15 21,-39.00002 21,-54.00002 0,-35 -35,-80 -63,-80 -34,0 -67,39 -67,80 0,72.00002 68,106.00002 109,54.00002 z m -399,-54.00002 c 0,-103 1,-110 20,-110 18,0 20,7 20,69 0,78.00002 23,121.00002 65,121.00002 34,0 45,-27 45,-114.00002 0,-69 2,-76 20,-76 19,0 20,7 20,90 0,77.00002 -3,93.00002 -20,110.00002 -22,22 -78,27 -111,10 -13,-7 -19,-7 -19,0 0,5 -9,10 -20,10 -19,0 -20,-7 -20,-110.00002 z m -168,85.00002 c -37,-31 -48,-81.00002 -28,-128.00002 19,-46 51,-67 103,-67 36,0 43,3 43,20 0,16 -5,19 -28,14 -19,-4 -36,1 -55,16 -58,46 -19,148.00002 52,138.00002 25,-4 31,-1 31,14 0,29 -80,25 -118,-7 z m -225,14 c -22,-13 -47,-61 -47,-92.00002 0,-72 44,-117 114,-117 47,0 66,9 66,31 0,16 -4,17 -26,9 -38,-15 -62,-12 -84,10 -39,39 -27,50 56,50 h 76 l -7,38 c -10,55.00002 -40,82.00002 -89,82.00002 -23,0 -49,-5 -59,-11 z m 91,-31 c 7,-7 12,-20 12,-30 0,-15.00002 -9,-18.00002 -50,-18.00002 -37,0 -50,4 -50,14.00002 0,37 61,61 88,34 z m -685,27 c -42,-29 -53,-122.00002 -20,-166.00002 18,-24 52,-39 91,-39 47,0 66,9 66,30 0,16 -4,17 -35,7 -31,-9 -39,-8 -63,10 -15,11 -28,28 -30,37 -3,14 7,16 72,16 75,0 76,0 76,25 0,33.00002 -25,81.00002 -45,89.00002 -30,11 -90,6 -112,-9 z m 101,-37 c 21,-30.00002 12,-38.00002 -45,-38.00002 -53,0 -61,10 -32,42.00002 22,24 59,23 77,-4 z m -451,45 c -7,-2 -13,-13 -13,-24 0,-16 3,-18 19,-9 26,14 64,13 79,-2 21,-21 14,-38.00002 -17,-38.00002 -91,0 -143,-68 -91,-120 23,-23 89,-27 108,-8 10,10 15,10 21,-1 5,-8 16,-11 26,-7 15,5 17,18 13,91 -5,105.00002 -20,125.00002 -87,124.00002 -25,0 -52,-3 -58,-6 z m 97,-127.00002 c 0,-43 -43,-69 -78,-47 -22,14 -10,54 18,62 48,13 60,10 60,-15 z m -283,123.00002 c -25,-15 -47,-63 -47,-105.00002 0,-28 8,-44 34,-70 29,-29 41,-34 80,-34 39,0 46,3 46,20 0,17 -5,19 -24,14 -37,-9 -64,4 -82,37 -30,59 10,125.00002 73,117.00002 20,-2 29,2 31,15 3,14 -4,17 -45,17 -26,0 -56,-5 -66,-11 z m -142,-2 c -3,-7 -4,-56 -3,-108.00002 3,-86 5,-94 23,-94 19,0 20,7 20,105 0,92.00002 -2,105.00002 -18,108.00002 -9,2 -19,-3 -22,-11 z m -285,-97.00002 c 0,-103 1,-110 20,-110 19,0 20,7 20,110 0,103.00002 -1,110.00002 -20,110.00002 -19,0 -20,-7 -20,-110.00002 z m -430,0 c 0,-101 2,-110 19,-110 16,0 19,9 23,74 4,82.00002 23,116.00002 64,116.00002 33,0 44,-28 44,-114.00002 0,-69 2,-76 20,-76 19,0 20,7 20,90 0,77.00002 -3,93.00002 -20,110.00002 -23,23 -88,27 -109,8 -11,-10 -14,-10 -18,0 -3,6 -13,12 -24,12 -18,0 -19,-8 -19,-110.00002 z m -203,99.00002 c -22,-13 -47,-61 -47,-92.00002 0,-72 44,-117 114,-117 47,0 66,9 66,31 0,16 -4,17 -26,9 -38,-15 -62,-12 -84,10 -39,39 -27,50 56,50 h 76 l -7,38 c -10,55.00002 -40,82.00002 -89,82.00002 -23,0 -49,-5 -59,-11 z m 91,-31 c 7,-7 12,-20 12,-30 0,-15.00002 -9,-18.00002 -50,-18.00002 -37,0 -50,4 -50,14.00002 0,37 61,61 88,34 z m -238,-68.00002 c 0,-103 1,-110 20,-110 19,0 20,7 20,110 0,103.00002 -1,110.00002 -20,110.00002 -19,0 -20,-7 -20,-110.00002 z m 637,163.00002 c -4,-3 -7,-17 -7,-30 0,-18 -5,-23 -25,-23 -32,0 -34,-27 -2,-32 20,-3 22,-9 27,-86.00002 5,-91 13,-102 68,-102 22,0 32,5 32,15 0,8 -8,15 -19,15 -32,0 -42,24 -39,92 3,61.00002 4,63.00002 31,66.00002 35,4 30,26 -6,30 -22,3 -27,8 -27,33 0,27 -17,39 -33,22 z m 4645,7 c -25,-23 -30,-77 -9,-102 6,-8 33,-27 60,-42.00002 35,-20 47,-33 47,-50 0,-36 -24,-49 -75,-44 -38,5 -45,3 -45,-12 0,-21 19,-30 65,-30 46,0 81,17 94,47 24,52 5,92 -59,127.00002 -78,43 -75,86 6,86 37,0 44,3 44,20 0,17 -7,20 -53,20 -40,0 -59,-5 -75,-20 z m -3242,0 c 0,-17 7,-20 45,-20 h 44 l 3,-127.00002 c 3,-120 4,-128 23,-128 19,0 20,8 23,128 l 3,127.00002 h 44 c 38,0 45,3 45,20 0,19 -7,20 -115,20 -108,0 -115,-1 -115,-20 z m -2237,4 c -97,-49 -98,-214.00002 -2,-266.00002 48,-26 143,-22 147,7 2,18 -2,20 -48,17 -62,-5 -95,14 -117,66 -19,46.00002 -5,101.00002 35,132.00002 22,18 37,21 80,18 49,-4 53,-3 50,16 -3,18 -11,21 -58,24 -35,1 -67,-4 -87,-14 z m 6005,-4 c -16,-28 -16,-30 0,-29 9,0 27,13 40,30 l 24,29 h -24 c -15,0 -29,-10 -40,-30 z m -1918,10 c 0,-13 7,-20 20,-20 13,0 20,7 20,20 0,13 -7,20 -20,20 -13,0 -20,-7 -20,-20 z m -435,-10 c -12,-24 -13,-30 -2,-30 7,0 26,14 42,30 l 29,30 h -27 c -19,0 -31,-8 -42,-30 z m -2395,10 c 0,-15 7,-20 25,-20 18,0 25,5 25,20 0,15 -7,20 -25,20 -18,0 -25,-5 -25,-20 z m -256,-5 c -9,-14 -14,-29 -10,-32 9,-10 36,8 54,35 13,20 13,22 -7,22 -11,0 -28,-11 -37,-25 z m -804,5 c 0,-15 7,-20 25,-20 18,0 25,5 25,20 0,15 -7,20 -25,20 -18,0 -25,-5 -25,-20 z m 6130,-30 c 0,-55 -10,-75 -25,-50 -3,6 -26,10 -50,10 -35,0 -48,-5 -64,-27 -62,-78.00002 -22,-193.00002 67,-193.00002 21,0 44,6 51,13 11,10 14,10 18,0 3,-7 13,-13 24,-13 18,0 19,9 19,160.00002 0,153 -1,160 -20,160 -18,0 -20,-7 -20,-60 z m -24,-91 c 28,-31.00002 25,-96.00002 -5,-120.00002 -30,-24 -46,-24 -71,1 -25,25 -27,95.00002 -3,122.00002 21,24 55,23 79,-3 z m -2856,-9 c 0,-153.00002 1,-160.00002 20,-160.00002 19,0 20,7 20,160.00002 0,153 -1,160 -20,160 -19,0 -20,-7 -20,-160 z m -2287,160 c -26,-11 -43,-40 -43,-74 0,-21 -5,-26 -25,-26 -32,0 -34,-27 -2,-32 21,-3 22,-8 25,-95.00002 2,-84 5,-93 22,-93 17,0 20,9 22,93 l 3,92.00002 28,3 c 38,5 36,32 -3,32 -23,0 -30,5 -30,19 0,35 12,51 36,51 27,0 33,24 8,34 -9,3 -16,6 -17,5 -1,0 -12,-4 -24,-9 z m 2597,295 c 0,-98 1,-105 20,-105 19,0 20,7 20,105 0,98 -1,105 -20,105 -19,0 -20,-7 -20,-105 z m -530,35 c 0,-96 18,-137 63,-145 19,-4 44,-2 55,4 11,6 34,8 51,5 l 31,-6 v 106 106 h -25 c -24,0 -25,-2 -25,-73 0,-82 -15,-107 -63,-107 -22,0 -28,6 -36,38 -6,20 -11,61 -11,90 0,45 -3,52 -20,52 -18,0 -20,-7 -20,-70 z m -2300,-15 c 0,-78 2,-88 25,-110 28,-29 70,-32 103,-9 12,8 22,10 22,5 0,-6 9,-11 20,-11 19,0 20,7 20,105 0,98 -1,105 -20,105 -18,0 -20,-7 -20,-68 0,-81 -17,-112 -60,-112 -39,0 -50,23 -50,109 0,64 -2,71 -20,71 -18,0 -20,-7 -20,-85 z m -280,-20 c 0,-98 1,-105 20,-105 19,0 20,7 20,105 0,98 -1,105 -20,105 -19,0 -20,-7 -20,-105 z m 6834,96 c -29,-18 -54,-63 -54,-98 0,-33 35,-86 65,-100 72,-34 155,18 155,97 0,54 -17,86 -55,105 -44,20 -73,19 -111,-4 z m 105,-35 c 21,-26 25,-83 7,-111 -22,-33 -78,-35 -100,-3 -37,53 -9,128 48,128 19,0 39,-6 45,-14 z m -346,42 c -41,-20 -28,-38 22,-31 47,6 75,-6 75,-33 0,-10 -13,-14 -44,-14 -58,0 -96,-29 -96,-75 0,-42 22,-59 73,-58 23,1 57,2 75,3 h 32 v 84 c 0,65 -4,89 -18,106 -20,25 -86,35 -119,18 z m 97,-124 c 0,-34 -20,-54 -55,-54 -19,0 -35,2 -35,4 0,2 -3,11 -6,19 -8,22 24,47 62,47 24,0 34,-4 34,-16 z m -276,120 c -59,-29 -74,-119 -28,-173 14,-17 32,-31 40,-31 17,0 18,-12 2,-28 -12,-12 -10,-13 15,-16 23,-2 13,-31 -11,-30 -26,1 -24,-19 2,-24 23,-5 66,24 66,44 0,9 -9,18 -20,21 -29,8 -24,20 11,27 43,8 31,30 -19,34 -49,4 -72,29 -72,79 0,44 30,73 76,73 28,0 35,3 32,18 -4,23 -54,27 -94,6 z m -241,6 c -43,-18 -27,-36 30,-35 46,0 52,-2 55,-22 3,-20 -1,-23 -33,-23 -90,0 -133,-63 -80,-115 28,-29 70,-32 103,-9 12,8 22,10 22,5 0,-6 9,-11 21,-11 20,0 21,4 17,90 -2,65 -7,94 -19,105 -20,20 -86,28 -116,15 z m 91,-118 c 3,-4 -1,-19 -7,-33 -16,-32 -80,-35 -85,-5 -2,11 4,26 14,33 20,14 70,18 78,5 z m -442,112 c -12,-8 -22,-10 -22,-5 0,6 -9,11 -20,11 -19,0 -20,-7 -20,-105 0,-98 1,-105 20,-105 18,0 20,7 20,63 0,76 16,111 53,115 35,4 47,-25 47,-114 0,-57 2,-64 20,-64 18,0 20,7 20,71 0,85 11,109 49,109 36,0 41,-13 41,-106 0,-67 2,-74 20,-74 19,0 20,7 20,89 0,85 -1,91 -26,110 -32,25 -49,26 -87,6 -26,-13 -31,-13 -50,0 -28,19 -57,19 -85,-1 z m -160,8 c -7,-5 -24,-7 -38,-4 l -24,4 v -106 c 0,-99 1,-106 20,-106 18,0 20,7 20,68 0,78 17,112 56,112 19,0 25,5 22,18 -4,19 -36,27 -56,14 z m -288,-11 c -43,-26 -61,-80 -45,-133 36,-120 211,-90 211,37 0,89 -93,143 -166,96 z m 111,-51 c 31,-60 8,-120 -47,-120 -43,0 -68,25 -68,69 0,52 23,81 65,81 28,0 37,-6 50,-30 z m -507,54 c -16,-8 -28,-10 -28,-4 0,5 -9,10 -20,10 -19,0 -20,-7 -20,-105 0,-98 1,-105 20,-105 17,0 20,7 20,48 0,76 17,121 47,128 47,12 58,-5 61,-95 3,-73 5,-81 22,-81 18,0 20,7 20,89 0,85 -1,91 -26,110 -31,25 -58,26 -96,5 z m -497,2 c -32,-18 -50,-53 -51,-99 0,-82 55,-126 140,-112 30,5 40,11 40,25 0,16 -6,18 -34,13 -49,-8 -81,3 -94,31 l -11,25 77,3 c 75,3 77,3 74,28 -8,84 -73,124 -141,86 z m 93,-48 c 15,-24 5,-30 -53,-26 l -52,3 17,23 c 19,27 71,27 88,0 z m -470,43 c -29,-18 -54,-63 -54,-98 0,-33 35,-86 65,-100 75,-36 155,18 155,103 0,54 -21,89 -62,103 -44,16 -69,14 -104,-8 z m 110,-43 c 38,-53 9,-128 -49,-128 -40,0 -65,29 -65,75 0,46 25,75 65,75 24,0 39,-7 49,-22 z m -344,53 c -14,-4 -26,-15 -28,-24 -3,-15 3,-16 42,-11 30,5 51,2 61,-6 28,-23 17,-37 -35,-42 -28,-3 -59,-13 -70,-23 -23,-21 -26,-63 -6,-90 14,-19 18,-19 129,-15 l 37,2 v 84 c 0,77 -2,87 -25,109 -24,25 -55,30 -105,16 z m 90,-127 c 0,-46 -57,-73 -88,-42 -16,16 -15,23 4,42 21,21 84,22 84,0 z m -276,120 c -59,-29 -74,-119 -28,-173 14,-17 32,-31 40,-31 17,0 18,-12 2,-28 -12,-12 -10,-13 14,-16 7,0 14,-9 16,-18 3,-14 -3,-18 -24,-18 -20,0 -25,-3 -17,-11 16,-16 71,-1 78,22 8,23 -1,39 -21,39 -26,0 -14,17 16,24 49,9 39,36 -14,36 -52,0 -76,24 -76,75 0,49 25,75 71,75 33,0 40,3 37,18 -4,23 -54,27 -94,6 z m -241,6 c -43,-17 -27,-36 30,-35 46,0 52,-2 55,-22 3,-20 -1,-23 -33,-23 -77,0 -124,-54 -90,-106 19,-29 59,-40 96,-27 15,6 39,8 53,6 26,-5 26,-5 26,64 0,39 -5,85 -11,102 -16,46 -70,63 -126,41 z m 92,-120 c 4,-6 -1,-22 -10,-36 -13,-20 -23,-25 -48,-22 -62,6 -39,68 24,68 15,0 31,-5 34,-10 z m -277,114 c -30,-16 -58,-61 -58,-94 0,-39 28,-89 60,-105 40,-21 94,-16 98,8 3,14 -4,17 -36,17 -50,0 -72,24 -72,77 0,50 23,73 73,73 25,0 37,5 37,14 0,28 -58,34 -102,10 z m -338,6 c -8,-5 -30,-7 -47,-4 l -33,6 v -106 c 0,-99 1,-106 20,-106 18,0 20,7 20,55 0,31 7,71 14,90 12,28 20,35 43,35 45,0 53,-16 53,-102 0,-71 2,-78 20,-78 19,0 20,7 20,89 0,85 -1,91 -26,110 -29,23 -60,27 -84,11 z m -640,0 c -8,-6 -27,-7 -42,-4 l -28,6 v -106 c 0,-99 1,-106 20,-106 18,0 20,7 20,73 0,80 15,107 57,107 28,0 33,-17 33,-106 0,-67 2,-74 20,-74 18,0 20,7 20,63 0,76 16,111 53,115 35,4 47,-25 47,-114 0,-57 2,-64 20,-64 18,0 20,7 20,78 0,88 -14,123 -54,137 -21,7 -34,6 -58,-8 -27,-15 -32,-15 -51,-2 -25,17 -55,19 -77,5 z m -297,-10 c -72,-43 -61,-168 17,-200 73,-30 150,24 150,106 0,54 -21,89 -62,103 -44,16 -69,14 -105,-9 z m 111,-42 c 38,-53 9,-128 -49,-128 -40,0 -65,29 -65,75 0,46 25,75 65,75 24,0 39,-7 49,-22 z m -714,50 c -35,-19 -64,-80 -56,-122 13,-71 67,-106 142,-92 24,5 34,12 34,25 0,16 -6,18 -45,13 -35,-3 -50,0 -65,13 -37,33 -25,44 53,47 l 72,3 -1,38 c -1,24 -9,46 -21,58 -25,25 -81,33 -113,17 z m 88,-55 c 14,-23 14,-23 -42,-23 -60,0 -62,1 -45,31 14,27 66,22 87,-8 z m -713,58 c -93,-40 -80,-191 19,-216 31,-7 45,-5 74,10 20,11 42,31 50,45 19,37 9,107 -20,137 -27,27 -89,39 -123,24 z m 90,-51 c 41,-46 12,-130 -45,-130 -36,0 -64,33 -64,75 0,42 28,75 64,75 15,0 35,-9 45,-20 z m -1173,44 c -15,-10 -22,-25 -22,-49 0,-30 6,-37 45,-61 59,-34 58,-59 -3,-59 -33,0 -42,-4 -42,-17 0,-32 82,-36 117,-6 7,6 13,25 13,44 0,27 -7,37 -42,61 -54,36 -56,57 -5,61 23,2 37,8 37,17 0,27 -63,34 -98,9 z m -199,1 c -13,-9 -23,-11 -23,-6 0,6 -9,11 -20,11 -19,0 -20,-7 -20,-105 0,-98 1,-105 20,-105 18,0 20,7 20,68 0,81 17,112 61,112 37,0 49,-27 49,-116 0,-58 2,-64 21,-64 20,0 21,4 17,90 -3,100 -13,117 -69,126 -22,3 -42,0 -56,-11 z m 1085,38 c -2,-20 -9,-29 -25,-31 -13,-2 -23,-10 -23,-17 0,-7 10,-15 23,-17 20,-3 22,-9 25,-81 3,-69 5,-79 27,-93 29,-19 69,-15 73,8 2,12 -5,17 -25,20 -28,3 -28,4 -31,76 -3,71 -3,72 23,72 16,0 25,6 25,15 0,9 -9,15 -25,15 -21,0 -25,5 -25,30 0,23 -5,30 -19,30 -14,0 -21,-8 -23,-27 z m -421,20 c -4,-3 -7,-17 -7,-30 0,-18 -5,-23 -26,-23 -31,0 -28,-23 4,-28 20,-3 22,-9 22,-78 0,-85 20,-118 68,-112 37,4 44,38 8,38 -31,0 -39,23 -34,96 3,45 5,49 31,52 15,2 27,9 27,17 0,8 -12,15 -27,17 -22,2 -29,9 -31,31 -3,25 -20,35 -35,20 z m -282,-8 c -3,-8 -7,-22 -10,-30 -2,-8 -14,-15 -25,-15 -11,0 -20,-7 -20,-15 0,-9 9,-15 25,-15 25,0 25,-1 25,-80 0,-73 2,-81 24,-96 30,-19 70,-15 74,8 2,12 -5,17 -25,20 -28,3 -28,4 -31,76 l -3,72 h 31 c 39,0 41,27 3,32 -22,2 -29,9 -31,31 -4,29 -29,38 -37,12 z m 6737,23 c -14,-14 -16,-38 -3,-38 5,0 11,5 13,12 4,10 13,10 42,1 42,-13 62,-9 70,14 9,22 0,28 -18,14 -11,-9 -20,-10 -35,-2 -26,14 -54,14 -69,-1 z m -1792,-133 c 0,-138 1,-145 20,-145 19,0 20,7 20,145 0,138 -1,145 -20,145 -19,0 -20,-7 -20,-145 z m -944,129 c -10,-27 -7,-35 13,-23 13,9 26,9 50,1 36,-13 57,-8 65,15 9,22 0,28 -18,14 -11,-9 -20,-10 -35,-2 -29,16 -68,13 -75,-5 z m -4566,-129 v -145 h 25 25 v 145 145 h -25 -25 z m 2473,135 c -111,-50 -113,-217 -3,-272 59,-30 140,-22 140,13 0,17 -5,18 -40,13 -48,-8 -93,9 -115,43 -20,30 -22,103 -3,132 20,33 74,54 119,47 34,-5 39,-4 39,13 0,35 -72,41 -137,11 z m 1344,23 c -4,-3 -7,-15 -7,-25 0,-13 7,-18 25,-18 20,0 25,5 25,25 0,18 -5,25 -18,25 -10,0 -22,-3 -25,-7 z m -1877,-54 v -60 l -22,15 c -50,35 -119,5 -137,-59 -27,-101 62,-192 137,-139 12,8 22,10 22,5 0,-6 9,-11 20,-11 19,0 20,7 20,155 0,148 -1,155 -20,155 -18,0 -20,-7 -20,-61 z m -16,-91 c 36,-51 9,-128 -44,-128 -35,0 -60,31 -60,75 0,44 25,75 60,75 18,0 34,-8 44,-22 z m -1214,127 c 0,-22 4,-26 23,-23 14,2 22,10 22,23 0,13 -8,21 -22,23 -19,3 -23,-1 -23,-23 z m 5226,22 c -10,-8 -21,-31 -25,-53 -5,-30 -11,-40 -29,-42 -29,-4 -29,-30 1,-34 21,-3 22,-8 25,-90 3,-80 5,-88 22,-88 18,0 20,7 20,90 v 90 h 30 c 39,0 41,27 3,32 -22,2 -29,9 -31,31 -3,24 2,30 27,40 17,6 31,17 31,24 0,17 -51,17 -74,0 z m -636,1108 v -626 l 88,3 87,3 v 620 620 l -87,3 -88,3 z m 1460,555 v -80 h 190 190 l 2,-542 3,-543 87,-3 88,-3 2,543 3,543 193,3 192,2 v 80 80 h -475 -475 z m -2980,-545 v -625 h 90 90 l -2,623 -3,622 -87,3 -88,3 z m 898,624 c -257,-33 -471,-227 -523,-474 -19,-92 -19,-227 1,-323 43,-213 193,-382 399,-448 133,-43 362,-44 493,-3 l 34,11 -7,82 c -4,44 -9,83 -10,84 -2,2 -32,-7 -67,-20 -53,-19 -82,-23 -188,-23 -106,0 -134,3 -186,23 -81,31 -162,96 -212,172 -53,79 -72,142 -79,255 -9,153 37,282 135,381 133,133 361,171 539,89 61,-28 60,-29 65,80 l 3,69 -46,17 c -91,34 -221,45 -351,28 z m 1524,10 c -141,-21 -269,-87 -368,-192 -112,-118 -164,-258 -164,-441 0,-56 7,-132 15,-169 44,-208 197,-378 399,-443 134,-43 363,-44 494,-3 l 33,11 -7,81 c -3,45 -8,84 -10,85 -1,2 -29,-6 -61,-18 -43,-17 -87,-24 -170,-28 -99,-4 -122,-2 -185,19 -130,41 -239,146 -289,278 -41,109 -36,291 12,400 49,112 163,213 276,246 125,37 272,27 372,-25 l 39,-20 6,28 c 3,15 6,54 8,87 l 3,59 -46,17 c -92,35 -232,45 -357,28 z m -4492,769 c 31,-29 230,-214 443,-411 213,-197 387,-361 387,-366 0,-4 -75,-36 -166,-70 -162,-60 -166,-61 -189,-44 -13,10 -138,123 -280,251 -141,127 -260,232 -263,232 -7,0 -142,-121 -787,-699 -436,-391 -505,-454 -502,-457 2,-2 410,141 908,317 497,177 913,324 925,326 16,4 101,-67 387,-327 l 367,-332 v -59 c 0,-39 -4,-61 -12,-64 -7,-2 -592,-5 -1301,-7 l -1287,-3 v 283 c 0,155 -3,282 -8,282 -4,0 -81,-65 -170,-145 l -162,-146 v -294 -295 h 1635 1635 v 299 300 l -326,298 c -180,164 -340,309 -356,322 -37,29 -45,24 152,96 85,31 160,60 168,64 11,6 -14,24 -84,64 -242,135 -1084,597 -1124,616 l -45,22 z" />
          </g>
        </g>
      </g>
    </g>
  </g>
  <metadata
     id="metadata3053">
    <rdf:RDF>
      <cc:Work
         rdf:about="">
        <dc:title>FDF78F6A-ECBB-4793-A66D-1B95BD760FF7</dc:title>
      </cc:Work>
    </rdf:RDF>
  </metadata>
</svg>
