<?xml version="1.0" encoding="UTF-8"?>
<svg width="36px" height="36px" viewBox="0 0 36 36" version="1.1" xmlns="http://www.w3.org/2000/svg" xmlns:xlink="http://www.w3.org/1999/xlink">
    <title>7F84F395-7C78-4347-A52F-819BB5592683</title>
    <g id="Home-e-Busca---UI" stroke="none" stroke-width="1" fill="none" fill-rule="evenodd">
        <g id="desk_Home" transform="translate(-961.000000, -3852.000000)">
            <rect fill="#FFFFFF" x="0" y="0" width="1220" height="4208"></rect>
            <g id="3.-group/footer-desktop" transform="translate(0.000000, 3733.000000)">
                <rect id="Rectangle" fill="#2C1338" x="0" y="0" width="1220" height="475"></rect>
                <g id="Group-2" transform="translate(20.000000, 84.000000)" fill="#FF8500">
                    <g id="Group-5" transform="translate(898.000000, 0.000000)">
                        <g id="1.-assets/icon/redes_twitter-copy" transform="translate(43.000000, 35.000000)">
                            <path d="M19.1650237,6.00056684 C20.7040803,6.00317336 21.3956645,6.0124315 22.0450793,6.03542371 L22.2610937,6.04360617 C22.4777557,6.05231672 22.6996741,6.06264073 22.9566751,6.07484049 C24.2321549,6.13107664 25.1044563,6.33733693 25.8686817,6.63280566 C26.6658795,6.93285392 27.3927362,7.40655641 27.9930159,8.01617822 C28.6074003,8.61645785 29.0763402,9.33855198 29.3811511,10.1450919 C29.6766198,10.904921 29.8828801,11.7818018 29.9391163,13.0572816 C29.9841052,14.0814756 29.9961511,14.5473966 29.9991699,16.3614728 L29.9999255,17.1086697 C29.9999728,17.1995407 30.0000096,17.2931659 30.0000377,17.3896833 L30.000067,18.3211442 C30.0000346,18.4235838 29.9999855,18.5229934 29.9999187,18.6195108 L29.9992964,19.1650124 C29.9956048,21.3880209 29.9785121,21.842369 29.9297741,22.9519125 C29.8735379,24.2273922 29.6670945,25.0996936 29.3718089,25.8641022 C28.7480823,27.477182 27.4726025,28.7526618 25.8593396,29.3763884 C25.0996936,29.6718572 24.2228127,29.8781175 22.9473329,29.9343536 C22.7339592,29.9437568 22.5448161,29.9519795 22.3626651,29.9591541 L22.146337,29.9672689 C21.4290757,29.9926974 20.713364,30.0022016 18.8959449,30.0042484 L17.1040852,30.0042484 C15.2866453,30.0022016 14.5708559,29.9926974 13.8536227,29.9672689 L13.6373063,29.9591541 C13.4551681,29.9519795 13.2660453,29.9437568 13.0527021,29.9343536 C11.7770392,29.8781175 10.904921,29.6718572 10.1405124,29.3763884 C9.34331462,29.0763402 8.61645785,28.6026377 8.01617822,27.9930159 C7.40655641,27.3927362 6.93303704,26.6706421 6.62822613,25.8641022 C6.3327574,25.1042731 6.126314,24.2273922 6.07007784,22.9519125 C6.02133984,21.842369 6.00424715,21.3880209 6.00055555,19.1650124 L6.00056684,16.8441704 C6.00302856,15.3906169 6.01142335,14.6929879 6.03171763,14.0728791 L6.04360617,13.7481004 C6.05231672,13.5314384 6.06264073,13.30952 6.07484049,13.052519 C6.13107664,11.7770392 6.33733693,10.904921 6.63280566,10.1405124 C6.93303704,9.34331462 7.40655641,8.61645785 8.01617822,8.01617822 C8.61645785,7.40179377 9.33855198,6.93285392 10.145275,6.62804301 C10.904921,6.3327574 11.7818018,6.126314 13.0572816,6.07007784 C14.166825,6.02133984 14.6211732,6.00424715 16.8441817,6.00055555 Z M18.8951087,8.18075834 L17.1341003,8.18075834 C14.7263814,8.18354945 14.3046982,8.2000356 13.1651744,8.25064815 C11.9975874,8.30230478 11.359756,8.49922289 10.9377101,8.66335184 C10.4171136,8.85550731 9.94817378,9.16031821 9.5591002,9.55891708 C9.15573868,9.94359426 8.85092778,10.4171136 8.65858919,10.9377101 C8.49446024,11.359756 8.29754213,11.9928248 8.24606862,13.1651744 C8.23290412,13.4594952 8.22205338,13.7060748 8.21315338,13.9518568 L8.20599407,14.1634267 C8.18478211,14.8397138 8.17717778,15.60894 8.17592173,17.4098439 L8.17592173,18.6179777 C8.17717778,20.418534 8.18478211,21.185948 8.20599407,21.862495 L8.21315338,22.07422 C8.22205338,22.3202729 8.23290412,22.567455 8.24606862,22.8628872 C8.29754213,24.0304741 8.49446024,24.6683056 8.65858919,25.0903514 C8.85092778,25.6107648 9.15573868,26.0797047 9.55433756,26.4689614 C9.93883161,26.8675602 10.4125341,27.1723711 10.9329475,27.3647097 C11.3549933,27.5288387 11.9880621,27.7257568 13.1604118,27.7772303 C13.3706714,27.7866335 13.5565682,27.7948562 13.7352108,27.8020308 L13.9471947,27.8101455 C14.6495008,27.8355741 15.3452341,27.8450783 17.1293475,27.847125 L18.8892431,27.847125 C20.6728155,27.8450783 21.366518,27.8355741 22.0694826,27.8101455 L22.281749,27.8020308 C22.460701,27.7948562 22.6471016,27.7866335 22.8581245,27.7772303 C24.0258946,27.7257568 24.6635429,27.5288387 25.0855888,27.3647097 C26.1313613,26.9613482 26.9613482,26.1313613 27.3647097,25.0855888 C27.5288387,24.6635429 27.7257568,24.0304741 27.7774134,22.8581245 C27.828026,21.7186007 27.8445121,21.3007753 27.8473032,18.8936944 L27.8473032,17.1340558 C27.8445121,14.7262331 27.828026,14.3046982 27.7774134,13.1651744 C27.7257568,11.9974043 27.5288387,11.359756 27.3647097,10.9377101 C27.1723711,10.4171136 26.8675602,9.94817378 26.4689614,9.55891708 C26.0844673,9.16031821 25.6107648,8.85550731 25.0903514,8.66335184 C24.6683056,8.49922289 24.0352368,8.30230478 22.8628872,8.25064815 C22.6526275,8.24127545 22.466863,8.23307308 22.2884189,8.22591126 L22.0767006,8.21780825 C21.3753576,8.19240774 20.6812224,8.18282583 18.8951087,8.18075834 Z M18.004597,11.838038 C21.4091736,11.838038 24.1711561,14.6000205 24.1711561,18.004597 C24.1711561,21.4091736 21.4091736,24.1711561 18.004597,24.1711561 C14.6002036,24.1711561 11.838038,21.4091736 11.838038,18.004597 C11.838038,14.6000205 14.6002036,11.838038 18.004597,11.838038 Z M18.004597,14.0045035 C15.7960002,14.0045035 14.0045035,15.7958171 14.0045035,18.004597 C14.0045035,20.213377 15.7960002,22.0046906 18.004597,22.0046906 C20.213377,22.0046906 22.0046906,20.213377 22.0046906,18.004597 C22.0046906,15.7958171 20.213377,14.0045035 18.004597,14.0045035 Z M24.4149682,10.1546172 C25.2101509,10.1546172 25.85476,10.7990431 25.85476,11.5942259 C25.85476,12.3892255 25.2101509,13.0338346 24.4149682,13.0338346 C23.6199685,13.0338346 22.9753595,12.3892255 22.9753595,11.5942259 C22.9753595,10.7990431 23.6199685,10.1546172 24.4149682,10.1546172 Z" id="Combined-Shape"></path>
                        </g>
                    </g>
                </g>
            </g>
        </g>
    </g>
</svg>