<?xml version="1.0" encoding="UTF-8"?>
<svg width="51px" height="51px" viewBox="0 0 51 51" version="1.1" xmlns="http://www.w3.org/2000/svg" xmlns:xlink="http://www.w3.org/1999/xlink">
    <title>1. assets/icon/nivel/2</title>
    <g id="1.-assets/icon/nivel/2" stroke="none" stroke-width="1" fill="none" fill-rule="evenodd">
        <circle id="Oval" fill="#3E7EAD" cx="25.5" cy="25.5" r="25.5"></circle>
        <path d="M24.3333333,31.6666667 C20.2897668,31.6666667 17,28.227365 17,24 C17,19.772635 20.2897668,16.3333333 24.3333333,16.3333333 C28.3768998,16.3333333 31.6666667,19.772635 31.6666667,24 C31.6666667,28.227365 28.3768998,31.6666667 24.3333333,31.6666667 M36.4415814,33.4831037 L33.2562424,30.2559466 C34.3840013,28.504397 35.0401078,26.4124276 35.0401078,24.1647286 C35.0401078,17.998651 30.1062302,13 24.0200539,13 C17.9338775,13 13,17.998651 13,24.1647286 C13,30.3308061 17.9338775,35.3294572 24.0200539,35.3294572 C26.3988106,35.3294572 28.6017427,34.5655619 30.4028669,33.2672677 L33.5286089,36.4340454 C34.273167,37.1886515 35.4807481,37.1886515 36.2255759,36.4340454 L36.4415814,36.2154773 C37.1861395,35.4608712 37.1861395,34.2374366 36.4415814,33.4831037" id="Fill-23" fill="#68BFFF"></path>
    </g>
</svg>