<?xml version="1.0" encoding="UTF-8"?>
<svg width="50px" height="50px" viewBox="0 0 50 50" version="1.1" xmlns="http://www.w3.org/2000/svg" xmlns:xlink="http://www.w3.org/1999/xlink">
    <title>1. assets/icon/nivel/0</title>
    <g id="1.-assets/icon/nivel/0" stroke="none" stroke-width="1" fill="none" fill-rule="evenodd">
        <circle id="Oval" fill="#B96000" cx="25" cy="25" r="25"></circle>
        <path d="M25,13 C31.6169168,13 37,18.306592 37,24.8289571 C37,30.6110494 32.7687514,35.4343189 27.1985853,36.4554829 L27.1985853,36.4554829 L26.395482,36.4552913 C24.7360363,36.4540459 23.5743236,36.4447056 22.3986333,36.3746526 C17.0290163,35.1996503 13,30.4707223 13,24.8289571 C13,18.306592 18.3833236,13 25,13 Z M31.9751913,20.1478423 L20.4323135,31.6906564 C21.7499413,32.5189128 23.3183556,33 25,33 C29.6562734,33 33.4444444,29.311648 33.4444444,24.7777778 C33.4444444,23.0620241 32.9019426,21.4673567 31.9751913,20.1478423 Z M25,16.5555556 C20.3437266,16.5555556 16.5555556,20.2439075 16.5555556,24.7777778 C16.5555556,26.6066964 17.1719805,28.2980293 18.2131538,29.6651696 L29.8368777,18.0413102 C28.466017,17.1053418 26.7977082,16.5555556 25,16.5555556 Z" id="Combined-Shape" fill="#FF8500"></path>
    </g>
</svg>