<?xml version="1.0" encoding="UTF-8"?>
<svg width="50px" height="50px" viewBox="0 0 50 50" version="1.1" xmlns="http://www.w3.org/2000/svg" xmlns:xlink="http://www.w3.org/1999/xlink">
    <title>1. assets/icon/nivel/1</title>
    <g id="1.-assets/icon/nivel/1" stroke="none" stroke-width="1" fill="none" fill-rule="evenodd">
        <circle id="Oval" fill="#8E3B2E" cx="25" cy="25" r="25"></circle>
        <path d="M16.4624,22.8112444 C16.4624,18.2773742 20.2505711,14.5890222 24.9068444,14.5890222 C29.5631178,14.5890222 33.3512889,18.2773742 33.3512889,22.8112444 C33.3512889,27.3451147 29.5631178,31.0334667 24.9068444,31.0334667 C20.2505711,31.0334667 16.4624,27.3451147 16.4624,22.8112444 Z M24.9068444,11.0334667 C18.2901681,11.0334667 12.9068444,16.3400587 12.9068444,22.8624238 C12.9068444,28.504189 16.9358607,33.233117 22.3054778,34.4081193 C22.6029349,35.4499057 23.5756219,38.4697825 23.7985343,39.1064693 C24.1811165,40.1999302 25.527248,40.2151007 25.8766459,39.025876 C26.02309,38.52762 26.8606348,35.3437122 27.1054297,34.4889496 C32.6755958,33.4677856 36.9068444,28.6445161 36.9068444,22.8624238 C36.9068444,16.3400587 31.5237613,11.0334667 24.9068444,11.0334667 Z" id="Fill-49" fill="#E55330"></path>
    </g>
</svg>