<?xml version="1.0" encoding="UTF-8"?>
<svg width="36px" height="36px" viewBox="0 0 36 36" version="1.1" xmlns="http://www.w3.org/2000/svg" xmlns:xlink="http://www.w3.org/1999/xlink">
    <title>69EBED2A-6457-45D4-A528-4D0FF81293E1</title>
    <g id="Home-e-Busca---UI" stroke="none" stroke-width="1" fill="none" fill-rule="evenodd">
        <g id="desk_Home" transform="translate(-1045.000000, -3852.000000)">
            <rect fill="#FFFFFF" x="0" y="0" width="1220" height="4208"></rect>
            <g id="3.-group/footer-desktop" transform="translate(0.000000, 3733.000000)">
                <rect id="Rectangle" fill="#2C1338" x="0" y="0" width="1220" height="475"></rect>
                <g id="Group-2" transform="translate(20.000000, 84.000000)" fill="#FF8500">
                    <g id="Group-5" transform="translate(898.000000, 0.000000)">
                        <g id="1.-assets/icon/redes_twitter-copy-3" transform="translate(127.000000, 35.000000)">
                            <path d="M23.53575,13.9428333 C28.15025,13.9428333 29,16.9834167 29,20.9305833 L29,28.9990833 L24.44325,29 L24.4431019,21.697542 C24.4392098,20.0183414 24.3396936,17.9596667 22.0718333,17.9596667 C19.7004167,17.9596667 19.3374167,19.8113333 19.3374167,21.72625 L19.3374167,21.72625 L19.3374167,28.9990833 L14.7815833,28.9990833 L14.7815833,14.3113333 L19.1568333,14.3113333 L19.1568333,16.31425 L19.221,16.31425 C19.82875,15.1601667 21.3174167,13.9428333 23.53575,13.9428333 Z M11.9243333,14.31225 L11.9243333,29 L7.363,29 L7.363,14.31225 L11.9243333,14.31225 Z M9.64183333,7 C11.0993333,7 12.28275,8.18341667 12.2836667,9.64183333 C12.2836667,11.10025 11.10025,12.3084167 9.64183333,12.3084167 C8.18341667,12.3084167 7,11.10025 7,9.64183333 C7,8.18341667 8.18341667,7 9.64183333,7 Z" id="Combined-Shape"></path>
                        </g>
                    </g>
                </g>
            </g>
        </g>
    </g>
</svg>