<?xml version="1.0" encoding="UTF-8"?>
<svg width="81px" height="19px" viewBox="0 0 81 19" version="1.1" xmlns="http://www.w3.org/2000/svg" xmlns:xlink="http://www.w3.org/1999/xlink">
    <title>FDF78F6A-ECBB-4793-A66D-1B95BD760FF7</title>
    <defs>
        <filter id="filter-1">
            <feColorMatrix in="SourceGraphic" type="matrix" values="0 0 0 0 0.368627 0 0 0 0 0.247059 0 0 0 0 0.556863 0 0 0 1.000000 0"></feColorMatrix>
        </filter>
    </defs>
    <g id="Home-e-Busca---UI" stroke="none" stroke-width="1" fill="none" fill-rule="evenodd">
        <g id="desk_Home" transform="translate(-671.000000, -3621.000000)">
            <rect fill="#FFFFFF" x="0" y="0" width="1220" height="4208"></rect>
            <g id="logos" transform="translate(0.000000, 3485.000000)">
                <rect id="Rectangle" fill="#F3E9E9" transform="translate(610.000000, 124.000000) scale(1, -1) translate(-610.000000, -124.000000) " x="0" y="0" width="1220" height="248"></rect>
                <g id="1.-assets_logo-jurema" transform="translate(520.500000, 82.000000)" filter="url(#filter-1)">
                    <g transform="translate(151.000000, 54.325922)">
                        <path d="M5.67708333,0.105562906 L5.67708333,11.4279815 C5.67708333,13.8353769 5.29416667,15.3984466 4.1975,16.5249117 C3.20333333,17.5245397 1.57125,17.933935 0.372916667,17.933935 L-2.96059473e-14,16.1322606 C1.04541667,16.0552373 2.03041667,15.8082606 2.56583333,15.1929117 C3.1775,14.5013769 3.4325,13.5842141 3.4325,10.5564466 L3.4325,0.105562906 L5.67708333,0.105562906 Z M40.10175,0.0924605804 L40.2134583,0.0955582548 C40.30625,0.0981536037 40.3945,0.100748953 40.4504583,0.102716394 C40.944625,0.11946058 41.439625,0.183925697 41.8479583,0.280623371 C43.260875,0.614669883 44.1812917,1.47406523 44.7554583,2.49880942 C45.3762917,3.60643732 45.5950417,4.90620477 45.5950417,5.94601872 C45.5950417,6.36081407 45.5741167,6.67185407 45.5328742,6.91667374 L45.518375,6.99587919 L45.518375,7.01680942 L37.270875,7.01680942 C37.2714167,7.03171174 37.2720833,7.06997221 37.2727083,7.11417686 L37.27375,7.20534895 L37.2739985,7.23390399 L37.2742083,7.28136756 C37.2742083,10.8843773 39.6331667,10.9729206 41.2220833,10.9750806 L41.350875,10.975135 C43.0114242,10.975135 44.6492908,10.2619036 44.7228815,10.229484 L44.7254583,10.2283443 L45.1329583,12.1149955 C45.1329583,12.1149955 43.2887917,12.9409024 40.982125,12.9409024 C37.0043472,12.9409024 35.0782892,11.0866644 35.0313385,6.89302876 L35.0304583,6.73466988 L35.0317083,6.42364663 L35.0317083,1.67625128 C35.0275417,1.12704198 35.0317083,0.58201872 35.0329583,0.0993675572 C36.4629687,0.0993675572 37.5265081,0.088650123 39.0779615,0.0858157603 L39.8300833,0.0852205441 C39.8570833,0.0859722083 39.9729583,0.0889861618 40.10175,0.0924605804 Z M27.7854583,0.0991582548 C28.3388674,0.0991582548 28.6619046,0.107461157 29.2100545,0.108970776 L29.67075,0.109079185 C30.2339643,0.108505099 30.7170663,0.106547054 31.2807442,0.105999329 L31.5700417,0.105855929 L31.5700417,2.03562337 L29.104625,2.02473965 C28.0620609,2.02473965 27.7196612,1.91306661 27.7027876,3.00472945 L27.702125,3.09343732 L27.7019583,4.21747453 C27.7015417,5.31442802 27.7005,6.33741407 27.6983333,7.35181872 L27.6957917,8.36580477 C27.6922311,9.59727876 27.6868454,10.8481781 27.6787894,12.234973 L27.6762917,12.6552048 L25.462125,12.6690187 L25.46225,2.76906058 C25.4662917,1.68299081 25.597625,0.0991582548 27.7854583,0.0991582548 Z M62.084125,0.0505163944 C64.303587,0.0505163944 66.6355623,0.989086913 66.694244,5.15474904 L66.695375,5.31656291 L66.6745417,12.6521908 L64.387875,12.6547024 L64.4112083,5.12442337 C64.4112083,2.9400247 63.3720413,2.05229133 62.1671393,2.01696711 L62.091625,2.01586523 L62.0707917,2.01586523 C59.936625,2.01586523 58.997875,3.40898151 58.997875,5.16837686 C58.9970907,7.76431667 58.9734229,9.80812708 58.9706411,12.2016071 L58.970375,12.6547024 L56.7782917,12.6559583 L56.7780833,12.290035 L56.7777083,11.6693992 L56.7772083,10.831089 L56.7772083,10.831089 L56.7768333,10.1390099 L56.776,8.63738291 L56.7759583,8.56104564 L56.775125,6.87871174 L56.775125,6.87871174 L56.77475,6.00989779 L56.7745417,5.14242337 C56.7745417,4.92433035 56.7249583,4.48479546 56.7249583,4.48479546 C56.5190186,3.25856884 55.7738613,2.11895416 53.8172074,2.07101502 L53.687875,2.06944663 L52.3787083,2.06526058 L51.315375,2.06526058 L51.3107917,12.6547024 L49.0637083,12.655121 L49.057875,0.12209779 L53.3032917,0.120423371 C53.3032917,0.120423371 53.760375,0.132562906 53.929125,0.138423371 C54.4232917,0.155167557 54.9187083,0.219214069 55.3270417,0.315911743 C56.477875,0.588004766 57.3012083,1.24186523 57.8774583,2.01586523 C58.060375,1.67260942 59.0820417,0.0505163944 62.084125,0.0505163944 Z M12.5432917,0.105521046 L12.551625,7.38170709 L12.5512083,7.92798616 C12.5831925,8.96159414 12.9319587,10.6195506 15.9132227,10.6719237 L16.0595417,10.6731955 L18.5262083,10.6731955 L18.5262083,0.105521046 L20.7882917,0.105521046 L20.7882917,12.6552885 L16.045375,12.6552885 C10.6539116,12.6552885 10.3771316,9.38197316 10.3657643,7.54653625 L10.365375,0.105521046 L12.5432917,0.105521046 Z M74.9829167,1.63007647e-05 C78.8145833,-0.00740435464 79.6526311,2.52005837 79.6737523,4.95083486 L79.6741667,5.04673035 L79.6741667,12.6448234 L77.3060417,12.6444676 C77.102375,12.6437852 76.6312083,12.6422406 76.120625,12.6407587 L75.9148333,12.6401727 C75.6114667,12.6393221 75.3050333,12.6385331 75.0415493,12.6379965 L74.50625,12.6372885 C69.9768698,12.6372885 69.7652984,9.50220617 69.7553977,8.85314654 L69.755,8.78110244 C69.755,5.11826988 73.5160833,4.81804663 76.1999167,4.80841872 L76.4899167,4.808335 C76.775125,4.80917221 77.0452083,4.8121443 77.2937917,4.81319081 L77.45625,4.81356756 L77.45625,4.50840477 C77.452125,2.20210244 75.519125,1.97107453 74.84425,1.960735 L74.772125,1.96040012 C74.672875,1.96106988 74.615,1.96621872 74.615,1.96621872 C73.1845833,1.96621872 72.2820833,2.23496291 71.5158333,2.53761407 C71.4916667,2.54724198 71.4695833,2.55728849 71.4466667,2.56649779 L71.4298437,2.5767536 L71.4133333,2.58700942 L71.41,2.58156756 L71.3252083,2.6166257 L71.2404167,2.65231174 L70.8325,0.826358255 L70.8602174,0.814366232 C71.0982547,0.713027369 72.8410119,0.00352984284 74.9829167,1.63007647e-05 Z M71.9983333,8.71286988 L71.9980417,8.71961779 L71.9979167,8.77075035 C72.004375,9.09279546 72.1547917,10.649335 74.4604167,10.649335 L74.7430417,10.6497117 C75.547875,10.6515159 77.010375,10.6592936 77.343375,10.6610978 L77.4120833,10.6614745 L77.4120833,6.78477686 C76.8075,6.78477686 71.9983333,6.17152105 71.9983333,8.71286988 Z M40.2092083,2.03583267 L39.2279583,2.04294895 L37.2937917,2.04294895 L37.2937917,5.07699546 L43.3237917,5.07699546 C43.2587917,3.67257686 42.557125,2.03583267 40.2092083,2.03583267 Z" id="Combined-Shape" fill="#FFFFFF"></path>
                    </g>
                </g>
            </g>
        </g>
    </g>
</svg>