<?xml version="1.0" encoding="UTF-8"?>
<svg width="116px" height="18px" viewBox="0 0 116 18" version="1.1" xmlns="http://www.w3.org/2000/svg" xmlns:xlink="http://www.w3.org/1999/xlink">
    <title>308C546C-2520-435C-9716-596B9A3200C9</title>
    <defs>
        <filter id="filter-1">
            <feColorMatrix in="SourceGraphic" type="matrix" values="0 0 0 0 0.368627 0 0 0 0 0.247059 0 0 0 0 0.556863 0 0 0 1.000000 0"></feColorMatrix>
        </filter>
    </defs>
    <g id="Home-e-Busca---UI" stroke="none" stroke-width="1" fill="none" fill-rule="evenodd">
        <g id="desk_Home" transform="translate(-282.000000, -3624.000000)">
            <rect fill="#FFFFFF" x="0" y="0" width="1220" height="4208"></rect>
            <g id="logos" transform="translate(0.000000, 3485.000000)">
                <rect id="Rectangle" fill="#F3E9E9" transform="translate(610.000000, 124.000000) scale(1, -1) translate(-610.000000, -124.000000) " x="0" y="0" width="1220" height="248"></rect>
                <g id="1.-assets_logo-embaixadores" transform="translate(16.000000, 82.000000)" filter="url(#filter-1)">
                    <g transform="translate(266.000000, 57.000000)">
                        <g id="logotipo-Embaixadoras-Embaixadores" transform="translate(1.453303, 0.661765)" fill="#FFFFFF" fill-rule="nonzero">
                            <path d="M100.243703,5.32907052e-15 C102.858549,5.32907052e-15 104.977964,2.12293472 104.977964,4.74132826 C104.977964,6.21532547 104.306319,7.53210715 103.252743,8.40156793 C104.306319,9.27044828 104.977964,10.5873885 104.977964,12.0617484 C104.977964,14.6801419 102.858549,16.8024324 100.243703,16.8024324 C97.6288567,16.8024324 95.5094416,14.6801419 95.5094416,12.0617484 C95.5094416,10.5872653 96.1811984,9.27022823 97.234927,8.4007003 C96.1811984,7.53232718 95.5094416,6.21544862 95.5094416,4.74132826 C95.5094416,2.12229043 97.6288567,5.32907052e-15 100.243703,5.32907052e-15 Z M27.4874115,1.42108547e-14 C27.8470815,1.42108547e-14 28.1269679,0.280910331 28.1269679,0.64171259 L28.1269679,0.64171259 L28.1269679,6.19291307 C28.5876544,5.55184477 29.5695085,4.89209206 30.8511949,4.89209206 C33.4351569,4.89209206 34.873837,6.41390445 34.873837,9.70300362 C34.873837,12.9921028 33.3547298,14.5332439 30.7707677,14.5332439 C28.4872813,14.5332439 26.8478552,13.2324229 26.8478552,10.5850363 L26.8478552,10.5850363 L26.8478552,0.64171259 C26.8478552,0.280910331 27.1277415,1.42108547e-14 27.4874115,1.42108547e-14 Z M109.502471,4.64983912 C110.90512,4.64983912 111.997642,5.12339208 112.635268,5.96805594 C112.697036,6.05052503 112.779393,6.17422866 112.779393,6.3604284 C112.779393,6.69030475 112.512375,6.95897358 112.182946,6.95897358 C112.080643,6.95897358 111.915928,6.93771202 111.751213,6.77277384 C111.194014,6.23608048 110.575691,5.90555984 109.503115,5.90555984 C108.575308,5.90555984 107.667447,6.19484594 107.666803,7.14581761 C107.666803,9.31385261 113.08759,8.50849042 113.08759,11.811764 C113.08759,13.6892243 111.544033,14.5338882 109.584829,14.5338882 C107.893286,14.5338882 106.596801,13.7304588 106.061478,13.0500889 C105.958531,12.905768 105.917353,12.8020373 105.917353,12.6577164 C105.917353,12.3278401 106.185657,12.0591712 106.515087,12.0591712 C106.63798,12.0591712 106.802694,12.1004058 106.967409,12.2653439 C107.605035,12.9051237 108.429895,13.2768789 109.584829,13.2768789 C110.760351,13.2768789 111.771159,12.8845064 111.771159,11.8111197 C111.771159,9.68496351 106.350372,10.5309159 106.350372,7.14517332 C106.350372,5.43265116 107.749804,4.64983912 109.502471,4.64983912 Z M40.5217502,4.89144777 C42.8451285,4.89144777 44.1242412,6.25218772 44.1242412,8.29909626 L44.1242412,8.29909626 L44.1242412,13.8103508 C44.1242412,14.15118 43.8443549,14.4320904 43.5046308,14.4320904 C43.1649067,14.4320904 42.8850203,14.1518243 42.8850203,13.8122836 L42.8850203,13.8122836 L42.8850203,13.0913234 C42.384442,14.0326307 41.2224312,14.5325996 40.0205285,14.5325996 C37.8972528,14.5325996 36.5583024,13.5126889 36.5583024,11.6674431 C36.5583024,9.90208915 37.8972528,8.84158822 40.0604203,8.84158822 L40.0604203,8.84158822 L42.8850203,8.84158822 L42.8850203,8.29974055 C42.8850203,6.93513486 41.9835933,6.09240387 40.5211068,6.09240387 C39.459469,6.09240387 38.8186258,6.41326016 38.1983719,7.11553599 C37.9976259,7.33652737 37.857361,7.39644632 37.6778477,7.39644632 C37.3580695,7.39644632 37.0981291,7.13550897 37.0981291,6.81465267 C37.0981291,6.67419751 37.138021,6.57368831 37.1978587,6.47317911 C37.7576314,5.59179073 38.8392151,4.89144777 40.5217502,4.89144777 Z M83.1255974,4.89209206 C85.7295054,4.89209206 87.3290397,6.41326016 87.3290397,9.70235933 C87.3290397,12.9914585 85.7295054,14.5325996 83.1255974,14.5325996 C80.5422787,14.5325996 78.9227985,12.9914585 78.9227985,9.70235933 C78.9227985,6.41326016 80.5416353,4.89209206 83.1255974,4.89209206 Z M75.9778795,1.42108547e-14 C76.3375495,1.42108547e-14 76.6174359,0.280910331 76.6174359,0.64171259 L76.6174359,0.64171259 L76.6174359,10.584392 C76.6174359,13.2317786 74.9780097,14.5325996 72.6945233,14.5325996 C70.1105612,14.5325996 68.591454,12.9914585 68.591454,9.70235933 C68.591454,6.41326016 70.0307775,4.89209206 72.6147396,4.89209206 C73.896426,4.89209206 74.8776367,5.55248906 75.3383231,6.19291307 L75.3383231,6.19291307 L75.3383231,0.64171259 C75.3383231,0.280910331 75.6182095,1.42108547e-14 75.9778795,1.42108547e-14 Z M62.8849899,4.89144777 C65.2090116,4.89144777 66.4874809,6.25218772 66.4874809,8.29909626 L66.4874809,8.29909626 L66.4874809,13.8103508 C66.4874809,14.15118 66.2075945,14.4320904 65.8678704,14.4320904 C65.5281463,14.4320904 65.24826,14.1518243 65.24826,13.8122836 L65.24826,13.8122836 L65.24826,13.0913234 C64.7476817,14.0326307 63.5856708,14.5325996 62.3837682,14.5325996 C60.2604925,14.5325996 58.9215421,13.5126889 58.9215421,11.6674431 C58.9215421,9.90208915 60.2604925,8.84158822 62.42366,8.84158822 L62.42366,8.84158822 L65.24826,8.84158822 L65.24826,8.29974055 C65.24826,6.93513486 64.346833,6.09240387 62.8843465,6.09240387 C61.8227087,6.09240387 61.1818655,6.41326016 60.5609682,7.11553599 C60.3608656,7.33652737 60.2206007,7.39644632 60.0410874,7.39644632 C59.7213092,7.39644632 59.4613688,7.13550897 59.4613688,6.81465267 C59.4613688,6.67419751 59.5019041,6.57368831 59.5617418,6.47317911 C60.1208711,5.59179073 61.2024548,4.89144777 62.8849899,4.89144777 Z M93.6950061,4.93203803 C94.0353736,4.93203803 94.3159033,5.21230407 94.3159033,5.55248906 C94.3159033,5.89267404 94.0353736,6.17294008 93.6950061,6.17294008 C91.8529036,6.17294008 90.9122282,7.45572097 90.9122282,9.30032253 L90.9122282,9.30032253 L90.9122282,13.7910221 C90.9122282,14.1518243 90.6323418,14.4327347 90.2726718,14.4327347 C89.9130018,14.4327347 89.6331154,14.1518243 89.6331154,13.7910221 L89.6331154,13.7910221 L89.6331154,5.65235397 C89.6331154,5.292196 89.9130018,5.01192996 90.2726718,5.01192996 C90.6323418,5.01192996 90.9122282,5.292196 90.9122282,5.65235397 L90.9122282,5.65235397 L90.9122282,6.53374234 C91.3124334,5.612408 92.3135901,4.93203803 93.6950061,4.93203803 Z M20.360283,4.89209206 C23.4435366,4.89209206 24.1429307,6.73411646 24.1435741,8.43826284 L24.1435741,8.43826284 L24.1435741,13.7910221 C24.1435741,14.1518243 23.8636878,14.4327347 23.5040178,14.4327347 C23.1443477,14.4327347 22.8644614,14.1518243 22.8644614,13.7910221 L22.8644614,13.7910221 L22.8644614,8.6985559 C22.8644614,7.1148917 22.3034019,6.03248492 20.360283,6.03248492 C18.6372127,6.03248492 17.8561046,6.95446355 17.8561046,8.43826284 L17.8561046,8.43826284 L17.8561046,13.7910221 C17.8561046,14.1518243 17.5762183,14.4327347 17.2165482,14.4327347 C16.8568782,14.4327347 16.5769919,14.1518243 16.5769919,13.7910221 L16.5769919,13.7910221 L16.5769919,8.6985559 C16.5769919,7.1148917 16.0764136,6.03248492 14.1133487,6.03248492 C12.2506569,6.03248492 11.6497056,7.15483766 11.6497056,8.83901107 L11.6497056,8.83901107 L11.6497056,13.7903778 C11.6497056,14.15118 11.3698193,14.4320904 11.0101492,14.4320904 C10.6504792,14.4320904 10.3705929,14.15118 10.3705929,13.7903778 L10.3705929,13.7903778 L10.3705929,5.65170968 C10.3705929,5.29155171 10.6504792,5.01128567 11.0101492,5.01128567 C11.3698193,5.01128567 11.6497056,5.29155171 11.6497056,5.65170968 L11.6497056,5.65170968 L11.6497056,6.29277798 C11.9900731,5.55184477 12.9513379,4.89209206 14.2536136,4.89209206 C15.8962569,4.89209206 16.9572513,5.49192582 17.4365968,6.29277798 C17.9365317,5.5118988 18.8180128,4.89209206 20.360283,4.89209206 Z M47.4481327,5.0093528 C47.8078027,5.0093528 48.087689,5.29026313 48.087689,5.65106539 L48.087689,5.65106539 L48.087689,13.7910221 C48.087689,14.1518243 47.8078027,14.4327347 47.4481327,14.4327347 C47.0884626,14.4327347 46.8085763,14.1518243 46.8085763,13.7910221 L46.8085763,13.7910221 L46.8085763,5.65106539 C46.8085763,5.29026313 47.0884626,5.0093528 47.4481327,5.0093528 Z M56.7577312,5.01192996 C57.1180446,5.01192996 57.3985744,5.292196 57.3985744,5.65299826 C57.3985744,5.83339939 57.3387366,5.9332643 57.2788988,6.0337735 L57.2788988,6.0337735 L54.6157964,9.62117882 L57.3586825,13.4096025 C57.4391096,13.5101117 57.4790015,13.6499226 57.4790015,13.7903778 C57.4790015,14.15118 57.1984717,14.4320904 56.8381583,14.4320904 C56.6580015,14.4320904 56.437953,14.3521984 56.317634,14.1717973 L56.317634,14.1717973 L53.8147425,10.624338 L51.3118509,14.1717973 C51.1915319,14.3521984 50.9714834,14.4320904 50.7913267,14.4320904 C50.4310132,14.4320904 50.1504835,14.15118 50.1504835,13.7903778 C50.1504835,13.6499226 50.1910187,13.5101117 50.2708024,13.4096025 L50.2708024,13.4096025 L53.0136885,9.62117882 L50.3512295,6.0337735 C50.2907483,5.93390859 50.2309106,5.83339939 50.2309106,5.65299826 C50.2309106,5.292196 50.5114403,5.01192996 50.8717538,5.01192996 C51.0918023,5.01192996 51.271959,5.11179487 51.392278,5.27222302 L51.392278,5.27222302 L53.8147425,8.59933528 L56.2372069,5.27222302 C56.3575259,5.11179487 56.5376826,5.01192996 56.7577312,5.01192996 Z M7.10525235,0.780879176 C7.44561986,0.780879176 7.72614961,1.06114522 7.72614961,1.4013302 C7.72614961,1.74151519 7.44561986,2.02178123 7.10525235,2.02178123 L7.10525235,2.02178123 L1.3588964,2.02178123 L1.3588964,6.85588722 L5.7637282,6.85588722 C6.10409572,6.85588722 6.38462547,7.13615326 6.38462547,7.47633825 C6.38462547,7.81652323 6.10409572,8.09678927 5.7637282,8.09678927 L5.7637282,8.09678927 L1.3588964,8.09678927 L1.3588964,13.0314045 L7.32530091,13.0314045 C7.66566843,13.0314045 7.94619818,13.3116705 7.94619818,13.6518555 C7.94619818,13.9920405 7.66566843,14.2723065 7.32530091,14.2723065 L7.32530091,14.2723065 L7.32530091,14.2710179 L0.6794482,14.2710179 C0.299832255,14.2710179 0,13.9707789 0,13.590648 L0,13.590648 L0,1.46124915 C0,1.0811182 0.299832255,0.780879176 0.6794482,0.780879176 L0.6794482,0.780879176 Z M100.294533,10.4233196 C99.4091912,10.4233196 98.8925274,11.0089789 98.8925274,12.0585269 C98.8925274,13.2040741 99.456804,13.7008215 100.362735,13.7008215 C100.968834,13.7008215 101.322713,13.421844 101.424373,13.3200463 C101.464908,13.2788117 101.499009,13.2382215 101.499009,13.1628396 C101.499009,13.0539546 101.410861,12.9650426 101.302124,12.9650426 C101.247433,12.9650426 101.22041,12.9785727 101.179874,13.0056329 C100.989423,13.1486652 100.757793,13.2987847 100.362735,13.2987847 C99.7225352,13.2987847 99.3345548,12.8619563 99.3345548,12.1880292 L99.3345548,12.1880292 L101.322713,12.1880292 C101.594235,12.1880292 101.594235,11.949642 101.594235,11.7524893 C101.594235,11.2886007 101.383837,10.4233196 100.294533,10.4233196 Z M83.1255974,6.05310219 C81.2828515,6.05310219 80.2212137,7.17609922 80.2212137,9.70300362 C80.2212137,12.269854 81.2828515,13.372878 83.1255974,13.372878 C84.9683432,13.372878 86.029981,12.269854 86.029981,9.70300362 C86.029981,7.17609922 84.9683432,6.05310219 83.1255974,6.05310219 Z M72.6945233,6.05310219 C70.8723667,6.05310219 69.8705667,7.23601817 69.8705667,9.70300362 C69.8705667,12.209935 70.8517774,13.372878 72.6945233,13.372878 C74.2374369,13.372878 75.3389666,12.4902011 75.3389666,10.5850363 L75.3389666,10.5850363 L75.3389666,7.8184561 C75.3389666,7.8184561 74.5778044,6.05310219 72.6945233,6.05310219 Z M65.2476168,9.9620081 L62.4230166,9.9620081 C61.1213843,9.9620081 60.2199573,10.5038558 60.2199573,11.6674431 C60.2199573,12.7105482 60.9412276,13.372878 62.5034437,13.372878 C63.9060924,13.372878 65.24826,12.5095298 65.2476168,10.8047391 L65.2476168,10.8047391 L65.2476168,9.9620081 Z M42.8856637,9.9620081 L40.0610637,9.9620081 C38.758788,9.9620081 37.857361,10.5038558 37.857361,11.6674431 C37.857361,12.7105482 38.5786313,13.372878 40.1408474,13.372878 C41.5428528,13.372878 42.8850203,12.5095298 42.8856637,10.8047391 L42.8856637,10.8047391 L42.8856637,9.9620081 Z M30.7707677,6.05181361 C28.88813,6.05181361 28.1269679,7.81716752 28.1269679,7.81716752 L28.1269679,7.81716752 L28.1269679,10.5837477 C28.1269679,12.4889125 29.2284975,13.3715894 30.7707677,13.3715894 C32.6135136,13.3715894 33.5947243,12.2086465 33.5947243,9.70171504 C33.5947243,7.23537388 32.5935677,6.05181361 30.7707677,6.05181361 Z M100.294533,10.8169806 C100.996501,10.8169806 101.166363,11.3150166 101.166363,11.8059654 L101.166363,11.8059654 L99.3345548,11.8059654 C99.3750901,11.1990444 99.7019458,10.8169806 100.294533,10.8169806 Z M100.304827,3.10161085 C99.7328298,3.10161085 99.3654388,3.33999806 99.1749874,3.63959279 C99.1543981,3.67374015 99.1408863,3.7078875 99.1408863,3.75556495 C99.1408863,3.86444991 99.2290344,3.9533619 99.3377719,3.9533619 C99.3988965,3.9533619 99.4465093,3.93338892 99.5147115,3.85800702 C99.7257523,3.61897552 99.9438706,3.51009055 100.304827,3.51009055 C100.802189,3.51009055 101.108455,3.79679949 101.108455,4.26068811 L101.108455,4.26068811 L101.108455,4.44495498 L100.147834,4.44495498 C99.4117648,4.44495498 98.9568691,4.80511295 98.9568691,5.40559099 C98.9568691,6.03312921 99.4124082,6.37975709 100.134322,6.37975709 C100.542892,6.37975709 100.93795,6.2096646 101.108455,5.89009688 L101.108455,5.89009688 L101.108455,6.13557128 C101.108455,6.25089914 101.203681,6.34625403 101.318852,6.34625403 C101.434667,6.34625403 101.529893,6.25089914 101.529893,6.13492699 L101.529893,6.13492699 L101.529893,4.26004382 C101.529893,3.56421089 101.094943,3.10161085 100.304827,3.10161085 Z M101.108455,4.82637283 L101.108455,5.11308345 C101.108455,5.69294422 100.652273,5.98609606 100.175501,5.98609606 C99.6440383,5.98609606 99.3988965,5.76059464 99.3988965,5.40623528 C99.3988965,5.01064138 99.7058063,4.82573022 100.147834,4.82637283 L100.147834,4.82637283 L101.108455,4.82637283 Z M47.4481327,1.56369122 C47.9274782,1.56369122 48.2073646,1.78403831 48.2073646,2.36454338 C48.2073646,2.84518353 47.9274782,3.12544957 47.4481327,3.12544957 C46.9687871,3.12544957 46.6889008,2.84518353 46.6882574,2.36454338 C46.6882574,1.78403831 46.9687871,1.56369122 47.4481327,1.56369122 Z" id="Combined-Shape"></path>
                        </g>
                    </g>
                </g>
            </g>
        </g>
    </g>
</svg>