<?xml version="1.0" encoding="UTF-8"?>
<svg width="83px" height="41px" viewBox="0 0 83 41" version="1.1" xmlns="http://www.w3.org/2000/svg" xmlns:xlink="http://www.w3.org/1999/xlink">
    <title>A9DB3176-A70F-4912-9B9A-AA9581BD64D0</title>
    <defs>
        <filter id="filter-1">
            <feColorMatrix in="SourceGraphic" type="matrix" values="0 0 0 0 0.368627 0 0 0 0 0.247059 0 0 0 0 0.556863 0 0 0 1.000000 0"></feColorMatrix>
        </filter>
    </defs>
    <g id="Home-e-Busca---UI" stroke="none" stroke-width="1" fill="none" fill-rule="evenodd">
        <g id="desk_Home" transform="translate(-166.000000, -3612.000000)">
            <rect fill="#FFFFFF" x="0" y="0" width="1220" height="4208"></rect>
            <g id="logos" transform="translate(0.000000, 3485.000000)">
                <rect id="Rectangle" fill="#F3E9E9" transform="translate(610.000000, 124.000000) scale(1, -1) translate(-610.000000, -124.000000) " x="0" y="0" width="1220" height="248"></rect>
                <g id="1.-assets_logo-serenatadeamor" transform="translate(16.000000, 82.000000)" filter="url(#filter-1)">
                    <g transform="translate(150.000000, 45.000000)">
                        <path d="M46.4907293,28.4790833 L46.4907293,29.4465 C46.6716447,29.4565833 46.8184376,29.4648333 46.9892151,29.4744167 L46.9892151,30.4655833 C47.1593333,30.4754167 47.3062086,30.4838333 47.4853107,30.4940833 L47.4853107,31.4875 C47.6583137,31.4956667 47.7994195,31.5024167 47.9748951,31.5109167 L47.9748951,32.4579167 C48.0207215,32.4921667 48.0316836,32.5070833 48.0437995,32.50825 C48.4402474,32.5488333 48.4443685,32.5484167 48.4698368,32.9445 C48.4914313,33.2855833 48.5025582,33.6274167 48.5192898,33.9868333 C48.6697092,33.9951667 48.8107325,34.003 48.9843124,34.0125 L48.9843124,35.0046667 C49.1625904,35.0150833 49.3097129,35.0235 49.4873315,35.0336667 L49.4873315,36.00825 L49.9644701,36.00825 C49.9792236,35.6976667 49.994554,35.3815833 50.0104614,35.04525 C50.1614578,35.0364167 50.3084979,35.0276667 50.4870231,35.0170833 L50.4870231,34.0159167 L50.975948,34.0159167 L50.975948,33.00425 C51.1482092,32.9960833 51.2884083,32.98925 51.4544055,32.9813333 C51.4652027,32.7925833 51.4780605,32.60575 51.4861378,32.4188333 C51.4954514,32.2054167 51.5163865,31.9908333 51.5031166,31.7786667 C51.4895171,31.564 51.5644383,31.481 51.7735419,31.5096667 C51.831814,31.51775 51.8931356,31.5046667 51.9862721,31.4995 L51.9862721,30.5058333 C52.1653742,30.4956667 52.3119198,30.4875 52.4830271,30.4778333 L52.4830271,29.4869167 C52.6529804,29.4770833 52.8000205,29.4685833 52.9777215,29.4584167 L52.9777215,28.4838333 L55.4954542,28.4838333 L55.4948773,40.7864167 C55.4948773,40.8395 55.4857285,40.8924167 55.480948,40.9453333 L52.984068,40.9453333 C52.9801117,39.3659167 52.975084,37.7863333 52.9729411,36.2066667 C52.9726114,36.0198333 52.84527,36.0534167 52.7365559,36.0531667 L52.654218,36.0510208 C52.5733354,36.0506771 52.5032203,36.0675833 52.5014895,36.2083333 C52.4976981,36.5203333 52.4788236,36.8321667 52.4643998,37.1438333 C52.4472561,37.5133333 52.4461846,37.5128333 52.0905354,37.5313333 C52.0622648,37.5328333 52.0342414,37.5430833 51.9705295,37.5574167 L51.9705295,38.5330833 C51.7928286,38.5415 51.6520525,38.54825 51.4784726,38.5564167 L51.4784726,39.5475833 C51.2984638,39.5571667 51.1518357,39.5649167 50.9738051,39.5745 L50.9738051,40.5678333 C50.799401,40.5766667 50.6582952,40.58375 50.5083703,40.59125 C50.5007051,40.72 50.4942762,40.8326667 50.4874352,40.9453333 L48.9892577,40.9453333 C48.9839003,40.82575 48.9785429,40.7061667 48.972691,40.5805833 C48.8080951,40.5701667 48.6616319,40.5610833 48.5150863,40.5519167 C48.5061847,40.3664167 48.4953875,40.207 48.4914313,40.0473333 C48.487475,39.8889167 48.4905246,39.7303333 48.4905246,39.562 C48.3961519,39.557 48.3281541,39.54325 48.2629586,39.5518333 C48.0656413,39.578 47.997561,39.5036667 48.0047317,39.298 C48.0136332,39.0325 47.9893189,38.76525 47.9710213,38.4993333 C47.9438221,38.0993333 47.9406077,38.0995833 47.5473742,38.0628333 C47.5347637,38.0618333 47.5233071,38.0484167 47.4735245,38.0170833 L47.4735245,37.0694167 C47.2954114,37.0600833 47.1548001,37.0528333 46.9808905,37.04375 L46.9808905,36.056 L46.4925425,36.056 L46.4925425,40.9453333 L43.9958274,40.9453333 C43.9927778,40.8615 43.9872555,40.7775833 43.9872555,40.6935833 L43.9868434,28.4790833 L46.4907293,28.4790833 Z M35.0668479,28.4661667 C35.6488268,28.46975 36.2312178,28.4765 36.8131144,28.476 C36.9346862,28.476 36.9894142,28.5071667 36.9908978,28.6426667 C36.9941122,28.9935 37.0272457,29.3446667 37.0177672,29.6949167 C37.0119977,29.9106667 37.079501,29.9895 37.2867089,29.9604167 C37.3452282,29.95225 37.4066323,29.96525 37.4951531,29.9700833 L37.4951531,30.9744167 C37.6681561,30.98475 37.814372,30.9935 38.0215799,31.0059167 C38.0215799,31.4040833 38.0346025,31.79875 38.0166346,32.192 C38.0062495,32.4188333 38.0618016,32.5263333 38.3014012,32.4860833 C38.3574479,32.47675 38.4180278,32.4946667 38.5039111,32.5025 L38.5039111,33.5025 C38.6721336,33.5114167 38.8129921,33.5189167 39.0198703,33.5296667 L39.0198703,34.6875833 C39.0204198,34.9809861 38.9995053,35.0093426 39.1926104,35.0106929 L39.3360396,35.0101667 L39.3360396,35.0101667 C39.3806297,35.0101667 39.4251374,35.019 39.4972563,35.0266667 L39.4972563,36.0243333 C39.6699295,36.03575 39.8163927,36.0454167 40.017996,36.0588333 L40.0179044,37.3671555 C40.0190858,37.5176478 40.0364584,37.5342573 40.1859254,37.5353792 L40.3246043,37.5351667 C40.3693593,37.5353333 40.4145263,37.5418333 40.4952995,37.5483333 L40.4952995,38.5543333 C40.6715168,38.563 40.8124578,38.57 40.9915599,38.57875 L40.9915599,40.0398333 C41.1741238,40.053 41.3203397,40.06325 41.4991946,40.0758333 L41.4991946,40.9451667 L35.0075867,40.9451667 L35.0075867,40.0739167 C34.9408252,40.06475 34.8978011,40.0554167 34.8544474,40.0534167 C34.5372891,40.0385 34.5337449,40.039 34.5305305,39.7095833 C34.5265743,39.3314167 34.5296239,38.9533333 34.5296239,38.5854167 C34.3243116,38.55425 34.1235326,38.5819167 34.0491059,38.4965833 C33.9699812,38.4059167 34.0108623,38.2083333 33.9989936,38.0575 L33.9971906,38.0463229 L33.995585,38.0414167 L33.8452468,38.0556852 C33.7395029,38.0650185 33.6276293,38.0749444 33.4972933,38.0865 L33.4972933,39.5445833 C33.3139876,39.554 33.1742006,39.5613333 33.0022691,39.57025 L33.0022691,40.5709167 C32.946717,40.5821667 32.9249577,40.58925 32.9027863,40.59075 C32.5543901,40.6120833 32.5543901,40.612 32.5108715,40.9453333 L30.0139091,40.9453333 L30.0139091,38.0601667 L31.0110456,38.0601667 L31.0110456,37.58275 C31.043767,37.5576667 31.0543994,37.5424167 31.0665978,37.5411667 C31.4636226,37.4985833 31.4734308,37.4990833 31.4899151,37.1026667 C31.5040092,36.7605833 31.4927999,36.4176667 31.4927999,36.0536667 C31.6806387,36.04175 31.8273492,36.0323333 32.0024951,36.021 L32.0024951,35.0596667 C32.0429641,35.03125 32.0537613,35.017 32.066207,35.0155833 C32.4600174,34.97325 32.4702377,34.974 32.4881232,34.5745 C32.5033712,34.2328333 32.4913376,33.8898333 32.4913376,33.5289167 C32.6809073,33.51625 32.8274529,33.5065833 33.032353,33.4929167 C33.032353,33.1076667 33.0297979,32.7285 33.0331772,32.3493333 C33.036062,32.0278333 33.0388643,32.02825 33.3487695,32.0163333 C33.3931124,32.0145833 33.4372079,32.00625 33.509162,31.9978333 L33.509162,31.0003333 C33.6821649,30.9896667 33.828793,30.9805833 34.0303138,30.9680833 C34.0303138,30.57875 34.0299841,30.19925 34.0306435,29.8196667 C34.0308907,29.542 33.9680855,29.4768333 34.3500272,29.4905 C34.3936282,29.4920833 34.4378062,29.4805833 34.50737,29.4716667 L34.50737,28.4660833 L35.0668479,28.4661667 Z M78.9326139,28.4899167 C78.9426694,28.6305833 78.9533017,28.7784167 78.9665716,28.9569167 L79.9346958,28.9569167 L79.9346958,29.46275 L80.4423304,29.46275 L80.4423304,29.9736667 C80.6136849,29.9815833 80.761302,29.9883333 80.9436186,29.99675 L80.9436186,30.9855833 L81.447297,30.9855833 L81.447297,33.5100833 L80.9456791,33.5100833 L80.9456791,34.5386667 L80.4515616,34.5386667 L80.4515616,35.0269167 C80.2816907,35.0360833 80.1279744,35.0445 79.9514274,35.0540833 L79.9514274,35.5461667 L79.4374462,35.5461667 L79.4374462,36.05225 C78.8386533,36.05225 78.2652462,36.057 77.6918391,36.049 C77.5320236,36.04675 77.4683941,36.0809167 77.4626246,36.26125 C77.4557836,36.4759167 77.5241936,36.5539167 77.7312366,36.52525 C77.7951134,36.5163333 77.8626991,36.5323333 77.9392688,36.53775 C77.9478406,36.7130833 77.9557531,36.8763333 77.964737,37.0588333 L78.454651,37.0588333 L78.454651,37.57025 L78.9227233,37.57025 C78.9363229,37.7511667 78.9471201,37.9093333 78.9601427,38.0674167 C78.9721763,38.21025 78.9359932,38.4051667 79.0133047,38.4813333 C79.0991056,38.56575 79.289417,38.541 79.4498919,38.5664167 C79.4566505,38.71975 79.463409,38.87625 79.4718985,39.0625833 L79.9604113,39.0625833 L79.9604113,39.57275 L80.4533749,39.57275 L80.4533749,40.0818333 L80.9522729,40.0818333 L80.9522729,40.6025833 C81.1331883,40.59375 81.2900366,40.5859167 81.4470498,40.57825 L81.4470498,40.9454167 L77.9517144,40.9454167 C77.9922384,40.6088889 77.7899048,40.5896644 77.5708007,40.5892284 L77.4391345,40.5888333 L77.4391345,40.0726667 L76.947572,40.0726667 L76.947572,39.5625 L76.4546084,39.5625 L76.4546084,39.0510833 L75.9621394,39.0510833 L75.9621394,38.5516667 C75.8787287,38.5455833 75.8181488,38.5303333 75.7610306,38.53875 C75.5249752,38.57425 75.4607687,38.47 75.4707418,38.2415 C75.4800554,38.0180833 75.4417294,37.79275 75.4227724,37.5470833 L74.939617,37.5470833 L74.939617,37.0354167 L74.4464885,37.0354167 L74.4464885,36.52775 L73.9726467,36.52775 L73.9726467,35.53825 C74.1423528,35.5289167 74.2896402,35.52075 74.4726161,35.5108333 C74.4726161,35.1490833 74.4601705,34.8130833 74.4758306,34.4785833 C74.4955294,34.0613333 74.5055848,34.0619167 74.8998897,34.0206667 C74.9120881,34.0194167 74.9231326,34.0045 74.9551122,33.9808333 L74.9551122,33.4996667 L75.2179547,33.4995 C76.1558301,33.49675 77.0936231,33.49575 78.031581,33.4903333 C78.4123688,33.4880833 78.4117918,33.48375 78.4361062,33.0910833 C78.4379195,33.0629167 78.4510245,33.0354167 78.4606678,33.0009167 C78.616115,32.9935 78.7639793,32.98625 78.9264323,32.9785 L78.9264323,32.0045 C78.7676059,31.9940833 78.6208954,31.9844167 78.4538268,31.9733333 L78.4538268,31.5125 L73.4701222,31.5125 L73.4701222,31.8381667 C73.4701222,34.7749167 73.4701222,37.7115 73.4694628,40.64825 C73.4694628,40.7474167 73.4615503,40.8464167 73.4574293,40.94525 L70.9607965,40.9454167 C70.9641758,40.8461667 70.9705222,40.7471667 70.9705222,40.6478333 L70.9708725,34.9228021 L70.9708519,28.4899167 L78.9326139,28.4899167 Z M0.0525849826,28.4610833 C0.255919077,28.4626667 0.459170749,28.4654167 0.662587265,28.4656667 L5.90493089,28.47225 C5.94185577,28.47225 5.97869822,28.477 6.02345315,28.4800833 C6.03490976,28.51225 6.0507347,28.5389167 6.05353704,28.5668333 C6.08939044,28.9323333 6.08897833,28.9376667 6.44050646,28.94425 C6.79417756,28.9510833 7.1480135,28.9458333 7.52179547,28.9458333 C7.53094427,29.1394167 7.53811495,29.2885 7.54610984,29.4600833 L8.03948556,29.4600833 L8.03948556,29.9568333 L8.54448272,29.9568333 L8.54448272,30.455 C8.71756808,30.4639167 8.87144922,30.4718333 9.04123772,30.4808333 L9.04123772,30.9694167 C9.21011958,30.97775 9.36358861,30.9854167 9.52653611,30.9935 C9.53840483,31.2419167 9.56758207,31.4774167 9.55554852,31.71075 C9.5444216,31.9283333 9.62074401,32.0050833 9.82737497,31.9771667 C9.88572946,31.9690833 9.94696871,31.9819167 10.0388688,31.98675 L10.0388688,32.969 C10.0834589,32.9953333 10.0952452,33.00725 10.1088447,33.0093333 C10.4999352,33.0694167 10.5146063,33.069 10.5182328,33.48425 C10.5260629,34.4321667 10.5167493,35.3803333 10.5185625,36.3281667 C10.5185625,36.4631667 10.4734779,36.5274167 10.3336909,36.52025 C10.2458294,36.5156667 10.156979,36.5273333 10.0443086,36.53275 L10.0443086,37.54875 C9.87460254,37.5591667 9.72846904,37.5683333 9.55291103,37.5791667 L9.55291103,38.5460833 L9.05582634,38.5460833 L9.05582634,39.0660833 L8.55206551,39.0660833 L8.55206551,39.5714167 L8.04912889,39.5714167 L8.04912889,40.0680833 L7.54281298,40.0680833 C7.53333449,40.2366667 7.52468023,40.3850833 7.51437753,40.5694167 L6.52045542,40.5694167 C6.53001632,40.7204167 6.53693974,40.8328333 6.54411042,40.9453333 L0.0525849826,40.9453333 L0.0525849826,28.4610833 Z M22.0087933,28.4884167 L22.0087933,31.478 L15.0611467,31.478 L15.0611467,33.0114167 C15.4117682,32.9520833 15.6205422,33.0639167 15.5162788,33.4923333 L20.5146545,33.4923333 L20.5146545,36.0425833 L15.7997267,36.0430833 C15.6108164,36.0433333 15.4219885,36.05575 15.2331606,36.05375 C15.1115888,36.0526667 15.0521628,36.0933333 15.0528222,36.2253333 C15.0560366,36.82075 15.0543057,37.41625 15.0543057,38.0395 L22.0242886,38.0395 L22.0242886,40.9453333 L12.5364082,40.9453333 C12.5389633,40.8461667 12.5432492,40.7468333 12.5432492,40.6474167 L12.5436098,34.9339479 L12.5436613,28.4884167 L22.0087933,28.4884167 Z M62.4629644,28.4755833 C63.1263759,28.47375 63.7897049,28.4748333 64.4372091,28.4748333 C64.4572375,28.5019167 64.4644906,28.50725 64.4654797,28.5136667 C64.4927612,28.6509167 64.4763593,28.8351667 64.5584512,28.9116667 C64.6352682,28.9834167 64.8161836,28.9466667 64.9516023,28.948 L65.2765113,28.9497623 L65.2765113,28.9497623 L65.9486564,28.9490833 L65.9486564,28.9490833 L65.9486564,29.4536667 C66.1333632,29.4623333 66.2943326,29.4700833 66.4684895,29.47825 C66.4754953,29.63975 66.4823363,29.7889167 66.4896718,29.958 L66.9699425,29.958 L66.9699425,30.4523333 C67.1402255,30.45975 67.2874305,30.46625 67.4607631,30.4739167 L67.4607631,30.9663333 L67.9559521,30.9663333 L67.9559521,31.4620833 C67.9958442,31.4859167 68.0077129,31.4985833 68.0204058,31.4996667 C68.417101,31.5328333 68.4267443,31.5320833 68.4430638,31.9321667 C68.4571579,32.2805833 68.446031,32.6299167 68.446031,32.9923333 C68.6387327,33.00525 68.7786021,33.0145 68.9596,33.0266667 C68.9596,33.4165 68.9613308,33.796 68.9592703,34.1755833 C68.9560559,34.8711667 68.9424563,35.56675 68.9510281,36.2621667 C68.9535832,36.47075 68.8997619,36.5609167 68.6877735,36.5305 C68.6297487,36.5221667 68.5685095,36.5368333 68.4747961,36.5431667 L68.4747961,37.5243333 C68.291985,37.56875 68.0935962,37.5590833 68.0142242,37.6526667 C67.9352643,37.746 67.9717771,37.94275 67.9655955,38.0943333 C67.9597435,38.2384167 67.9641943,38.3829167 67.9641943,38.5498333 L67.4807092,38.5498333 L67.4807092,39.0620833 L66.9843663,39.0620833 L66.9843663,39.5679167 L66.4864574,39.5679167 C66.4784625,39.7405833 66.4712918,39.89575 66.4632969,40.072 L65.9682728,40.072 C65.9597009,40.2413333 65.9517884,40.3900833 65.9424748,40.5724167 L64.9484703,40.5724167 C64.9565476,40.7201667 64.9624819,40.8325833 64.9683339,40.945 L61.9725559,40.9453333 L61.9725559,40.5823333 L60.9863814,40.5823333 L60.9785819,40.4155278 L60.9637155,40.0960833 C60.7352428,40.0811667 60.5111384,40.0468333 60.2892595,40.0576667 C60.0654024,40.06875 59.9580895,40.00775 59.9941901,39.767 C60.0030917,39.7088333 59.9888327,39.6471667 59.983805,39.56675 C59.8236598,39.5588333 59.6692842,39.5508333 59.5074082,39.5426667 C59.4889457,39.313 59.4504548,39.0944167 59.4593564,38.87775 C59.4690821,38.6510833 59.4075956,38.5434167 59.1699741,38.579 C59.1134329,38.5874167 59.0531827,38.5715833 58.9733162,38.56525 L58.9733162,38.0673333 C58.8054234,38.0591667 58.6578063,38.0518333 58.4779623,38.043 L58.4779623,37.0494167 C58.3052891,37.0400833 58.1645954,37.0325833 57.9984334,37.0235833 L57.9984334,32.5184167 C58.1506661,32.50975 58.2914422,32.5015833 58.4655167,32.4915833 L58.4655167,31.499 C58.6447837,31.4903333 58.7921535,31.4830833 58.9546889,31.4753333 C58.9679588,31.2271667 58.9993614,30.9851667 58.9879048,30.7450833 C58.9778494,30.5346667 59.0521936,30.4684167 59.2464614,30.4963333 C59.3127283,30.5059167 59.3814679,30.4978333 59.4750989,30.4978333 L59.4750989,29.98925 L59.9772113,29.98925 C59.9850413,29.8133333 59.9919648,29.6640833 59.9993827,29.4969167 C60.3139035,29.481 60.6202646,29.46575 60.9545667,29.449 C60.9609955,29.3025833 60.9674244,29.15375 60.9751721,28.9739167 L61.9130475,28.9739167 C61.9491481,28.932 61.9653028,28.9221667 61.9674457,28.90975 C61.9906886,28.771 61.9656325,28.5745 62.0462408,28.508 C62.1346792,28.4349167 62.3198805,28.4760833 62.4629644,28.4755833 Z M36.0039815,33.5178333 L35.4957699,33.5178333 L35.4957699,34.4884167 C35.3159259,34.5015833 35.1702045,34.5118333 34.9984379,34.52425 L34.9984379,35.5244167 C34.8231272,35.5358333 34.6764991,35.5454167 34.493688,35.5571667 L34.493688,37.0183333 C34.3154101,37.0281667 34.1750461,37.0356667 34.0008068,37.04525 L34.000585,38.0364167 L34.1047714,38.0560104 C34.1414181,38.062625 34.1780133,38.0677917 34.2145261,38.06775 C35.258066,38.0656667 36.3015235,38.0610833 37.3448161,38.05575 C37.3950109,38.0555 37.4451232,38.0446667 37.4857571,38.04 L37.4857571,37.0478333 C37.3219029,37.0399167 37.180962,37.0330833 36.9899087,37.0236667 C36.9899087,36.66775 37.0007059,36.3259167 36.9871064,35.9848333 C36.9702924,35.5725833 36.9613084,35.5730833 36.5631296,35.5325 C36.5505191,35.53125 36.5393922,35.5170833 36.4993353,35.4894167 L36.4993353,34.52675 C36.3246839,34.5154167 36.1780559,34.5059167 36.0039815,34.49475 L36.0039815,33.5178333 Z M6.0373824,31.5078333 L2.58119733,31.5078333 L2.58119733,38.0381667 L6.04397613,38.0381667 C6.05427883,37.8716667 6.06351005,37.72325 6.07282369,37.5749167 L7.04127753,37.5246667 L7.04127753,37.02475 C7.10380805,37.02475 7.15505597,37.0212685 7.20190807,37.0216636 L7.26975021,37.0260833 C7.46624331,37.0534167 7.53729073,36.9801667 7.52888373,36.77325 C7.51866345,36.5228333 7.54627469,36.2711667 7.55880277,36.02 C7.56556134,35.88325 7.52616382,35.701 7.59729366,35.6225 C7.67270943,35.53925 7.8546139,35.555 7.9900326,35.527 C7.9965439,35.5256667 8.00190131,35.5186667 8.02407272,35.5020833 C8.02407272,35.0043333 8.03289183,34.49375 8.02118796,33.9836667 C8.01154463,33.5585833 8.00099467,33.5588333 7.60347528,33.51725 C7.59069993,33.5159167 7.57907848,33.5025833 7.52855404,33.47075 L7.52855404,32.50075 L7.03146936,32.50075 L7.03146936,32.0141667 C6.85723009,32.005 6.70062904,31.999 6.54452253,31.988 C6.40234526,31.9779167 6.21178652,32.0136667 6.13191998,31.9356667 C6.04636636,31.8521667 6.06532333,31.6595 6.0373824,31.5078333 Z M62.2338324,31.501 L61.9693414,31.501 L61.9693414,32.00375 L61.4614595,32.00375 L61.4614595,32.49825 L60.9708861,32.49825 L60.9708861,33.0141667 C60.8830247,33.0184167 60.8216206,33.0315 60.7631837,33.02275 C60.5346286,32.9876667 60.4877307,33.0953333 60.4896264,33.3080833 L60.4892723,33.9881327 L60.4892723,33.9881327 L60.4731421,35.3484167 L60.4731421,35.3484167 C60.471164,35.5760833 60.47273,35.80375 60.47273,36.0386667 C60.5619101,36.0455833 60.6228197,36.0613333 60.6801027,36.0530833 C60.9051961,36.0206667 60.9666826,36.1215833 60.9576163,36.3383333 C60.9479729,36.5703333 60.9783865,36.8038333 60.992563,37.0554167 L61.4761306,37.0554167 L61.4761306,37.548 L61.9757703,37.548 C61.9833531,37.7124167 61.9898644,37.8550833 61.9978593,38.03475 L64.4728976,38.03475 C64.4771835,37.954 64.491937,37.8783333 64.482953,37.8058333 C64.4585563,37.6126667 64.5366919,37.5560833 64.7243659,37.56175 C64.9625644,37.5689167 65.2017518,37.5409167 65.4660779,37.5269167 L65.4660779,37.0406667 C65.6401524,37.0323333 65.7877694,37.0254167 65.9659649,37.01675 L65.9659649,36.0345833 C66.0628103,36.0281667 66.1304785,36.0128333 66.1953443,36.0213333 C66.389612,36.04675 66.4588461,35.9805 66.4543129,35.771 C66.4424442,35.2438333 66.4571153,34.716 66.4601649,34.1885833 C66.4614836,33.9705 66.4603297,33.7525 66.4603297,33.5340833 C66.2706776,33.52325 66.1306433,33.5153333 65.9619263,33.5058333 L65.9619263,32.5015833 L65.4557752,32.5015833 L65.4557752,31.9970833 L64.9639655,31.9970833 C64.9578663,31.9145833 64.9424535,31.85325 64.9512726,31.7958333 C64.9878678,31.5566667 64.8848408,31.502 64.6594177,31.505 C63.8509442,31.5156667 63.0424707,31.5041667 62.2338324,31.501 Z M9.04107287,13.8195833 L9.04107287,16.3416667 L2.54971228,16.3416667 L2.54971228,16.81 C2.39805653,16.9650833 2.07207909,16.6971667 2.06515568,17.0979167 C2.057985,17.49925 2.38973195,17.2463333 2.54072833,17.4005 L2.54072833,17.8721667 L3.23908657,17.8721667 C4.2602078,17.8725 5.28132904,17.8766667 6.30236786,17.8698333 C6.47875009,17.8686667 6.58177709,17.9010833 6.55259984,18.10375 C6.52523587,18.2958333 6.60971801,18.3585 6.79665021,18.3478333 L7.04405849,18.3405926 L7.04405849,18.3405926 L7.53836221,18.3443333 L7.53836221,18.3443333 C7.56053362,18.52525 7.52995521,18.7150833 7.60825573,18.7930833 C7.68762774,18.8718333 7.87472477,18.8395833 8.01434697,18.8564167 C8.02151765,18.85725 8.02794653,18.8628333 8.03511721,18.8643333 C8.19485028,18.90175 8.42159211,18.88825 8.49643092,18.9894167 C8.58330329,19.107 8.53937258,19.32525 8.54728505,19.5 C8.55231277,19.6136667 8.54819169,19.7278333 8.54819169,19.8661667 C8.63094298,19.8719167 8.7027322,19.879 8.77460383,19.8814167 L8.85015697,19.882642 L8.85015697,19.882642 L9.02137411,19.882 L9.02137411,19.882 L9.02137411,22.8931667 C8.87433397,22.9015 8.72737625,22.90975 8.56278031,22.91925 C8.54646084,23.2400833 8.53038862,23.55625 8.51332735,23.88875 C8.35417124,23.8966667 8.20622446,23.904 8.06528352,23.9110833 C8.05044763,23.9326667 8.03627111,23.944 8.03445784,23.957 C8.01706688,24.0980833 8.0480574,24.2823333 7.97140531,24.3673333 C7.90555045,24.4399167 7.71680498,24.39875 7.58229293,24.408 C7.49220611,24.4143333 7.40228415,24.42325 7.31236218,24.42675 C7.230023,24.43 7.14768382,24.4273333 7.06765244,24.4273333 C7.05133296,24.4605833 7.03526075,24.4794167 7.03328263,24.4995833 C6.99635775,24.89825 6.99676986,24.9055 6.63197185,24.9066667 C4.60514221,24.9124167 2.57823016,24.91425 0.551235679,24.91825 C0.385073728,24.9185 0.218829355,24.9240833 0.0525849826,24.9271667 L0.0525849826,22.4028333 C0.143331167,22.40025 0.233912509,22.3953333 0.324329007,22.39525 L6.5226808,22.3949167 C6.53166476,22.2131667 6.53916512,22.0573333 6.5470776,21.8958333 C6.71521767,21.88625 6.8622578,21.8778333 7.02627679,21.8684167 L7.02627679,21.20925 C7.02586469,20.9095833 7.02586469,20.9104167 6.7386254,20.9041667 C6.67384202,20.9028333 6.60897622,20.893 6.53982449,20.88675 C6.53158233,20.7173333 6.52441166,20.5681667 6.51509801,20.3803333 L1.54301483,20.3803333 L1.54301483,19.86925 L1.03859462,19.86925 L1.03859462,19.373 L0.547032178,19.373 C0.547032178,19.1936667 0.551482944,19.0351667 0.545795854,18.877 C0.540438449,18.7256667 0.579835976,18.5164167 0.499227648,18.43875 C0.408975993,18.3516667 0.20621885,18.3835833 0.0525849826,18.3636667 L0.0525849826,15.83925 L0.554038014,15.83925 L0.554038014,14.8321667 L1.06513437,14.8321667 L1.06513437,14.3448333 C1.39638679,14.3280833 1.70876467,14.3123333 2.0270769,14.29625 C2.03531906,14.123 2.04265458,13.9713333 2.0499901,13.81975 L9.04107287,13.8195833 Z M76.9530943,13.8194167 C76.9652103,13.9628333 76.9286975,14.1486667 77.003866,14.23725 C77.0730177,14.3186667 77.2627522,14.2946667 77.3993248,14.3189167 C77.4114408,14.3211667 77.4216611,14.3359167 77.4619653,14.3680833 L77.4619653,15.3240833 C77.6371112,15.3354167 77.7836568,15.3449167 77.9701769,15.357 C77.9701769,15.73 77.9625941,16.0805833 77.9723198,16.4306667 C77.9823753,16.8068333 77.9894635,16.8064167 78.3719822,16.8370833 L78.3928379,16.8426543 L78.4578655,16.873 L78.4578655,17.8488333 C78.6325169,17.8603333 78.7791449,17.8698333 78.9676431,17.88225 C78.9676431,18.2440833 78.957258,18.587 78.970363,18.9288333 C78.985611,19.3318333 78.9945125,19.3314167 79.3868394,19.3663333 C79.3999444,19.3675833 79.4121428,19.3795833 79.4529415,19.4025833 L79.4529415,20.3746667 C79.6269335,20.385 79.7733967,20.39375 79.9636257,20.4051667 C79.9636257,20.7569167 79.9618125,21.0915 79.9646972,21.4258333 C79.9657687,21.5625833 79.927113,21.7511667 79.9979956,21.8220833 C80.0780269,21.9018333 80.2615798,21.8753333 80.400213,21.8956667 C80.4066419,21.8966667 80.4125762,21.9025833 80.4542816,21.9273333 L80.4542816,22.903 C80.6307462,22.9116667 80.7716047,22.9185 80.9643064,22.9278333 C80.9643064,23.2913333 80.9550752,23.64075 80.9664494,23.9894167 C80.9811204,24.4303333 80.9887032,24.4300833 81.4472146,24.4219167 L81.4473794,24.9269167 C81.2441278,24.9238333 81.0409585,24.918 80.8376244,24.9178333 L76.1182459,24.9170833 L76.1182459,24.9170833 C76.0736558,24.9170833 76.0290657,24.9130833 75.9506003,24.9091667 C76.0081306,24.5358333 75.8718877,24.3395833 75.4521145,24.4533333 L75.4521145,23.44125 C75.2809248,23.4295833 75.1343792,23.4196667 74.9697008,23.4083333 L74.9697008,22.393 L77.914295,22.393 C77.923279,22.30375 77.9269879,22.2448333 77.9353949,22.1865833 C77.9657261,21.9808333 77.9086903,21.8605 77.6737888,21.8959167 C77.5175998,21.9193333 77.4630367,21.84775 77.4668281,21.68675 C77.4761418,21.2678333 77.4700426,20.8485833 77.4700426,20.4089167 C77.2816268,20.3966667 77.1348339,20.3869167 76.9600177,20.37575 L76.9600177,19.4153333 C76.919796,19.386 76.9088339,19.37125 76.8965531,19.37 C76.4990337,19.3289167 76.4975501,19.32925 76.4700213,18.9170833 C76.4579053,18.7360833 76.4521358,18.5548333 76.442987,18.3620833 L75.9581831,18.3620833 L75.9581831,18.8383333 C75.9191153,18.8619167 75.907329,18.8746667 75.8944712,18.8759167 C75.5009081,18.91275 75.4917593,18.91225 75.4757695,19.3138333 C75.4623348,19.65575 75.473132,19.9986667 75.473132,20.3610833 C75.2847162,20.3733333 75.1380057,20.3828333 74.963272,20.39425 L74.963272,21.35725 C74.9228029,21.3845833 74.911676,21.3985833 74.8991479,21.39975 C74.5016286,21.4408333 74.4931391,21.4403333 74.47649,21.8603333 C74.4632201,22.1949167 74.4736876,22.5304167 74.4736876,22.8871667 C74.2893105,22.8986667 74.1422704,22.9081667 73.9667948,22.9191667 L73.9667948,23.8759167 C73.9260785,23.9075833 73.9155285,23.9228333 73.9034126,23.9241667 C73.5167728,23.96675 73.5153717,23.9663333 73.4767983,24.3614167 C73.4599843,24.535 73.4497641,24.7093333 73.4352579,24.9004167 L70.9804953,24.9004167 L70.9804953,22.3960833 L71.939553,22.3960833 C71.9487843,22.2268056 71.9657814,22.0660833 71.9726926,21.9088796 L71.9732635,21.6750833 C71.9625487,21.45875 72.0352445,21.38 72.2426173,21.4089167 C72.3011366,21.4170833 72.3624583,21.4040833 72.4507318,21.3990833 L72.4507318,20.3946667 C72.6233226,20.3841667 72.7698683,20.3754167 72.9768289,20.363 L72.9768289,19.1995 C72.9771586,18.8898333 72.9371017,18.8783333 73.2805525,18.8840833 C73.3312418,18.8849167 73.3819311,18.8735 73.4599843,18.8645833 L73.4599843,17.8656667 C73.6282893,17.8571667 73.7693126,17.85 73.9750369,17.8395833 C73.9750369,17.44425 73.9903674,17.0495833 73.9692674,16.6571667 C73.95608,16.411 74.0358641,16.32175 74.2719195,16.3578333 C74.3217022,16.3655 74.3748641,16.34975 74.453824,16.3421667 L74.453824,15.3430833 C74.626827,15.3320833 74.773455,15.3228333 74.9556067,15.3110833 L74.9556067,13.8194167 L76.9530943,13.8194167 Z M19.5275734,13.8195833 L19.5275734,16.3396667 L13.5267038,16.3396667 L13.5267038,17.863 L18.003598,17.863 L18.003598,20.3885 L13.5436002,20.3885 L13.5436002,22.3913333 L19.5014457,22.3913333 C19.5096879,22.4740833 19.5204027,22.53225 19.5203203,22.5905 C19.5176828,23.2939167 19.5108418,23.9973333 19.5111715,24.7006667 C19.5111715,24.8366667 19.4900716,24.91125 19.3277834,24.9110833 C16.6047385,24.9095833 13.8815288,24.9131667 11.158319,24.9150833 C11.1296363,24.9150833 11.1009536,24.90725 11.038478,24.89825 L11.038478,13.8195833 L19.5275734,13.8195833 Z M28.515814,13.8195833 L28.515814,14.2998333 C28.8420387,14.3176667 29.1542518,14.33475 29.4795698,14.3525833 C29.4988565,14.58475 29.538831,14.81025 29.5307536,15.0340833 C29.5223466,15.2595 29.5997405,15.3429167 29.8161797,15.3139167 C29.8735451,15.30625 29.9337129,15.3210833 30.0148157,15.3273333 L30.0148157,15.8178333 C30.050257,15.8375833 30.0624554,15.8496667 30.075478,15.8509167 C30.4683818,15.88725 30.482311,15.8868333 30.4898114,16.299 C30.5016801,16.9705 30.492861,17.64225 30.492861,18.3365 C30.3369193,18.3476667 30.1907034,18.3580833 30.0170411,18.3703333 L30.0170411,19.3578333 L29.5204509,19.3578333 L29.5204509,19.8723333 L29.0160307,19.8723333 C29.0079534,20.0453333 29.00103,20.1943333 28.9922109,20.3830833 L27.0515118,20.3830833 L27.0515118,20.8618333 C27.1994586,20.8700833 27.3402347,20.878 27.5024404,20.8869167 L27.5024404,21.3975 L27.9866673,21.3975 C28.0052946,21.6466667 28.0459285,21.8665833 28.0318344,22.08275 C28.0149379,22.336 28.110547,22.4159167 28.3430583,22.3824167 C28.3930058,22.37525 28.4458381,22.3891667 28.5224902,22.3954167 L28.5224902,22.8930833 L29.015701,22.8930833 L29.015701,23.40425 L29.5090768,23.40425 L29.5090768,23.9141667 L29.9986611,23.9141667 L29.9986611,24.9014167 L27.5347497,24.9014167 C27.5063142,24.7531667 27.5232931,24.5620833 27.4374922,24.478 C27.3591093,24.4010833 27.1697868,24.4396667 27.0096417,24.4256667 L27.0096417,23.9426667 L26.5226124,23.9426667 L26.5226124,23.429 L26.0297312,23.429 L26.0297312,22.9105 L25.5286903,22.9105 L25.5286903,22.3994167 L25.0283912,22.3994167 L25.0283912,21.9059167 C24.857696,21.8775833 24.6669724,21.9005 24.5818309,21.8155 C24.504437,21.738 24.5400432,21.5434167 24.5288338,21.40025 C24.5163057,21.2423333 24.5069921,21.0841667 24.4947937,20.9045 L24.0331503,20.9045 L24.0331503,19.4045833 C24.1972517,19.3930833 24.3437149,19.3825833 24.5188608,19.37025 L24.5188608,18.3724167 C24.6945013,18.3635833 24.8422008,18.35625 25.0093518,18.3478333 C25.0194896,18.1919167 25.0293802,18.0436667 25.040672,17.87025 L28.0094157,17.87025 L28.0094157,16.3645 L23.5213946,16.3645 L23.5213946,24.9046667 L21.513934,24.9046667 L21.5144286,14.0020833 C21.5144286,13.94125 21.5212695,13.8803333 21.5249785,13.8194167 L28.515814,13.8195833 Z M44.9942002,13.8195833 L44.9942002,14.3339167 L45.5034833,14.3339167 L45.5034833,14.8483333 L45.9708138,14.8483333 C45.9822704,15.02975 45.9912544,15.1885 46.0023813,15.34725 C46.0123543,15.4905833 45.9733689,15.68675 46.0497737,15.7628333 C46.1345031,15.8471667 46.3261333,15.8215 46.5026804,15.8486667 L46.5026804,16.3516667 L46.9991057,16.3516667 L46.9991057,16.8659167 L47.4652823,16.8659167 C47.4800358,17.0621667 47.492399,17.23575 47.5069052,17.409 C47.5180321,17.5435 47.4847338,17.7261667 47.5574297,17.7985 C47.6316091,17.8723333 47.8113706,17.8368333 47.9450584,17.8511667 C47.9571744,17.8525 47.9680541,17.86725 48.0033305,17.8933333 L48.0033305,18.3670833 L48.4926676,18.3670833 L48.4926676,18.8811667 L48.9686523,18.8811667 C48.9820871,19.1684167 48.999478,19.43325 49.0048354,19.6981667 C49.0071432,19.8140833 49.0445626,19.8579167 49.1629201,19.8633333 C49.4607093,19.87675 49.4677976,19.8743333 49.4719186,19.5765833 C49.4737319,19.4469167 49.4883205,19.3175833 49.4883205,19.1880833 C49.4891448,17.3985833 49.4886502,15.6091667 49.4884854,13.81975 L51.4860553,13.8195833 C51.4933909,13.91025 51.5072377,14.0009167 51.5072377,14.0915833 L51.5081464,19.1393958 L51.5081279,24.9040833 L49.5056291,24.9040833 C49.4980463,24.7505 49.490958,24.6013333 49.4827159,24.4325833 L49.0071432,24.4325833 C48.9978296,24.2513333 48.9897523,24.0886667 48.9806035,23.9105 L48.517971,23.9105 C48.4999207,23.5808333 48.482777,23.2654167 48.4644794,22.9320833 C48.3122467,22.92475 48.1645472,22.9176667 47.993852,22.9096667 L47.993852,22.41125 L47.5042677,22.41125 L47.5042677,21.8953333 L47.0207002,21.8953333 C47.0020729,21.5564167 46.9845171,21.2408333 46.9665492,20.9111667 C46.810113,20.9039167 46.6624959,20.8969167 46.492048,20.8889167 L46.492048,20.387 L46.0024637,20.387 L46.0024637,19.8771667 C45.8330873,19.8685833 45.6858823,19.86125 45.5203797,19.853 C45.5038954,19.5365833 45.4875759,19.22725 45.4702674,18.89925 L44.9960135,18.89925 L44.9960135,24.8963333 L43.0068505,24.8963333 C43.000092,24.8575 42.9807229,24.8128333 42.9864924,24.77175 C43.0248184,24.5080833 42.9306106,24.3893333 42.6548279,24.4230833 C42.6128753,24.4281667 42.5433939,24.3385 42.5152881,24.2788333 C42.4917979,24.2290833 42.5100955,24.159 42.5100955,24.0978333 L42.5096834,14.1168333 C42.5096834,14.01775 42.5018534,13.91875 42.497485,13.8195833 L44.9942002,13.8195833 Z M59.9752332,13.8195 L59.9752332,14.81725 C60.14939,14.8280833 60.2958532,14.837 60.494242,14.8493333 C60.494242,15.2414167 60.4936651,15.6213333 60.4946541,16.0011667 C60.4951486,16.30375 60.4415746,16.33625 60.8135433,16.3265833 C60.857474,16.3254167 60.9014871,16.3361667 60.9731115,16.3446667 L60.9731115,17.3421667 C61.1464441,17.3529167 61.2929073,17.362 61.4923676,17.3745 C61.4923676,17.7805 61.5042363,18.176 61.487752,18.5703333 C61.478768,18.7884167 61.5398425,18.88575 61.7634523,18.8525 C61.8211474,18.8439167 61.8823866,18.8586667 61.9695887,18.8645 L61.9695887,19.866 L62.3043975,19.8877901 C62.3623643,19.8915741 62.423402,19.8955556 62.4904932,19.8999167 C62.4904932,20.3030833 62.5014553,20.6983333 62.4861249,21.0925 C62.4778003,21.305 62.5277478,21.41325 62.7571271,21.3776667 C62.8153168,21.3686667 62.8768033,21.3826667 62.964912,21.3876667 L62.964912,22.3915833 C63.1375028,22.4025 63.2838011,22.4116667 63.4886188,22.4245 C63.4886188,22.8165833 63.4875474,23.2034167 63.4890309,23.5903333 C63.49002,23.8939167 63.4911739,23.8936667 63.7943206,23.90175 C63.8392403,23.9028333 63.8842425,23.9085833 63.9470478,23.9135 L63.9470478,24.90225 L58.4895014,24.90225 L58.4895014,24.4255833 L58.1648946,24.4074599 C58.1097209,24.4043611 58.0525844,24.4011389 57.9913452,24.3976667 L57.9913452,22.9343333 C57.8097704,22.9234167 57.6628951,22.9145 57.4993706,22.9044167 L57.4993706,22.4045833 L60.4541851,22.4045833 L60.4541851,21.4124167 C60.298161,21.3786667 60.0886453,21.3944167 60.0197408,21.3024167 C59.9406161,21.1965 59.983805,20.9954167 59.9780355,20.8356667 C59.9723484,20.6829167 59.9702879,20.5301667 59.9688043,20.37725 L59.9680961,20.2246358 L59.9684746,19.9011667 C59.8028072,19.8903333 59.6560143,19.8808333 59.4812805,19.86925 L59.4812805,18.8534167 C59.1012345,18.9131667 58.8663329,18.8218333 59.0070266,18.3776667 L58.4885947,18.3776667 L58.4885947,19.32775 C58.4482906,19.3613333 58.4380703,19.3771667 58.4260367,19.3785833 C58.0285173,19.42725 58.0179674,19.4265 57.9980213,19.836 C57.9819491,20.1705833 57.9948069,20.5065833 57.9948069,20.8675 C57.8120782,20.8785 57.6656974,20.8875 57.4840402,20.8984167 L57.4840402,21.8776667 C57.3042787,21.9164167 57.1133079,21.9020833 57.0335237,21.9905833 C56.9577783,22.0743333 56.9916536,22.2654167 56.9894282,22.4095833 C56.9849774,22.7295 56.9879446,23.0496667 56.9879446,23.3933333 L56.4876455,23.4248333 L56.4876455,24.42025 C56.3112632,24.4298333 56.1642231,24.438 56.0000393,24.4469167 C55.9916323,24.5994167 55.9837198,24.742 55.9751479,24.9006667 L53.9760944,24.9006667 C54.0499441,24.52775 53.9145255,24.3325833 53.5100002,24.4228333 L53.5100002,22.4124167 L54.4713658,22.4124167 L54.4832559,22.2397469 L54.5055708,21.9158333 L54.9716649,21.9158333 L54.9716649,20.9006667 C55.146646,20.89 55.2931092,20.881 55.5000698,20.8683333 L55.5000698,19.7273333 L55.4995002,19.649543 L55.4991542,19.5312122 C55.5042579,19.3875833 55.5491519,19.3862083 55.8294266,19.3900833 C55.866846,19.3905833 55.9041005,19.3829167 55.9773733,19.3754167 L55.9773733,18.3709167 C56.1537556,18.3623333 56.2948613,18.3555833 56.4979482,18.3458333 C56.4979482,17.9619167 56.4967118,17.5830833 56.4983603,17.2044167 C56.4995966,16.8700833 56.4426433,16.8573333 56.8228541,16.8643333 C56.8662079,16.8651667 56.9097265,16.854 56.9804442,16.845 L56.9804442,15.8469167 C57.1488316,15.8380833 57.2898549,15.83075 57.4962386,15.8200833 L57.4957166,14.5179815 C57.4968728,14.3241042 57.5240147,14.3374028 57.814963,14.3394167 C57.8589761,14.3396667 57.9032365,14.3303333 57.9775808,14.322 L57.9775808,13.8195 L59.9752332,13.8195 Z M71.9597463,13.8195833 L71.9597463,16.3406667 L68.9433629,16.3406667 L68.9433629,16.657 C68.9433629,19.1429167 68.9404782,21.6289167 68.9483906,24.1148333 C68.9489676,24.3406667 68.8993498,24.448 68.6618932,24.41275 C68.5146057,24.39075 68.4557567,24.4648333 68.4686145,24.6126667 C68.4764445,24.70275 68.4702629,24.7943333 68.4702629,24.90125 L66.4837375,24.90125 L66.4837375,16.3454167 L62.971176,16.3454167 L62.971176,13.8195833 L71.9597463,13.8195833 Z M40.5002448,13.8195 L40.5185424,15.8358333 L40.5193086,15.9962562 L40.5189545,16.33925 L34.5281403,16.33925 L34.5281403,17.8675 L38.9741264,17.8675 C39.0025618,18.0411667 38.9806377,18.2321667 39.064378,18.32025 C39.1386399,18.3981667 39.3305174,18.3618333 39.4795356,18.3766667 L39.4795356,20.3946667 L38.7923867,20.39475 C37.4536126,20.3970833 36.1150034,20.4039167 34.7763941,20.3975 C34.5743788,20.3965833 34.5181672,20.4569167 34.5225356,20.6573333 C34.5351461,21.2216667 34.5271512,21.7864167 34.5271512,22.3839167 L40.5028822,22.3839167 L40.5028822,24.8996667 L32.50197,24.8996667 L32.5024645,13.9106667 C32.5024645,13.88025 32.5078219,13.8498333 32.5107067,13.8195 L40.5002448,13.8195 Z M29.7070534,2.00366667 L29.7070534,2.38691667 L30.0861928,2.38691667 L30.0861928,2.77016667 L30.4650849,2.77016667 L30.4650849,3.53658333 L29.7070534,3.53658333 L29.7070534,3.15333333 L29.3281613,3.15333333 L29.3281613,2.77008333 L27.8120984,2.77008333 L27.8120984,3.15333333 L27.432959,3.15333333 L27.432959,5.98733333 L27.8120984,5.98733333 L27.8120984,6.37058333 L29.3281613,6.37058333 L29.3281613,5.98733333 L29.7070534,5.98733333 L29.7070534,5.60408333 L30.4650849,5.60408333 L30.4650849,6.37058333 L30.0861104,6.37058333 L30.0861104,6.75366667 L29.706971,6.75366667 L29.706971,7.13691667 L29.3280789,7.13691667 L29.3280789,7.52016667 L28.9489395,7.52016667 L28.9489395,7.90341667 L28.5698002,7.90341667 L28.5698002,8.28658333 L27.4328766,8.28658333 L27.4328766,7.90341667 L27.812016,7.90341667 L27.812016,7.52016667 L28.1909905,7.52016667 L28.1909905,7.13691667 L27.432959,7.13691667 L27.432959,6.75366667 L27.0538196,6.75366667 L27.0538196,6.37058333 L26.6748451,6.37058333 L26.6748451,2.77008333 L27.0538196,2.77008333 L27.0538196,2.38691667 L27.432959,2.38691667 L27.432959,2.00366667 L29.7070534,2.00366667 Z M3.08479333,2.04975 L3.08479333,2.43283333 L3.46376786,2.43283333 L3.46376786,2.81608333 L3.84282481,2.81608333 L3.84282481,6.64825 L3.46376786,6.64825 L3.46376786,7.03141667 L3.08479333,7.03141667 L3.08479333,7.41466667 L0.810698885,7.41466667 L0.810698885,7.03141667 L0.431559512,7.03141667 L0.431559512,6.64825 L0.0525849826,6.64825 L0.0525849826,2.81608333 L0.431559512,2.81608333 L0.431559512,2.43283333 L0.810698885,2.43283333 L0.810698885,2.04975 L3.08479333,2.04975 Z M8.40906402,2.04975 L8.40906402,2.43283333 L8.78812098,2.43283333 L8.78812098,2.81608333 L9.16726035,2.81608333 L9.16726035,4.349 L8.78812098,4.349 L8.78812098,4.73208333 L8.40906402,4.73208333 L8.40906402,5.11541667 L6.13521685,5.11541667 L6.13521685,7.41466667 L5.37702052,7.41466667 L5.37702052,2.04975 L8.40906402,2.04975 Z M14.4916135,2.04975 L14.4916135,2.81608333 L11.4594875,2.81608333 L11.4594875,4.349 L13.7337468,4.349 L13.7337468,5.11541667 L11.4594875,5.11541667 L11.4594875,6.64825 L14.4916135,6.64825 L14.4916135,7.41466667 L10.7016209,7.41466667 L10.7016209,2.04975 L14.4916135,2.04975 Z M19.0580999,2.04975 L19.0580999,2.43283333 L19.4371569,2.43283333 L19.4371569,2.81608333 L19.8162139,2.81608333 L19.8162139,4.349 L19.4371569,4.349 L19.4371569,4.73208333 L19.0580999,4.73208333 L19.0580999,5.11541667 L18.3002333,5.11541667 L18.3002333,5.49866667 L18.6792078,5.49866667 L18.6792078,5.88183333 L19.0581824,5.88183333 L19.0581824,6.265 L19.4372393,6.265 L19.4372393,6.64825 L19.8162963,6.64825 L19.8162963,7.41466667 L19.0580999,7.41466667 L19.0580999,7.03141667 L18.6791254,7.03141667 L18.6791254,6.64825 L18.3001509,6.64825 L18.3001509,6.265 L17.9210939,6.265 L17.9210939,5.88183333 L17.5419546,5.88183333 L17.5419546,5.49866667 L17.1630625,5.49866667 L17.1630625,5.11541667 L16.7841703,5.11541667 L16.7841703,7.41466667 L16.025974,7.41466667 L16.025974,2.04975 L19.0580999,2.04975 Z M23.6243392,2.04975 L23.6243392,2.43283333 L24.0034785,2.43283333 L24.0034785,2.81608333 L24.3826179,2.81608333 L24.3826179,3.19925 L24.76151,3.19925 L24.76151,3.58258333 L25.1404021,3.58258333 L25.1404021,7.41466667 L24.3826179,7.41466667 L24.3826179,5.88183333 L22.1083586,5.88183333 L22.1083586,7.41466667 L21.3505744,7.41466667 L21.3505744,3.58258333 L21.7294665,3.58258333 L21.7294665,3.19925 L22.108441,3.19925 L22.108441,2.81608333 L22.487498,2.81608333 L22.487498,2.43283333 L22.8665549,2.43283333 L22.8665549,2.04975 L23.6243392,2.04975 Z M34.2733751,2.04975 L34.2733751,2.43283333 L34.652432,2.43283333 L34.652432,2.81608333 L35.0314066,2.81608333 L35.0314066,3.19925 L35.4105459,3.19925 L35.4105459,3.58258333 L35.789438,3.58258333 L35.789438,7.41466667 L35.0314066,7.41466667 L35.0314066,5.88183333 L32.7573121,5.88183333 L32.7573121,7.41466667 L31.9992806,7.41466667 L31.9992806,3.58258333 L32.37842,3.58258333 L32.37842,3.19925 L32.7573945,3.19925 L32.7573945,2.81608333 L33.1362867,2.81608333 L33.1362867,2.43283333 L33.5153436,2.43283333 L33.5153436,2.04975 L34.2733751,2.04975 Z M40.3559245,2.04975 L40.3559245,2.43283333 L40.7348991,2.43283333 L40.7348991,2.81608333 L41.1140384,2.81608333 L41.1140384,6.64825 L40.7348991,6.64825 L40.7348991,7.03141667 L40.3559245,7.03141667 L40.3559245,7.41466667 L38.0819125,7.41466667 L38.0819125,7.03141667 L37.7026907,7.03141667 L37.7026907,6.64825 L37.3237986,6.64825 L37.3237986,2.81608333 L37.7026907,2.81608333 L37.7026907,2.43283333 L38.0819125,2.43283333 L38.0819125,2.04975 L40.3559245,2.04975 Z M39.9770324,2.816 L38.4609695,2.816 L38.4609695,3.19916667 L38.0819125,3.19916667 L38.0819125,6.26483333 L38.4609695,6.26483333 L38.4609695,6.64808333 L39.9770324,6.64808333 L39.9770324,6.26483333 L40.3559245,6.26483333 L40.3559245,3.19916667 L39.9770324,3.19916667 L39.9770324,2.816 Z M2.7058188,2.816 L1.18959099,2.816 L1.18959099,3.19916667 L0.810616463,3.19916667 L0.810616463,6.26483333 L1.18959099,6.26483333 L1.18959099,6.64808333 L2.7058188,6.64808333 L2.7058188,6.26483333 L3.08471091,6.26483333 L3.08471091,3.19916667 L2.7058188,3.19916667 L2.7058188,2.816 Z M23.6244216,3.19925 L22.8666374,3.19925 L22.8666374,3.58258333 L22.4875804,3.58258333 L22.4875804,3.96575 L22.1085235,3.96575 L22.1085235,5.11541667 L24.3827003,5.11541667 L24.3827003,3.96575 L24.003561,3.96575 L24.003561,3.58258333 L23.6244216,3.58258333 L23.6244216,3.19925 Z M34.2734575,3.19925 L33.515426,3.19925 L33.515426,3.58258333 L33.1363691,3.58258333 L33.1363691,3.96575 L32.757477,3.96575 L32.757477,5.11541667 L35.031489,5.11541667 L35.031489,3.96575 L34.6525145,3.96575 L34.6525145,3.58258333 L34.2734575,3.58258333 L34.2734575,3.19925 Z M8.03025434,2.81608333 L6.13521685,2.81608333 L6.13521685,4.34891667 L8.03025434,4.34891667 L8.03025434,3.96566667 L8.40914645,3.96566667 L8.40914645,3.19925 L8.03025434,3.19925 L8.03025434,2.81608333 Z M18.6791254,2.81608333 L16.7841703,2.81608333 L16.7841703,4.34891667 L18.6791254,4.34891667 L18.6791254,3.96566667 L19.0580999,3.96566667 L19.0580999,3.19925 L18.6791254,3.19925 L18.6791254,2.81608333 Z M33.8945654,0.044 L33.8945654,0.427166667 L34.6525145,0.427166667 L34.6525145,0.044 L35.031489,0.044 L35.031489,0.810333333 L34.6525145,0.810333333 L34.6525145,1.19358333 L33.8945654,1.19358333 L33.8945654,0.810333333 L33.1362867,0.810333333 L33.1362867,1.19358333 L32.7573945,1.19358333 L32.7573945,0.427166667 L33.1362867,0.427166667 L33.1362867,0.044 L33.8945654,0.044 Z" id="logo-serenata" fill="#F3E9E9"></path>
                    </g>
                </g>
            </g>
        </g>
    </g>
</svg>