<?xml version="1.0" encoding="utf-8"?>
<!-- Generator: Adobe Illustrator 24.0.2, SVG Export Plug-In . SVG Version: 6.00 Build 0)  -->
<svg version="1.1" id="Camada_1" xmlns="http://www.w3.org/2000/svg" xmlns:xlink="http://www.w3.org/1999/xlink" x="0px" y="0px"
	 viewBox="0 0 407 109" style="enable-background:new 0 0 407 109;" xml:space="preserve">
<style type="text/css">
	.st0{fill:#A289C5;}
</style>
<g>
	<path class="st0" d="M122.4,34.2c0-7.9,4.9-13.2,12.1-13.2c7.2,0,12.1,5.3,12.1,13.2c0,7.9-4.9,13.2-12.1,13.2
		S122.4,42.1,122.4,34.2 M142,34.2c0-5.5-2.9-8.9-7.5-8.9c-4.6,0-7.5,3.4-7.5,8.9c0,5.5,2.9,8.9,7.5,8.9C139,43.1,142,39.6,142,34.2
		"/>
	<path class="st0" d="M167.6,37.9c0,5.8-3.2,9.3-7.5,9.3c-2,0-4-0.8-5.2-2.2v9.2h-4.4V28.9h4.4v1.8c1.2-1.5,3.2-2.1,5.2-2.1
		C164.9,28.6,167.6,32.5,167.6,37.9 M163.2,37.9c0-3.5-1.3-5.5-4.2-5.5c-3.2,0-4.5,2.3-4.5,5.5c0,3.1,1.3,5.5,4.5,5.5
		C161.8,43.4,163.2,41.4,163.2,37.9"/>
	<path class="st0" d="M186.4,39.3h-12.3c0.2,2.4,1.6,3.9,4.5,3.9c1.6,0,3-0.5,4.3-1.9l3,2.6c-2,2.2-4.3,3.2-7.3,3.2
		c-6.2,0-8.8-4.4-8.8-9.2c0-4.7,2.5-9.4,8.5-9.4c5.6,0,8.2,4.1,8.2,9.1C186.5,38.2,186.5,38.7,186.4,39.3 M182.3,35.9
		c-0.1-2.3-1.8-3.7-4.1-3.7c-2.6,0-3.9,1.9-4.1,3.7H182.3z"/>
	<path class="st0" d="M206.2,35.3v11.5h-4.4V36.4c0-1.2,0-4-3.3-4c-4.1,0-4.1,4.1-4.1,7.3v7.1h-4.4V28.9h4.4V31
		c1.3-1.7,3.2-2.4,5.4-2.4C203.9,28.6,206.2,31,206.2,35.3"/>
	<polygon class="st0" points="237.2,46.8 229.7,34.2 224.9,39.1 224.9,46.8 220.3,46.8 220.3,21.5 224.9,21.5 224.9,33.4 
		236.2,21.5 242.2,21.5 232.8,31.1 242.4,46.8 	"/>
	<path class="st0" d="M260.9,35.3v11.5h-4.4V36.4c0-1.2,0-4-3.3-4c-4.1,0-4.1,4.1-4.1,7.3v7.1h-4.4V28.9h4.4V31
		c1.3-1.7,3.2-2.4,5.4-2.4C258.6,28.6,260.9,31,260.9,35.3"/>
	<path class="st0" d="M264,37.9c0-5.1,3.4-9.3,9-9.3c5.5,0,9,4.2,9,9.3c0,5-3.4,9.3-9,9.3C267.4,47.2,264,42.9,264,37.9 M277.5,37.9
		c0-2.9-1.3-5.5-4.6-5.5c-3.3,0-4.6,2.5-4.6,5.5c0,2.9,1.3,5.5,4.6,5.5C276.2,43.4,277.5,40.8,277.5,37.9"/>
	<polygon class="st0" points="282.5,28.9 287.2,28.9 290.2,40.2 293.6,28.9 297.3,28.9 300.7,40.1 303.8,28.9 308.4,28.9 
		302.9,46.8 299,46.8 295.5,35.1 291.9,46.8 288,46.8 	"/>
	<path class="st0" d="M310.9,42.5v-21h4.4v20.7c0,0.8,0.5,1.1,1.3,1.1c0.4,0,0.9-0.1,1.4-0.2v3.5c-1,0.4-2,0.5-2.8,0.5
		C312.7,47.2,310.9,45.7,310.9,42.5"/>
	<path class="st0" d="M336.3,39.3h-12.3c0.2,2.4,1.6,3.9,4.5,3.9c1.6,0,3-0.5,4.3-1.9l3,2.6c-2,2.2-4.3,3.2-7.3,3.2
		c-6.2,0-8.8-4.4-8.8-9.2c0-4.7,2.5-9.4,8.5-9.4c5.6,0,8.2,4.1,8.2,9.1C336.4,38.2,336.4,38.7,336.3,39.3 M332.3,35.9
		c-0.1-2.3-1.8-3.7-4.1-3.7c-2.6,0-3.9,1.9-4.1,3.7H332.3z"/>
	<path class="st0" d="M355.7,21.5v25.3h-4.4v-1.8c-1.2,1.5-3.2,2.1-5.2,2.1c-4.9,0-7.5-4-7.5-9.3c0-5.8,3.2-9.3,7.5-9.3
		c2,0,4,0.8,5.2,2.2v-9.2H355.7z M351.8,37.9c0-3-1.3-5.4-4.5-5.4c-2.9,0-4.3,2-4.3,5.4c0,3.3,1.3,5.3,4.2,5.3
		C350.4,43.2,351.8,40.9,351.8,37.9"/>
	<path class="st0" d="M376,49.3c0,3.7-3.4,5.3-8.2,5.3c-5.3,0-8.4-2-8.4-5.7c0-0.4,0-0.6,0.1-0.8l2.6-1.6c-1.3-0.7-2.1-1.8-2.1-3.7
		c0-1.6,0.6-2.7,1.7-3.6c-0.9-1.1-1.5-2.5-1.5-4.1c0-3.9,3.3-6.6,7.3-6.6c1.6,0,3,0.4,4.2,1.1l2.7-2.3l2.3,2.8l-2.6,2.1
		c0.5,0.9,0.8,2,0.8,3.1c0,4-3.3,6.5-7.3,6.5c-1.2,0-2.4-0.3-3.4-0.7c-0.3,0.2-0.5,0.5-0.5,0.9c0,1.3,1.8,1.7,4.1,2
		C371.3,44.6,376,45,376,49.3 M371.6,49.7c0-1.4-2.3-1.5-4.9-1.9l-1.5-0.2l-1.6,1.5c0,0.1,0,0.2,0,0.3c0,1.5,2.2,2,4.2,2
		C369.8,51.3,371.6,50.9,371.6,49.7 M364.5,35.3c0,1.7,1,3.1,3,3.1c2,0,3-1.3,3-3.1c0-1.9-1.1-3-3-3
		C365.7,32.2,364.5,33.4,364.5,35.3"/>
	<path class="st0" d="M393.5,39.3h-12.3c0.2,2.4,1.6,3.9,4.5,3.9c1.6,0,3-0.5,4.3-1.9l3,2.6c-2,2.2-4.3,3.2-7.3,3.2
		c-6.2,0-8.8-4.4-8.8-9.2c0-4.7,2.5-9.4,8.5-9.4c5.6,0,8.2,4.1,8.2,9.1C393.6,38.2,393.6,38.7,393.5,39.3 M389.5,35.9
		c-0.1-2.3-1.8-3.7-4.1-3.7c-2.6,0-3.9,1.9-4.1,3.7H389.5z"/>
	<path class="st0" d="M124.1,58.6h8.8c5,0,8,2.4,8,6.4c0,2.4-1,4.2-2.8,5.3c2.7,1,4.1,3.1,4.1,6.2c0,4.6-3.1,7.4-8.2,7.4h-9.9V58.6z
		 M133,68.6c2.3,0,3.5-1,3.5-2.9c0-1.9-1.3-3-3.5-3h-4.3v5.9H133z M133.7,79.7c2.5,0,4.1-1.4,4.1-3.6c0-2.1-1.4-3.3-4.1-3.3h-5v6.9
		H133.7z"/>
	<path class="st0" d="M158.8,66.7l-2.1,3.8c-0.6-0.4-1.3-0.6-2.2-0.6c-2.6,0-4,1.6-4,5v9h-4.4V66h4.4v3c0.8-2.2,2.8-3.4,4.8-3.4
		C156.6,65.6,157.7,65.9,158.8,66.7"/>
	<path class="st0" d="M175.7,72.6v11.3h-4l-0.4-2.3c-1.1,1.7-3.1,2.7-5.4,2.7c-3.8,0-6.5-2.4-6.5-5.8c0-2.1,0.9-3.7,2.7-4.5
		c1.2-0.5,2.7-0.8,4.8-0.8h4.5v-0.5c0-2-1.3-3.2-3.4-3.2c-1.8,0-3.5,0.9-4.8,2.7l-3.2-2.6c2.1-2.6,4.8-3.8,8.1-3.8
		C172.8,65.6,175.7,68.3,175.7,72.6 M171.4,76.4h-3.9c-1.5,0-2.4,0.2-2.9,0.6c-0.5,0.3-0.7,0.8-0.7,1.5c0,1.3,1.1,2.1,2.8,2.1
		C169.2,80.5,171.4,78.7,171.4,76.4"/>
	<path class="st0" d="M178.4,79.2l3.5-1.6c0.5,1.3,1.4,2.9,3.8,2.9c2,0,2.9-1.2,2.9-2.1c0-3-9.2-1-9.2-7.7c0-3.4,3.1-5.2,6.6-5.2
		c3.1,0,5.4,1.5,6.8,3.9l-3.4,1.9c-0.6-1.1-1.6-2.3-3.6-2.3c-1.4,0-2.3,0.7-2.3,1.5c0,2.7,9.4,1.1,9.4,7.7c0,4.2-3.6,6-7,6
		C182.2,84.3,179.3,82,178.4,79.2"/>
	<path class="st0" d="M196.5,58.6h4.6v4h-4.6V58.6z M196.6,66h4.4v17.9h-4.4V66z"/>
	<path class="st0" d="M205.8,79.6v-21h4.4v20.7c0,0.8,0.5,1.1,1.3,1.1c0.4,0,0.9-0.1,1.4-0.2v3.5c-1,0.4-2,0.5-2.8,0.5
		C207.6,84.3,205.8,82.8,205.8,79.6"/>
	<path class="st0" d="M74.7,4.1v28.4c-4.4-1.3-9.1-1.3-13.5,0V4.1H74.7z M81.8,30.9l17-16.8l9.6,9.4l-17,16.8l-3.3,3.2
		c-2.1-4.1-5.5-7.3-9.5-9.5L81.8,30.9z M68,35.6c9.1,0,17,6.6,18.3,15.5l8-7.9l20-19.8L98.8,8.2L78.8,28V0H57v39.1
		C60.2,36.8,64.1,35.6,68,35.6"/>
	<path class="st0" d="M98.8,94.1l-17-16.9l-3.2-3.2c4.1-2.1,7.4-5.4,9.6-9.5l3.2,3.2l17,16.8L98.8,94.1z M74.7,80.1V104H61.3V75.6
		c4.4,1.4,9.1,1.4,13.5,0V80.1z M86.4,57c-1.6,10-11.1,16.9-21.3,15.3c-2.9-0.5-5.6-1.6-8-3.3v39.1h21.8v-28l20,19.8l15.4-15.3
		l-20-19.8L86.4,57z"/>
	<path class="st0" d="M21.6,23.5l20,19.8H13.4v21.6h28.2l-20,19.8l15.4,15.3l15.8-15.6V64.9c-4.8-6.5-4.8-15.2,0-21.7V23.9L37,8.2
		L21.6,23.5z"/>
</g>
</svg>
