<?xml version="1.0" encoding="UTF-8"?>
<svg width="119px" height="36px" viewBox="0 0 119 36" version="1.1" xmlns="http://www.w3.org/2000/svg" xmlns:xlink="http://www.w3.org/1999/xlink">
    <title>82646BAA-EE4D-4EAF-9265-BAE8420C66DC</title>
    <g id="Home-e-Busca---UI" stroke="none" stroke-width="1" fill="none" fill-rule="evenodd">
        <g id="desk_Home" transform="translate(-16.000000, -9.000000)">
            <rect fill="#FFFFFF" x="0" y="0" width="1220" height="4208"></rect>
            <g id="2.-component/navbar-desktop">
                <rect id="navbar" fill="#F3E9E9" x="0" y="0" width="1220" height="54"></rect>
                <g id="1.-assets/logo_QD" transform="translate(16.000000, 9.000000)">
                    <g id="Group-38" transform="translate(1.475410, 1.475410)">
                        <path d="M21.1622459,15.1413492 L11.8382459,15.1413492 C11.1951148,15.1413492 10.674,15.6626115 10.674,16.3055951 C10.674,16.9485787 11.1951148,17.469841 11.8382459,17.469841 L21.1622459,17.469841 C21.805082,17.469841 22.3264918,16.9485787 22.3264918,16.3055951 C22.3264918,15.6626115 21.805082,15.1413492 21.1622459,15.1413492" id="Fill-1" fill="#FF8F33"></path>
                        <path d="M21.1622459,19.7985393 L11.8382459,19.7985393 C11.1951148,19.7985393 10.674,20.3198016 10.674,20.9627852 C10.674,21.6057689 11.1951148,22.1270311 11.8382459,22.1270311 L21.1622459,22.1270311 C21.805082,22.1270311 22.3264918,21.6057689 22.3264918,20.9627852 C22.3264918,20.3198016 21.805082,19.7985393 21.1622459,19.7985393" id="Fill-3" fill="#FF8F33"></path>
                        <path d="M21.1622459,10.4845131 L11.8382459,10.4845131 C11.1951148,10.4845131 10.674,11.0057754 10.674,11.648759 C10.674,12.2917426 11.1951148,12.8130049 11.8382459,12.8130049 L21.1622459,12.8130049 C21.805082,12.8130049 22.3264918,12.2917426 22.3264918,11.648759 C22.3264918,11.0057754 21.805082,10.4845131 21.1622459,10.4845131" id="Fill-5" fill="#FF8F33"></path>
                        <path d="M28.5172525,2.95495082 C35.2002689,2.95495082 39.9357443,7.9585082 39.4816131,14.6260328 C39.1657279,19.2647213 36.3810393,22.8180984 32.2571213,24.1580656 C31.8124328,25.075623 31.1170721,26.1501639 30.5133344,26.9818525 C30.5019738,26.9976393 30.8101869,27.514918 30.8101869,27.514918 C30.8869082,27.5003115 31.3760066,27.4129672 31.4521377,27.3971803 C37.7391541,26.0898197 42.4629738,20.518377 42.4629738,13.843623 C42.4629738,6.19804918 36.2650721,0 28.6194984,0 L21.7983836,0 C23.8502361,0.640918033 25.7384656,1.65201639 27.385318,2.95495082 L28.5172525,2.95495082 Z" id="Fill-7" fill="#FF8F33"></path>
                        <path d="M34.1112836,12.7889705 L32.584677,12.7889705 C32.440382,12.1685607 32.2602344,11.5618721 32.048218,10.9705279 L34.1112836,10.9705279 C34.6149885,10.9705279 35.023382,10.5621344 35.023382,10.058577 C35.023382,9.55487213 34.6149885,9.14662623 34.1112836,9.14662623 L31.2658082,9.14662623 C28.552677,3.74588852 22.9632344,0.0390688525 16.5074311,0.0390688525 C7.39072623,0.0390688525 -4.42622951e-05,7.4296918 -4.42622951e-05,16.5463967 C-4.42622951e-05,25.6631016 7.39072623,33.053577 16.5074311,33.053577 C19.9744967,33.053577 23.1911852,31.9839049 25.8473656,30.1576426 C27.2326279,30.8931344 29.5898902,32.1416262 30.4230541,32.5652164 C31.6320049,33.1798721 32.3124639,31.9430361 31.7965131,31.0796262 C31.4238246,30.456118 30.3646279,28.6137738 29.3644475,26.8983148 C31.3111033,24.483659 32.5920541,21.5099705 32.9269721,18.2552164 L34.1112836,18.2552164 C34.6149885,18.2552164 35.023382,17.8469705 35.023382,17.3432656 C35.023382,16.8395607 34.6149885,16.4313148 34.1112836,16.4313148 L33.0132836,16.4313148 C33.0088574,15.8165115 32.9709393,15.2099705 32.9011525,14.6128721 L34.1112836,14.6128721 C34.6149885,14.6128721 35.023382,14.2046262 35.023382,13.7009213 C35.023382,13.1972164 34.6149885,12.7889705 34.1112836,12.7889705 M4.07134918,16.5463967 C4.07134918,9.67821639 9.63925082,4.11060984 16.5074311,4.11060984 C23.3753164,4.11060984 28.943218,9.67821639 28.943218,16.5463967 C28.943218,23.414577 23.3753164,28.9821836 16.5074311,28.9821836 C9.63925082,28.9821836 4.07134918,23.414577 4.07134918,16.5463967" id="Fill-9" fill="#5E408F"></path>
                        <path d="M58.9271148,8.35794813 C58.9271148,9.74430355 58.6638752,10.9086824 58.1375937,11.8504858 C57.6111146,12.7926885 56.9016327,13.5195021 56.0091478,14.0307268 C56.6486698,14.3269618 57.2713933,14.5790808 57.8775162,14.7878825 C58.4840344,14.996285 59.0535962,15.1947065 59.5867946,15.3833466 C59.599838,15.4641924 59.6065574,15.5348576 59.6065574,15.5953422 L59.6065574,15.7670147 C59.6065574,16.4397315 59.4367955,16.9309944 59.0968766,17.2406037 C58.7573529,17.5502131 58.2941146,17.704918 57.707952,17.704918 C57.1350305,17.704918 56.5188286,17.5334451 55.8591487,17.1902997 C55.1996665,16.8469547 54.5101449,16.3524979 53.7905839,15.7065301 L52.7913803,14.8182246 L52.6911833,14.8182246 C51.7985008,14.8182246 50.9726164,14.6798885 50.2129371,14.4042144 C49.4532578,14.1285403 48.7971352,13.7179235 48.2443717,13.1727635 C47.6912129,12.627803 47.2582115,11.9514932 46.9451699,11.1440334 C46.6319306,10.3363741 46.4754098,9.40774556 46.4754098,8.35794813 C46.4754098,7.3081507 46.6352903,6.38291566 46.9550513,5.58204339 C47.2750098,4.78157036 47.7147306,4.10845438 48.2742134,3.56329432 C48.8338939,3.01813425 49.4900165,2.60791678 50.2429765,2.33184341 C50.9957388,2.05616928 51.8119395,1.91803279 52.6911833,1.91803279 C53.5706247,1.91803279 54.3901851,2.05616928 55.1496668,2.33184341 C55.9091484,2.60791678 56.5686307,3.01813425 57.1283112,3.56329432 C57.6879917,4.10845438 58.1277124,4.78157036 58.4474733,5.58204339 C58.7672343,6.38291566 58.9271148,7.3081507 58.9271148,8.35794813 M55.6229508,8.32582304 C55.6229508,7.03968219 55.3507975,6.06824819 54.8062915,5.41111938 C54.2617856,4.75459308 53.5258751,4.42622951 52.5981613,4.42622951 C51.6840053,4.42622951 50.9514843,4.7511789 50.4003988,5.40107768 C49.8491139,6.05097647 49.5737705,7.02602547 49.5737705,8.32582304 C49.5737705,9.63947815 49.8459238,10.6209538 50.3904298,11.2708526 C50.9347364,11.9207514 51.6708463,12.2459016 52.5981613,12.2459016 C53.5258751,12.2459016 54.2617856,11.9207514 54.8062915,11.2708526 C55.3507975,10.6209538 55.6229508,9.63947815 55.6229508,8.32582304" id="Fill-12" fill="#FF8F33"></path>
                        <path d="M68.3271689,13.8561945 C67.9064893,14.1185315 67.3873651,14.3247089 66.7697964,14.4753098 C66.1516429,14.6257163 65.4683796,14.7013082 64.7192267,14.7013082 C64.0096465,14.7013082 63.3653711,14.6257163 62.7871803,14.4753098 C62.2085995,14.3247089 61.7126732,14.0856908 61.2986214,13.7578667 C60.8845697,13.4306256 60.5625295,13.0178821 60.3326957,12.5198305 C60.102667,12.0221675 59.9878475,11.4191811 59.9878475,10.7118429 L59.9878475,4.99289685 C60.1322978,4.95364346 60.3227538,4.91439008 60.5594105,4.8751367 C60.7960671,4.83568899 61.0588457,4.8160623 61.3479412,4.8160623 C61.9393879,4.8160623 62.3631866,4.91439008 62.6197272,5.11085133 C62.8756829,5.30731257 63.0039531,5.6808027 63.0039531,6.23112738 L63.0039531,10.6922162 C63.0039531,11.2817943 63.1550313,11.704254 63.4575776,11.9597896 C63.759539,12.215131 64.1870416,12.3429959 64.7391105,12.3429959 C65.0808397,12.3429959 65.3664262,12.3134587 65.5964549,12.2545787 C65.8264837,12.1955043 66.0005647,12.133515 66.119088,12.0678336 L66.119088,4.99289685 C66.2502824,4.95364346 66.4343054,4.91439008 66.671157,4.8751367 C66.9076187,4.83568899 67.1703973,4.8160623 67.4596877,4.8160623 C68.0511344,4.8160623 68.4778572,4.91439008 68.7412206,5.11085133 C69.0039992,5.30731257 69.1353885,5.6808027 69.1353885,6.23112738 L69.1353885,12.4411294 C69.1353885,13.0571355 68.8657871,13.5287591 68.3271689,13.8561945" id="Fill-14" fill="#FF8F33"></path>
                        <path d="M73.3860044,10.9843533 C73.5705897,11.5341482 73.8939564,11.9237804 74.3561047,12.1524734 C74.8176658,12.3817487 75.3524345,12.4960952 75.9592366,12.4960952 C76.5137754,12.4960952 77.0350379,12.4209643 77.52322,12.2703143 C78.011402,12.1200526 78.4073893,11.9530951 78.7111818,11.769636 C78.9090776,11.9006782 79.0738928,12.070936 79.2058233,12.2802153 C79.3377539,12.4896887 79.4041106,12.7187699 79.4041106,12.9672648 C79.4041106,13.2685649 79.3113286,13.530261 79.1267433,13.7527416 C78.9417666,13.9754163 78.6878884,14.1619816 78.3647174,14.3122434 C78.0411549,14.4625051 77.6584781,14.5739396 77.2164913,14.6459643 C76.7743088,14.7177948 76.2892586,14.7540984 75.7615366,14.7540984 C74.9826768,14.7540984 74.2633227,14.6459643 73.6038659,14.4300843 C72.9436261,14.2140103 72.3763641,13.8934907 71.9012968,13.4679432 C71.4262295,13.042784 71.0531441,12.5092965 70.7828236,11.8678691 C70.5121116,11.2266358 70.3770492,10.4739681 70.3770492,9.61006008 C70.3770492,8.77255466 70.5121116,8.0460954 70.7828236,7.43068228 C71.0531441,6.81565744 71.4162466,6.3050781 71.8715439,5.89933254 C72.3270369,5.49378112 72.8481037,5.1957814 73.4355273,5.00591577 C74.0225593,4.81643842 74.6262295,4.72131148 75.2469293,4.72131148 C75.9198923,4.72131148 76.5366773,4.82284493 77.0976756,5.02552357 C77.6584781,5.22859049 78.1402006,5.51338892 78.5428432,5.87972474 C78.9450942,6.2462547 79.2584781,6.68461521 79.4829949,7.19500041 C79.7075116,7.70557975 79.8196721,8.26197533 79.8196721,8.86399302 C79.8196721,9.28293986 79.7075116,9.59705293 79.4829949,9.80633222 C79.2584781,10.0158056 78.9417666,10.1532544 78.5328603,10.2186784 L73.3860044,10.9843533 Z M75.2890121,6.93442623 C74.7132845,6.93442623 74.23467,7.11171338 73.8531685,7.46589106 C73.4714685,7.82026705 73.2470559,8.3317028 73.1803279,9 L77.0163934,8.37830513 C76.9893845,8.03086991 76.8356718,7.70346378 76.5544609,7.39569011 C76.2732501,7.08831306 75.8514338,6.93442623 75.2890121,6.93442623 L75.2890121,6.93442623 Z" id="Fill-16" fill="#FF8F33"></path>
                        <path d="M83.8325784,14.3962466 C83.7001021,14.4355781 83.5145566,14.4715995 83.2761385,14.5045055 C83.0375239,14.5372168 82.7719815,14.5537672 82.4808874,14.5537672 C81.8845474,14.5537672 81.4535079,14.4583592 81.1887518,14.268322 C80.923406,14.07809 80.7911262,13.7069722 80.7911262,13.1557474 L80.7911262,7.14971433 C80.7911262,6.78229605 80.883899,6.46725482 81.0694445,6.20459066 C81.2549899,5.94212121 81.5134564,5.71216838 81.8448438,5.51531629 C82.2819764,5.25284684 82.8089334,5.04606453 83.4251252,4.89516407 C84.0413171,4.74426361 84.6873849,4.66852131 85.3631321,4.66852131 C86.7413577,4.66852131 87.4304705,5.12823227 87.4304705,6.04707005 C87.4304705,6.27040274 87.3972531,6.47387497 87.331015,6.65748676 C87.2645802,6.84148797 87.1920524,6.99900858 87.1124487,7.1300486 C86.8073993,7.06443123 86.4367014,7.0315252 85.9989792,7.0315252 C85.6145227,7.0315252 85.2304592,7.07767153 84.8463958,7.16938007 C84.4617427,7.26147803 84.1238691,7.38609261 83.8325784,7.54361322 L83.8325784,14.3962466 Z" id="Fill-18" fill="#FF8F33"></path>
                        <path d="M88.2295082,2.35083264 C88.2295082,1.90500016 88.3790315,1.52452533 88.6782669,1.20979716 C88.9771247,0.895068999 89.3686794,0.737704918 89.8523646,0.737704918 C90.3360498,0.737704918 90.7274158,0.895068999 91.0264624,1.20979716 C91.325509,1.52452533 91.4754098,1.90500016 91.4754098,2.35083264 C91.4754098,2.80989226 91.325509,3.19659163 91.0264624,3.51151431 C90.7274158,3.82624248 90.3360498,3.98360656 89.8523646,3.98360656 C89.3686794,3.98360656 88.9771247,3.82624248 88.6782669,3.51151431 C88.3790315,3.19659163 88.2295082,2.80989226 88.2295082,2.35083264 L88.2295082,2.35083264 Z M91.3278689,14.4479098 C91.1983038,14.4875227 91.0172967,14.5238018 90.7842716,14.5569432 C90.5512464,14.5898886 90.2923083,14.6065574 90.0076491,14.6065574 C89.4254702,14.6065574 89.0079829,14.5104668 88.755571,14.3188739 C88.5033511,14.127477 88.3770492,13.7537042 88.3770492,13.1983397 L88.3770492,5.04730645 C88.5062303,5.00769359 88.6878133,4.96788462 88.9206465,4.92827176 C89.1536716,4.88865889 89.4124178,4.86885246 89.6970769,4.86885246 C90.2794478,4.86885246 90.6969351,4.96788462 90.949347,5.16634115 C91.2015669,5.36460157 91.3278689,5.7415121 91.3278689,6.29668051 L91.3278689,14.4479098 Z" id="Fill-20" fill="#FF8F33"></path>
                        <path d="M97.4808382,4.81335898 C97.7834698,4.81335898 98.0695162,4.83605693 98.3391725,4.88145282 C98.6086337,4.92704108 98.8554609,4.98840248 99.0790688,5.06630645 L99.0790688,1.79818667 C99.223848,1.75913851 99.4144806,1.7202827 99.6515518,1.68142689 C99.8884279,1.64257108 100.151255,1.62295082 100.440814,1.62295082 C101.032809,1.62295082 101.457,1.7202827 101.713388,1.9147541 C101.970167,2.10941785 102.098361,2.47893275 102.098361,3.0236835 L102.098361,12.4973837 C102.098361,12.8086149 102.032215,13.0713725 101.900899,13.2852718 C101.769388,13.4993635 101.558658,13.6971049 101.26949,13.8786885 C100.900907,14.0993203 100.427545,14.3003318 99.8488184,14.481723 C99.2697013,14.6631142 98.6057069,14.7540984 97.8558594,14.7540984 C96.1983123,14.7540984 94.8921768,14.3424576 93.9388189,13.5187914 C92.9848757,12.6953175 92.5081967,11.4600106 92.5081967,9.81287053 C92.5081967,8.9568886 92.6363908,8.21766645 92.8927789,7.59520408 C93.1493621,6.97274171 93.5011641,6.45415131 93.948575,6.03885581 C94.3955956,5.62394502 94.9220303,5.31617623 95.5270984,5.11478003 C96.1323616,4.9139609 96.7834781,4.81335898 97.4808382,4.81335898 L97.4808382,4.81335898 Z M99,7.36885246 C98.8284665,7.29226147 98.6405033,7.22531528 98.4361105,7.16801388 C98.2317177,7.11071247 98.0175453,7.08196721 97.7933977,7.08196721 C97.0810545,7.08196721 96.5142311,7.29226147 96.0923408,7.71303911 C95.6700593,8.13381674 95.4590164,8.80327869 95.4590164,9.72123583 C95.4590164,10.600992 95.6600842,11.2417087 96.0624153,11.6433859 C96.4647465,12.0450631 97.0219859,12.2459016 97.733938,12.2459016 C98.0106996,12.2459016 98.2581225,12.2171564 98.4756199,12.159855 C98.6935085,12.1023645 98.8677803,12.0354183 99,11.9590164 L99,7.36885246 Z" id="Fill-22" fill="#FF8F33"></path>
                        <path d="M113.459016,9.72790102 C113.459016,10.5003707 113.34137,11.1973212 113.105688,11.8189467 C112.870006,12.4407663 112.532791,12.967459 112.094624,13.399413 C111.655875,13.831367 111.129183,14.1650878 110.513964,14.4007697 C109.898551,14.6362574 109.211501,14.7540984 108.452427,14.7540984 C107.693158,14.7540984 107.002615,14.6393636 106.381183,14.4104765 C105.759364,14.1815894 105.229176,13.8509748 104.79101,13.4190208 C104.352261,12.9870668 104.01524,12.4603741 103.779752,11.8385545 C103.54407,11.216929 103.42623,10.5131837 103.42623,9.72790102 C103.42623,8.96902093 103.547177,8.27847694 103.789653,7.65665732 C104.031548,7.03503183 104.371675,6.50795088 104.810424,6.07599688 C105.248978,5.64423701 105.778971,5.31032201 106.400985,5.07483428 C107.022416,4.83915241 107.70636,4.72131148 108.452427,4.72131148 C109.198688,4.72131148 109.879137,4.83915241 110.494356,5.07483428 C111.109381,5.31032201 111.636073,5.64753734 112.074822,6.08589785 C112.513377,6.52464663 112.853504,7.0513393 113.095981,7.66636415 C113.337875,8.28177726 113.459016,8.96902093 113.459016,9.72790102 M108.368753,7.08196721 C107.73814,7.08196721 107.248768,7.31084496 106.900041,7.76801906 C106.551313,8.22538696 106.377049,8.87868661 106.377049,9.72791802 C106.377049,10.6035062 106.547931,11.2664959 106.890094,11.7172746 C107.232057,12.1680533 107.725209,12.3934426 108.368753,12.3934426 C109.012695,12.3934426 109.505449,12.1649525 109.84781,11.7073908 C110.189575,11.2502167 110.360656,10.5903278 110.360656,9.72791802 C110.360656,8.89186501 110.186193,8.24185995 109.837465,7.77770906 C109.488539,7.31413956 108.999167,7.08196721 108.368753,7.08196721" id="Fill-24" fill="#FF8F33"></path>
                        <path d="M57.9836066,25.8638529 C57.9836066,26.9140936 57.8241131,27.8325432 57.5051262,28.6201751 C57.1861392,29.4076123 56.7376255,30.064037 56.1591906,30.5888654 C55.58115,31.1138884 54.8832429,31.5077043 54.0656664,31.7701185 C53.248287,32.0325327 52.3410077,32.1639344 51.3442229,32.1639344 C51.1180931,32.1639344 50.8623909,32.157121 50.5767222,32.1440782 C50.2906591,32.1308407 49.9982873,32.1078697 49.6994095,32.0751652 C49.4001375,32.0422661 49.0979082,31.9965189 48.7921303,31.9373394 C48.4861552,31.8783546 48.2069923,31.8030176 47.9546417,31.710939 C47.2634377,31.4617624 46.9180328,31.0155804 46.9180328,30.3721985 L46.9180328,21.0010146 C46.9180328,20.7386004 46.9878235,20.5353657 47.1274049,20.3907264 C47.2669863,20.2464765 47.4692611,20.1283122 47.7356093,20.0364283 C48.2803317,19.8658981 48.8585695,19.7543526 49.4701254,19.7017919 C50.081287,19.6494258 50.6394155,19.6229508 51.1449053,19.6229508 C52.1683053,19.6229508 53.0988481,19.7479285 53.9363367,19.9969105 C54.7738252,20.2464765 55.4914472,20.6303643 56.089597,21.1487685 C56.6875497,21.6673675 57.1528211,22.3169788 57.4852141,23.0977973 C57.8172129,23.8788104 57.9836066,24.800764 57.9836066,25.8638529 M54.7377049,25.9031558 C54.7377049,24.6328688 54.4221498,23.6866129 53.7914335,23.0643879 C53.1605202,22.4423572 52.3403132,22.1311475 51.3312065,22.1311475 C51.092078,22.1311475 50.8661468,22.1379468 50.6540039,22.1507681 C50.4414671,22.163978 50.2289303,22.1900093 50.0163934,22.2292504 L50.0163934,29.53782 C50.1887472,29.5770611 50.3979354,29.6065891 50.6439581,29.6262097 C50.8895869,29.6458303 51.1251699,29.6557377 51.351101,29.6557377 C52.3871934,29.6557377 53.210355,29.3447223 53.8213738,28.7224974 C54.4319986,28.1004667 54.7377049,27.1606214 54.7377049,25.9031558" id="Fill-26" fill="#FF8F33"></path>
                        <path d="M59.0163934,19.7606687 C59.0163934,19.3148362 59.1727133,18.9343614 59.4855503,18.6196332 C59.7979925,18.3049051 60.2073452,18.147541 60.7130161,18.147541 C61.218687,18.147541 61.6278422,18.3049051 61.9404819,18.6196332 C62.2531215,18.9343614 62.4098361,19.3148362 62.4098361,19.7606687 C62.4098361,20.2197283 62.2531215,20.6064277 61.9404819,20.9213504 C61.6278422,21.2360785 61.218687,21.3934426 60.7130161,21.3934426 C60.2073452,21.3934426 59.7979925,21.2360785 59.4855503,20.9213504 C59.1727133,20.6064277 59.0163934,20.2197283 59.0163934,19.7606687 L59.0163934,19.7606687 Z M62.2622951,31.8577459 C62.1262518,31.8973587 61.9361943,31.9336379 61.6915179,31.9667793 C61.4468415,31.9997247 61.1749565,32.0163934 60.8760644,32.0163934 C60.2647765,32.0163934 59.8264148,31.9203028 59.5613824,31.728906 C59.2965514,31.5373131 59.1639344,31.1635402 59.1639344,30.6081757 L59.1639344,22.4571425 C59.2995746,22.4175297 59.4902368,22.3777207 59.7347116,22.3381078 C59.979388,22.298495 60.2510714,22.2786885 60.5499636,22.2786885 C61.161453,22.2786885 61.5998147,22.3777207 61.8648471,22.5761772 C62.1296781,22.7744376 62.2622951,23.1513482 62.2622951,23.7065166 L62.2622951,31.8577459 Z" id="Fill-28" fill="#FF8F33"></path>
                        <path d="M67.7602632,21.9836066 C68.4435761,21.9836066 69.0645037,22.0532056 69.623436,22.1924035 C70.1819785,22.3316015 70.6586403,22.5470832 71.0528368,22.8386519 C71.4472282,23.1304171 71.7527207,23.5016118 71.9697042,23.9520392 C72.1864927,24.4028598 72.295082,24.9331098 72.295082,25.5427892 L72.295082,30.0364464 C72.295082,30.3812957 72.206378,30.6561528 72.0289701,30.8616074 C71.8513673,31.0672587 71.637698,31.2428291 71.3881572,31.3885151 C70.980314,31.6403691 70.4810375,31.8326511 69.8895479,31.9649678 C69.2982532,32.0974811 68.6278073,32.1639344 67.8786001,32.1639344 C66.5246465,32.1639344 65.4467473,31.9020535 64.6450976,31.3784881 C63.8432529,30.8551194 63.442623,30.0563038 63.442623,28.9826311 C63.442623,28.0680138 63.7116591,27.3720238 64.2507062,26.8948578 C64.7897532,26.4174952 65.6177217,26.1194385 66.7350016,26.0000978 L69.3573242,25.7217018 L69.3573242,25.5030745 C69.3573242,25.0787959 69.1863498,24.7673698 68.8445959,24.5684032 C68.5030369,24.3696332 68.009804,24.2701499 67.3660668,24.2701499 C66.8662054,24.2701499 66.3768716,24.3299185 65.8970904,24.4492592 C65.4171143,24.5684032 64.9868515,24.7076012 64.6057169,24.8666565 C64.4479993,24.7606852 64.3130914,24.5982875 64.2013829,24.3794636 C64.0896744,24.1608362 64.0339176,23.9256938 64.0339176,23.6736432 C64.0339176,23.0905059 64.3362909,22.6729119 64.9408424,22.4210579 C65.3219769,22.2753718 65.7656916,22.1658616 66.2717915,22.0929202 C66.7775015,22.0201755 67.2738537,21.9836066 67.7602632,21.9836066 L67.7602632,21.9836066 Z M67.8051942,29.8032787 C68.1019544,29.8032787 68.3955107,29.7724791 68.6860634,29.7110825 C68.9762156,29.6496858 69.1954817,29.5710658 69.3442623,29.4754248 L69.3442623,27.5901639 L67.6836467,27.7336253 C67.2515222,27.7745564 66.9039003,27.8738446 66.6407809,28.0306795 C66.3776616,28.1879197 66.2459016,28.4235773 66.2459016,28.7376524 C66.2459016,29.0655062 66.3672489,29.3252767 66.610344,29.5163559 C66.8532388,29.7078404 67.2515222,29.8032787 67.8051942,29.8032787 L67.8051942,29.8032787 Z M68.9689125,17.2622951 C69.5789449,17.2752753 70.0402082,17.4069864 70.3521118,17.6580011 C70.6636219,17.9090157 70.8196721,18.2018343 70.8196721,18.5364569 C70.8196721,18.8065601 70.7600464,19.0319961 70.6405981,19.2120013 C70.5213466,19.3923882 70.3153131,19.604844 70.0236782,19.8489867 L68.1528466,21.3934426 C67.6221184,21.3934426 67.2206778,21.2747117 66.9489182,21.0362955 C66.6769618,20.7982611 66.5409836,20.531403 66.5409836,20.2351484 C66.5409836,20.0937021 66.5708949,19.9585551 66.6305206,19.8297073 C66.6903432,19.7012412 66.8062493,19.5468147 66.9788294,19.3664278 L68.9689125,17.2622951 Z" id="Fill-30" fill="#FF8F33"></path>
                        <path d="M76.8305644,31.8060827 C76.7010319,31.8454141 76.5196097,31.8814355 76.2864898,31.9143416 C76.0531777,31.9470529 75.7935363,31.9636033 75.5089109,31.9636033 C74.9258229,31.9636033 74.5043621,31.8681952 74.2456816,31.678158 C73.9860402,31.4879261 73.8567,31.1168083 73.8567,30.5655835 L73.8567,24.5595504 C73.8567,24.1921321 73.9474111,23.8770909 74.1288334,23.6144267 C74.3102556,23.3519573 74.5629784,23.1220044 74.8870016,22.9251524 C75.3144201,22.6626829 75.829667,22.4559006 76.4321657,22.3050001 C77.0346644,22.1540997 77.6663751,22.0783574 78.3271058,22.0783574 C79.6747041,22.0783574 80.3485033,22.5380683 80.3485033,23.4569061 C80.3485033,23.6802388 80.3160241,23.883711 80.2514501,24.0673228 C80.1862995,24.251324 80.1153834,24.4088446 80.0375486,24.5398847 C79.7392781,24.4742673 79.376818,24.4413613 78.9490151,24.4413613 C78.5729098,24.4413613 78.1973812,24.4877023 77.8218525,24.5792161 C77.4457472,24.6713141 77.1153819,24.7959287 76.8305644,24.9534493 L76.8305644,31.8060827 Z" id="Fill-32" fill="#FF8F33"></path>
                        <path d="M81.147541,19.7606687 C81.147541,19.3148362 81.3038608,18.9343614 81.6166978,18.6196332 C81.9291401,18.3049051 82.3384927,18.147541 82.844361,18.147541 C83.3498345,18.147541 83.7589898,18.3049051 84.0718268,18.6196332 C84.3844664,18.9343614 84.5409836,19.3148362 84.5409836,19.7606687 C84.5409836,20.2197283 84.3844664,20.6064277 84.0718268,20.9213504 C83.7589898,21.2360785 83.3498345,21.3934426 82.844361,21.3934426 C82.3384927,21.3934426 81.9291401,21.2360785 81.6166978,20.9213504 C81.3038608,20.6064277 81.147541,20.2197283 81.147541,19.7606687 L81.147541,19.7606687 Z M84.2459016,31.8577459 C84.1163366,31.8973587 83.9353295,31.9336379 83.7023043,31.9667793 C83.4692792,31.9997247 83.2103411,32.0163934 82.9256819,32.0163934 C82.343503,32.0163934 81.9260157,31.9203028 81.6736038,31.728906 C81.4213839,31.5373131 81.295082,31.1635402 81.295082,30.6081757 L81.295082,22.4571425 C81.4242631,22.4175297 81.6058461,22.3777207 81.8386793,22.3381078 C82.0717044,22.298495 82.3304506,22.2786885 82.6151097,22.2786885 C83.1974806,22.2786885 83.6149679,22.3777207 83.8675717,22.5761772 C84.1195997,22.7744376 84.2459016,23.1513482 84.2459016,23.7065166 L84.2459016,31.8577459 Z" id="Fill-34" fill="#FF8F33"></path>
                        <path d="M95.7540984,27.0638224 C95.7540984,27.8476519 95.6345245,28.5548517 95.3955737,29.1856187 C95.1564259,29.8165828 94.8142515,30.3510209 94.3696415,30.7893272 C93.9244406,31.2276334 93.3900024,31.566262 92.7657361,31.8054098 C92.1412728,32.0443605 91.4441196,32.1639344 90.6738825,32.1639344 C89.9034484,32.1639344 89.2027494,32.0475124 88.5721793,31.8152593 C87.9412153,31.5830063 87.4030343,31.2475296 86.9584243,30.8092233 C86.5134203,30.3709171 86.1714429,29.8364789 85.9324922,29.2055149 C85.6933444,28.5749448 85.5737705,27.8606534 85.5737705,27.0638224 C85.5737705,26.2937823 85.6964962,25.5930833 85.9425387,24.9621192 C86.1879902,24.3313522 86.5331195,23.7967171 86.9783205,23.3582138 C87.4231274,22.9201045 87.9609145,22.581279 88.5920755,22.3423282 C89.2228425,22.1031804 89.9168439,21.9836066 90.6738825,21.9836066 C91.4311181,21.9836066 92.1213766,22.1031804 92.7458399,22.3423282 C93.3697123,22.581279 93.9043474,22.9234534 94.3495484,23.3682604 C94.7945524,23.8134613 95.1396816,24.3478995 95.3857241,24.9719688 C95.6311756,25.5964321 95.7540984,26.2937823 95.7540984,27.0638224 M90.663835,24.3442623 C90.0332216,24.3442623 89.5438497,24.57314 89.1951225,25.0303141 C88.8463953,25.4878758 88.6721311,26.1409817 88.6721311,26.9902131 C88.6721311,27.8658013 88.8432124,28.528791 89.1851759,28.9795697 C89.5273384,29.4303484 90.0200921,29.6557377 90.663835,29.6557377 C91.3077768,29.6557377 91.8005305,29.4272476 92.1426929,28.9696859 C92.4846565,28.5125118 92.6557377,27.8526229 92.6557377,26.9902131 C92.6557377,26.1541601 92.4812746,25.504155 92.1325474,25.0400041 C91.7836213,24.5764346 91.2942494,24.3442623 90.663835,24.3442623" id="Fill-36" fill="#FF8F33"></path>
                    </g>
                </g>
            </g>
        </g>
    </g>
</svg>