<?xml version="1.0" encoding="UTF-8" standalone="no"?>
<svg
   width="81px"
   height="27px"
   viewBox="0 0 81 27"
   version="1.1"
   id="svg641"
   sodipodi:docname="logo-fiocruz.svg"
   inkscape:version="1.1.2 (0a00cf5339, 2022-02-04, custom)"
   xmlns:inkscape="http://www.inkscape.org/namespaces/inkscape"
   xmlns:sodipodi="http://sodipodi.sourceforge.net/DTD/sodipodi-0.dtd"
   xmlns="http://www.w3.org/2000/svg"
   xmlns:svg="http://www.w3.org/2000/svg"
   xmlns:rdf="http://www.w3.org/1999/02/22-rdf-syntax-ns#"
   xmlns:cc="http://creativecommons.org/ns#"
   xmlns:dc="http://purl.org/dc/elements/1.1/">
  <sodipodi:namedview
     id="namedview643"
     pagecolor="#ffffff"
     bordercolor="#999999"
     borderopacity="1"
     inkscape:pageshadow="0"
     inkscape:pageopacity="0"
     inkscape:pagecheckerboard="0"
     showgrid="false"
     inkscape:zoom="6.8091764"
     inkscape:cx="7.8570442"
     inkscape:cy="17.623277"
     inkscape:window-width="1904"
     inkscape:window-height="1040"
     inkscape:window-x="8"
     inkscape:window-y="32"
     inkscape:window-maximized="1"
     inkscape:current-layer="svg641"
     inkscape:snap-to-guides="true"
     inkscape:snap-grids="true"
     showguides="true" />
  <title
     id="title624">FDF78F6A-ECBB-4793-A66D-1B95BD760FF7</title>
  <defs
     id="defs629">
    <filter
       id="logo-jufilter-1"
       x="0"
       y="0"
       width="1"
       height="1">
      <feColorMatrix
         in="SourceGraphic"
         type="matrix"
         values="0 0 0 0 0.368627 0 0 0 0 0.247059 0 0 0 0 0.556863 0 0 0 1.000000 0"
         id="feColorMatrix626" />
    </filter>
  </defs>
  <g
     id="logo-juHome-e-Busca---UI"
     stroke="none"
     stroke-width="1"
     fill="none"
     fill-rule="evenodd"
     style="display:inline"
     transform="translate(2.3773873,-25.0838)">
    <g
       id="logo-judesk_Home"
       transform="translate(-671,-3621)">
      <g
         id="logo-julogos"
         transform="translate(0,3485)">
        <g
           id="logo-ju1.-assets_logo-jurema"
           transform="translate(522.20417,69.512881)"
           filter="url(#logo-jufilter-1)">
          <g
             transform="translate(151,54.325922)"
             id="g635">
            <path
               id="path100"
               d="m 73.787632,60.7079 v 0.240512 h 0.514697 0.519501 l -0.543547,0.543557 -0.538764,0.538744 v 0.254942 0.250132 h 0.962062 0.962039 v -0.264562 -0.264561 h -0.562787 -0.567615 l 0.543547,-0.543557 c 0.533938,-0.533935 0.538743,-0.543557 0.538743,-0.769638 v -0.226081 h -0.913927 -0.913949 z m -2.693734,0.562797 c 0,0.933186 0.03848,1.05825 0.399252,1.216988 0.269371,0.125067 0.500261,0.120259 0.769632,-0.01444 0.206844,-0.105821 0.22128,-0.110629 0.240521,-0.02405 0.01931,0.07696 0.07696,0.08659 0.413666,0.08659 h 0.389643 v -1.0342 -1.034199 h -0.408884 -0.408861 v 0.716725 0.721534 l -0.125054,0.0962 c -0.163558,0.129876 -0.240521,0.125067 -0.380012,-0.01925 -0.11545,-0.110642 -0.120271,-0.134686 -0.120271,-0.817738 v -0.69748 H 71.478714 71.093898 Z M 51.179541,60.50106 c 0.0049,0.02406 0.139512,0.481023 0.307852,1.024578 l 0.303048,0.9861 h 0.428124 0.423298 l 0.192408,-0.687865 c 0.105808,-0.375197 0.202018,-0.668621 0.216454,-0.654191 0.01448,0.01444 0.105834,0.322287 0.202039,0.683052 l 0.173167,0.659004 0.432908,0.01444 0.432928,0.01444 0.303048,-0.976478 c 0.163536,-0.538744 0.312658,-1.005336 0.327093,-1.03901 0.01448,-0.0481 -0.05772,-0.05772 -0.331897,-0.0481 l -0.351162,0.01444 -0.173167,0.697483 -0.177972,0.697484 -0.05292,-0.192411 c -0.02885,-0.105821 -0.110642,-0.423299 -0.182776,-0.711913 l -0.12508,-0.514695 h -0.442538 -0.437733 l -0.163559,0.697485 c -0.09138,0.384818 -0.182777,0.683053 -0.202018,0.663812 -0.01448,-0.01925 -0.07696,-0.254945 -0.134684,-0.519506 -0.05772,-0.264562 -0.12508,-0.562797 -0.153927,-0.663812 l -0.04811,-0.177979 h -0.379989 c -0.211672,0 -0.384838,0.01444 -0.384838,0.03367 z m -25.446107,0.779258 c 0,0.760015 0.0048,0.817738 0.110629,0.971666 0.221274,0.331905 0.654194,0.4233 1.058254,0.22127 0.206838,-0.105821 0.221268,-0.110629 0.240509,-0.02406 0.01925,0.07696 0.07697,0.08659 0.418491,0.08659 h 0.399249 l -0.03367,-0.221268 c -0.01444,-0.125067 -0.02886,-0.591661 -0.02886,-1.034201 v -0.81293 h -0.384821 -0.38482 v 0.716726 0.721534 l -0.125067,0.09621 c -0.163554,0.129874 -0.240515,0.125065 -0.380014,-0.01925 -0.11545,-0.110642 -0.120259,-0.134685 -0.120259,-0.817738 v -0.697485 h -0.384821 -0.384816 z m 44.701473,-0.856221 c -0.08179,0.02405 -0.206845,0.110629 -0.274198,0.192409 l -0.125054,0.149117 v -0.149117 -0.149118 h -0.413689 -0.413688 l 0.02888,0.149118 c 0.01448,0.08178 0.02885,0.548367 0.02885,1.0342 v 0.885081 h 0.384838 0.384816 v -0.553176 c 0,-0.760016 0.105808,-0.937994 0.557982,-0.937994 h 0.168364 l -0.01448,-0.322285 c -0.01448,-0.355959 -0.03848,-0.380009 -0.312658,-0.298235 z m -7.744477,-0.0048 c -0.259762,0.05292 -0.384816,0.120259 -0.577224,0.303047 -0.322289,0.303043 -0.389642,0.928373 -0.139513,1.346861 0.413689,0.711915 1.813462,0.659003 2.150188,-0.07696 0.158731,-0.351146 0.110642,-0.880272 -0.110642,-1.197748 -0.197212,-0.283803 -0.861031,-0.471402 -1.32281,-0.375198 z m 0.59166,0.533936 c 0.07216,0.07696 0.0962,0.19241 0.105808,0.495454 0.01448,0.341527 0.0049,0.404059 -0.08657,0.519506 -0.144317,0.187599 -0.442538,0.192407 -0.557982,0.0096 -0.163559,-0.250132 -0.149123,-0.827361 0.03366,-1.019768 0.125079,-0.139497 0.380011,-0.139497 0.505087,-0.0048 z m -7.350029,-0.533936 c -0.283807,0.0481 -0.533937,0.19722 -0.606096,0.360768 -0.110642,0.245322 -0.0866,0.264563 0.298244,0.264563 0.346334,0 0.360748,-0.0048 0.423297,-0.134686 0.04329,-0.08659 0.105808,-0.134688 0.197213,-0.144308 0.182799,-0.02405 0.274175,0.06734 0.274175,0.259753 v 0.163547 h -0.303026 c -0.808135,0 -1.236237,0.40887 -1.039024,0.986099 0.149121,0.423299 0.865858,0.548364 1.226607,0.211648 l 0.105833,-0.0962 0.02885,0.120258 c 0.02887,0.120259 0.04331,0.125067 0.384838,0.125067 h 0.35114 l -0.02404,-0.85622 c -0.01448,-0.62052 -0.03848,-0.880272 -0.0866,-0.957234 -0.158732,-0.254945 -0.73115,-0.394442 -1.231411,-0.303047 z m 0.586833,1.255471 c 0,0.153928 -0.07214,0.331907 -0.163535,0.389629 -0.02888,0.01925 -0.120246,0.03848 -0.206844,0.03848 -0.163558,0 -0.254936,-0.101012 -0.254936,-0.283803 0,-0.129877 0.25974,-0.293425 0.47139,-0.293425 0.139512,0 0.153925,0.01444 0.153925,0.149117 z m -6.926731,-1.250659 c -0.274175,0.0529 -0.43291,0.168359 -0.543547,0.394438 -0.182787,0.365578 0.01925,0.649381 0.562788,0.808119 0.46178,0.134687 0.558006,0.173169 0.586855,0.259752 0.0866,0.216461 -0.293416,0.298235 -0.452147,0.0962 -0.08659,-0.105821 -0.12988,-0.120259 -0.437734,-0.120259 -0.322295,0 -0.341534,0.0048 -0.341534,0.105834 0,0.163547 0.168356,0.408868 0.341534,0.495451 0.08177,0.04329 0.307854,0.0914 0.495457,0.105834 0.456951,0.03367 0.836963,-0.07215 1.014957,-0.283806 0.11545,-0.139497 0.129858,-0.182787 0.110616,-0.432919 -0.02885,-0.380008 -0.110616,-0.452162 -0.697474,-0.610899 -0.437734,-0.115451 -0.47141,-0.134686 -0.47141,-0.245322 0,-0.105821 0.01931,-0.120258 0.168362,-0.120258 0.12988,0 0.177972,0.02405 0.216454,0.10582 0.04331,0.101013 0.07696,0.11063 0.413687,0.11063 h 0.370381 l -0.04329,-0.182789 c -0.0914,-0.413681 -0.625337,-0.615708 -1.29396,-0.485832 z m -7.29711,-0.0048 c -0.423298,0.0914 -0.702292,0.336717 -0.817737,0.716726 -0.21646,0.750396 0.211647,1.356483 1.010149,1.433449 0.591659,0.0529 1.096732,-0.202032 1.265089,-0.634951 0.120258,-0.322286 0.08178,-0.817739 -0.0914,-1.077492 -0.230892,-0.351148 -0.846602,-0.548367 -1.366108,-0.437732 z m 0.625333,0.586849 c 0.07696,0.101013 0.0962,0.202029 0.0962,0.471403 0,0.495454 -0.173168,0.692673 -0.529122,0.601277 -0.293428,-0.07215 -0.35596,-0.880271 -0.08659,-1.149642 0.125067,-0.125067 0.399246,-0.08178 0.519505,0.07696 z m -3.270958,-0.586763 c -0.293424,0.06253 -0.485833,0.173171 -0.567606,0.336717 -0.134688,0.259753 -0.110642,0.288614 0.278992,0.288614 0.336715,0 0.351145,-0.0048 0.428112,-0.144308 0.06253,-0.110629 0.115451,-0.144306 0.226079,-0.144306 0.163549,0 0.245321,0.105821 0.245321,0.307855 0,0.120258 -0.0096,0.125067 -0.303043,0.125067 -0.62533,0 -1.02458,0.230891 -1.077489,0.61571 -0.05292,0.40887 0.153924,0.702292 0.543551,0.760015 0.288614,0.0433 0.519506,-0.0096 0.687866,-0.153926 l 0.144306,-0.120258 0.01444,0.110642 c 0.01444,0.101012 0.04329,0.110629 0.380008,0.125067 l 0.360768,0.01444 -0.01925,-0.856222 c -0.01925,-0.957234 -0.03848,-1.010149 -0.34153,-1.164074 -0.21646,-0.115451 -0.711912,-0.163549 -1.000526,-0.101013 z m 0.596467,1.303573 c -0.03367,0.250133 -0.149115,0.380009 -0.346337,0.380009 -0.182786,0 -0.26456,-0.07696 -0.26456,-0.240512 0,-0.202029 0.177976,-0.327096 0.476213,-0.331905 l 0.163545,-0.0048 z m -2.943861,-1.32291 c -0.437729,0.110642 -0.644568,0.254942 -0.803306,0.567608 -0.115438,0.226081 -0.139497,0.716724 -0.04329,1.000529 0.07215,0.21646 0.370385,0.495451 0.577226,0.543556 0.177979,0.03848 0.177979,0.04329 0.04811,0.226081 -0.125067,0.168358 -0.0962,0.206838 0.144306,0.192407 0.120259,-0.0096 0.206839,0.01444 0.25013,0.06734 0.144308,0.173169 -0.26456,0.264563 -0.606087,0.134687 -0.05292,-0.02405 -0.139496,0.168358 -0.0962,0.211649 0.03848,0.04329 0.649382,0.06734 0.817738,0.03848 0.192411,-0.03848 0.408872,-0.216462 0.408872,-0.341528 0,-0.139497 -0.221273,-0.312663 -0.40406,-0.312663 -0.254942,0 -0.173168,-0.125067 0.105821,-0.16355 0.471404,-0.06253 0.779257,-0.317475 0.85622,-0.697482 l 0.03367,-0.149117 h -0.389629 c -0.380012,0 -0.384821,0 -0.418491,0.129876 -0.04811,0.192409 -0.11545,0.254943 -0.264565,0.254943 -0.211647,0 -0.298232,-0.144309 -0.322283,-0.538747 -0.02886,-0.471402 0.07215,-0.687863 0.322283,-0.687863 0.144307,0 0.177981,0.02405 0.240512,0.153927 l 0.07215,0.158738 h 0.380007 0.380011 l -0.03367,-0.158738 c -0.06734,-0.351146 -0.399248,-0.586846 -0.870649,-0.63014 -0.158738,-0.0096 -0.331907,-0.0096 -0.384821,0 z m -2.679295,0.01925 c -0.283805,0.0481 -0.485835,0.168358 -0.586849,0.336717 -0.149116,0.254942 -0.11545,0.288614 0.278993,0.288614 0.346336,0 0.360765,-0.0048 0.423301,-0.134685 0.04329,-0.08659 0.105821,-0.134689 0.197217,-0.144309 0.182791,-0.02405 0.274183,0.06734 0.274183,0.254942 v 0.153928 l -0.404059,0.02405 c -0.683051,0.04329 -1.029388,0.327096 -0.971665,0.7985 0.03367,0.274183 0.139497,0.418488 0.370388,0.509883 0.327095,0.129876 0.668622,0.08659 0.889891,-0.120259 l 0.105833,-0.0962 0.02886,0.120258 c 0.02886,0.120259 0.04329,0.125067 0.384816,0.125067 h 0.355957 l -0.02405,-0.856219 c -0.01925,-0.61571 -0.04329,-0.880273 -0.0914,-0.957235 -0.158738,-0.254945 -0.731158,-0.394441 -1.231419,-0.303047 z m 0.586845,1.255471 c 0,0.153928 -0.07215,0.331907 -0.163545,0.389629 -0.0914,0.06253 -0.307855,0.04329 -0.38482,-0.03848 -0.04329,-0.03848 -0.07696,-0.125067 -0.07696,-0.19241 0,-0.144306 0.245322,-0.307855 0.471404,-0.307855 0.139494,0 0.153924,0.01444 0.153924,0.149117 z M 29.629722,60.42412 c -0.0914,0.02886 -0.216463,0.0962 -0.274184,0.153926 l -0.110642,0.0962 v -0.101012 c 0,-0.101013 -0.01925,-0.105821 -0.413681,-0.105821 -0.408868,0 -0.413678,0 -0.384816,0.105821 0.01444,0.06253 0.02886,0.529126 0.02886,1.0342 v 0.928374 h 0.384816 0.38482 v -0.711913 c 0,-0.81293 0.03848,-0.923565 0.307854,-0.923565 0.283804,0 0.312666,0.08659 0.327097,0.889894 l 0.01444,0.721535 h 0.384819 0.384818 V 61.71807 c 0,-0.711914 -0.0096,-0.81293 -0.0962,-0.962047 -0.173169,-0.293422 -0.577228,-0.437731 -0.937994,-0.331904 z M 60.65571,60.106645 c 0,0.303043 -0.01931,0.553175 -0.03848,0.553175 -0.02407,0 -0.08179,-0.04329 -0.12508,-0.0914 -0.206844,-0.226079 -0.769632,-0.226079 -1.058243,0 -0.31268,0.245322 -0.447365,0.851411 -0.298244,1.351674 0.182799,0.62533 0.889903,0.870652 1.351683,0.461784 l 0.168362,-0.144309 v 0.149118 0.149117 h 0.384816 0.384816 v -1.491171 -1.491171 h -0.384816 -0.384816 z m -0.12988,0.899512 c 0.07696,0.101013 0.0962,0.202029 0.0962,0.471402 0,0.4233 -0.101025,0.591657 -0.360771,0.61571 -0.264566,0.02406 -0.346334,-0.110629 -0.365575,-0.586848 -0.01448,-0.341526 -0.0049,-0.40406 0.08657,-0.524316 0.144317,-0.177978 0.399253,-0.168358 0.543569,0.02406 z m -2.70817,0.03848 v 1.491171 h 0.384816 0.384816 V 61.044635 59.553463 H 58.202476 57.81766 Z m -18.442415,-1.39016 c -0.125067,0.0962 -0.269373,0.327096 -0.269373,0.428111 0,0.08659 0.327096,0.05773 0.380009,-0.03367 0.03848,-0.07697 0.06734,-0.07697 0.327093,-0.01925 0.418491,0.0962 0.577229,0.11545 0.711917,0.08177 0.125067,-0.03367 0.327093,-0.269372 0.384816,-0.452161 0.02886,-0.0962 0.01444,-0.105821 -0.144306,-0.105821 -0.105821,0 -0.182789,0.02886 -0.197217,0.07215 -0.03848,0.0914 -0.173171,0.0914 -0.471404,0 -0.331905,-0.101012 -0.567607,-0.0914 -0.721535,0.02886 z m -6.71508,0.461784 v 0.557985 l -0.105821,-0.101017 c -0.254939,-0.235702 -0.774446,-0.235702 -1.07268,0 -0.322285,0.250132 -0.452161,0.904324 -0.283806,1.399778 0.0914,0.274181 0.380012,0.543555 0.630142,0.591657 0.240512,0.0433 0.582035,-0.0529 0.750396,-0.20684 l 0.129876,-0.129876 v 0.158737 0.15393 l 0.375198,-0.01444 0.370389,-0.01444 0.01444,-1.481552 0.0096,-1.476739 h -0.408908 -0.408869 z m -0.0962,0.86584 c 0.0914,0.120259 0.101012,0.18279 0.08659,0.524315 -0.01925,0.461784 -0.101012,0.59647 -0.355958,0.59647 -0.25494,0 -0.355956,-0.173171 -0.355956,-0.625331 0,-0.303044 0.01925,-0.394439 0.101013,-0.500263 0.139494,-0.177979 0.384815,-0.173169 0.524312,0.0048 z m -9.331845,0.06253 v 1.495982 l 0.399248,-0.01444 0.394438,-0.01444 0.01444,-0.567608 0.01444,-0.562796 h 0.572419 0.577226 v -0.288608 -0.288614 h -0.577235 -0.577228 v -0.336716 -0.336716 h 0.625328 0.625333 v -0.288613 -0.288614 h -1.034205 -1.034198 z m 43.830797,-1.534466 c -0.481019,0.08178 -0.784067,0.307855 -0.98128,0.740776 -0.0914,0.202031 -0.105808,0.322285 -0.105808,0.769637 -0.0049,0.452163 0.01448,0.562797 0.110617,0.779258 0.245325,0.553177 0.750413,0.81774 1.447887,0.769637 0.764827,-0.05292 1.250652,-0.394438 1.250652,-0.880272 0,-0.11545 -0.0049,-0.11545 -0.432908,-0.11545 -0.384816,0 -0.432929,0.0096 -0.432929,0.08659 0,0.240511 -0.500261,0.428109 -0.764827,0.288615 -0.240499,-0.125067 -0.317462,-0.351148 -0.317462,-0.904325 0,-0.375198 0.01931,-0.543555 0.08177,-0.649379 0.134686,-0.245325 0.259762,-0.327098 0.495457,-0.322287 0.25974,0 0.442538,0.105821 0.485824,0.274182 0.02888,0.11545 0.04329,0.120258 0.46178,0.120258 h 0.437732 l -0.02885,-0.192407 c -0.05292,-0.408871 -0.437734,-0.687865 -1.058266,-0.769639 -0.187582,-0.02406 -0.355944,-0.04329 -0.37038,-0.04329 -0.01448,0.0048 -0.139491,0.02406 -0.279003,0.0481 z m -20.284727,-0.0048 c -0.731158,0.105821 -1.154457,0.582041 -1.21218,1.366107 -0.0481,0.62052 0.173169,1.183318 0.567606,1.44307 0.461784,0.307853 1.265092,0.351147 1.770166,0.0914 0.519505,-0.264561 0.760018,-0.769635 0.711912,-1.50079 -0.02886,-0.485834 -0.110629,-0.707105 -0.375198,-0.990909 -0.307852,-0.331905 -0.880271,-0.495454 -1.462306,-0.40887 z m 0.639758,0.639763 c 0.211652,0.101013 0.317474,0.351145 0.336717,0.80331 0.01925,0.346335 0.0048,0.456969 -0.07697,0.639759 -0.173168,0.384818 -0.572415,0.529123 -0.909134,0.322285 -0.25013,-0.153927 -0.322284,-0.341526 -0.327093,-0.865841 0,-0.384818 0.01925,-0.490645 0.110629,-0.663811 0.05772,-0.110642 0.110629,-0.202032 0.120259,-0.202032 0.0048,0 0.0962,-0.03367 0.202029,-0.06734 0.197217,-0.07215 0.346335,-0.06253 0.543553,0.03367 z m -9.033611,-5.882961 v 0.235704 l 0.668623,0.01444 0.668622,0.01444 -0.716725,0.962044 c -0.707105,0.952427 -0.716724,0.966858 -0.716724,1.21218 v 0.254942 h 1.130405 1.130402 v -0.240511 -0.235702 l -0.740774,-0.01444 -0.735965,-0.01444 0.711912,-0.962045 c 0.711917,-0.952424 0.716725,-0.962045 0.716725,-1.216987 V 54.021659 H 39.44259 38.384337 Z m -3.126647,0.760019 c 0,1.202556 0.03848,1.390155 0.351146,1.67877 0.269374,0.24532 0.495452,0.327094 0.947614,0.327094 0.42811,0 0.668622,-0.07696 0.894704,-0.278994 0.351147,-0.303042 0.375198,-0.40887 0.394439,-1.635478 l 0.01925,-1.09192 H 37.52332 37.181793 v 1.034198 c 0,1.164077 -0.02886,1.308383 -0.293424,1.443068 -0.110642,0.05772 -0.230892,0.07697 -0.413681,0.06253 -0.514695,-0.0433 -0.591658,-0.269373 -0.591658,-1.68839 v -0.851411 h -0.312666 -0.312662 z m -2.789935,0.461781 v 1.471929 h 0.312666 0.312665 v -0.577182 -0.577229 h 0.40887 c 0.48102,0 0.48102,0 0.553174,0.562797 0.08659,0.639759 0.04811,0.591657 0.428111,0.591657 h 0.336716 l -0.04329,-0.149117 c -0.02405,-0.08659 -0.06734,-0.327096 -0.0962,-0.538744 -0.06734,-0.476213 -0.144305,-0.630141 -0.346336,-0.707105 l -0.158738,-0.05292 0.144306,-0.06253 c 0.197217,-0.08178 0.408871,-0.341527 0.418491,-0.500265 0.01925,-0.4233 -0.07697,-0.639759 -0.360765,-0.788877 -0.182791,-0.101012 -0.278997,-0.110642 -1.053442,-0.125066 l -0.856222,-0.01925 z m 1.409399,-0.928374 c 0.149114,0.07696 0.177976,0.134685 0.177976,0.341525 0,0.298235 -0.120259,0.375198 -0.577229,0.375198 h -0.384815 v -0.384819 -0.384818 h 0.341524 c 0.187599,0 0.384819,0.02405 0.442544,0.05292 z m -8.480439,0.933183 v 1.46712 h 0.312667 0.312666 v -1.46712 -1.467118 h -0.312666 -0.312667 z m -2.260806,0 v 1.46712 h 0.312666 0.312664 v -0.62533 -0.625328 h 0.60128 0.601277 v -0.240512 -0.240512 h -0.601277 -0.60128 v -0.360766 -0.360769 h 0.649382 0.64938 v -0.240512 -0.240509 h -0.962045 -0.962047 z m 7.191293,-1.423828 c -0.245321,0.11545 -0.423297,0.303046 -0.562797,0.606089 -0.0962,0.20684 -0.110642,0.317476 -0.110642,0.817739 0,0.663811 0.08178,0.913945 0.39925,1.24104 0.519506,0.533935 1.683583,0.360769 1.962574,-0.288615 0.03848,-0.08659 0.06734,-0.211648 0.06734,-0.278993 0,-0.115451 -0.0096,-0.120259 -0.336719,-0.120259 -0.317476,0 -0.336716,0.0048 -0.336716,0.105821 -0.0048,0.226081 -0.259753,0.4233 -0.543558,0.4233 -0.341523,0 -0.562797,-0.428111 -0.562797,-1.082303 0,-0.711912 0.250135,-1.120782 0.649382,-1.067871 0.226081,0.03367 0.456973,0.254944 0.456973,0.442543 0,0.115451 0.0096,0.120259 0.336716,0.120259 0.327096,0 0.336719,-0.0048 0.336719,-0.120259 0,-0.149117 -0.120259,-0.447352 -0.230892,-0.572417 -0.04329,-0.04811 -0.187599,-0.139497 -0.322289,-0.20203 -0.312662,-0.149118 -0.909133,-0.158738 -1.202556,-0.02405 z m -3.025634,-0.01925 c -0.312665,0.120258 -0.495454,0.293426 -0.663813,0.63495 -0.144307,0.298235 -0.158737,0.360769 -0.158737,0.784069 0,0.250132 0.02886,0.548364 0.06253,0.659001 0.0962,0.322286 0.336714,0.596469 0.658999,0.760018 0.254943,0.129874 0.331904,0.144305 0.697487,0.139494 0.46659,-0.0048 0.678241,-0.08177 0.957232,-0.331904 0.269376,-0.240513 0.39925,-0.586849 0.428114,-1.087112 0.03367,-0.702294 -0.182792,-1.197747 -0.649383,-1.47193 -0.202029,-0.11545 -0.283804,-0.134687 -0.687864,-0.144308 -0.317475,-0.0096 -0.514694,0.0096 -0.644571,0.05772 z m 0.976478,0.490645 c 0.254942,0.192408 0.317475,0.375197 0.317475,0.928374 0,0.601278 -0.08659,0.856219 -0.346337,1.014957 -0.240514,0.149117 -0.63495,0.110629 -0.832171,-0.07696 -0.177976,-0.168359 -0.288614,-0.519505 -0.288614,-0.885082 0.0048,-0.750398 0.293427,-1.140025 0.81293,-1.091922 0.115451,0.0096 0.264563,0.06253 0.336717,0.110629 z m 26.80742,-12.328619 0.01448,0.889892 0.144317,0.149117 c 0.264568,0.278994 0.760001,0.288615 1.048634,0.01924 0.158732,-0.144306 0.177973,-0.144306 0.177973,0.0048 0,0.105826 0.01931,0.120256 0.192408,0.120256 h 0.192407 v -1.03414 -1.034201 h -0.216452 -0.216476 v 0.697485 c 0,0.83217 -0.0481,1.000528 -0.317462,1.111163 -0.216476,0.09139 -0.418494,0.05291 -0.548374,-0.110635 -0.08658,-0.110636 -0.0962,-0.197219 -0.0962,-0.909133 v -0.78888 h -0.197217 -0.192408 z m -15.835289,0.149169 v 1.034198 h 0.192413 0.192408 v -1.034198 -1.0342 H 39.44259 39.250177 Z m -1.635475,0 v 1.034198 h 0.187599 0.182789 l 0.02405,-0.687861 c 0.01444,-0.404059 0.04329,-0.726346 0.07697,-0.788877 0.08177,-0.144309 0.303045,-0.254944 0.514693,-0.254944 0.158738,0 0.168358,-0.0096 0.168358,-0.168358 0,-0.158738 -0.0096,-0.168358 -0.173168,-0.168358 -0.206838,0 -0.346335,0.06735 -0.485835,0.230891 l -0.110624,0.129877 v -0.18279 c 0,-0.177978 0,-0.177978 -0.192412,-0.177978 h -0.192408 z m -6.878629,0 v 1.034198 h 0.192409 0.192408 v -1.034198 -1.0342 h -0.192408 -0.192409 z m -3.655774,0 v 1.034198 h 0.192407 0.19241 v -1.034198 -1.0342 h -0.19241 -0.192407 z m 33.382982,-0.976476 c -0.456953,0.23089 -0.644556,0.836979 -0.456953,1.46231 0.120246,0.404059 0.413667,0.615707 0.87064,0.615707 0.35114,0 0.620533,-0.125065 0.779264,-0.355954 0.163536,-0.245324 0.144295,-0.336717 -0.07696,-0.336717 -0.163558,0 -0.192409,0.01924 -0.264566,0.163547 -0.05292,0.115445 -0.129882,0.182788 -0.245326,0.221272 -0.360774,0.120253 -0.702282,-0.144309 -0.702282,-0.543556 v -0.177979 h 0.72152 0.72154 v -0.206839 c -0.0048,-0.240513 -0.101009,-0.529127 -0.226085,-0.668624 -0.245325,-0.274182 -0.760022,-0.355957 -1.120792,-0.173167 z m 0.774458,0.322285 c 0.101013,0.105824 0.13949,0.187598 0.13949,0.312664 v 0.173169 H 60.872164 60.367098 V 42.06347 c 0,-0.158738 0.129859,-0.38001 0.25974,-0.447352 0.206844,-0.09621 0.46178,-0.06253 0.610901,0.08658 z M 53.06516,41.370797 c -0.149121,0.06734 -0.226084,0.139494 -0.274175,0.259751 -0.105834,0.250132 -0.0914,0.269373 0.144295,0.269373 0.158731,0 0.216454,-0.01924 0.216454,-0.07215 0,-0.134686 0.202039,-0.264562 0.413687,-0.264562 0.163558,0 0.226085,0.02405 0.303048,0.125067 0.05772,0.07215 0.101013,0.197217 0.101013,0.283803 v 0.158737 l -0.418493,0.01924 c -0.485825,0.02405 -0.692669,0.110636 -0.832159,0.341525 -0.11545,0.187599 -0.12508,0.548368 -0.01931,0.697485 0.221258,0.317475 0.832158,0.365577 1.125598,0.08177 l 0.129858,-0.125066 0.03368,0.120256 c 0.02404,0.105825 0.05773,0.125066 0.197213,0.125066 h 0.168362 v -0.793687 c 0,-0.957237 -0.03848,-1.087114 -0.346334,-1.226608 -0.125054,-0.05772 -0.312659,-0.09621 -0.471412,-0.09621 -0.15873,0 -0.346334,0.03848 -0.471388,0.09621 z m 0.904318,1.154454 c 0,0.07696 -0.03368,0.226081 -0.07696,0.331905 -0.139489,0.346337 -0.572417,0.437732 -0.788871,0.163549 -0.254934,-0.327096 0.05292,-0.630142 0.639752,-0.63976 0.22128,0 0.226084,0.0048 0.226084,0.144306 z m -7.104705,-1.149645 c -0.144309,0.06734 -0.221269,0.149117 -0.269373,0.274182 -0.03848,0.09621 -0.06253,0.19241 -0.0481,0.211651 0.03848,0.06734 0.39925,0.04329 0.39925,-0.02405 0,-0.129874 0.216461,-0.274182 0.413677,-0.274182 0.101013,0 0.211651,0.01924 0.240512,0.03848 0.08659,0.05772 0.163546,0.235701 0.163546,0.384818 v 0.144308 l -0.418488,0.01924 c -0.485831,0.02405 -0.692673,0.110636 -0.832167,0.341525 -0.101013,0.168358 -0.125067,0.437732 -0.04811,0.630142 0.139497,0.365577 0.870653,0.461781 1.183315,0.149115 0.115451,-0.115445 0.163552,-0.110633 0.163552,0.03367 0,0.06734 0.03848,0.08658 0.182785,0.08658 h 0.17798 l -0.01443,-0.827359 c -0.01443,-0.61571 -0.03367,-0.861031 -0.08658,-0.966856 -0.158738,-0.303046 -0.803309,-0.4233 -1.207368,-0.221271 z m 0.89951,1.178506 c 0,0.394439 -0.303043,0.692674 -0.625328,0.620519 -0.278991,-0.06253 -0.404058,-0.355956 -0.240512,-0.567605 0.11545,-0.149118 0.312666,-0.216463 0.639762,-0.221272 l 0.226078,-0.0048 z m -6.950778,-1.188126 c -0.529127,0.240512 -0.735966,0.909133 -0.471405,1.544083 0.144309,0.355957 0.452162,0.538747 0.909134,0.543556 0.630142,0.0048 1.029389,-0.39925 1.029389,-1.043818 0,-0.548368 -0.173169,-0.870654 -0.553176,-1.043821 -0.250131,-0.115446 -0.663812,-0.115446 -0.913942,0 z m 0.745584,0.269373 c 0.216461,0.110635 0.307857,0.331905 0.307857,0.721534 0,0.380007 -0.07215,0.567606 -0.274185,0.716723 -0.168358,0.125067 -0.485833,0.129877 -0.668623,0.0096 -0.355954,-0.23089 -0.375198,-1.106353 -0.03367,-1.394965 0.173168,-0.144308 0.447352,-0.16836 0.668622,-0.05291 z M 35.69061,41.380417 c -0.346336,0.177979 -0.529126,0.529124 -0.529126,1.02939 0,0.663809 0.351145,1.048627 0.947617,1.043818 0.355955,-0.0048 0.615705,-0.120256 0.774443,-0.351145 0.163551,-0.245324 0.144309,-0.336717 -0.08177,-0.336717 -0.163551,0 -0.192412,0.01924 -0.250135,0.149118 -0.11545,0.288612 -0.582038,0.360766 -0.803306,0.125065 -0.101013,-0.105824 -0.216461,-0.500265 -0.173168,-0.572417 0.01444,-0.01924 0.346337,-0.03848 0.745583,-0.03848 h 0.716725 v -0.206841 c -0.0048,-0.240513 -0.101015,-0.529127 -0.226081,-0.668624 -0.245324,-0.274182 -0.760016,-0.355957 -1.120782,-0.173167 z m 0.678241,0.23089 c 0.115451,0.06253 0.235702,0.293425 0.235702,0.456972 v 0.120256 h -0.505075 -0.505074 v -0.125066 c 0,-0.158737 0.129876,-0.380009 0.259754,-0.447351 0.134685,-0.06253 0.39925,-0.06734 0.514693,-0.0048 z m -4.271483,-0.245321 c -0.230892,0.110635 -0.351148,0.298234 -0.351148,0.572417 0,0.331907 0.144307,0.428111 0.952424,0.63495 0.274186,0.07215 0.360768,0.230892 0.21646,0.4233 -0.206837,0.274182 -0.644566,0.235701 -0.779256,-0.07696 -0.06253,-0.134686 -0.09139,-0.153926 -0.259753,-0.153926 h -0.192408 l 0.02886,0.173167 c 0.05773,0.341527 0.331907,0.519504 0.803311,0.514694 0.346336,0 0.658999,-0.125065 0.788875,-0.312664 0.04329,-0.06253 0.07697,-0.206839 0.07697,-0.341527 0,-0.307855 -0.120258,-0.4233 -0.58204,-0.562797 -0.557983,-0.168358 -0.615708,-0.197219 -0.64938,-0.298234 -0.01925,-0.06253 0.0048,-0.144306 0.06734,-0.226081 0.07696,-0.105824 0.129876,-0.125065 0.327097,-0.125065 0.211647,0 0.245321,0.01444 0.331905,0.153926 0.08177,0.129877 0.125067,0.153929 0.278994,0.158738 0.158738,0 0.177976,-0.01444 0.177976,-0.115445 0,-0.168358 -0.21646,-0.404059 -0.4233,-0.461784 -0.269373,-0.07215 -0.586849,-0.05772 -0.812927,0.04329 z m -3.141081,-0.03848 c -0.06734,0.02886 -0.168357,0.0962 -0.226082,0.149117 l -0.11063,0.101015 v -0.125067 c 0,-0.120256 -0.01444,-0.129876 -0.192412,-0.129876 h -0.19241 v 1.0342 1.034198 h 0.192407 0.192413 v -0.692675 c 0,-0.384818 0.01925,-0.750395 0.0481,-0.817738 0.110642,-0.303044 0.606089,-0.404059 0.836982,-0.177978 0.0914,0.0962 0.101013,0.163546 0.115438,0.894703 l 0.01444,0.793686 h 0.192408 0.192411 l -0.01443,-0.861031 c -0.01444,-0.841788 -0.01924,-0.86584 -0.13469,-0.995716 -0.221269,-0.235701 -0.615707,-0.327096 -0.913942,-0.20684 z m 5.137326,-0.476214 c -0.120259,0.04329 -0.134685,0.07215 -0.134685,0.259753 0,0.211649 0,0.211649 -0.168361,0.211649 -0.153928,0 -0.168358,0.0096 -0.168358,0.144308 0,0.134686 0.01444,0.144306 0.163549,0.144306 h 0.168357 l 0.01444,0.817741 c 0.01444,0.909133 0.02406,0.937994 0.355957,1.010146 0.101013,0.02405 0.259753,0.03367 0.346337,0.01924 0.129877,-0.02405 0.153928,-0.0481 0.153928,-0.168356 0,-0.129876 -0.01444,-0.139497 -0.192409,-0.139497 -0.139495,0 -0.202031,-0.02405 -0.24051,-0.09139 -0.02405,-0.05291 -0.04811,-0.39925 -0.04811,-0.769636 v -0.678243 h 0.240513 c 0.235701,0 0.240512,-0.0048 0.240512,-0.144306 0,-0.139497 -0.0048,-0.144308 -0.240512,-0.144308 h -0.240515 v -0.264582 c 0,-0.283803 -0.01444,-0.293424 -0.250129,-0.20684 z m 24.926607,0.144309 v 0.582037 l -0.105808,-0.101017 c -0.322289,-0.298234 -0.889903,-0.264562 -1.202561,0.06734 -0.38001,0.404059 -0.370401,1.284331 0.01448,1.68839 0.322267,0.327096 0.918733,0.303046 1.207366,-0.05291 0.08177,-0.101015 0.08657,-0.101015 0.08657,0.05291 0,0.153929 0.0096,0.158738 0.192408,0.158738 h 0.192413 V 41.899918 40.408747 H 59.21268 59.020272 Z m -0.240499,0.702291 c 0.250131,0.250133 0.307854,0.851411 0.12025,1.216991 -0.144317,0.274182 -0.529133,0.365577 -0.764828,0.182787 -0.206843,-0.163547 -0.283807,-0.365577 -0.283807,-0.740775 0,-0.538746 0.187604,-0.793688 0.582051,-0.793688 0.16834,0 0.235695,0.02886 0.346334,0.134685 z m -2.679297,-1.231417 c -0.06735,0.09139 -0.303048,0.509883 -0.303048,0.538744 0,0.01444 0.05292,0.02886 0.115451,0.02886 0.08177,0 0.187604,-0.08658 0.36077,-0.283805 0.134686,-0.153926 0.245304,-0.293423 0.245304,-0.312664 0,-0.05772 -0.375184,-0.02886 -0.41847,0.02886 z m -10.611377,-0.02405 c -0.01925,0.01444 -0.03367,0.278994 -0.03848,0.586849 0,0.307855 -0.01444,0.529126 -0.02886,0.495454 -0.04329,-0.105825 -0.389629,-0.250133 -0.60128,-0.250133 -0.264562,0.0048 -0.572415,0.144308 -0.697482,0.317475 -0.264562,0.375198 -0.293423,0.971667 -0.07696,1.404587 0.168356,0.336717 0.351145,0.456973 0.707105,0.456973 0.259753,0 0.413677,-0.05772 0.586843,-0.21646 0.101013,-0.09139 0.105834,-0.09139 0.134692,0.02886 0.02886,0.110635 0.05773,0.125065 0.230891,0.125065 h 0.197217 l -0.03367,-0.221269 c -0.01444,-0.125067 -0.02886,-0.793688 -0.02886,-1.491173 v -1.2699 h -0.158741 c -0.0914,0 -0.177977,0.01444 -0.192409,0.03367 z m -0.293425,1.207363 c 0.182789,0.144309 0.259753,0.365578 0.259753,0.731157 0,0.375198 -0.06734,0.557986 -0.269371,0.716723 -0.144306,0.110636 -0.336719,0.129877 -0.524318,0.04329 -0.399247,-0.18279 -0.485831,-1.101543 -0.139494,-1.452689 0.101012,-0.101015 0.173169,-0.125067 0.351145,-0.125067 0.134686,0 0.259753,0.03367 0.322285,0.08658 z m -5.993546,-1.029389 v 0.221271 h 0.245323 0.240512 l -0.01444,-0.206839 -0.01444,-0.202031 -0.226084,-0.01444 -0.230891,-0.01444 z m -3.092975,0.08659 -0.173169,0.303044 0.129877,0.01444 c 0.129876,0.01924 0.129876,0.01924 0.495451,-0.437732 l 0.149117,-0.177978 h -0.21646 c -0.216463,0 -0.216463,0 -0.384816,0.298234 z M 30.72164,40.442425 c -0.01925,0.01444 -0.03367,0.115446 -0.03367,0.21646 v 0.182789 h 0.240512 0.24051 v -0.21646 -0.21646 h -0.20684 c -0.115451,0 -0.22608,0.01444 -0.240512,0.03367 z m -3.689443,0.182789 v 0.21646 h 0.240509 0.240512 v -0.21646 -0.21646 h -0.240512 -0.240509 z m -3.848185,1.274711 v 1.49117 h 0.192409 0.19241 v -1.30838 c 0,-0.755207 0.01925,-1.289143 0.04329,-1.265093 0.02405,0.02886 0.240512,0.61571 0.485834,1.308383 l 0.447353,1.26509 h 0.20203 0.197222 l 0.456973,-1.279519 0.45216,-1.279522 0.01444,1.279522 0.0096,1.279519 h 0.21646 0.21646 v -1.49117 -1.495982 l -0.346336,0.01444 -0.341528,0.01444 -0.4233,1.226608 c -0.230865,0.673433 -0.432895,1.192939 -0.447325,1.154457 -0.01444,-0.03848 -0.206844,-0.591657 -0.428114,-1.226608 l -0.404058,-1.154457 -0.370387,-0.01444 -0.365577,-0.01444 z m 27.384628,-1.47193 c -0.394426,0.129877 -0.62051,0.365577 -0.639751,0.678242 -0.03848,0.582039 0.211648,0.798499 1.164079,1.005339 0.298221,0.06734 0.394425,0.110635 0.495456,0.22608 0.06733,0.08177 0.120245,0.187599 0.120245,0.24051 0,0.168361 -0.134686,0.36558 -0.307852,0.447352 -0.192409,0.09139 -0.644578,0.101015 -0.82255,0.01924 -0.13949,-0.06253 -0.264566,-0.264562 -0.264566,-0.4233 0,-0.08177 -0.02885,-0.0962 -0.221259,-0.0962 h -0.226084 l 0.02885,0.221272 c 0.04811,0.452161 0.423297,0.711911 1.014958,0.707102 0.490651,0 0.735976,-0.08177 0.971671,-0.322284 0.254938,-0.250133 0.317487,-0.538747 0.192411,-0.870652 -0.105813,-0.278994 -0.25974,-0.365577 -0.957234,-0.567608 -0.658993,-0.187599 -0.755197,-0.250132 -0.755197,-0.505074 0,-0.235701 0.134686,-0.370389 0.447344,-0.442541 0.384816,-0.08658 0.803308,0.0962 0.803308,0.346337 0,0.07215 0.03848,0.08658 0.216454,0.08658 0.202039,0 0.216476,-0.0096 0.216476,-0.134686 0,-0.197219 -0.163558,-0.428111 -0.394448,-0.543555 -0.254935,-0.129877 -0.788873,-0.168359 -1.082311,-0.07215 z M -0.88637812,38.205644 c -0.014436,0.03367 -0.043291,0.341527 -0.072151,0.687864 -0.043293,0.481022 -0.076967,0.673432 -0.15873768,0.827359 -0.096207,0.177978 -0.1010152,0.221271 -0.048106,0.365577 0.081777,0.230892 0.072154,0.370389 -0.024048,0.370389 -0.1731693,0 -0.6734346,0.278993 -0.8898946,0.500263 -0.1250669,0.125066 -0.2982345,0.370388 -0.3848184,0.548367 -0.144308,0.298234 -0.158737,0.355957 -0.158737,0.779256 0.0048,0.384819 0.02405,0.509886 0.134687,0.774448 0.072154,0.173167 0.1298768,0.384818 0.1298768,0.466593 0,0.149117 -0.00963,0.153926 -0.1924128,0.153926 h -0.192408 v 2.308911 2.308909 h -0.577226 -0.577229 v 0.346337 0.351147 l 0.240512,0.20684 0.24051,0.20684 v 1.948142 1.943334 h -0.24051 -0.240512 v 0.312664 0.317475 l 0.240512,0.221273 0.24051,0.221268 v 1.313195 1.313192 l -0.226078,0.01444 -0.230892,0.01444 -0.01444,0.312663 -0.01444,0.312666 0.245322,0.240511 0.24051,0.235702 v 1.207369 1.202557 l -0.24051,0.20684 -0.240513,0.206839 v 0.865842 0.861032 H 7.2861894 18.469976 v -0.880273 -0.880273 l -0.21646,-0.177976 -0.216461,-0.18279 v -1.24585 -1.250661 l 0.216461,-0.197219 c 0.21646,-0.19722 0.21646,-0.202029 0.21646,-0.529124 v -0.331911 h -0.21646 -0.216461 v -1.337243 -1.342053 l 0.216461,-0.202029 c 0.21646,-0.202031 0.21646,-0.202031 0.21646,-0.538747 v -0.331904 h -0.21646 -0.216461 l -0.0096,-1.722063 c -0.0096,-0.942806 -0.0096,-1.813457 -0.0096,-1.928902 0,-0.197219 0.02405,-0.235701 0.25013,-0.437732 l 0.250154,-0.22608 v -0.317475 -0.322287 h -0.394438 c -0.221272,0 -0.481022,-0.01444 -0.577229,-0.02886 L 17.3636,48.234982 v -2.275249 -2.28005 H 17.142328 16.92106 l 0.03367,-0.177978 c 0.01925,-0.101016 0.0914,-0.312665 0.158737,-0.471402 0.101013,-0.240512 0.125067,-0.360768 0.125067,-0.721535 0,-0.567607 -0.120258,-0.880272 -0.490644,-1.284331 -0.264563,-0.283805 -0.731155,-0.567607 -0.933186,-0.567607 -0.129875,0 -0.149114,-0.08658 -0.06253,-0.312665 0.08178,-0.206841 0.08178,-0.221271 -0.01925,-0.40887 -0.07215,-0.139497 -0.11545,-0.351148 -0.149117,-0.784068 -0.07215,-0.788877 -0.07696,-0.803309 -0.211651,-0.803309 -0.139497,0 -0.149117,0.03848 -0.221271,0.817741 -0.03848,0.437729 -0.08177,0.644571 -0.149115,0.750395 -0.110629,0.177979 -0.11545,0.288615 -0.01925,0.466593 0.0962,0.182788 0.05773,0.245321 -0.197222,0.317475 -0.476211,0.144306 -0.981285,0.63014 -1.168884,1.130403 -0.149117,0.404061 -0.139497,0.933185 0.02405,1.361296 0.07215,0.177979 0.139497,0.418489 0.149117,0.529124 l 0.02406,0.20684 h -0.221266 -0.221273 v 2.284859 2.284859 H 12.793881 12.216653 V 46.695697 45.09389 l 0.19241,-0.187599 c 0.182788,-0.177978 0.192409,-0.206839 0.192409,-0.466592 0,-0.274183 0,-0.278992 -0.192409,-0.375198 -0.125067,-0.06253 -0.226079,-0.163547 -0.288614,-0.288614 -0.0962,-0.192408 -0.101013,-0.192408 -0.375197,-0.192408 -0.259754,0 -0.288614,0.0096 -0.466593,0.192408 l -0.187599,0.19241 H 10.037619 8.9793684 l -0.158738,-0.168358 c -0.149117,-0.158738 -0.173167,-0.168358 -0.46659,-0.168358 -0.298235,0 -0.317475,0.0048 -0.437731,0.168358 l -0.129877,0.168358 h -0.471402 -0.466592 l -0.163549,-0.168358 c -0.149118,-0.153926 -0.182788,-0.168358 -0.456973,-0.168358 -0.274182,0 -0.307852,0.01444 -0.45697,0.168358 L 5.6073978,43.968297 H 4.5924403 3.5726715 L 3.4187428,43.775887 C 3.2696277,43.588288 3.2600052,43.583479 2.9617728,43.583479 H 2.6587269 l -0.081772,0.182788 c -0.052913,0.115447 -0.1587376,0.226082 -0.2982345,0.312666 -0.2068398,0.125065 -0.211651,0.134685 -0.211651,0.370386 0,0.216463 0.019241,0.264565 0.1924101,0.452163 l 0.192408,0.20684 v 1.596995 1.592186 H 1.8265572 1.2012291 V 45.988594 43.679683 H 1.0040099 0.80678838 l 0.024052,-0.182788 c 0.00963,-0.09621 0.076963,-0.331907 0.1491173,-0.514694 0.14430592,-0.394439 0.16835802,-0.880272 0.052913,-1.25547 -0.14911736,-0.509886 -0.63495086,-1.01496 -1.14483626,-1.192938 -0.1346857,-0.05291 -0.2693712,-0.105825 -0.2934233,-0.129877 -0.019241,-0.01924 -0.0048,-0.134685 0.043293,-0.254941 0.081772,-0.211651 0.081772,-0.221272 -0.019241,-0.418491 -0.081774,-0.149117 -0.1202561,-0.346337 -0.1539286,-0.784066 -0.028861,-0.322286 -0.067343,-0.630141 -0.091395,-0.692673 -0.048102,-0.115447 -0.2308895,-0.149117 -0.2597508,-0.0481 z m 0.6157077,3.044877 c 0.4088704,0.192408 0.6541916,0.586846 0.6541916,1.04863 0,0.254942 -0.02405,0.341525 -0.144306,0.529124 -0.1443082,0.226081 -0.1443082,0.235701 -0.1443082,0.899513 v 0.673432 h 0.1924103 0.1924101 v 2.308911 2.308911 H 1.8265898 3.1734545 l -0.014436,-2.08283 c -0.0048,-1.140025 -0.028861,-2.130933 -0.052913,-2.193464 -0.043293,-0.105826 -0.033672,-0.110636 0.1154452,-0.07696 0.2068398,0.04329 7.9513103,0.0481 8.2110623,0.0048 l 0.20684,-0.03848 -0.07215,0.202031 c -0.05772,0.168356 -0.07215,0.557985 -0.07215,2.193464 v 1.991435 h 1.298763 1.298762 l 0.0096,-2.29929 0.01444,-2.294479 0.20684,-0.01444 0.20203,-0.01444 v -0.683057 c 0,-0.663812 -0.0048,-0.687864 -0.129877,-0.875463 -0.18283,-0.264562 -0.211691,-0.740775 -0.0722,-1.014957 0.226081,-0.437732 0.591658,-0.668621 1.072684,-0.663812 0.25494,0 0.355956,0.02405 0.538744,0.129876 0.394439,0.235701 0.6109,0.596467 0.6109,1.024578 0,0.19241 -0.139497,0.557988 -0.235702,0.61571 -0.03367,0.02405 -0.05292,0.278994 -0.05292,0.755207 v 0.716723 h 0.192409 0.192409 v 2.308911 2.308911 h 0.312665 0.312666 l 0.0096,5.781895 0.01444,5.786707 0.226081,0.384818 c 0.206839,0.346337 0.23089,0.41368 0.23089,0.683053 v 0.303043 H 7.2862064 -3.176042 v -0.278991 c 0,-0.245321 0.02886,-0.327096 0.240512,-0.697484 l 0.24051,-0.418488 V 54.79129 49.019016 h 0.3367186 0.336714 l 0.00963,-2.299291 0.014436,-2.294479 0.2068375,-0.01444 0.2020306,-0.01444 v -0.663811 c 0,-0.596469 -0.00963,-0.678244 -0.096207,-0.788877 -0.4954493,-0.630142 -0.1539218,-1.558516 0.6493826,-1.770165 0.19722148,-0.05291 0.56760788,-0.01444 0.76482718,0.07696 z"
               style="fill:#000000;stroke:none;stroke-width:0.00481023" />
          </g>
        </g>
      </g>
    </g>
  </g>
  <metadata
     id="metadata3053">
    <rdf:RDF>
      <cc:Work
         rdf:about="">
        <dc:title>FDF78F6A-ECBB-4793-A66D-1B95BD760FF7</dc:title>
      </cc:Work>
    </rdf:RDF>
  </metadata>
</svg>
