<?xml version="1.0" encoding="UTF-8"?>
<svg width="110px" height="19px" viewBox="0 0 110 19" version="1.1" xmlns="http://www.w3.org/2000/svg" xmlns:xlink="http://www.w3.org/1999/xlink">
    <title>D57A2625-6D7A-4ABB-BFB8-36A86F50BB2D</title>
    <defs>
        <filter id="filter-1">
            <feColorMatrix in="SourceGraphic" type="matrix" values="0 0 0 0 0.368627 0 0 0 0 0.247059 0 0 0 0 0.556863 0 0 0 1.000000 0"></feColorMatrix>
        </filter>
    </defs>
    <g id="Home-e-Busca---UI" stroke="none" stroke-width="1" fill="none" fill-rule="evenodd">
        <g id="desk_Home" transform="translate(-921.000000, -3619.000000)">
            <rect fill="#FFFFFF" x="0" y="0" width="1220" height="4208"></rect>
            <g id="logos" transform="translate(0.000000, 3485.000000)">
                <rect id="Rectangle" fill="#F3E9E9" transform="translate(610.000000, 124.000000) scale(1, -1) translate(-610.000000, -124.000000) " x="0" y="0" width="1220" height="248"></rect>
                <g id="1.-assets/logo_Ilda-Copy" transform="translate(520.500000, 82.000000)" filter="url(#filter-1)">
                    <g transform="translate(400.500000, 52.000000)">
                        <g id="DO_Logo_horizontal_white" transform="translate(0.000000, 0.000000)" fill="#FFFFFF">
                            <g id="XMLID_44_">
                                <g id="XMLID_48_" fill-rule="nonzero">
                                    <path d="M9.29039141,18.5625 L9.29039141,14.9636128 C13.1093665,14.9636128 16.0470397,11.1811089 14.5965636,7.1782649 C14.0457499,5.69096967 12.8706806,4.51582282 11.3834835,3.96497274 C7.38090385,2.51440084 3.59864964,5.45226797 3.59864964,9.27149523 C3.59864964,9.27149523 3.59864964,9.27149523 3.59864964,9.27149523 L0,9.2898569 C0,3.21214429 5.87534635,-1.52516645 12.246425,0.457893859 C15.0372146,1.32089233 17.2404694,3.54265434 18.1034109,6.31526643 C20.0863403,12.6867658 15.3677028,18.5625 9.29039141,18.5625 Z" id="XMLID_49_"></path>
                                </g>
                                <polygon id="XMLID_47_" points="9.29039141 14.9819744 5.71010223 14.9819744 5.71010223 11.4014489 5.71010223 11.4014489 9.29039141 11.4014489 9.29039141 11.4014489"></polygon>
                                <polygon id="XMLID_46_" points="5.71010223 17.7362249 2.95603363 17.7362249 2.95603363 17.7362249 2.95603363 14.9819744 5.71010223 14.9819744"></polygon>
                                <polygon id="XMLID_45_" points="2.95603363 14.9819744 0.642616007 14.9819744 0.642616007 14.9819744 0.642616007 12.6684041 0.642616007 12.6684041 2.95603363 12.6684041 2.95603363 12.6684041"></polygon>
                            </g>
                            <g id="XMLID_2370_" transform="translate(25.850000, 3.987500)" fill-rule="nonzero">
                                <path d="M7.27912497,1.2951847 C6.21567598,0.555079156 4.89553241,0.166523747 3.35536491,0.166523747 L0,0.166523747 L0,10.9165567 L3.35536491,10.9165567 C4.89553241,10.9165567 6.21567598,10.5280013 7.27912497,9.73238786 C7.86585545,9.32532982 8.32423863,8.73324538 8.6359392,8.01164248 C8.94763977,7.29003958 9.11265771,6.43891821 9.11265771,5.476781 C9.11265771,4.53314644 8.94763977,3.68202507 8.6359392,2.96042216 C8.32423863,2.2573219 7.86585545,1.70224274 7.27912497,1.2951847 Z M1.96188003,1.99828496 L3.02532902,1.99828496 C4.19878997,1.99828496 5.17056232,2.23881926 5.90397542,2.68288259 C6.71072982,3.18245383 7.13244235,4.12608839 7.13244235,5.476781 C7.13244235,6.88298153 6.71072982,7.86362137 5.90397542,8.40019789 L5.90397542,8.40019789 C5.20723298,8.86276385 4.23546063,9.10329815 3.04366435,9.10329815 L1.96188003,9.10329815 L1.96188003,1.99828496 Z" id="XMLID_2635_"></path>
                                <path d="M11.4595796,0.0555079156 C11.1295437,0.0555079156 10.8545138,0.166523747 10.6344899,0.388555409 C10.414466,0.610587071 10.2861187,0.888126649 10.2861187,1.2026715 C10.2861187,1.535719 10.3961306,1.81325858 10.6344899,2.03529024 C10.8545138,2.2573219 11.1295437,2.38684037 11.4595796,2.38684037 C11.7896155,2.38684037 12.0646454,2.27582454 12.2846693,2.03529024 C12.5046933,1.81325858 12.6330406,1.51721636 12.6330406,1.2026715 C12.6330406,0.869624011 12.5230286,0.592084433 12.2846693,0.388555409 C12.0646454,0.166523747 11.7712802,0.0555079156 11.4595796,0.0555079156 Z" id="XMLID_2634_"></path>
                                <rect id="XMLID_2564_" x="10.4878073" y="3.36748021" width="1.88853872" height="7.58608179"></rect>
                                <path d="M19.2520938,3.99656992 C18.6836986,3.47849604 18.0419621,3.18245383 17.363555,3.18245383 C16.3184414,3.18245383 15.456681,3.5525066 14.7782739,4.25560686 C14.0998668,4.95870712 13.7698309,5.88383905 13.7698309,6.97549472 C13.7698309,8.04864776 14.0998668,8.95527704 14.7782739,9.69538259 C15.456681,10.3984828 16.3184414,10.7685356 17.363555,10.7685356 C18.0969681,10.7685356 18.7203693,10.5650066 19.2337584,10.1579485 L19.2337584,10.3244723 C19.2337584,10.953562 19.0687405,11.4346306 18.7387046,11.7861807 C18.4086687,12.1192282 17.9502855,12.285752 17.3818904,12.285752 C16.5017946,12.285752 15.9700702,11.9342018 15.291663,11.0275726 L14.0081901,12.2672493 L14.0448608,12.3227573 C14.3198907,12.7113127 14.7416032,13.0998681 15.3099984,13.4699208 C15.8783935,13.8399736 16.575136,14.025 17.418561,14.025 C18.537016,14.025 19.4537824,13.6734499 20.1138541,12.9888522 C20.7922613,12.3042546 21.1222972,11.3791227 21.1222972,10.2319591 L21.1222972,3.36748021 L19.2704291,3.36748021 L19.2704291,3.99656992 L19.2520938,3.99656992 Z M18.7570399,8.47420844 C18.427004,8.84426121 18.0052915,9.0292876 17.4552317,9.0292876 C16.9051719,9.0292876 16.4834593,8.84426121 16.1717588,8.47420844 C15.8417229,8.10415567 15.6767049,7.60458443 15.6767049,6.99399736 C15.6767049,6.38341029 15.8417229,5.86533641 16.1717588,5.49528364 C16.5017946,5.12523087 16.9235072,4.92170185 17.4552317,4.92170185 C18.0052915,4.92170185 18.427004,5.10672823 18.7570399,5.49528364 C19.0870758,5.86533641 19.2520938,6.38341029 19.2520938,6.99399736 C19.2520938,7.60458443 19.0687405,8.10415567 18.7570399,8.47420844 Z" id="XMLID_2561_"></path>
                                <rect id="XMLID_2560_" x="22.7174706" y="3.36748021" width="1.88853872" height="7.58608179"></rect>
                                <path d="M23.689243,0.0555079156 C23.3592071,0.0555079156 23.0841772,0.166523747 22.8641533,0.388555409 C22.6441293,0.610587071 22.515782,0.888126649 22.515782,1.2026715 C22.515782,1.535719 22.625794,1.81325858 22.8641533,2.03529024 C23.0841772,2.2573219 23.3592071,2.38684037 23.689243,2.38684037 C24.0192789,2.38684037 24.2943088,2.27582454 24.5143327,2.03529024 C24.7343566,1.81325858 24.8627039,1.51721636 24.8627039,1.2026715 C24.8627039,0.869624011 24.752692,0.592084433 24.5143327,0.388555409 C24.2943088,0.166523747 24.0009436,0.0555079156 23.689243,0.0555079156 Z" id="XMLID_2552_"></path>
                                <path d="M28.7497933,1.31368734 L26.8979253,1.31368734 L26.8979253,3.36748021 L25.816141,3.36748021 L25.816141,5.10672823 L26.8979253,5.10672823 L26.8979253,8.25217678 C26.8979253,9.23281662 27.0996139,9.93591689 27.4846558,10.3429749 C27.8696976,10.750033 28.5481047,10.953562 29.5198771,10.953562 C29.8315777,10.953562 30.1432782,10.9350594 30.4366435,10.9165567 L30.5283201,10.9165567 L30.5283201,9.17730871 L29.8865836,9.21431398 C29.4282005,9.21431398 29.1348352,9.14030343 28.9881526,8.97377968 C28.84147,8.80725594 28.7681287,8.47420844 28.7681287,7.9746372 L28.7681287,5.10672823 L30.5283201,5.10672823 L30.5283201,3.36748021 L28.7681287,3.36748021 L28.7681287,1.31368734 L28.7497933,1.31368734 Z" id="XMLID_2509_"></path>
                                <rect id="XMLID_2508_" x="39.3659479" y="0.185026385" width="1.88853872" height="10.750033"></rect>
                                <path d="M60.3415624,8.23367414 C60.0115265,8.62222955 59.6631553,8.95527704 59.3881254,9.12180079 L59.3881254,9.12180079 C59.1314308,9.28832454 58.8013949,9.38083773 58.4163531,9.38083773 C57.8662932,9.38083773 57.4079101,9.17730871 57.0412035,8.75174802 C56.674497,8.32618734 56.4911437,7.78961082 56.4911437,7.14201847 C56.4911437,6.49442612 56.674497,5.9578496 57.0228682,5.55079156 C57.3895747,5.12523087 57.8296226,4.92170185 58.3796824,4.92170185 C58.9847482,4.92170185 59.6264847,5.31025726 60.1765445,5.9578496 L61.4233467,4.7551781 L61.4233467,4.7551781 C60.6165923,3.68202507 59.5714787,3.18245383 58.3246764,3.18245383 C57.2795628,3.18245383 56.3811317,3.57100923 55.6477186,4.31111478 C54.9143055,5.05122032 54.547599,6.01335752 54.547599,7.14201847 C54.547599,8.27067942 54.9143055,9.21431398 55.6477186,9.97292216 C56.3811317,10.7315303 57.2795628,11.1015831 58.3246764,11.1015831 C59.699826,11.1015831 60.7999456,10.5094987 61.5333587,9.41784301 L60.3415624,8.23367414 Z" id="XMLID_2470_"></path>
                                <path d="M68.0974059,4.42213061 C67.822376,4.05207784 67.4556695,3.73753298 67.0156216,3.51550132 C66.5572384,3.29346966 66.0438492,3.18245383 65.4571188,3.18245383 C64.3936698,3.18245383 63.5319094,3.57100923 62.8901729,4.34812005 C62.2667718,5.12523087 61.9367359,6.06886544 61.9367359,7.19752639 C61.9367359,8.34468997 62.2851071,9.28832454 62.9818496,10.0284301 C63.6602567,10.750033 64.5953584,11.1200858 65.7138134,11.1200858 C66.9789509,11.1200858 68.0423999,10.6020119 68.8124837,9.56586412 L68.8491543,9.5103562 L67.6206874,8.3076847 L67.6206874,8.3076847 C67.5106754,8.4557058 67.3456575,8.60372691 67.1989749,8.75174802 C67.0156216,8.93677441 66.8322683,9.06629288 66.6489151,9.15880607 C66.3738851,9.30682718 66.0438492,9.36233509 65.695478,9.36233509 C65.1637535,9.36233509 64.742041,9.21431398 64.4120051,8.89976913 C64.1003045,8.62222955 63.9169513,8.23367414 63.8802806,7.75260554 L68.885825,7.75260554 L68.9041603,7.04950528 C68.9041603,6.54993404 68.830819,6.08736807 68.7024717,5.64330475 C68.5741244,5.21774406 68.3724358,4.79218338 68.0974059,4.42213061 Z M63.9719573,6.19838391 C64.0636339,5.82833113 64.2286518,5.53228892 64.4670111,5.29175462 C64.7237057,5.03271768 65.0537416,4.90319921 65.4571188,4.90319921 C65.915502,4.90319921 66.2638732,5.03271768 66.5022324,5.29175462 C66.7222564,5.53228892 66.8506037,5.82833113 66.8872743,6.17988127 L63.9719573,6.17988127 L63.9719573,6.19838391 Z" id="XMLID_2460_"></path>
                                <path d="M75.3581956,3.92255937 L75.3581956,3.92255937 C74.7898004,3.42298813 74.0013813,3.18245383 73.0112737,3.18245383 C72.3878725,3.18245383 71.801142,3.33047493 71.2694176,3.58951187 C70.7743637,3.84854881 70.2976452,4.25560686 69.9859446,4.81068602 L70.00428,4.82918865 L71.2144116,5.99485488 C71.7094654,5.19924142 72.2595252,4.92170185 72.9929383,4.92170185 C73.3963155,4.92170185 73.7080161,5.03271768 73.9647107,5.2362467 C74.2214053,5.43977573 74.3314172,5.7173153 74.3314172,6.0503628 L74.3314172,6.42041557 C73.8546987,6.27239446 73.3963155,6.19838391 72.9379323,6.19838391 C72.0028307,6.19838391 71.2327469,6.42041557 70.6643518,6.86447889 C70.0959566,7.30854222 69.8025914,7.95613456 69.8025914,8.75174802 C69.8025914,9.45484828 70.0409506,10.0469327 70.5360045,10.4724934 C71.0310583,10.8795515 71.6361241,11.1015831 72.3512019,11.1015831 C73.0662796,11.1015831 73.7446868,10.8055409 74.3497526,10.3059697 L74.3497526,10.9350594 L76.2016206,10.9350594 L76.2016206,6.06886544 C76.2382913,5.14373351 75.944926,4.42213061 75.3581956,3.92255937 Z M72.0028307,8.04864776 C72.2228546,7.90062665 72.5162198,7.82661609 72.9012617,7.82661609 C73.3596449,7.82661609 73.8363634,7.91912929 74.3314172,8.10415567 L74.3314172,8.84426121 C73.92804,9.23281662 73.3779802,9.41784301 72.6995731,9.41784301 C72.3695372,9.41784301 72.1128426,9.34383245 71.9478247,9.19581135 C71.7828067,9.04779024 71.6911301,8.88126649 71.6911301,8.64073219 C71.6911301,8.38169525 71.801142,8.19666887 72.0028307,8.04864776 Z" id="XMLID_2456_"></path>
                                <path d="M83.4990809,4.07058047 C82.9673564,3.47849604 82.2339433,3.18245383 81.2988416,3.18245383 C80.5470932,3.18245383 79.9420274,3.40448549 79.4836442,3.83004617 L79.4836442,3.36748021 L77.6317762,3.36748021 L77.6317762,10.953562 L79.5203149,10.953562 L79.5203149,6.75346306 C79.5203149,6.17988127 79.6486622,5.7173153 79.9236921,5.40277045 C80.198722,5.06972296 80.5470932,4.92170185 81.0421471,4.92170185 C81.4638596,4.92170185 81.7938955,5.06972296 82.0322547,5.34726253 C82.270614,5.64330475 82.3989613,6.03186016 82.3989613,6.5314314 L82.3989613,10.9165567 L84.2875,10.9165567 L84.2875,6.54993404 C84.2875,5.49528364 84.0308054,4.66266491 83.4990809,4.07058047 Z" id="XMLID_2454_"></path>
                                <path d="M37.0006907,3.92255937 L37.0006907,3.92255937 C36.4322955,3.42298813 35.6438764,3.18245383 34.6537688,3.18245383 C34.0303676,3.18245383 33.4436372,3.33047493 32.9119127,3.58951187 C32.4168588,3.84854881 31.9401403,4.25560686 31.6284397,4.81068602 L31.6467751,4.82918865 L32.8569067,5.99485488 C33.3519605,5.19924142 33.9020203,4.92170185 34.6354334,4.92170185 C35.0388106,4.92170185 35.3505112,5.03271768 35.6072058,5.2362467 C35.8639004,5.43977573 35.9739123,5.7173153 35.9739123,6.0503628 L35.9739123,6.42041557 C35.4971938,6.27239446 35.0388106,6.19838391 34.5804275,6.19838391 C33.6453258,6.19838391 32.875242,6.42041557 32.3068469,6.86447889 C31.7384517,7.30854222 31.4450865,7.95613456 31.4450865,8.75174802 C31.4450865,9.45484828 31.6834457,10.0469327 32.1784996,10.4724934 C32.6735534,10.8795515 33.2786192,11.1015831 33.993697,11.1015831 C34.7087747,11.1015831 35.3871819,10.8055409 35.9922477,10.3059697 L35.9922477,10.9350594 L37.8441157,10.9350594 L37.8441157,6.06886544 C37.8624511,5.14373351 37.5690858,4.42213061 37.0006907,3.92255937 Z M33.6453258,8.04864776 C33.8653497,7.90062665 34.1587149,7.82661609 34.5437568,7.82661609 C35.00214,7.82661609 35.4788585,7.91912929 35.9739123,8.10415567 L35.9739123,8.84426121 C35.5705351,9.23281662 35.0204753,9.41784301 34.3420682,9.41784301 C34.0120323,9.41784301 33.7553377,9.34383245 33.5903198,9.19581135 C33.4253018,9.04779024 33.3336252,8.88126649 33.3336252,8.64073219 C33.3336252,8.38169525 33.4253018,8.19666887 33.6453258,8.04864776 Z" id="XMLID_2450_"></path>
                                <path d="M48.1118991,11.1015831 C45.08657,11.1015831 42.6113008,8.62222955 42.6113008,5.55079156 C42.6113008,2.47935356 45.0682347,0 48.1118991,0 C51.1555634,0 53.6124973,2.47935356 53.6124973,5.55079156 C53.6124973,8.62222955 51.1372281,11.1015831 48.1118991,11.1015831 Z M48.1118991,1.96127968 C46.150019,1.96127968 44.5548456,3.57100923 44.5548456,5.55079156 C44.5548456,7.53057388 46.150019,9.14030343 48.1118991,9.14030343 C50.0737791,9.14030343 51.6689526,7.53057388 51.6689526,5.55079156 C51.6689526,3.57100923 50.0737791,1.96127968 48.1118991,1.96127968 Z" id="XMLID_2371_"></path>
                            </g>
                        </g>
                    </g>
                </g>
            </g>
        </g>
    </g>
</svg>