<?xml version="1.0" encoding="UTF-8"?>
<svg width="52px" height="17px" viewBox="0 0 52 17" version="1.1" xmlns="http://www.w3.org/2000/svg" xmlns:xlink="http://www.w3.org/1999/xlink">
    <title>81AD9347-DB19-4B83-8813-39AF6399FEA1</title>
    <defs>
        <filter id="filter-1">
            <feColorMatrix in="SourceGraphic" type="matrix" values="0 0 0 0 0.368627 0 0 0 0 0.247059 0 0 0 0 0.556863 0 0 0 1.000000 0"></feColorMatrix>
        </filter>
    </defs>
    <g id="Home-e-Busca---UI" stroke="none" stroke-width="1" fill="none" fill-rule="evenodd">
        <g id="desk_Home" transform="translate(-552.000000, -3621.000000)">
            <rect fill="#FFFFFF" x="0" y="0" width="1220" height="4208"></rect>
            <g id="logos" transform="translate(0.000000, 3485.000000)">
                <rect id="Rectangle" fill="#F3E9E9" transform="translate(610.000000, 124.000000) scale(1, -1) translate(-610.000000, -124.000000) " x="0" y="0" width="1220" height="248"></rect>
                <g id="1.-assets/logo_Ilda" transform="translate(520.500000, 82.000000)" filter="url(#filter-1)">
                    <g transform="translate(31.500000, 54.000000)">
                        <path d="M10.0636326,0.119546429 L10.0636326,13.513725 L18.0807023,13.513725 L18.0807023,16.8621179 L6.3958186,16.8621179 L6.3958186,0.119546429 L10.0636326,0.119546429 Z M3.6684186,0.119546429 L3.6684186,16.8621179 L1.94056657e-14,16.8621179 L1.94056657e-14,0.119546429 L3.6684186,0.119546429 Z M23.084886,0.119758929 L23.084886,13.5373125 L25.9194907,13.5373125 C28.9206767,13.5373125 30.9453512,11.5045982 30.9453512,8.53870536 L30.9453512,8.53870536 L30.9453512,8.49074107 C30.9453512,5.95713393 29.4669791,4.0704375 27.1647698,3.57409821 L27.1647698,3.57409821 L27.1647698,0.1901875 C31.7247465,0.714758929 34.7803512,4.11445536 34.7803512,8.44308036 L34.7803512,8.44308036 L34.7803512,8.49074107 C34.7803512,13.2027768 31.1597,16.8620268 25.9194907,16.8620268 L25.9194907,16.8620268 L19.4167698,16.8620268 L19.4167698,0.119758929 L23.084886,0.119758929 Z M44.6927,1.67485073e-14 L51.8387698,16.8621786 L48.0037698,16.8621786 L46.4791419,13.107 L39.428607,13.107 L37.9042814,16.8621786 L34.164514,16.8621786 L41.3105837,1.67485073e-14 L44.6927,1.67485073e-14 Z M42.9540256,4.42455357 L40.738886,9.85423214 L45.1691651,9.85423214 L42.9540256,4.42455357 Z M16.7443023,6.48756429 L16.7443023,9.08917143 L12.7360698,9.08917143 L12.7360698,6.48756429 L16.7443023,6.48756429 Z" id="logo" fill="#FFFFFF"></path>
                    </g>
                </g>
            </g>
        </g>
    </g>
</svg>