<?xml version="1.0" encoding="UTF-8" standalone="no"?>
<svg
   width="50 px"
   height="24px"
   viewBox="0 0 60 24"
   version="1.1"
   id="svg641"
   sodipodi:docname="logo-pcdas.svg"
   inkscape:version="1.1.2 (0a00cf5339, 2022-02-04, custom)"
   xmlns:inkscape="http://www.inkscape.org/namespaces/inkscape"
   xmlns:sodipodi="http://sodipodi.sourceforge.net/DTD/sodipodi-0.dtd"
   xmlns="http://www.w3.org/2000/svg"
   xmlns:svg="http://www.w3.org/2000/svg"
   xmlns:rdf="http://www.w3.org/1999/02/22-rdf-syntax-ns#"
   xmlns:cc="http://creativecommons.org/ns#"
   xmlns:dc="http://purl.org/dc/elements/1.1/">
  <sodipodi:namedview
     id="namedview643"
     pagecolor="#ffffff"
     bordercolor="#999999"
     borderopacity="1"
     inkscape:pageshadow="0"
     inkscape:pageopacity="0"
     inkscape:pagecheckerboard="0"
     showgrid="false"
     inkscape:zoom="4.8148148"
     inkscape:cx="-54.311538"
     inkscape:cy="-23.676923"
     inkscape:window-width="1904"
     inkscape:window-height="1040"
     inkscape:window-x="8"
     inkscape:window-y="32"
     inkscape:window-maximized="1"
     inkscape:current-layer="logo-ju1.-assets_logo-jurema"
     inkscape:snap-to-guides="true"
     inkscape:snap-grids="true"
     showguides="true" />
  <title
     id="title624">FDF78F6A-ECBB-4793-A66D-1B95BD760FF7</title>
  <defs
     id="defs629">
    <filter
       id="logo-jufilter-1"
       x="0"
       y="0"
       width="1"
       height="1">
      <feColorMatrix
         in="SourceGraphic"
         type="matrix"
         values="0 0 0 0 0.368627 0 0 0 0 0.247059 0 0 0 0 0.556863 0 0 0 1.000000 0"
         id="feColorMatrix626" />
    </filter>
  </defs>
  <g
     id="logo-juHome-e-Busca---UI"
     stroke="none"
     stroke-width="1"
     fill="none"
     fill-rule="evenodd"
     style="display:inline"
     transform="translate(2.3773873,-25.0838)">
    <g
       id="logo-judesk_Home"
       transform="translate(-671,-3621)">
      <g
         id="logo-julogos"
         transform="translate(0,3485)">
        <g
           id="logo-ju1.-assets_logo-jurema"
           transform="translate(522.20417,69.512881)"
           filter="url(#logo-jufilter-1)">
          <g
             transform="matrix(0.0063662,0,0,-0.0063662,147.78737,119.73921)"
             fill="#000000"
             stroke="none"
             id="g4823">
            <path
               d="m 8271,5080 c -245,-52 -416,-204 -461,-411 -19,-84 -9,-250 19,-322 45,-116 174,-223 407,-340 72,-36 170,-89 218,-117 172,-102 201,-144 201,-295 0,-89 -3,-105 -27,-150 -101,-191 -377,-241 -675,-121 -48,19 -89,33 -91,31 -9,-9 -33,-258 -25,-266 4,-4 51,-19 103,-32 278,-72 528,-59 723,40 85,42 198,151 240,230 62,116 84,302 52,428 -23,87 -61,149 -135,218 -84,80 -169,136 -350,232 -80,43 -183,103 -230,134 -72,47 -89,64 -112,110 -22,43 -28,68 -28,120 0,82 22,133 79,184 120,108 319,120 579,35 35,-11 66,-17 69,-14 4,3 14,59 23,124 13,85 14,119 6,124 -6,4 -60,19 -121,34 -90,22 -139,27 -265,30 -85,2 -175,-1 -199,-6 z"
               id="path4687" />
            <path
               d="m 2307,5025 c -383,-72 -662,-304 -777,-645 -75,-224 -67,-534 21,-761 56,-145 173,-298 304,-396 258,-194 684,-264 1050,-172 45,11 86,24 91,27 6,5 6,54 -1,142 -8,110 -13,134 -25,132 -8,-2 -49,-15 -90,-28 -429,-141 -838,6 -1010,361 -61,127 -80,211 -80,362 0,146 24,255 80,362 75,143 167,233 315,307 115,57 207,77 360,76 140,0 234,-21 343,-76 l 70,-35 6,42 c 3,23 8,85 12,138 l 7,96 -43,17 c -24,9 -79,26 -124,37 -109,28 -394,35 -509,14 z"
               id="path4689" />
            <path
               d="M 0,4031 V 3030 h 145 145 v 400 400 h 163 c 348,0 513,46 647,180 146,146 204,365 150,574 -48,188 -172,326 -348,387 -125,44 -184,50 -549,56 l -353,6 z m 710,720 c 177,-56 258,-171 248,-352 -4,-59 -11,-91 -34,-136 -37,-74 -86,-111 -195,-148 -77,-26 -99,-29 -261,-33 l -178,-4 v 352 353 l 178,-6 c 140,-4 191,-10 242,-26 z"
               id="path4691" />
            <path
               d="M 3330,4029 V 3028 l 393,5 c 348,4 402,6 482,24 408,93 682,355 771,738 26,112 26,348 0,460 -75,323 -295,575 -604,691 -175,65 -347,84 -774,84 h -268 z m 759,731 c 156,-27 286,-94 391,-200 150,-154 218,-344 207,-575 -7,-135 -24,-203 -81,-320 -97,-198 -272,-326 -506,-371 -41,-8 -166,-17 -277,-21 l -203,-6 v 758 758 l 203,-6 c 111,-3 231,-11 266,-17 z"
               id="path4693" />
            <path
               d="m 6480,4317 c 0,-2 111,-107 248,-232 136,-126 261,-241 278,-257 l 30,-28 112,42 c 89,33 110,44 100,53 -7,7 -179,103 -383,215 -203,111 -373,205 -377,207 -5,2 -8,2 -8,0 z"
               id="path4695" />
            <path
               d="m 6275,3884 c -88,-80 -269,-243 -402,-362 -134,-119 -240,-218 -235,-219 4,-1 111,35 237,81 127,45 233,81 238,79 4,-2 7,-62 7,-134 v -129 h -255 -255 l -2,180 -3,181 -102,-92 -103,-91 v -189 -189 h 360 360 v -155 c 0,-211 -12,-237 -114,-251 -44,-6 -45,-6 -65,33 -35,71 -114,123 -185,123 -45,0 -104,-27 -143,-66 -77,-78 -80,-193 -7,-274 95,-105 268,-86 328,37 19,38 24,42 60,43 97,1 193,66 215,146 6,22 11,112 11,202 v 162 h 50 50 v -50 -50 h 50 50 v 50 50 h 56 56 l -3,-47 -3,-48 52,-3 52,-3 v 50 51 h 50 50 v -172 c 0,-146 3,-179 19,-213 35,-77 112,-124 206,-125 37,-1 41,-4 60,-43 27,-56 89,-98 153,-105 250,-24 314,334 71,399 -88,24 -189,-23 -228,-105 -25,-50 -36,-54 -104,-35 -68,18 -77,47 -77,237 v 162 h 330 330 l -1,193 v 192 l -224,203 c -123,111 -230,202 -237,202 -7,0 -60,-18 -117,-39 l -103,-40 -175,160 c -96,87 -180,159 -186,158 -7,0 -84,-66 -172,-145 z m 803,-413 202,-184 v -43 -44 h -225 -225 v 246 245 l 23,-18 c 13,-10 114,-101 225,-202 z m -348,-31 v -240 h -50 -50 l 2,227 3,226 35,13 c 63,23 60,35 60,-226 z m -202,-32 -3,-203 -52,-3 -53,-3 v 184 c 0,198 -1,195 55,215 58,20 56,29 53,-190 z m -208,-38 v -170 h -50 -50 v 153 153 l 43,16 c 23,9 45,17 50,17 4,1 7,-75 7,-169 z m -502,-747 c 25,-16 42,-51 42,-90 0,-34 -60,-93 -94,-93 -35,0 -83,25 -96,49 -19,37 -12,96 16,124 38,39 82,42 132,10 z m 1445,-14 c 46,-50 32,-126 -30,-158 -95,-49 -188,74 -118,158 42,49 102,49 148,0 z"
               id="path4697" />
            <path
               d="m 5023,2770 c -30,-38 -29,-43 14,-79 l 37,-31 28,33 c 35,42 35,51 -5,81 -42,32 -47,32 -74,-4 z"
               id="path4699" />
            <path
               d="m 6320,2750 v -50 h 50 50 v 50 50 h -50 -50 z"
               id="path4701" />
            <path
               d="m 6529,2796 c -2,-3 -3,-25 -1,-50 l 4,-46 h 49 49 v 50 50 h -48 c -27,0 -51,-2 -53,-4 z"
               id="path4703" />
            <path
               d="m 5148,2576 c -16,-19 -28,-39 -27,-43 0,-4 16,-21 35,-37 l 35,-29 29,34 c 16,19 29,39 30,44 0,8 -62,65 -72,65 -2,0 -15,-16 -30,-34 z"
               id="path4705" />
            <path
               d="m 4938,2589 c -5,-3 -8,-26 -6,-50 l 3,-44 53,-3 53,-3 -3,52 -3,52 -43,1 c -24,1 -48,-2 -54,-5 z"
               id="path4707" />
            <path
               d="m 5354,2591 c -2,-2 -4,-26 -4,-53 v -48 h 51 50 l -3,51 -3,52 -43,1 c -24,1 -46,-1 -48,-3 z"
               id="path4709" />
            <path
               d="m 6324,2591 c -2,-2 -4,-26 -4,-53 v -48 h 51 50 l -3,51 -3,52 -43,1 c -24,1 -46,-1 -48,-3 z"
               id="path4711" />
            <path
               d="m 6530,2543 v -53 h 51 50 l -3,51 -3,51 -47,2 -48,2 z"
               id="path4713" />
            <path
               d="m 7504,2591 c -2,-2 -4,-26 -4,-53 v -48 h 51 50 l -3,51 -3,52 -43,1 c -24,1 -46,-1 -48,-3 z"
               id="path4715" />
            <path
               d="m 7704,2591 c -2,-2 -4,-26 -4,-53 v -49 l 52,3 52,3 v 50 49 l -48,1 c -26,0 -50,-2 -52,-4 z"
               id="path4717" />
            <path
               d="m 7914,2591 c -2,-2 -4,-26 -4,-53 v -48 h 51 50 l -3,51 -3,52 -43,1 c -24,1 -46,-1 -48,-3 z"
               id="path4719" />
            <path
               d="m 5044,2408 c -16,-12 -33,-25 -38,-29 -9,-8 39,-89 52,-89 3,0 23,12 44,26 l 38,26 -18,30 c -32,55 -45,61 -78,36 z"
               id="path4721" />
            <path
               d="m 6320,2340 v -50 h 50 50 v 50 50 h -50 -50 z"
               id="path4723" />
            <path
               d="m 6528,2344 c -2,-25 -1,-47 1,-50 2,-2 26,-4 53,-4 h 48 v 50 50 h -49 -49 z"
               id="path4725" />
            <path
               d="m 6327,2183 c -4,-3 -7,-26 -7,-50 v -43 h 50 50 v 50 50 h -43 c -24,0 -47,-3 -50,-7 z"
               id="path4727" />
            <path
               d="m 6529,2188 c 0,-2 -1,-24 -2,-51 l -2,-47 h 53 53 l -3,48 -3,47 -47,3 c -27,2 -48,2 -49,0 z"
               id="path4729" />
            <path
               d="m 450,1330 v -270 h 35 35 v 270 270 h -35 -35 z"
               id="path4731" />
            <path
               d="m 1804,1590 c -36,-14 -62,-58 -69,-116 l -7,-54 h -44 c -40,0 -44,-2 -44,-25 0,-23 4,-25 45,-25 h 45 v -155 -155 h 35 35 v 155 155 h 50 c 47,0 50,2 50,25 0,23 -3,25 -51,25 h -52 l 6,47 c 6,54 28,76 70,70 24,-3 27,0 27,24 0,37 -43,51 -96,29 z"
               id="path4733" />
            <path
               d="m 4154,1586 c -3,-8 -4,-60 -2,-114 l 3,-100 -28,24 c -35,30 -67,38 -115,30 -79,-12 -132,-88 -132,-188 0,-71 17,-115 58,-150 57,-48 136,-49 192,-2 l 30,26 v -26 c 0,-23 4,-26 35,-26 h 35 l -2,268 -3,267 -33,3 c -22,2 -34,-2 -38,-12 z m -55,-231 c 35,-17 54,-62 53,-122 0,-52 -24,-91 -66,-111 -106,-52 -186,130 -96,220 32,31 66,36 109,13 z"
               id="path4735" />
            <path
               d="m 5616,1553 -35,-48 26,-3 c 14,-2 29,0 32,5 3,5 14,20 24,34 l 18,24 27,-33 c 22,-26 34,-33 56,-30 l 28,3 -37,48 c -31,40 -41,47 -70,47 -30,0 -40,-7 -69,-47 z"
               id="path4737" />
            <path
               d="m 7714,1586 c -3,-8 -4,-60 -2,-114 l 3,-100 -28,24 c -35,30 -67,38 -115,30 -79,-12 -132,-88 -132,-188 0,-71 17,-115 58,-150 57,-48 136,-49 192,-2 l 30,26 v -26 c 0,-23 4,-26 35,-26 h 35 l -2,268 -3,267 -33,3 c -22,2 -34,-2 -38,-12 z m -55,-231 c 35,-17 54,-62 53,-122 0,-52 -24,-91 -66,-111 -106,-52 -186,130 -96,220 32,31 66,36 109,13 z"
               id="path4739" />
            <path
               d="m 5370,1550 c 0,-39 1,-40 35,-40 34,0 35,1 35,40 0,39 -1,40 -35,40 -34,0 -35,-1 -35,-40 z"
               id="path4741" />
            <path
               d="m 6680,1550 c 0,-39 1,-40 35,-40 34,0 35,1 35,40 0,39 -1,40 -35,40 -34,0 -35,-1 -35,-40 z"
               id="path4743" />
            <path
               d="m 70,1310 v -250 h 35 35 v 100 100 h 60 c 134,0 207,76 179,187 -21,81 -85,113 -226,113 H 70 Z m 208,160 c 69,-65 14,-150 -98,-150 h -40 v 85 85 h 58 c 45,0 63,-5 80,-20 z"
               id="path4745" />
            <path
               d="m 5100,1551 c -72,-22 -138,-79 -164,-143 -9,-21 -16,-66 -16,-100 0,-150 103,-249 260,-252 36,0 77,3 93,7 23,6 27,13 27,43 0,33 -2,36 -22,30 -13,-4 -46,-9 -74,-13 -66,-7 -130,20 -170,72 -24,32 -29,49 -32,109 -3,61 -1,76 20,106 57,84 147,107 251,65 16,-7 18,-3 15,31 -2,31 -8,40 -28,45 -34,9 -129,9 -160,0 z"
               id="path4747" />
            <path
               d="m 1083,1516 c -31,-8 -33,-12 -33,-52 v -44 h -40 c -36,0 -40,-2 -40,-25 0,-22 4,-25 39,-25 h 39 l 3,-130 c 4,-123 5,-131 30,-155 48,-49 149,-42 149,10 0,24 -2,25 -34,20 -27,-6 -39,-2 -55,14 -19,19 -21,33 -21,131 v 110 h 50 c 47,0 50,2 50,25 0,23 -3,25 -50,25 h -49 l -3,53 -3,53 z"
               id="path4749" />
            <path
               d="m 2070,1428 c -119,-35 -172,-179 -107,-291 73,-124 268,-114 328,17 69,153 -65,320 -221,274 z m 120,-75 c 76,-68 55,-213 -34,-243 -74,-24 -136,25 -144,113 -10,127 96,204 178,130 z"
               id="path4751" />
            <path
               d="m 4441,1430 c -139,-33 -176,-248 -59,-343 45,-36 122,-47 193,-27 42,12 45,15 45,46 0,38 -4,40 -40,19 -33,-19 -104,-19 -139,0 -23,12 -61,67 -61,89 0,3 60,7 133,8 l 132,3 -3,40 c -4,51 -40,124 -72,146 -31,21 -85,29 -129,19 z m 82,-61 c 12,-7 23,-12 24,-13 1,-1 9,-19 18,-39 l 15,-37 h -99 -100 l 11,30 c 20,58 80,85 131,59 z"
               id="path4753" />
            <path
               d="m 5637,1426 c -50,-18 -76,-42 -98,-91 -47,-102 0,-238 94,-274 40,-15 122,-14 162,3 29,13 35,20 35,45 0,36 2,35 -43,16 -74,-31 -153,-11 -182,45 -8,16 -15,34 -15,40 0,6 46,10 130,10 h 130 v 33 c 0,90 -44,158 -114,176 -54,13 -52,13 -99,-3 z m 114,-75 c 16,-16 29,-39 29,-50 0,-20 -5,-21 -96,-21 -94,0 -95,0 -89,23 4,12 20,34 36,50 40,37 82,36 120,-2 z"
               id="path4755" />
            <path
               d="m 8001,1430 c -139,-33 -176,-248 -59,-343 45,-36 122,-47 193,-27 42,12 45,15 45,46 0,38 -4,40 -40,19 -33,-19 -104,-19 -139,0 -23,12 -61,67 -61,89 0,3 60,7 133,8 l 132,3 -3,40 c -4,51 -40,124 -72,146 -31,21 -85,29 -129,19 z m 82,-61 c 12,-7 23,-12 24,-13 1,-1 9,-19 18,-39 l 15,-37 h -99 -100 l 11,30 c 20,58 80,85 131,59 z"
               id="path4757" />
            <path
               d="m 697,1420 c -41,-13 -55,-27 -50,-54 5,-23 6,-24 39,-10 75,31 146,10 160,-48 l 6,-28 h -68 c -120,0 -196,-59 -178,-138 20,-85 144,-120 218,-61 l 26,20 v -20 c 0,-17 6,-21 36,-21 h 37 l -6,139 c -6,157 -16,189 -71,215 -36,17 -103,20 -149,6 z m 153,-205 c 0,-29 -28,-83 -48,-94 -52,-28 -122,-2 -122,44 0,42 39,63 118,64 40,1 52,-2 52,-14 z"
               id="path4759" />
            <path
               d="m 1360,1416 c -29,-10 -36,-18 -38,-44 -4,-37 -5,-36 41,-17 55,23 104,19 132,-10 14,-13 25,-33 25,-45 0,-18 -6,-20 -57,-20 -118,0 -183,-43 -183,-119 0,-100 135,-146 220,-75 l 30,26 v -26 c 0,-22 4,-26 31,-26 h 31 l -3,143 c -4,117 -7,148 -22,171 -34,52 -127,71 -207,42 z m 160,-217 c 0,-45 -47,-89 -96,-89 -83,0 -101,84 -24,113 8,3 39,6 68,6 52,1 52,1 52,-30 z"
               id="path4761" />
            <path
               d="m 2504,1411 c -18,-11 -34,-25 -37,-33 -3,-7 -6,-1 -6,15 -1,24 -5,27 -37,27 h -37 l 7,-52 c 3,-29 6,-110 6,-180 v -128 h 35 35 v 113 c 0,94 3,117 20,145 21,35 63,56 93,48 15,-4 18,1 15,27 -3,27 -7,32 -33,35 -17,1 -44,-6 -61,-17 z"
               id="path4763" />
            <path
               d="m 2774,1411 c -18,-10 -34,-25 -37,-33 -3,-7 -6,-1 -6,15 -1,24 -5,27 -37,27 h -37 l 7,-46 c 3,-26 6,-107 6,-180 v -134 h 35 35 v 115 c 0,123 11,164 49,185 31,16 66,12 87,-11 16,-18 20,-40 22,-155 l 4,-134 h 33 33 l 4,131 c 3,129 3,131 31,155 34,29 67,31 98,5 22,-18 24,-27 27,-155 l 4,-136 h 35 36 l -5,138 c -5,151 -18,194 -69,219 -52,27 -149,2 -166,-43 -4,-12 -11,-9 -32,17 -35,41 -109,51 -157,20 z"
               id="path4765" />
            <path
               d="m 3367,1420 c -41,-13 -55,-27 -50,-54 5,-23 6,-24 39,-10 75,31 146,10 160,-48 l 6,-28 h -68 c -120,0 -196,-59 -178,-138 20,-85 144,-120 218,-61 l 26,20 v -20 c 0,-17 6,-21 36,-21 h 37 l -6,139 c -6,157 -16,189 -71,215 -36,17 -103,20 -149,6 z m 153,-205 c 0,-29 -28,-83 -48,-94 -52,-28 -122,-2 -122,44 0,42 39,63 118,64 40,1 52,-2 52,-14 z"
               id="path4767" />
            <path
               d="m 6065,1419 c -11,-6 -30,-21 -42,-32 l -23,-20 v 26 c 0,24 -4,27 -36,27 -29,0 -35,-3 -30,-16 3,-9 6,-90 6,-180 v -164 h 34 34 l 4,126 3,126 33,29 c 41,37 84,38 117,4 24,-23 25,-29 25,-155 v -130 h 35 35 v 130 c 0,139 -9,179 -49,214 -25,23 -116,32 -146,15 z"
               id="path4769" />
            <path
               d="m 6445,1412 c -48,-23 -69,-45 -90,-95 -33,-81 -4,-189 63,-234 43,-28 107,-38 160,-23 39,10 42,13 36,38 -9,35 -6,34 -43,21 -70,-25 -143,22 -156,100 -14,87 50,156 137,147 41,-4 48,-2 53,16 10,29 -7,41 -67,45 -37,3 -65,-2 -93,-15 z"
               id="path4771" />
            <path
               d="m 6927,1420 c -41,-13 -55,-27 -50,-54 5,-23 6,-24 39,-10 75,31 146,10 160,-48 l 6,-28 h -68 c -120,0 -196,-59 -178,-138 20,-85 144,-120 218,-61 l 26,20 v -20 c 0,-17 6,-21 36,-21 h 37 l -6,139 c -6,157 -16,189 -71,215 -36,17 -103,20 -149,6 z m 153,-205 c 0,-29 -28,-83 -48,-94 -52,-28 -122,-2 -122,44 0,42 39,63 118,64 40,1 52,-2 52,-14 z"
               id="path4773" />
            <path
               d="m 5370,1240 v -180 h 35 35 v 180 180 h -35 -35 z"
               id="path4775" />
            <path
               d="m 6680,1240 v -180 h 35 35 v 180 180 h -35 -35 z"
               id="path4777" />
            <path
               d="m 1224,686 c -3,-8 -4,-60 -2,-114 l 3,-100 -28,24 c -35,30 -67,38 -115,30 -79,-12 -132,-88 -132,-188 0,-71 17,-115 58,-150 57,-48 136,-49 192,-2 l 30,26 v -26 c 0,-23 4,-26 35,-26 h 35 l -2,268 -3,267 -33,3 c -22,2 -34,-2 -38,-12 z m -55,-231 c 35,-17 54,-62 53,-122 0,-52 -24,-91 -66,-111 -106,-52 -186,130 -96,220 32,31 66,36 109,13 z"
               id="path4779" />
            <path
               d="M 3160,430 V 160 h 35 35 v 270 270 h -35 -35 z"
               id="path4781" />
            <path
               d="M 4480,583 V 466 l -31,30 c -26,25 -38,29 -89,29 -66,0 -102,-20 -133,-74 -24,-40 -33,-137 -17,-185 36,-109 157,-149 240,-80 l 30,26 v -26 c 0,-23 4,-26 35,-26 h 35 v 270 270 h -35 -35 z m -41,-143 c 36,-37 48,-88 32,-141 -31,-105 -146,-117 -185,-19 -20,51 -20,69 0,120 29,73 101,91 153,40 z"
               id="path4783" />
            <path
               d="m 5330,683 c 39,-51 76,-83 97,-83 h 22 l -27,48 c -25,42 -33,47 -67,50 -36,3 -38,2 -25,-15 z"
               id="path4785" />
            <path
               d="m 6782,673 c -10,-16 -24,-38 -31,-50 -11,-21 -9,-23 13,-23 17,0 37,15 66,50 l 42,50 h -35 c -28,0 -40,-6 -55,-27 z"
               id="path4787" />
            <path
               d="M 7300,585 V 471 l -26,24 c -84,78 -217,23 -245,-100 -23,-106 16,-200 96,-231 56,-21 105,-14 151,21 l 34,26 v -25 c 0,-23 4,-26 36,-26 29,0 35,3 30,16 -3,9 -6,130 -6,270 v 254 h -35 -35 z m -52,-131 c 31,-21 52,-66 52,-109 0,-117 -107,-174 -175,-93 -46,55 -29,178 29,207 31,15 69,13 94,-5 z"
               id="path4789" />
            <path
               d="m 3330,651 v -41 h 41 40 l -3,38 c -3,35 -5,37 -40,40 l -38,3 z"
               id="path4791" />
            <path
               d="m 5944,659 c -18,-5 -46,-25 -63,-44 -26,-29 -31,-44 -31,-84 0,-62 20,-88 102,-131 87,-45 108,-66 108,-107 0,-73 -69,-99 -177,-67 -21,6 -23,3 -23,-29 0,-31 3,-35 31,-41 138,-27 234,22 246,126 9,76 -10,97 -165,189 -18,10 -38,30 -44,44 -10,22 -8,30 9,53 19,25 25,27 97,26 l 76,-1 v 28 c 0,24 -5,30 -37,38 -45,13 -86,13 -129,0 z"
               id="path4793" />
            <path
               d="M 70,411 V 160 h 103 c 117,0 174,15 229,60 108,89 109,274 3,368 -57,50 -98,63 -227,69 l -108,6 z m 263,146 c 50,-38 70,-81 71,-147 1,-117 -63,-180 -189,-188 l -75,-5 v 188 187 l 78,-3 c 68,-3 84,-8 115,-32 z"
               id="path4795" />
            <path
               d="m 1509,524 c -154,-47 -173,-281 -29,-354 78,-40 193,-17 238,47 81,117 36,270 -91,308 -60,18 -59,18 -118,-1 z m 111,-59 c 16,-9 36,-29 45,-45 21,-41 19,-128 -4,-166 -40,-66 -142,-66 -182,0 -23,38 -25,125 -4,166 28,54 90,73 145,45 z"
               id="path4797" />
            <path
               d="m 7576,526 c -84,-31 -121,-95 -114,-201 5,-77 35,-126 94,-155 45,-22 123,-26 173,-9 26,9 31,16 31,44 v 34 l -35,-15 c -45,-19 -115,-18 -143,2 -22,15 -52,63 -52,84 0,6 46,10 131,10 h 132 l -6,51 c -15,126 -106,193 -211,155 z m 95,-56 c 19,-10 49,-59 49,-80 0,-6 -35,-10 -95,-10 -101,0 -106,3 -81,49 24,44 84,63 127,41 z"
               id="path4799" />
            <path
               d="m 628,513 c -32,-12 -38,-20 -38,-44 0,-34 -2,-33 43,-14 80,33 156,8 157,-52 0,-21 -4,-23 -62,-23 -125,-1 -195,-63 -170,-149 16,-53 52,-75 124,-75 50,-1 61,3 88,29 l 30,29 v -27 c 0,-24 4,-27 33,-27 h 32 l -5,149 c -4,131 -7,152 -25,171 -44,49 -134,64 -207,33 z M 800,323 c 0,-5 -5,-25 -10,-45 -13,-45 -43,-68 -88,-68 -52,0 -72,15 -72,56 0,30 5,37 33,49 34,15 137,20 137,8 z"
               id="path4801" />
            <path
               d="m 1863,510 c -38,-23 -53,-48 -53,-88 0,-39 23,-65 95,-105 69,-38 82,-66 40,-93 -25,-16 -52,-16 -112,2 -20,6 -23,3 -23,-24 0,-25 6,-32 31,-41 102,-35 202,14 202,99 0,49 -16,68 -92,109 -64,34 -77,52 -60,83 10,18 18,20 70,16 58,-4 59,-4 59,23 0,19 -6,28 -22,33 -44,11 -103,6 -135,-14 z"
               id="path4803" />
            <path
               d="m 2388,513 c -32,-12 -38,-20 -38,-44 0,-34 -2,-33 43,-14 75,31 157,5 157,-51 0,-23 -3,-24 -56,-24 -77,0 -130,-18 -161,-54 -21,-25 -24,-37 -20,-73 6,-53 28,-79 78,-94 48,-15 101,-5 139,27 l 30,26 v -26 c 0,-22 4,-26 30,-26 h 30 v 133 c 0,153 -12,191 -70,219 -43,22 -112,22 -162,1 z m 162,-209 c 0,-56 -37,-93 -92,-94 -59,0 -95,45 -65,82 21,27 50,37 105,38 49,0 52,-1 52,-26 z"
               id="path4805" />
            <path
               d="m 2854,511 c -18,-11 -35,-24 -39,-30 -9,-16 -25,-3 -25,20 0,15 -7,19 -30,19 h -30 l 2,-257 3,-258 33,-3 32,-3 v 106 107 l 30,-25 c 79,-67 197,-33 235,67 23,61 17,165 -11,203 -52,70 -136,93 -200,54 z m 116,-69 c 68,-69 42,-206 -43,-227 -35,-9 -77,13 -104,54 -75,112 55,265 147,173 z"
               id="path4807" />
            <path
               d="m 3582,509 c -161,-80 -119,-331 60,-355 64,-9 118,10 118,41 0,32 -11,37 -50,24 -47,-17 -105,3 -130,44 -25,40 -27,123 -4,155 26,37 72,55 126,49 47,-6 48,-6 48,22 0,21 -6,30 -22,35 -45,12 -104,6 -146,-15 z"
               id="path4809" />
            <path
               d="m 3897,520 c -41,-13 -55,-27 -50,-54 5,-23 6,-24 39,-10 75,31 146,10 160,-48 l 6,-28 h -68 c -120,0 -196,-59 -178,-138 20,-85 144,-120 218,-61 l 26,20 v -20 c 0,-17 6,-21 36,-21 h 37 l -6,139 c -6,157 -16,189 -71,215 -36,17 -103,20 -149,6 z m 153,-205 c 0,-29 -28,-83 -48,-94 -52,-28 -122,-2 -122,44 0,42 39,63 118,64 40,1 52,-2 52,-14 z"
               id="path4811" />
            <path
               d="m 4720,516 c -29,-10 -36,-18 -38,-44 -4,-37 -5,-36 41,-17 55,23 104,19 132,-10 14,-13 25,-33 25,-45 0,-18 -6,-20 -57,-20 -118,0 -183,-43 -183,-119 0,-100 135,-146 220,-75 l 30,26 v -26 c 0,-22 4,-26 31,-26 h 31 l -3,143 c -4,117 -7,148 -22,171 -34,52 -127,71 -207,42 z m 160,-217 c 0,-45 -47,-89 -96,-89 -83,0 -101,84 -24,113 8,3 39,6 68,6 52,1 52,1 52,-30 z"
               id="path4813" />
            <path
               d="m 5318,513 c -32,-12 -38,-20 -38,-44 0,-34 -2,-33 43,-14 80,33 156,8 157,-52 0,-21 -4,-23 -62,-23 -125,-1 -195,-63 -170,-149 16,-53 52,-75 124,-75 50,-1 61,3 88,29 l 30,29 v -27 c 0,-24 4,-27 33,-27 h 32 l -5,149 c -4,131 -7,152 -25,171 -44,49 -134,64 -207,33 z m 172,-190 c 0,-5 -5,-25 -10,-45 -13,-45 -43,-68 -88,-68 -52,0 -72,15 -72,56 0,30 5,37 33,49 34,15 137,20 137,8 z"
               id="path4815" />
            <path
               d="m 6278,513 c -32,-12 -38,-20 -38,-44 0,-34 -2,-33 43,-14 80,33 156,8 157,-52 0,-21 -4,-23 -62,-23 -125,-1 -195,-63 -170,-149 16,-53 52,-75 124,-75 50,-1 61,3 88,29 l 30,29 v -27 c 0,-24 4,-27 33,-27 h 32 l -5,149 c -4,131 -7,152 -25,171 -44,49 -134,64 -207,33 z m 172,-190 c 0,-5 -5,-25 -10,-45 -13,-45 -43,-68 -88,-68 -52,0 -72,15 -72,56 0,30 5,37 33,49 34,15 137,20 137,8 z"
               id="path4817" />
            <path
               d="M 3330,340 V 160 h 35 35 v 180 180 h -35 -35 z"
               id="path4819" />
            <path
               d="m 6610,420 c 0,-182 31,-253 116,-266 36,-5 54,-2 94,18 47,23 50,24 56,6 3,-12 15,-18 35,-18 h 29 v 180 180 h -35 -35 v -97 c 0,-117 -12,-165 -47,-193 -29,-23 -81,-26 -107,-7 -25,18 -35,77 -36,195 v 102 h -35 -35 z"
               id="path4821" />
          </g>
        </g>
      </g>
    </g>
  </g>
  <metadata
     id="metadata3053">
    <rdf:RDF>
      <cc:Work
         rdf:about="">
        <dc:title>FDF78F6A-ECBB-4793-A66D-1B95BD760FF7</dc:title>
      </cc:Work>
    </rdf:RDF>
  </metadata>
</svg>
