<?xml version="1.0" encoding="UTF-8"?>
<svg width="116px" height="31px" viewBox="0 0 116 31" version="1.1" xmlns="http://www.w3.org/2000/svg" xmlns:xlink="http://www.w3.org/1999/xlink">
    <title>2988CBA0-8EF7-408F-AE65-EF2791000136</title>
    <defs>
        <filter id="filter-1">
            <feColorMatrix in="SourceGraphic" type="matrix" values="0 0 0 0 0.368627 0 0 0 0 0.247059 0 0 0 0 0.556863 0 0 0 1.000000 0"></feColorMatrix>
        </filter>
    </defs>
    <g id="Home-e-Busca---UI" stroke="none" stroke-width="1" fill="none" fill-rule="evenodd">
        <g id="desk_Home" transform="translate(-16.000000, -3618.000000)">
            <rect fill="#FFFFFF" x="0" y="0" width="1220" height="4208"></rect>
            <g id="logos" transform="translate(0.000000, 3485.000000)">
                <rect id="Rectangle" fill="#F3E9E9" transform="translate(610.000000, 124.000000) scale(1, -1) translate(-610.000000, -124.000000) " x="0" y="0" width="1220" height="248"></rect>
                <g id="1.-assets_logo-OK" transform="translate(16.000000, 82.000000)" filter="url(#filter-1)">
                    <g transform="translate(0.000000, 51.000000)">
                        <path d="M21.65968,23.9725027 L25.1687212,29.9905478 L24.3285282,30.4764769 L20.8318428,24.4584318 L21.65968,23.9725027 Z M18.41195,25.332237 L19.1849152,29.9770165 L18.2344642,30.1378591 L17.461499,25.4930795 L18.41195,25.332237 Z M13.9717502,25.2746058 L14.9176715,25.4608138 L14.2524414,28.8972235 L13.30652,28.7110155 L13.9717502,25.2746058 Z M12.2863738,24.6881878 L13.1840112,25.041847 L11.8081533,28.5929721 L10.9105158,28.2393129 L12.2863738,24.6881878 Z M15.7073212,25.5482424 L16.6709756,25.5612866 L16.6386371,27.9906892 L15.6749827,27.977645 L15.7073212,25.5482424 Z M20.1036637,24.8009919 L21.0583848,27.4736319 L20.1516881,27.8029946 L19.196967,25.1303546 L20.1036637,24.8009919 Z M9.39672784,22.6937815 L10.1141439,23.3427884 L7.30048844,26.5055689 L6.58307239,25.856562 L9.39672784,22.6937815 Z M10.7534343,23.8163251 L11.5741645,24.3257731 L10.5572913,25.9916528 L9.73656117,25.4822047 L10.7534343,23.8163251 Z M8.26148013,21.3348434 L8.85225933,22.1027085 L5.44521637,24.7683038 L4.85443717,24.0004386 L8.26148013,21.3348434 Z M24.2289703,21.5524474 L26.6373834,23.5424841 L26.0265582,24.2942164 L23.6181451,22.3041797 L24.2289703,21.5524474 Z M23.0311715,22.8511278 L23.5748257,23.4118153 L22.8705463,24.0846402 L22.3392478,23.5239527 L23.0311715,22.8511278 Z M51.3753277,17.3439313 C51.6718664,17.3439313 51.9313378,17.3937701 52.1784533,17.4809882 C52.4255689,17.580666 52.6356172,17.7052632 52.8209538,17.892159 L52.6850403,18.2285714 C52.6603287,18.2659506 52.6356172,18.29087 52.6109056,18.3157895 C52.586194,18.3282492 52.5491267,18.3407089 52.5120594,18.3407089 C52.474992,18.3407089 52.4255689,18.3157895 52.36379,18.2784103 C52.3020111,18.2410311 52.2402322,18.1911923 52.1537418,18.1413534 C52.0672513,18.0915145 51.9684051,18.0416756 51.8448473,18.0042965 C51.7212895,17.9669173 51.585376,17.9419979 51.4123951,17.9419979 C51.2517699,17.9419979 51.1158564,17.9669173 50.9922986,18.0042965 C50.8687408,18.0416756 50.7698946,18.1039742 50.6834041,18.1787325 C50.5969137,18.2534909 50.5351348,18.3407089 50.4980674,18.4403867 C50.4610001,18.5400644 50.4362886,18.6522019 50.4362886,18.7643394 C50.4362886,18.9138561 50.4733559,19.0384533 50.5474906,19.138131 C50.6216252,19.2378088 50.7204715,19.3250269 50.8316735,19.3873255 C50.9552313,19.4620838 51.0911448,19.5119227 51.2394142,19.5617615 C51.3876835,19.6116004 51.5483086,19.6614393 51.696578,19.7237379 C51.8572031,19.7735768 52.0054724,19.8358754 52.1537418,19.9106337 C52.3020111,19.9729323 52.4379247,20.0601504 52.5614825,20.1722879 C52.6850403,20.2719656 52.7715307,20.4090226 52.8456654,20.5585392 C52.9198001,20.7080559 52.9568674,20.8949517 52.9568674,21.1192266 C52.9568674,21.3559613 52.9198001,21.5677766 52.8333096,21.7671321 C52.7591749,21.9664876 52.6356172,22.1533835 52.4873478,22.3029001 C52.3390785,22.4524168 52.1537418,22.577014 51.9313378,22.664232 C51.7089338,22.7514501 51.4618182,22.7888292 51.1776353,22.7888292 C50.8316735,22.7888292 50.522779,22.7265306 50.2385961,22.6019334 C49.9544132,22.4773362 49.7196534,22.3029001 49.5219609,22.0910849 L49.7320092,21.7546724 C49.7567207,21.729753 49.7814323,21.7048335 49.8061438,21.6923738 C49.8308554,21.6799141 49.8679227,21.6674544 49.9049901,21.6674544 C49.9420574,21.6674544 49.9791247,21.6799141 50.0161921,21.7048335 C50.0532594,21.729753 50.1026825,21.7671321 50.1521056,21.8045113 C50.2015288,21.8418904 50.2633077,21.8917293 50.3250865,21.9291085 C50.3868654,21.9789474 50.4610001,22.0163265 50.5474906,22.0537057 C50.633981,22.0910849 50.7328272,22.128464 50.8316735,22.1533835 C50.9428755,22.1783029 51.0664333,22.1907626 51.1899911,22.1907626 C51.362972,22.1907626 51.5112413,22.1658432 51.6471549,22.1160043 C51.7830684,22.0661654 51.8942704,22.0038668 51.9807609,21.9166488 C52.0672513,21.8294307 52.141386,21.729753 52.1908091,21.6051557 C52.2402322,21.4805585 52.2649438,21.3559613 52.2649438,21.2064447 C52.2649438,21.0444683 52.2278765,20.9198711 52.1537418,20.8077336 C52.0796071,20.7080559 51.9807609,20.6208378 51.8695589,20.5460795 C51.7460011,20.4713212 51.6224433,20.4214823 51.4618182,20.3716434 C51.3135488,20.3218045 51.1529237,20.2719656 51.0046544,20.2221267 C50.8440292,20.1722879 50.6957599,20.1099893 50.5474906,20.0476907 C50.3992212,19.9853921 50.2633077,19.898174 50.1397499,19.7860365 C50.0161921,19.673899 49.9297016,19.5493018 49.855567,19.3873255 C49.7814323,19.2253491 49.7443649,19.0259936 49.7443649,18.8017186 C49.7443649,18.6148228 49.7814323,18.427927 49.855567,18.2534909 C49.9297016,18.0790548 50.0285479,17.9170784 50.1768172,17.7924812 C50.3127308,17.6554243 50.4857117,17.5432868 50.6834041,17.4685285 C50.8810966,17.3937701 51.1158564,17.3439313 51.3753277,17.3439313 Z M40.6628676,17.4186896 C40.9964736,17.4186896 41.2806566,17.4560687 41.5277721,17.5183673 C41.7748877,17.580666 41.9725802,17.6803437 42.1332053,17.8174006 C42.2938304,17.9419979 42.4050324,18.1039742 42.4791671,18.2784103 C42.5533018,18.4653061 42.5903691,18.6646617 42.5903691,18.8889366 C42.5903691,19.0758324 42.5656575,19.2502685 42.5038786,19.4122449 C42.4420997,19.5742213 42.3556093,19.7237379 42.2444073,19.8483351 C42.1332053,19.9729323 41.9972917,20.0850698 41.8366666,20.1847476 C41.6760415,20.2719656 41.4907048,20.346724 41.2930123,20.3965628 C41.3795028,20.4464017 41.4659932,20.52116 41.5277721,20.6208378 L43.0722445,22.7140709 L42.4420997,22.7140709 C42.3061862,22.7140709 42.2196957,22.664232 42.1579168,22.5645542 L40.7864254,20.6706767 C40.7493581,20.6083781 40.699935,20.5709989 40.6505118,20.5460795 C40.6010887,20.52116 40.5269541,20.5087003 40.4281078,20.5087003 L39.8844536,20.5087003 L39.8844536,22.7265306 L39.1801742,22.7265306 L39.1801742,17.4186896 L40.6628676,17.4186896 Z M57.9733135,17.4062299 L57.9733135,22.1160043 L60.2591326,22.1160043 L60.2591326,22.7140709 L57.2690342,22.7140709 L57.2690342,17.4062299 L57.9733135,17.4062299 Z M55.3168211,17.4062299 L55.3168211,22.7140709 L54.600186,22.7140709 L54.600186,17.4062299 L55.3168211,17.4062299 Z M46.5689298,17.4062299 L48.681768,22.7140709 L48.1257579,22.7140709 C48.063979,22.7140709 48.0145559,22.7016112 47.9774886,22.664232 C47.9404213,22.6268528 47.9033539,22.5894737 47.8909981,22.5396348 L47.396767,21.2562836 L45.0368133,21.2562836 L44.5425821,22.5396348 C44.5302263,22.5894737 44.5055148,22.6268528 44.4560917,22.664232 C44.4190243,22.7016112 44.3572454,22.7140709 44.3078223,22.7140709 L43.7518123,22.7140709 L45.8522947,17.4062299 L46.5689298,17.4062299 Z M35.4981521,17.3937701 L35.4981521,17.4062299 C35.8194024,17.4062299 36.1035853,17.443609 36.3383451,17.5059076 C36.5731049,17.5682062 36.7707973,17.6554243 36.9190667,17.7800215 C37.067336,17.9046187 37.178538,18.0416756 37.2526727,18.2161117 C37.3268074,18.3905478 37.3638747,18.5774436 37.3638747,18.8017186 C37.3638747,18.9387755 37.3391632,19.0633727 37.3020958,19.1755102 C37.2650285,19.2876477 37.2032496,19.4122449 37.1167591,19.5119227 C37.0302687,19.6116004 36.9314225,19.7112782 36.8078647,19.7860365 C36.6843069,19.8732546 36.5360375,19.9355532 36.3754124,19.9853921 C36.7584416,20.0601504 37.0549802,20.1972073 37.2526727,20.3965628 C37.4503652,20.5959184 37.5492114,20.8700322 37.5492114,21.193985 C37.5492114,21.4182599 37.5121441,21.6176155 37.4256536,21.8045113 C37.3391632,21.9914071 37.2279611,22.1533835 37.067336,22.2779807 C36.9067109,22.4150376 36.7090184,22.5147154 36.4866144,22.5894737 C36.2518546,22.664232 35.9923833,22.7016112 35.6958446,22.7016112 L33.8424778,22.7016112 L33.8424778,17.3937701 L35.4981521,17.3937701 Z M7.38482157,19.7795849 L7.83007441,20.6415259 L4.27957221,22.5065966 L3.83431937,21.6446556 L7.38482157,19.7795849 Z M25.1465314,20.0287207 L27.6092556,21.4079371 L27.1413546,22.2575355 L24.6786304,20.8783192 L25.1465314,20.0287207 Z M35.671133,20.2968851 L34.5344014,20.2968851 L34.5344014,22.1409237 L35.6587773,22.1409237 C35.8564697,22.1409237 36.0418064,22.1160043 36.1900757,22.0661654 C36.3383451,22.0163265 36.4619029,21.9540279 36.5483933,21.8668099 C36.6472396,21.7795918 36.7090184,21.6799141 36.7584416,21.5677766 C36.8078647,21.4556391 36.8202205,21.3185822 36.8202205,21.1815252 C36.8202205,20.9074114 36.7213742,20.6955961 36.5360375,20.5336198 C36.3383451,20.3716434 36.0541622,20.2968851 35.671133,20.2968851 Z M16.0263001,19.8380983 L16.5081273,19.844517 L16.4829928,21.7631221 L16.0011656,21.7567034 L16.0263001,19.8380983 Z M17.3518032,20.3896178 L17.5582114,21.6306832 L17.0829859,21.7110559 L16.8765777,20.4699905 L17.3518032,20.3896178 Z M15.2302246,19.9757682 L15.703137,20.0689694 L15.3903184,21.6830614 L14.9174059,21.5898602 L15.2302246,19.9757682 Z M17.9727255,19.5707375 L18.5933711,21.3052403 L18.1401192,21.4701646 L17.5194736,19.7356619 L17.9727255,19.5707375 Z M14.4299445,19.8381306 L14.8788596,20.0147658 L14.3354092,21.4192704 L13.8864941,21.2426352 L14.4299445,19.8381306 Z M19.3375016,20.4049021 L19.5665864,20.8038599 L19.1495715,21.047359 L18.9204867,20.6484012 L19.3375016,20.4049021 Z M13.9901331,19.0049005 L14.4005464,19.2595273 L13.3581635,20.9680504 L12.9477502,20.7134235 L13.9901331,19.0049005 Z M46.222968,18.0915145 C46.1735449,18.29087 46.1241218,18.4528464 46.0623429,18.5899033 L45.2345057,20.745435 L47.1990745,20.745435 L46.3712374,18.5899033 C46.3465258,18.5276047 46.3218143,18.4528464 46.2971027,18.3656284 C46.2723911,18.2784103 46.2476796,18.1911923 46.222968,18.0915145 Z M18.7066489,18.1039742 L20.4241021,20.1349087 L20.0657846,20.4588614 L18.3359756,18.4154672 L18.7066489,18.1039742 Z M13.0565292,18.9557108 L13.4151891,19.2802628 L12.4661603,20.3467464 L12.1075004,20.0221943 L13.0565292,18.9557108 Z M40.6628676,17.979377 L39.8844536,17.979377 L39.8844536,19.9853921 L40.6381561,19.9853921 L40.6381561,19.9729323 C40.8482043,19.9729323 41.0211852,19.9480129 41.1818103,19.898174 C41.3424354,19.8483351 41.4659932,19.7735768 41.5771952,19.6863588 C41.6883972,19.5991407 41.7625319,19.4870032 41.811955,19.3499463 C41.8613782,19.2253491 41.8984455,19.0758324 41.8984455,18.9263158 C41.8984455,18.6148228 41.7995993,18.3656284 41.589551,18.2161117 C41.3795028,18.0541353 41.0706083,17.979377 40.6628676,17.979377 Z M35.4857964,17.9669173 L34.5220456,17.9669173 L34.5220456,19.7735768 L35.4610848,19.7735768 C35.6587773,19.7735768 35.8317582,19.7486574 35.9800275,19.7112782 C36.1282968,19.6614393 36.2518546,19.5991407 36.3507009,19.5243824 C36.4495471,19.4496241 36.5236818,19.3499463 36.5607491,19.2378088 C36.6101722,19.1256713 36.6348838,19.0010741 36.6348838,18.8640172 C36.6348838,18.5525242 36.5360375,18.3157895 36.3507009,18.1787325 C36.1653642,18.0416756 35.8811813,17.9669173 35.4857964,17.9669173 Z M19.8853284,18.2733903 L21.165827,19.3317514 L20.8603662,19.7075689 L19.5798676,18.6492079 L19.8853284,18.2733903 Z M25.7788594,18.3728251 L26.9605278,18.7774109 L26.6506819,19.6976635 L25.4690135,19.2930776 L25.7788594,18.3728251 Z M12.4705429,18.3398803 L12.7657879,18.7239101 L11.6818982,19.571292 L11.3866532,19.1872622 L12.4705429,18.3398803 Z M6.80163252,18.1091737 L7.08719186,19.0373954 L6.02510149,19.3696588 L5.73954214,18.441437 L6.80163252,18.1091737 Z M20.1978901,17.5349811 L21.731692,18.3941437 L21.4976933,18.8189429 L19.9638914,17.9597804 L20.1978901,17.5349811 Z M12.1254324,17.5692504 L12.3483479,18.0000751 L11.0666558,18.6744475 L10.8437403,18.2436228 L12.1254324,17.5692504 Z M26.1087537,16.6268768 L29.8239684,17.1848131 L29.6820079,18.1460781 L25.9667933,17.5881418 L26.1087537,16.6268768 Z M6.51023013,16.3478738 L6.62674759,17.3126374 L1.90449872,17.8925938 L1.78798126,16.9278302 L6.51023013,16.3478738 Z M19.9792941,16.6337272 L22.1291996,17.3813104 L21.9809303,17.8423201 L19.8310248,17.0947368 L19.9792941,16.6337272 Z M12.8129425,16.4966702 L12.9488561,16.9576799 L10.6136139,17.6803437 L10.4653445,17.219334 L12.8129425,16.4966702 Z M20.8927927,16.0868576 L22.3469566,16.3058534 L22.2757836,16.7864373 L20.8216197,16.5674415 L20.8927927,16.0868576 Z M11.5184634,15.9855463 L11.5768185,16.4678796 L10.3381196,16.6202757 L10.2797644,16.1379424 L11.5184634,15.9855463 Z M28.513661,14.7643488 L28.5441559,15.7357211 L26.1606829,15.8118112 L26.130188,14.8404389 L28.513661,14.7643488 Z M22.3683158,15.2083152 L22.3836579,15.6940013 L20.5065186,15.7542995 L20.4911764,15.2686133 L22.3683158,15.2083152 Z M10.2932993,15.0492786 L11.5021071,15.1200907 L11.4741619,15.6051937 L10.265354,15.5343817 L10.2932993,15.0492786 Z M1.65828706,14.2817782 L6.53052273,14.5679282 L6.47448855,15.5381343 L1.60225288,15.2519843 L1.65828706,14.2817782 Z M22.1967017,14.1293731 L22.297751,14.6045146 L20.6305067,14.9650815 L20.5294574,14.48994 L22.1967017,14.1293731 Z M10.4931895,13.9727619 L11.1536615,14.1341465 L11.0401798,14.606421 L10.3797079,14.4450364 L10.4931895,13.9727619 Z M21.8285835,13.1011222 L22.0119371,13.5505095 L20.2065305,14.2995754 L20.0231769,13.8501882 L21.8285835,13.1011222 Z M10.883128,12.9458193 L12.6226586,13.7233158 L12.4274027,14.1675522 L10.6878721,13.3900557 L10.883128,12.9458193 Z M28.7771843,12.450827 L28.9789937,13.4011099 L26.0311125,14.0377219 L25.8293031,13.087439 L28.7771843,12.450827 Z M36.0788737,8.58474758 C36.4742586,8.58474758 36.844932,8.64704619 37.1661823,8.78410311 C37.4874325,8.92116004 37.7716154,9.10805585 38.0063752,9.34479055 C38.241135,9.58152524 38.4141159,9.86809882 38.5500295,10.1920516 C38.6735873,10.5160043 38.7477219,10.8773362 38.7477219,11.2511278 C38.7477219,11.6373792 38.685943,11.9862513 38.5500295,12.3226638 C38.4264717,12.6466165 38.241135,12.9331901 38.0063752,13.1699248 C37.7716154,13.4066595 37.4874325,13.5935553 37.1661823,13.7306122 C36.844932,13.8676692 36.4742586,13.9299678 36.0788737,13.9299678 C35.6834888,13.9299678 35.3128155,13.8676692 34.9915652,13.7306122 C34.670315,13.5935553 34.3861321,13.4066595 34.1513723,13.1699248 C33.9166125,12.9331901 33.7312758,12.6466165 33.607718,12.3226638 C33.4841602,11.9987111 33.4100255,11.6373792 33.4100255,11.2511278 C33.4100255,10.8648765 33.4718044,10.5160043 33.607718,10.1920516 C33.7312758,9.86809882 33.9166125,9.58152524 34.1513723,9.34479055 C34.3861321,9.10805585 34.670315,8.92116004 34.9915652,8.78410311 C35.3128155,8.64704619 35.6834888,8.58474758 36.0788737,8.58474758 Z M76.1857313,8.58474758 C76.5811162,8.58474758 76.9517896,8.64704619 77.2730398,8.78410311 C77.5942901,8.92116004 77.878473,9.10805585 78.1132328,9.34479055 C78.3479926,9.58152524 78.5209735,9.86809882 78.656887,10.1920516 C78.7928006,10.5160043 78.8545795,10.8773362 78.8545795,11.2511278 C78.8545795,11.6373792 78.7928006,11.9862513 78.656887,12.3226638 C78.5333293,12.6466165 78.3479926,12.9331901 78.1132328,13.1699248 C77.878473,13.4066595 77.5942901,13.5935553 77.2730398,13.7306122 C76.9517896,13.8676692 76.5811162,13.9299678 76.1857313,13.9299678 C75.7903464,13.9299678 75.419673,13.8676692 75.0984228,13.7306122 C74.7771725,13.5935553 74.4929896,13.4066595 74.2582298,13.1699248 C74.02347,12.9331901 73.8381334,12.6466165 73.7145756,12.3226638 C73.5910178,11.9987111 73.5168831,11.6373792 73.5168831,11.2511278 C73.5168831,10.8648765 73.578662,10.5160043 73.7145756,10.1920516 C73.8381334,9.86809882 74.02347,9.58152524 74.2582298,9.34479055 C74.4929896,9.10805585 74.7771725,8.92116004 75.0984228,8.78410311 C75.419673,8.64704619 75.7903464,8.58474758 76.1857313,8.58474758 Z M108.483737,8.57228786 C108.693785,8.57228786 108.903833,8.58474758 109.08917,8.62212675 C109.274507,8.65950591 109.447488,8.70934479 109.608113,8.77164339 C109.768738,8.833942 109.904651,8.90870032 110.040565,8.99591837 C110.176478,9.08313641 110.28768,9.17035446 110.398882,9.27003222 L110.089988,9.75596133 C110.040565,9.83071966 109.978786,9.88055854 109.904651,9.89301826 C109.830517,9.90547798 109.744026,9.89301826 109.657536,9.83071966 C109.571045,9.78088077 109.484555,9.73104189 109.41042,9.69366273 C109.336285,9.65628357 109.237439,9.6189044 109.150949,9.58152524 C109.052103,9.54414608 108.953256,9.53168636 108.842054,9.50676692 C108.730852,9.4943072 108.607295,9.48184748 108.459025,9.48184748 C108.21191,9.48184748 108.001861,9.51922664 107.804169,9.60644468 C107.606476,9.69366273 107.445851,9.80580021 107.309938,9.96777658 C107.174024,10.1172932 107.062822,10.304189 106.988688,10.528464 C106.914553,10.7402793 106.877486,10.9894737 106.877486,11.2511278 C106.877486,11.5377014 106.914553,11.7993555 107.001043,12.0236305 C107.087534,12.2479055 107.198736,12.447261 107.347005,12.5967777 C107.495274,12.758754 107.668255,12.8708915 107.878304,12.9581096 C108.088352,13.0453276 108.310756,13.0827068 108.570227,13.0827068 C108.743208,13.0827068 108.891477,13.070247 109.027391,13.0328679 C109.163305,12.9954887 109.299218,12.9456498 109.422776,12.895811 L109.422776,12.0111708 L108.829699,12.0111708 C108.755564,12.0111708 108.706141,11.9987111 108.669073,11.9613319 C108.632006,11.9239527 108.607295,11.8741139 108.607295,11.824275 L108.607295,11.2262084 L110.386527,11.2262084 L110.386527,13.3941998 C110.1147,13.5686359 109.830517,13.7056928 109.533978,13.7929108 C109.237439,13.8801289 108.916189,13.9299678 108.582583,13.9299678 C108.150131,13.9299678 107.767102,13.8676692 107.42114,13.7306122 C107.075178,13.5935553 106.778639,13.4066595 106.531524,13.1699248 C106.284408,12.9331901 106.099071,12.6466165 105.963158,12.3226638 C105.827244,11.9987111 105.765465,11.6373792 105.765465,11.2511278 C105.765465,10.8524168 105.827244,10.5035446 105.963158,10.1671321 C106.086716,9.84317938 106.272052,9.5566058 106.506812,9.31987111 C106.741572,9.08313641 107.025755,8.8962406 107.359361,8.77164339 C107.692967,8.63458647 108.075996,8.57228786 108.483737,8.57228786 Z M62.1248552,8.63458647 L62.1248552,10.8025779 L62.3349034,10.8025779 C62.5078843,10.8025779 62.6437979,10.752739 62.7179326,10.6406015 L64.0276451,8.87132116 C64.089424,8.78410311 64.1635587,8.73426423 64.2376933,8.69688507 C64.311828,8.65950591 64.3983185,8.64704619 64.5095205,8.64704619 L65.4362039,8.64704619 L63.7805295,10.8025779 C63.6693275,10.9396348 63.5581255,11.0393126 63.4469235,11.1016112 C63.5334139,11.1389903 63.6075486,11.1763695 63.6693275,11.2386681 C63.7311064,11.288507 63.8052411,11.3632653 63.86702,11.4504834 L65.5597617,13.8925886 L64.6083667,13.8925886 C64.5465878,13.8925886 64.4971647,13.8925886 64.4477416,13.8801289 C64.3983185,13.8676692 64.3612511,13.8552095 64.3365396,13.8427497 C64.2994722,13.83029 64.2747607,13.8053706 64.2500491,13.7804511 C64.2253376,13.7555317 64.200626,13.7306122 64.1759144,13.6932331 L62.8414903,11.8118153 C62.7920672,11.7495166 62.7426441,11.6996778 62.6808652,11.6747583 C62.6190863,11.6498389 62.5325959,11.6373792 62.4213939,11.6373792 L62.1248552,11.6373792 L62.1248552,13.9050483 L61.0499024,13.9050483 L61.0499024,8.63458647 L62.1248552,8.63458647 Z M52.2155207,8.63458647 C52.252588,8.63458647 52.2772996,8.64704619 52.3020111,8.65950591 C52.3267227,8.67196563 52.3514342,8.68442535 52.3761458,8.70934479 C52.4008574,8.73426423 52.4255689,8.75918367 52.4502805,8.79656284 L55.0573498,12.135768 C55.044994,12.0485499 55.044994,11.9488722 55.0326382,11.8741139 C55.0326382,11.7868958 55.0202824,11.6996778 55.0202824,11.6249194 L55.0202824,8.63458647 L55.9716774,8.63458647 L55.9716774,13.8801289 L55.4156674,13.8801289 C55.3291769,13.8801289 55.267398,13.8676692 55.2056191,13.8427497 C55.1438402,13.8178303 55.0944171,13.7679914 55.0326382,13.7056928 L52.4379247,10.3789474 C52.4502805,10.4661654 52.4502805,10.5409237 52.4502805,10.6281418 L52.4502805,13.8801289 L51.4988855,13.8801289 L51.4988855,8.63458647 L52.2155207,8.63458647 Z M42.4173882,8.63458647 C42.7757058,8.63458647 43.0846002,8.67196563 43.3440716,8.75918367 C43.6035429,8.84640172 43.8135912,8.95853921 43.9865721,9.10805585 C44.159553,9.2575725 44.2831108,9.43200859 44.3572454,9.64382385 C44.4313801,9.8556391 44.4808032,10.0799141 44.4808032,10.3166488 C44.4808032,10.5783029 44.4437359,10.8150376 44.3572454,11.0268528 C44.270755,11.2386681 44.1471972,11.4255639 43.9742163,11.5750806 C43.8012354,11.7245972 43.5911872,11.8491944 43.3317158,11.9364125 C43.0722445,12.0236305 42.7757058,12.0610097 42.429744,12.0610097 L41.7378204,12.0734694 L41.7378204,13.8801289 L40.6628676,13.8801289 L40.6628676,8.63458647 L42.4173882,8.63458647 Z M81.0539081,8.63458647 C81.1527543,8.63458647 81.226889,8.65950591 81.2886679,8.69688507 C81.3504468,8.73426423 81.3875141,8.79656284 81.4122257,8.87132116 L82.2153513,11.824275 L82.2771302,12.0859291 C82.3018418,12.1731472 82.3141975,12.2852846 82.3389091,12.3849624 C82.3636206,12.2728249 82.3883322,12.1731472 82.4130438,12.0859291 L82.4624669,11.9059554 C82.4707041,11.8768827 82.4789412,11.8491944 82.4871784,11.824275 L83.4262176,8.87132116 C83.4509292,8.80902256 83.4879965,8.75918367 83.5497754,8.70934479 C83.6115543,8.65950591 83.685689,8.63458647 83.7845352,8.63458647 L84.1057854,8.63458647 C84.2046317,8.63458647 84.2787663,8.65950591 84.3281895,8.69688507 C84.3899684,8.74672395 84.4270357,8.79656284 84.464103,8.87132116 L85.4031422,11.824275 C85.4278538,11.8990333 85.4525653,11.9862513 85.4772769,12.0734694 C85.5019884,12.1606874 85.5267,12.2603652 85.5390558,12.360043 C85.5637673,12.2603652 85.5761231,12.1606874 85.6008347,12.0734694 C85.6255462,11.9862513 85.637902,11.8990333 85.6626136,11.824275 L86.4657392,8.87132116 C86.4780949,8.80902256 86.5275181,8.75918367 86.589297,8.70934479 C86.6510758,8.65950591 86.7375663,8.63458647 86.8240567,8.63458647 L87.6642497,8.63458647 L86.0579985,13.8801289 L85.081892,13.8801289 L84.019295,10.4537057 C83.9945834,10.4038668 83.9822277,10.3540279 83.9698719,10.2917293 C83.9575161,10.2294307 83.9451603,10.1795918 83.9204488,10.1048335 C83.908093,10.1671321 83.8833814,10.2294307 83.8710256,10.2917293 C83.8586699,10.3540279 83.8339583,10.4038668 83.8216025,10.4537057 L82.7466498,13.8801289 L81.7705433,13.8801289 L80.1519363,8.63458647 L81.0539081,8.63458647 Z M101.47801,8.63458647 C101.873395,8.63458647 102.244069,8.69688507 102.565319,8.833942 C102.886569,8.95853921 103.170752,9.14543502 103.405512,9.38216971 C103.640272,9.6189044 103.813252,9.89301826 103.949166,10.216971 C104.08508,10.5160043 104.146858,10.8773362 104.146858,11.2511278 C104.146858,11.6373792 104.08508,11.9862513 103.949166,12.3102041 C103.825608,12.6341568 103.640272,12.9082707 103.405512,13.1450054 C103.170752,13.3817401 102.886569,13.5561762 102.565319,13.6807734 C102.244069,13.8053706 101.873395,13.8801289 101.47801,13.8801289 L99.4763741,13.8801289 L99.4763741,8.63458647 L101.47801,8.63458647 Z M90.4442999,8.63458647 L90.4442999,12.9954887 L92.4582918,12.9954887 L92.4582918,13.8801289 L89.3693472,13.8801289 L89.3693472,8.63458647 L90.4442999,8.63458647 Z M67.8455807,8.63458647 C67.882648,8.63458647 67.9073596,8.64704619 67.9320712,8.65950591 C67.9567827,8.67196563 67.9814943,8.68442535 68.0062058,8.70934479 C68.0309174,8.73426423 68.0556289,8.75918367 68.0803405,8.79656284 L70.6874098,12.135768 C70.675054,12.0485499 70.675054,11.9488722 70.6626982,11.8741139 C70.6626982,11.7868958 70.6503425,11.6996778 70.6503425,11.6249194 L70.6503425,8.63458647 L71.6017374,8.63458647 L71.6017374,13.8801289 L71.0457274,13.8801289 C70.9592369,13.8801289 70.897458,13.8676692 70.8356791,13.8427497 C70.7739003,13.8178303 70.7244771,13.7679914 70.6626982,13.7056928 L68.0679847,10.3789474 C68.0803405,10.4661654 68.0803405,10.5409237 68.0803405,10.6281418 L68.0803405,13.8801289 L67.1289455,13.8801289 L67.1289455,8.63458647 L67.8455807,8.63458647 Z M115.699512,8.63458647 L115.699512,9.48184748 L113.475471,9.48184748 L113.475471,10.8274973 L115.20528,10.8274973 L115.20528,11.6498389 L113.475471,11.6498389 L113.475471,13.0204082 L115.699512,13.0204082 L115.699512,13.8676692 L112.388163,13.8676692 L112.388163,8.63458647 L115.699512,8.63458647 Z M97.5488726,8.63458647 L97.5488726,9.48184748 L95.3248325,9.48184748 L95.3248325,10.8274973 L97.0546415,10.8274973 L97.0546415,11.6498389 L95.3248325,11.6498389 L95.3248325,13.0204082 L97.5488726,13.0204082 L97.5488726,13.8676692 L94.237524,13.8676692 L94.237524,8.63458647 L97.5488726,8.63458647 Z M49.5960956,8.63458647 L49.5960956,9.48184748 L47.3720554,9.48184748 L47.3720554,10.8274973 L49.1018645,10.8274973 L49.1018645,11.6498389 L47.3720554,11.6498389 L47.3720554,13.0204082 L49.5960956,13.0204082 L49.5960956,13.8676692 L46.2847469,13.8676692 L46.2847469,8.63458647 L49.5960956,8.63458647 Z M0.3472814,11.2389073 L6.87994962,12.8351471 L6.65298633,13.7796961 L0.120318102,12.1834563 L0.3472814,11.2389073 Z M11.4551462,12.0131706 L12.6814819,12.8534541 L12.410668,13.2553661 L11.1843322,12.4150825 L11.4551462,12.0131706 Z M20.591838,11.2976836 L20.9201397,11.6533837 L19.2378757,13.2323019 L18.909574,12.8766018 L20.591838,11.2976836 Z M76.1857313,9.48184748 C75.9386157,9.48184748 75.7285675,9.51922664 75.530875,9.60644468 C75.3331826,9.68120301 75.1725575,9.80580021 75.0366439,9.95531686 C74.9007303,10.1048335 74.8018841,10.2917293 74.7277494,10.5160043 C74.6536148,10.7402793 74.6165474,10.977014 74.6165474,11.2511278 C74.6165474,11.5252417 74.6536148,11.7744361 74.7277494,11.9987111 C74.8018841,12.222986 74.9007303,12.3974221 75.0366439,12.5593985 C75.1725575,12.7089151 75.3331826,12.8335124 75.530875,12.9082707 C75.7285675,12.983029 75.9386157,13.0328679 76.1857313,13.0328679 C76.4328469,13.0328679 76.6428951,12.9954887 76.8405876,12.9082707 C77.03828,12.8335124 77.1989052,12.7089151 77.3348187,12.5593985 C77.4707323,12.4098818 77.5695785,12.222986 77.6437132,11.9987111 C77.7178479,11.7744361 77.7549152,11.5252417 77.7549152,11.2511278 C77.7549152,10.977014 77.7178479,10.7278195 77.6437132,10.5160043 C77.5695785,10.304189 77.4707323,10.1172932 77.3348187,9.95531686 C77.1989052,9.80580021 77.03828,9.68120301 76.8405876,9.60644468 C76.6428951,9.53168636 76.4328469,9.48184748 76.1857313,9.48184748 Z M36.0788737,9.48184748 C35.8317582,9.48184748 35.6217099,9.51922664 35.4240175,9.60644468 C35.226325,9.68120301 35.0656999,9.80580021 34.9297863,9.95531686 C34.7938727,10.1048335 34.6950265,10.2917293 34.6208918,10.5160043 C34.5467572,10.7402793 34.5096898,10.977014 34.5096898,11.2511278 C34.5096898,11.5252417 34.5467572,11.7744361 34.6208918,11.9987111 C34.6950265,12.222986 34.7938727,12.3974221 34.9297863,12.5593985 C35.0656999,12.7089151 35.226325,12.8335124 35.4240175,12.9082707 C35.6217099,12.983029 35.8317582,13.0328679 36.0788737,13.0328679 C36.3259893,13.0328679 36.5360375,12.9954887 36.73373,12.9082707 C36.9314225,12.8335124 37.0920476,12.7089151 37.2279611,12.5593985 C37.3638747,12.4098818 37.4627209,12.222986 37.5368556,11.9987111 C37.6109903,11.7744361 37.6480576,11.5252417 37.6480576,11.2511278 C37.6480576,10.977014 37.6109903,10.7278195 37.5368556,10.5160043 C37.4627209,10.304189 37.3638747,10.1172932 37.2279611,9.95531686 C37.0920476,9.80580021 36.9314225,9.68120301 36.73373,9.60644468 C36.5360375,9.53168636 36.3259893,9.48184748 36.0788737,9.48184748 Z M101.47801,9.48184748 L100.563683,9.48184748 L100.563683,13.0204082 L101.47801,13.0204082 C101.725126,13.0204082 101.935174,12.983029 102.132867,12.895811 C102.330559,12.8210526 102.491184,12.6964554 102.627098,12.5469388 C102.763011,12.3974221 102.861857,12.2105263 102.935992,11.9862513 C103.010127,11.7744361 103.047194,11.5252417 103.047194,11.2511278 C103.047194,10.977014 103.010127,10.7278195 102.935992,10.5160043 C102.861857,10.2917293 102.763011,10.1172932 102.627098,9.95531686 C102.491184,9.79334049 102.330559,9.68120301 102.132867,9.60644468 C101.935174,9.51922664 101.725126,9.48184748 101.47801,9.48184748 Z M21.2870915,12.1419542 L21.5470633,12.5511066 L20.8292172,13.0149259 L20.5692455,12.6057736 L21.2870915,12.1419542 Z M13.0229907,10.5160043 L14.5056842,12.6341568 L14.1102992,12.9207304 L12.6399616,10.7901182 L13.0229907,10.5160043 Z M12.1750668,11.1898372 L13.3563904,12.3597277 L13.0187403,12.7064382 L11.8374167,11.5365476 L12.1750668,11.1898372 Z M27.145196,10.6294874 L27.5122887,11.5280675 L25.6044551,12.3206341 L25.2373625,11.422054 L27.145196,10.6294874 Z M5.32662067,10.1874963 L7.52927298,11.1719887 L7.13876118,12.0604614 L4.93610887,11.0759691 L5.32662067,10.1874963 Z M13.9896624,10.0092824 L14.8289398,11.8279356 L14.3920715,12.0329491 L13.5527942,10.2142959 L13.9896624,10.0092824 Z M18.818355,10.0748255 L19.2497781,10.2913069 L18.5947426,11.6187743 L18.1633196,11.4022929 L18.818355,10.0748255 Z M15.0232962,9.6726357 L15.4551973,11.3360234 L14.9890311,11.4591092 L14.5571299,9.79572155 L15.0232962,9.6726357 Z M42.4050324,9.44446831 L41.7254646,9.44446831 L41.7254646,11.2386681 L42.4173882,11.2386681 C42.7509942,11.2386681 42.9981098,11.1514501 43.1587349,10.9894737 C43.31936,10.8274973 43.3934947,10.6032223 43.3934947,10.3166488 C43.3934947,10.1920516 43.3687831,10.0674544 43.3317158,9.95531686 C43.2946485,9.84317938 43.2328696,9.75596133 43.1463791,9.68120301 C43.0722445,9.60644468 42.9610425,9.54414608 42.8374847,9.50676692 C42.7139269,9.46938776 42.5656575,9.44446831 42.4050324,9.44446831 Z M19.7692459,10.6032223 L20.1399192,10.9147154 L19.9545826,11.1265306 L19.8804479,11.2137487 L19.5097745,10.9022556 L19.7692459,10.6032223 Z M16.7044926,9.54622311 L17.183814,9.59603085 L17.0343709,11.0584856 L16.5550494,11.0086779 L16.7044926,9.54622311 Z M16.0971604,9.54029221 L16.2000556,10.8944633 L15.7195777,10.9315887 L15.6166825,9.57741765 L16.0971604,9.54029221 Z M29.391956,6.61823983 L29.9120922,7.43644726 L24.8669622,10.6978352 L24.3468259,9.8796278 L29.391956,6.61823983 Z M17.7803757,9.70074857 L18.243217,9.83603124 L18.0058675,10.661793 L17.5430262,10.5265103 L17.7803757,9.70074857 Z M4.96702303,7.23909774 L8.46370839,9.65628357 L7.92005413,10.4661654 L4.42336877,8.04897959 L4.96702303,7.23909774 Z M23.9476465,7.82581104 L24.6044426,8.53701689 L23.8449181,9.25028606 L23.188122,8.53908021 L23.9476465,7.82581104 Z M7.38492536,6.1009496 L9.65091586,8.34437465 L8.97571209,9.03789267 L6.70972159,6.79446763 L7.38492536,6.1009496 Z M26.6161821,0.948726745 L27.3882428,1.53038389 L22.6037208,7.98840292 L21.8316601,7.40674578 L26.6161821,0.948726745 Z M10.5971819,6.62030814 L11.0461712,7.26154393 L10.2588832,7.82211175 L9.80989396,7.18087596 L10.5971819,6.62030814 Z M21.9963095,3.08383446 L22.8590592,3.51699166 L21.1463913,6.98586763 L20.2836417,6.55271042 L21.9963095,3.08383446 Z M11.7818466,4.63497499 L12.6159111,6.44233224 L11.7421746,6.85235923 L10.9081102,5.04500198 L11.7818466,4.63497499 Z M20.2907586,0.109334049 L21.2163448,0.38028812 L19.5283972,6.24378286 L18.602811,5.97282879 L20.2907586,0.109334049 Z M13.5600791,3.04006221 L14.3077866,5.9208568 L13.3754541,6.1669313 L12.6277467,3.28613671 L13.5600791,3.04006221 Z M17.2604792,1.86660945 L18.219122,1.96671085 L17.8233294,5.82114664 L16.8646865,5.72104524 L17.2604792,1.86660945 Z M15.7236994,1.377202 L16.0532658,5.71303405 L15.0923099,5.78731035 L14.7627435,1.4514783 L15.7236994,1.377202 Z" id="logo-okbr" fill="#FFFFFF" fill-rule="nonzero"></path>
                    </g>
                </g>
            </g>
        </g>
    </g>
</svg>