<?xml version="1.0" encoding="UTF-8"?>
<svg width="37px" height="36px" viewBox="0 0 37 36" version="1.1" xmlns="http://www.w3.org/2000/svg" xmlns:xlink="http://www.w3.org/1999/xlink">
    <title>26052263-5326-4D5E-9F7B-ACE9547207D6</title>
    <defs>
        <filter x="-6.0%" y="-6.8%" width="112.0%" height="113.5%" filterUnits="objectBoundingBox" id="moneyfilter-1">
            <feOffset dx="0" dy="2" in="SourceAlpha" result="shadowOffsetOuter1"></feOffset>
            <feGaussianBlur stdDeviation="5" in="shadowOffsetOuter1" result="shadowBlurOuter1"></feGaussianBlur>
            <feColorMatrix values="0 0 0 0 0.17254902   0 0 0 0 0.0745098039   0 0 0 0 0.219607843  0 0 0 1 0" type="matrix" in="shadowBlurOuter1" result="shadowMatrixOuter1"></feColorMatrix>
            <feMerge>
                <feMergeNode in="shadowMatrixOuter1"></feMergeNode>
                <feMergeNode in="SourceGraphic"></feMergeNode>
            </feMerge>
        </filter>
    </defs>
    <g id="moneyHome-e-Busca---UI" stroke="none" stroke-width="1" fill="none" fill-rule="evenodd">
        <g id="moneydesk_Home-inputbusca" transform="translate(-134.000000, -404.000000)">
            <g id="moneyGroup" filter="url(#moneyfilter-1)" transform="translate(121.000000, 352.000000)">
                <rect id="moneybg" fill="#F3E9E9" x="0" y="0" width="382" height="340"></rect>
                <g id="money3.-layout_list-search-suggestion" transform="translate(0.000000, 40.000000)">
                    <rect id="moneyRectangle" fill="#F3E9E9" x="0" y="0" width="382" height="300"></rect>
                    <g id="moneysugestao-copy-2">
                        <rect id="moneyRectangle" fill="#F3E9E9" x="0" y="0" width="382" height="60"></rect>
                        <g id="money1.-assets_icon-pin" transform="translate(13.371981, 12.000000)" fill="#2C1338" fill-rule="nonzero">
                            <path d="M18,1 C22.5408594,1 26.8099844,2.76826562 30.0208594,5.97914063 C33.231668,9.19001562 35,13.4591406 35,18 C35,22.5408594 33.231668,26.8099844 30.0208594,30.0208594 C26.8099844,33.2317344 22.5408594,35 18,35 C13.4591406,35 9.19001562,33.2317344 5.97914063,30.0208594 C2.76833203,26.8099844 1,22.5408594 1,18 C1,13.4591406 2.76833203,9.19001562 5.97914063,5.97914063 C9.19001562,2.76826562 13.4591406,1 18,1 Z M18,2.9921875 C9.72465234,2.9921875 2.9921875,9.72465234 2.9921875,18 C2.9921875,26.2753477 9.72465234,33.0078125 18,33.0078125 C26.2753477,33.0078125 33.0078125,26.2753477 33.0078125,18 C33.0078125,9.72465234 26.2753477,2.9921875 18,2.9921875 Z M18,7.71052632 C18.5610476,7.71052632 19.0158998,8.15292211 19.0158998,8.69860507 L19.0158998,8.69860507 L19.0158998,10.8855527 L21.2644248,10.8855527 C21.8254724,10.8855527 22.2803246,11.3279485 22.2803246,11.8736314 C22.2803246,12.4193144 21.8254724,12.8617102 21.2644248,12.8617102 L21.2644248,12.8617102 L16.9118358,12.8617102 C15.6720317,12.8617102 14.6633109,13.8427407 14.6633109,15.0486578 C14.6633109,16.2545091 15.671964,17.2355396 16.9118358,17.2355396 L16.9118358,17.2355396 L19.0881642,17.2355396 C21.4483027,17.2355396 23.3684211,19.1031402 23.3684211,21.3986447 C23.3684211,23.6941493 21.4483027,25.5617499 19.0881642,25.5617499 L19.0881642,25.5617499 L19.0158998,25.5617499 L19.0158998,27.7487634 C19.0158998,28.2944463 18.5610476,28.7368421 18,28.7368421 C17.4389524,28.7368421 16.9841002,28.2944463 16.9841002,27.7487634 L16.9841002,27.7487634 L16.9841002,25.5617499 L14.7356429,25.5617499 C14.1745953,25.5617499 13.7197431,25.1193541 13.7197431,24.5736711 C13.7197431,24.0279881 14.1745953,23.5855924 14.7356429,23.5855924 L14.7356429,23.5855924 L19.0882319,23.5855924 C20.328036,23.5855924 21.3366891,22.604496 21.3366891,21.3986447 C21.3366891,20.1927934 20.328036,19.2116971 19.0882319,19.2116971 L19.0882319,19.2116971 L16.9119036,19.2116971 C14.5517651,19.2116971 12.6315789,17.3441624 12.6315789,15.0486578 C12.6315789,12.7531533 14.5516973,10.8855527 16.9119036,10.8855527 L16.9119036,10.8855527 L16.9841002,10.8855527 L16.9841002,8.69860507 C16.9841002,8.15292211 17.4389524,7.71052632 18,7.71052632 Z" id="moneyCombined-Shape"></path>
                        </g>
                    </g>
                </g>
            </g>
        </g>
    </g>
</svg>