<?xml version="1.0" encoding="UTF-8"?>
<svg width="74px" height="120px" viewBox="0 0 74 120" version="1.1" xmlns="http://www.w3.org/2000/svg" xmlns:xlink="http://www.w3.org/1999/xlink">
    <title>3D546D66-1E5D-48E0-A5FF-090F44AD2A48</title>
    <g id="Home-e-Busca---UI" stroke="none" stroke-width="1" fill="none" fill-rule="evenodd">
        <g id="desk_Home" transform="translate(-60.000000, -1728.000000)">
            <rect fill="#FFFFFF" x="0" y="0" width="1220" height="4208"></rect>
            <g id="Group-14-Copy" transform="translate(0.000000, 1523.000000)">
                <rect id="Rectangle" fill="#2C1338" transform="translate(610.000000, 392.500000) scale(1, -1) translate(-610.000000, -392.500000) " x="0" y="-2.27373675e-13" width="1220" height="785"></rect>
                <g id="Group-5" transform="translate(20.000000, 175.000000)">
                    <g id="Card-width-link-Copy-3" transform="translate(0.000000, 0.000000)">
                        <rect id="card" fill="#F3E9E9" x="0" y="0" width="278" height="470"></rect>
                        <g id="1.-assets/illustration/ok" transform="translate(40.000000, 30.000000)">
                            <g id="Shadows" transform="translate(2.227826, 4.826957)" fill="#2C1338" fill-rule="nonzero" opacity="0.3">
                                <path d="M11.0425917,42.8571871 C11.5834584,25.2982038 8.69099742,3.57318564 8.69099742,2.73156242 C8.69099742,1.82557978 9.03878583,0.00866376843 10.2244844,0.00866376843 C11.2146294,0.00866376843 18.0775717,4.19573928 20.2398007,10.0017018" id="Path"></path>
                                <path d="M9.02517134,50.4379844 C6.73422343,43.1183378 0.785927565,25.6843604 0.299518851,24.9516531 C-0.300756533,24.0493835 0.670823213,22.5468385 2.10282037,22.5468385 C2.92216532,22.5468385 8.44222349,24.4182125 10.8383743,27.8750561 C10.925012,30.0954562 11.123041,42.6690595 11.123041,42.6690595 L9.02517134,50.4379844 Z" id="Path"></path>
                                <path d="M28.6127141,25.9442734 C28.2698764,27.7908938 16.3596702,52.8923063 9.45093368,48.8599409 C9.02517134,50.4379844 8.87541192,51.3501555 8.87541192,51.3501555 L8.4484119,57.1573557 L8.21696552,64.5401241 L8.89521482,62.090753 L10.1997308,58.3554311 L11.123041,56.4258861 L12.6453889,54.5693643 L16.9141513,50.8080511 L22.1445921,46.7992017 L24.9528908,44.7186596 L25.6769343,41.1145319 L26.8576821,35.4620419 L27.983972,29.2600214 L28.6127141,25.9442734 Z" id="Path"></path>
                            </g>
                            <g id="Vector" stroke="#2C1338" stroke-linecap="round" stroke-width="2.5">
                                <path d="M11.2529975,55.2649411 C8.9620496,47.9452945 3.01375373,30.511317 2.52734502,29.7786098 C1.92706964,28.8763402 2.89864938,27.3737952 4.33064653,27.3737952 C5.14999149,27.3737952 10.6700497,29.2451692 13.0662005,32.7020128" id="Path"></path>
                                <path d="M13.2704179,47.6841438 C13.8112846,30.1251605 10.9188236,8.40014233 10.9188236,7.55851911 C10.9188236,6.65253647 11.266612,4.83562047 12.4523106,4.83562047 C13.4424556,4.83562047 20.3053978,9.02269598 22.4676269,14.8286585" id="Path"></path>
                                <path d="M10.3965221,69.5391185 C10.4225134,66.435014 10.7938178,58.1425499 11.1651221,55.6671875 C11.5364265,53.1918251 26.0172966,2.53972183 26.0717546,1.80330151 C26.1262125,1.0668812 26.590343,0.0309420301 27.4084503,0.0309420301 C32.9322215,0.0309420301 33.8988505,10.5301917 33.8988505,12.6849947 C33.8988505,14.4709686 29.261259,39.8248681 27.160914,49.6099757" id="Path"></path>
                                <path d="M36.0474651,119.779074 C35.923697,117.056175 40.7506537,101.708928 41.3694943,98.9860297 C41.3694943,98.9860297 56.0979006,86.7329858 58.4494949,84.6289277 C60.8010892,82.5248697 73.3016693,60.1228399 73.3016693,59.256463 C73.3016693,58.3900862 70.7025388,57.3999412 69.9599301,57.5237093 C66.3706546,52.9442889 42.3596392,40.9387812 40.9981899,40.9387812 C39.6367406,40.9387812 21.3190587,52.9442889 14.8831165,59.3802311 C8.44717422,65.8161734 6.71442053,95.2729861 6.59065241,97.5008122 C6.46688429,99.7286384 2.63007256,109.753856 1.39239135,113.343132 L0.0309420301,119.779074 M45.5776103,78.1929854 C43.3497842,78.1929854 30.4778997,68.6628402 30.3541315,68.1677677 C30.2303634,67.6726952 31.3442765,62.2268979 31.839349,61.7318254 C32.3344215,61.2367529 42.9784798,53.6868976 43.5973204,53.6868976 C44.216161,53.6868976 58.3257268,60.7416805 63.4002197,59.6277674 C58.2019586,62.1031298 47.8054365,78.1929854 45.5776103,78.1929854 Z" id="Shape"></path>
                                <path d="M62.9150487,59.796092 C63.5338893,59.6030138 68.7890837,58.0732398 69.9599301,57.5237093" id="Path"></path>
                            </g>
                        </g>
                    </g>
                </g>
            </g>
        </g>
    </g>
</svg>