<?xml version="1.0" encoding="UTF-8"?>
<svg width="26px" height="26px" viewBox="0 0 26 26" version="1.1" xmlns="http://www.w3.org/2000/svg" xmlns:xlink="http://www.w3.org/1999/xlink">
    <title>F1DDA1D9-AF8A-41C6-ACCA-660512AD51E1</title>
    <defs>
        <filter id="filter-1">
            <feColorMatrix in="SourceGraphic" type="matrix" values="0 0 0 0 0.952941 0 0 0 0 0.913725 0 0 0 0 0.913725 0 0 0 1.000000 0"></feColorMatrix>
        </filter>
    </defs>
    <g id="Home-e-Busca---UI" stroke="none" stroke-width="1" fill="none" fill-rule="evenodd">
        <g id="desk_Explore-termo-não-cidade-sim-nivel-2" transform="translate(-725.000000, -1348.000000)">
            <rect fill="#FFFFFF" x="0" y="0" width="1220" height="1936"></rect>
            <g id="apoio" transform="translate(0.000000, 214.000000)" fill="#351E41">
                <rect id="bg" transform="translate(610.000000, 702.000000) scale(1, -1) translate(-610.000000, -702.000000) " x="0" y="0" width="1220" height="1404"></rect>
            </g>
            <g id="Group-6" transform="translate(120.000000, 388.000000)">
                <g id="pagination-lg" transform="translate(299.000000, 953.000000)">
                    <rect id="Rectangle" x="0" y="0" width="382" height="40"></rect>
                    <g id="Group-2-Copy" transform="translate(299.000000, 0.000000)">
                        <circle id="Oval-Copy" stroke="#5E3F8E" cx="20" cy="20" r="20"></circle>
                        <g filter="url(#filter-1)" id="1.-assets_icon-downarrow-copy">
                            <g transform="translate(7.000000, 7.000000)">
                                <g id="down-arrow-(1)" transform="translate(13.040123, 13.320988) scale(-1, 1) rotate(90.000000) translate(-13.040123, -13.320988) translate(7.262346, 10.070988)" fill="#373A3C" fill-rule="nonzero">
                                    <path d="M11.4017266,0.153828956 C11.196633,-0.0512646465 10.8640431,-0.0512996633 10.6589145,0.153863973 L5.77791785,5.03496566 L0.896676094,0.153828956 C0.691582492,-0.0512646465 0.358992593,-0.0512996633 0.153863973,0.153863973 C-0.0512646465,0.358992593 -0.0512646465,0.691547475 0.153863973,0.896676094 L5.40652929,6.14920135 C5.50503165,6.2477037 5.63862088,6.3030303 5.77791785,6.3030303 C5.91721481,6.3030303 6.05083906,6.24766869 6.1493064,6.14916633 L11.4016916,0.896641077 C11.6068552,0.691547475 11.6068552,0.358957576 11.4017266,0.153828956 Z" id="XMLID_225_"></path>
                                </g>
                            </g>
                        </g>
                    </g>
                </g>
            </g>
        </g>
    </g>
</svg>