<?xml version="1.0" encoding="UTF-8"?>
<svg width="28px" height="28px" viewBox="0 0 28 28" version="1.1" xmlns="http://www.w3.org/2000/svg" xmlns:xlink="http://www.w3.org/1999/xlink">
    <title>E9EDFE03-4FA1-48B8-98EC-E6D0F422E322</title>
    <defs>
        <filter id="filter-1">
            <feColorMatrix in="SourceGraphic" type="matrix" values="0 0 0 0 0.180392 0 0 0 0 0.098039 0 0 0 0 0.309804 0 0 0 1.000000 0"></feColorMatrix>
        </filter>
    </defs>
    <g id="Home-e-Busca---UI" stroke="none" stroke-width="1" fill="none" fill-rule="evenodd">
        <g id="desk_Home" transform="translate(-528.000000, -306.000000)">
            <rect fill="#FFFFFF" x="0" y="0" width="1220" height="4208"></rect>
            <g id="topo" transform="translate(0.000000, 54.000000)">
                <rect id="Rectangle" fill="#F3E9E9" x="0" y="0" width="1220" height="442"></rect>
                <g id="Group" transform="translate(120.000000, 236.000000)">
                    <g id="form-control-lg" transform="translate(401.000000, 0.000000)">
                        <path d="M0,10.0088711 C0,4.48112423 4.47779571,0 10.007896,0 L172.514297,0 C178.041506,0 182.522193,4.48521396 182.522193,10.0088711 L182.522193,60 L0,60 L0,10.0088711 Z" id="form-control"></path>
                        <g id="1.-assets-icon-search" transform="translate(7.000000, 16.000000)" filter="url(#filter-1)">
                            <g>
                                <path d="M13.8703704,2.33333333 C18.5165251,2.33333333 22.2962963,6.19991308 22.2962963,10.9527742 C22.2962963,12.5179632 21.6108224,14.2007823 21.5820752,14.2712589 C21.3605229,14.8092134 20.9238617,15.6447921 20.6081373,16.1345792 L20.6081373,16.1345792 L14.8304303,25.0896712 C14.5940087,25.4562509 14.244085,25.6666667 13.8703704,25.6666667 C13.4966558,25.6666667 13.146732,25.4562509 12.9103105,25.0891641 L12.9103105,25.0891641 L7.13309913,16.1345792 C6.81787037,15.6447921 6.38071351,14.8092134 6.15916122,14.2712589 C6.13041394,14.2002752 5.44444444,12.5174562 5.44444444,10.9527742 C5.44444444,6.19991308 9.22421569,2.33333333 13.8703704,2.33333333 Z M13.8703704,3.34738519 C9.77090959,3.34738519 6.43572985,6.75916268 6.43572985,10.9527742 C6.43572985,12.3075474 7.06470044,13.8565117 7.07312636,13.8772997 C7.2708878,14.3594814 7.67781046,15.1372592 7.96082244,15.5763436 L7.96082244,15.5763436 L13.7385294,24.5314356 C13.8525272,24.7083877 13.8887092,24.7083877 14.002707,24.5314356 L14.002707,24.5314356 L19.7804139,15.5763436 C20.0634259,15.1372592 20.4703486,14.3599884 20.66811,13.8778068 C20.6745534,13.862596 21.3050109,12.3095755 21.3050109,10.9527742 C21.3050109,6.75916268 17.9698312,3.34738519 13.8703704,3.34738519 Z M13.8703704,6.22222222 C16.3722942,6.22222222 18.4074074,8.25783951 18.4074074,10.7592593 C18.4074074,13.260679 16.3722942,15.2962963 13.8703704,15.2962963 C11.3684465,15.2962963 9.33333333,13.260679 9.33333333,10.7592593 C9.33333333,8.25783951 11.3684465,6.22222222 13.8703704,6.22222222 Z M13.8703704,7.23045267 C11.9249897,7.23045267 10.3415638,8.81337449 10.3415638,10.7592593 C10.3415638,12.705144 11.9249897,14.2880658 13.8703704,14.2880658 C15.815751,14.2880658 17.399177,12.705144 17.399177,10.7592593 C17.399177,8.81337449 15.815751,7.23045267 13.8703704,7.23045267 Z" id="Combined-Shape" fill="#2C1338" fill-rule="nonzero"></path>
                            </g>
                        </g>
                    </g>
                    <rect id="hotspot-copy" x="400" y="0" width="183" height="60"></rect>
                </g>
            </g>
        </g>
    </g>
</svg>