<?xml version="1.0" encoding="UTF-8"?>
<svg width="76px" height="76px" viewBox="0 0 76 76" version="1.1" xmlns="http://www.w3.org/2000/svg" xmlns:xlink="http://www.w3.org/1999/xlink">
    <title>ABB52873-2421-49A3-B1AC-F5173E6FF093</title>
    <g id="Home-e-Busca---UI" stroke="none" stroke-width="1" fill="none" fill-rule="evenodd">
        <g id="desk_Home" transform="translate(-822.000000, -689.000000)">
            <rect fill="#FFFFFF" x="0" y="0" width="1220" height="4208"></rect>
            <g id="estatisticas-QD" transform="translate(0.000000, 496.000000)">
                <rect id="bg-copy-2" fill="#2C1338" x="0" y="0" width="1220" height="460"></rect>
                <g id="Group-17" transform="translate(20.000000, 193.000000)">
                    <g id="1.-assets/icon/nivel/3" transform="translate(802.000000, 0.000000)">
                        <circle id="Oval" fill="#8E3B2E" cx="38" cy="38" r="38"></circle>
                        <path d="M25.022848,34.6730916 C25.022848,27.7816087 30.780868,22.1753138 37.8584036,22.1753138 C44.9359391,22.1753138 50.6939591,27.7816087 50.6939591,34.6730916 C50.6939591,41.5645744 44.9359391,47.1708693 37.8584036,47.1708693 C30.780868,47.1708693 25.022848,41.5645744 25.022848,34.6730916 Z M37.8584036,16.7708693 C27.8010555,16.7708693 19.6184036,24.8368892 19.6184036,34.7508841 C19.6184036,43.3263672 25.7425083,50.5143378 33.9043262,52.3003413 C34.356461,53.8838566 35.8349452,58.4740694 36.1737722,59.4418333 C36.7552971,61.1038939 38.801417,61.126953 39.3325017,59.3193315 C39.5550967,58.5619825 40.8281649,53.7224426 41.2002531,52.4232034 C49.6669056,50.8710341 56.0984036,43.5396644 56.0984036,34.7508841 C56.0984036,24.8368892 47.9161171,16.7708693 37.8584036,16.7708693 Z" id="Fill-49" fill="#E55330"></path>
                    </g>
                </g>
            </g>
        </g>
    </g>
</svg>