<?xml version="1.0" encoding="UTF-8"?>
<svg width="50px" height="50px" viewBox="0 0 50 50" version="1.1" xmlns="http://www.w3.org/2000/svg" xmlns:xlink="http://www.w3.org/1999/xlink">
    <title>6A040338-57CD-4DDD-83AC-5B379E4DCF4C</title>
    <g id="Home-e-Busca---UI" stroke="none" stroke-width="1" fill="none" fill-rule="evenodd">
        <g id="desk_Home" transform="translate(-585.000000, -3003.000000)" fill="#F3E9E9" fill-rule="nonzero">
            <g id="sobre" transform="translate(-0.000000, 2854.000000)">
                <g id="play-button" transform="translate(585.000000, 149.000000)">
                    <path d="M25,0 C11.2141602,0 0,11.2152344 0,25 C0,38.7847656 11.2141602,50 25,50 C38.7858398,50 50,38.7847656 50,25 C50,11.2152344 38.7858398,0 25,0 Z M34.9385742,25.8758789 L20.3552734,35.2508789 C20.184375,35.3617187 19.9870117,35.4166992 19.7916992,35.4166992 C19.6208008,35.4166992 19.4478516,35.3739258 19.2932617,35.2895508 C18.9575195,35.1064453 18.75,34.7564453 18.75,34.375 L18.75,15.625 C18.75,15.2435547 18.9575195,14.8935547 19.2932617,14.7104492 C19.6228516,14.5293945 20.0358398,14.5405273 20.3552734,14.7491211 L34.9385742,24.1241211 C35.2356445,24.315332 35.4166992,24.6459961 35.4166992,25 C35.4166992,25.3540039 35.2356445,25.6845703 34.9385742,25.8758789 Z" id="Shape"></path>
                </g>
            </g>
        </g>
    </g>
</svg>