<?xml version="1.0" encoding="UTF-8"?>
<svg width="12px" height="12px" viewBox="0 0 12 12" version="1.1" xmlns="http://www.w3.org/2000/svg" xmlns:xlink="http://www.w3.org/1999/xlink">
    <title>149339FE-81CC-4913-9575-0673AF81AF1B</title>
    <defs>
        <filter id="filter-1">
            <feColorMatrix in="SourceGraphic" type="matrix" values="0 0 0 0 0.368627 0 0 0 0 0.247059 0 0 0 0 0.556863 0 0 0 1.000000 0"></feColorMatrix>
        </filter>
        <linearGradient x1="50%" y1="0%" x2="50%" y2="100%" id="linearGradient-2">
            <stop stop-color="#F3E9E9" stop-opacity="0" offset="0%"></stop>
            <stop stop-color="#F3E9E9" offset="100%"></stop>
        </linearGradient>
        <filter id="filter-3">
            <feColorMatrix in="SourceGraphic" type="matrix" values="0 0 0 0 0.588235 0 0 0 0 0.419608 0 0 0 0 0.909804 0 0 0 1.000000 0"></feColorMatrix>
        </filter>
    </defs>
    <g id="Sobre-o-Querido-Diário" stroke="none" stroke-width="1" fill="none" fill-rule="evenodd">
        <g id="desk_Sobre" transform="translate(-105.000000, -2247.000000)">
            <rect fill="#FFFFFF" x="0" y="0" width="1220" height="3810"></rect>
            <g id="Group-3-Copy" transform="translate(-89.923954, 1877.000000)">
                <g id="bg">
                    <rect id="Mask" fill="#F3E9E9" transform="translate(703.923954, 273.000000) scale(1, -1) translate(-703.923954, -273.000000) " x="93.9239544" y="0" width="1220" height="546"></rect>
                    <g filter="url(#filter-1)" id="1.-assets/patterns/document-copy-2" opacity="0.3">
                        <g transform="translate(0.000000, 215.000000)"></g>
                    </g>
                    <rect id="Mask" fill="url(#linearGradient-2)" transform="translate(704.923954, 376.000000) scale(1, -1) translate(-704.923954, -376.000000) " x="94.9239544" y="206" width="1220" height="340"></rect>
                </g>
                <g id="Group" transform="translate(109.923954, 76.000000)">
                    <g id="Card-width-link" transform="translate(0.000000, 118.000000)">
                        <rect id="card" fill="#2C1338" x="0" y="0" width="278" height="230"></rect>
                        <g id="Group-2" transform="translate(20.000000, 41.000000)">
                            <g id="1.-assets_icon-downarrow" transform="translate(0.000000, 130.000000)" filter="url(#filter-3)">
                                <g transform="translate(71.000000, 11.000000) scale(-1, 1) rotate(90.000000) translate(-71.000000, -11.000000) translate(65.000000, 5.000000)">
                                    <path d="M2.66666667,1.11226631 L2.66666667,10.8668718 C2.66666667,11.1430142 2.89052429,11.3668718 3.16666667,11.3668718 C3.29137109,11.3668718 3.41157453,11.3202716 3.50369186,11.2362145 L8.51250096,6.6656762 C8.92046562,6.29340845 8.94940369,5.66090511 8.57713593,5.25294045 C8.55348209,5.22701843 8.52848017,5.20235948 8.50223392,5.17906594 L3.49855834,0.738303862 C3.29202458,0.555005151 2.97600293,0.573840879 2.79270421,0.780374638 C2.71150803,0.871863296 2.66666667,0.989942994 2.66666667,1.11226631 Z" id="Path-2" fill="#F3E9E9" transform="translate(6.000000, 6.000000) rotate(90.000000) translate(-6.000000, -6.000000) "></path>
                                </g>
                            </g>
                        </g>
                    </g>
                </g>
            </g>
        </g>
    </g>
</svg>