<?xml version="1.0" encoding="UTF-8"?>
<svg width="7px" height="12px" viewBox="0 0 7 12" version="1.1" xmlns="http://www.w3.org/2000/svg" xmlns:xlink="http://www.w3.org/1999/xlink">
    <title>2EF5BC1A-09DE-4EC1-9330-556AECD4A73C</title>
    <defs>
        <filter id="filter-1">
            <feColorMatrix in="SourceGraphic" type="matrix" values="0 0 0 0 0.588235 0 0 0 0 0.419608 0 0 0 0 0.909804 0 0 0 1.000000 0"></feColorMatrix>
        </filter>
    </defs>
    <g id="Sobre-o-Querido-Diário" stroke="none" stroke-width="1" fill="none" fill-rule="evenodd">
        <g id="desk_Sobre" transform="translate(-113.000000, -1673.000000)">
            <g id="entenda" transform="translate(0.000000, 1344.000000)">
                <g id="Card-width-link" transform="translate(16.000000, 145.000000)">
                    <g id="1.-assets/button/textlink+icon" transform="translate(30.000000, 42.000000)" filter="url(#filter-1)">
                        <g transform="translate(0.000000, 137.000000)">
                            <g id="1.-assets_icon-downarrow" fill="#F3E9E9" transform="translate(71.000000, 11.000000) scale(-1, 1) rotate(90.000000) translate(-71.000000, -11.000000) translate(65.000000, 5.000000)">
                                <path d="M2.66666667,1.11226631 L2.66666667,10.8668718 C2.66666667,11.1430142 2.89052429,11.3668718 3.16666667,11.3668718 C3.29137109,11.3668718 3.41157453,11.3202716 3.50369186,11.2362145 L8.51250096,6.6656762 C8.92046562,6.29340845 8.94940369,5.66090511 8.57713593,5.25294045 C8.55348209,5.22701843 8.52848017,5.20235948 8.50223392,5.17906594 L3.49855834,0.738303862 C3.29202458,0.555005151 2.97600293,0.573840879 2.79270421,0.780374638 C2.71150803,0.871863296 2.66666667,0.989942994 2.66666667,1.11226631 Z" id="Path-2" transform="translate(6.000000, 6.000000) rotate(90.000000) translate(-6.000000, -6.000000) "></path>
                            </g>
                        </g>
                    </g>
                </g>
            </g>
        </g>
    </g>
</svg>