<?xml version="1.0" encoding="UTF-8"?>
<svg width="76px" height="76px" viewBox="0 0 76 76" version="1.1" xmlns="http://www.w3.org/2000/svg" xmlns:xlink="http://www.w3.org/1999/xlink">
    <title>AE17F873-C8FF-4CC6-806A-8B7A945F8DB3</title>
    <g id="Home-e-Busca---UI" stroke="none" stroke-width="1" fill="none" fill-rule="evenodd">
        <g id="desk_Home" transform="translate(-422.000000, -689.000000)">
            <rect fill="#FFFFFF" x="0" y="0" width="1220" height="4208"></rect>
            <g id="estatisticas-QD" transform="translate(0.000000, 496.000000)">
                <rect id="bg-copy-2" fill="#2C1338" x="0" y="0" width="1220" height="460"></rect>
                <g id="Group-17" transform="translate(20.000000, 193.000000)">
                    <g id="1.-assets/icon/nivel/3" transform="translate(402.000000, 0.000000)">
                        <circle id="Oval" fill="#3E7EAD" cx="38" cy="38" r="38"></circle>
                        <path d="M36.2614379,47.1895425 C30.235731,47.1895425 25.3333333,42.0643086 25.3333333,35.7647059 C25.3333333,29.4651032 30.235731,24.3398693 36.2614379,24.3398693 C42.2871449,24.3398693 47.1895425,29.4651032 47.1895425,35.7647059 C47.1895425,42.0643086 42.2871449,47.1895425 36.2614379,47.1895425 M54.3051017,49.8963898 L49.5583221,45.087293 C51.2389039,42.4771406 52.2166312,39.3596961 52.2166312,36.0101838 C52.2166312,26.8215192 44.8641862,19.372549 35.7945901,19.372549 C26.724994,19.372549 19.372549,26.8215192 19.372549,36.0101838 C19.372549,45.1988484 26.724994,52.6478185 35.7945901,52.6478185 C39.3394041,52.6478185 42.6222049,51.5094648 45.3062331,49.5747519 L49.9642015,54.2938716 C51.0737391,55.4183827 52.8732717,55.4183827 53.9832112,54.2938716 L54.3051017,53.9681623 C55.4146393,52.8436512 55.4146393,51.0204938 54.3051017,49.8963898" id="Fill-23" fill="#68BFFF"></path>
                    </g>
                </g>
            </g>
        </g>
    </g>
</svg>