<?xml version="1.0" encoding="UTF-8"?>
<svg width="28px" height="28px" viewBox="0 0 28 28" version="1.1" xmlns="http://www.w3.org/2000/svg" xmlns:xlink="http://www.w3.org/1999/xlink">
    <title>A69FA973-3177-4A5D-9DE8-54D46540A430</title>
    <defs>
        <filter id="filter-1">
            <feColorMatrix in="SourceGraphic" type="matrix" values="0 0 0 0 0.180392 0 0 0 0 0.098039 0 0 0 0 0.309804 0 0 0 1.000000 0"></feColorMatrix>
        </filter>
    </defs>
    <g id="Home-e-Busca---UI" stroke="none" stroke-width="1" fill="none" fill-rule="evenodd">
        <g id="desk_Home" transform="translate(-127.000000, -306.000000)">
            <rect fill="#FFFFFF" x="0" y="0" width="1220" height="4208"></rect>
            <g id="topo" transform="translate(0.000000, 54.000000)">
                <rect id="Rectangle" fill="#F3E9E9" x="0" y="0" width="1220" height="442"></rect>
                <g id="Group" transform="translate(120.000000, 236.000000)">
                    <g id="form-control-lg">
                        <path d="M0,10.0088711 C0,4.48112423 4.47217549,0 9.99680052,0 L372.003199,0 C377.52428,0 382,4.48521396 382,10.0088711 L382,60 L0,60 L0,10.0088711 Z" id="form-control"></path>
                        <g id="1.-assets-icon-search" transform="translate(7.000000, 16.000000)" filter="url(#filter-1)">
                            <g>
                                <path d="M23.1115579,22.0857617 L18.5582453,17.5325458 C19.6900449,16.1715233 20.3719102,14.4238204 20.3719102,12.5195302 C20.3719102,8.18944387 16.8492297,4.66666667 12.5193368,4.66666667 C8.18934715,4.66666667 4.66666667,8.18944387 4.66666667,12.5195302 C4.66666667,16.8493264 8.18934715,20.3718135 12.5193368,20.3718135 C14.4235302,20.3718135 16.1713299,19.6900449 17.5323523,18.5582453 L22.0857617,23.1115579 C22.2273575,23.2532504 22.413057,23.3240484 22.5986598,23.3240484 C22.7842625,23.3240484 22.969962,23.2532504 23.1116546,23.1115579 C23.394943,22.8282694 23.394943,22.3690501 23.1115579,22.0857617 Z M6.11744387,12.5195302 C6.11744387,8.98940242 8.9893057,6.11744387 12.5193368,6.11744387 C16.0492712,6.11744387 18.9210363,8.98940242 18.9210363,12.5195302 C18.9210363,16.0493679 16.0492712,18.9210363 12.5193368,18.9210363 C8.9893057,18.9210363 6.11744387,16.0493679 6.11744387,12.5195302 Z" id="Shape" fill="#2C1338" fill-rule="nonzero"></path>
                            </g>
                        </g>
                    </g>
                    <rect id="hotspot" x="0" y="0" width="384" height="60"></rect>
                </g>
            </g>
        </g>
    </g>
</svg>