<?xml version="1.0" encoding="UTF-8"?>
<svg width="36px" height="36px" viewBox="0 0 36 36" version="1.1" xmlns="http://www.w3.org/2000/svg" xmlns:xlink="http://www.w3.org/1999/xlink">
    <title>E3CF20E3-F5A7-4C41-A426-03135F81FE1A</title>
    <g id="Home-e-Busca---UI" stroke="none" stroke-width="1" fill="none" fill-rule="evenodd">
        <g id="desk_Home" transform="translate(-919.000000, -3852.000000)">
            <rect fill="#FFFFFF" x="0" y="0" width="1220" height="4208"></rect>
            <g id="3.-group/footer-desktop" transform="translate(0.000000, 3733.000000)">
                <rect id="Rectangle" fill="#2C1338" x="0" y="0" width="1220" height="475"></rect>
                <g id="Group-2" transform="translate(20.000000, 84.000000)" fill="#FF8500">
                    <g id="Group-5" transform="translate(898.000000, 0.000000)">
                        <g id="1.-assets/icon/redes_twitter" transform="translate(1.000000, 35.000000)">
                            <path d="M30,11.2493077 C29.1075,11.6307692 28.1565,11.8836154 27.165,12.0063846 C28.185,11.413 28.9635,10.4805385 29.3295,9.35661538 C28.3785,9.90907692 27.3285,10.2993077 26.2095,10.5170769 C25.3065,9.58023077 24.0195,9 22.6155,9 C19.8915,9 17.6985,11.1543077 17.6985,13.7953077 C17.6985,14.1753077 17.7315,14.5406923 17.8125,14.8885385 C13.722,14.6941538 10.1025,12.7839231 7.671,9.874 C7.2465,10.5916154 6.9975,11.413 6.9975,12.2972308 C6.9975,13.9575385 7.875,15.4293077 9.183,16.2813846 C8.3925,16.2667692 7.617,16.0431538 6.96,15.6909231 C6.96,15.7055385 6.96,15.7245385 6.96,15.7435385 C6.96,18.0732308 8.6655,20.0083077 10.902,20.4540769 C10.5015,20.5607692 10.065,20.6119231 9.612,20.6119231 C9.297,20.6119231 8.979,20.5943846 8.6805,20.5300769 C9.318,22.4286154 11.127,23.8243846 13.278,23.8696923 C11.604,25.1456154 9.4785,25.9143846 7.1775,25.9143846 C6.774,25.9143846 6.387,25.8968462 6,25.8486154 C8.1795,27.2180769 10.7625,28 13.548,28 C22.602,28 27.552,20.6923077 27.552,14.358 C27.552,14.1460769 27.5445,13.9414615 27.534,13.7383077 C28.5105,13.0630769 29.331,12.2197692 30,11.2493077 Z" id="Combined-Shape"></path>
                        </g>
                    </g>
                </g>
            </g>
        </g>
    </g>
</svg>