<svg width="20" height="24" fill="none" xmlns="http://www.w3.org/2000/svg"><path fill-rule="evenodd" clip-rule="evenodd" d="M4.34 4.34A8 8 0 0 1 18 10c0 3.1-2.02 6.1-4.23 8.44A29.41 29.41 0 0 1 10 21.77a29.42 29.42 0 0 1-3.77-3.34C4.02 16.1 2 13.1 2 10a8 8 0 0 1 2.34-5.66Zm5.1 19.5L10 23l-.55.83a1 1 0 0 0 1.1 0L10 23l.56.83.03-.02a9.7 9.7 0 0 0 .38-.27l1.06-.8c.87-.7 2.03-1.7 3.2-2.93C17.52 17.4 20 13.91 20 10a10 10 0 0 0-20 0c0 3.9 2.48 7.4 4.77 9.81a31.43 31.43 0 0 0 4.64 4l.03.02ZM8 10a2 2 0 1 1 4 0 2 2 0 0 1-4 0Zm2-4a4 4 0 1 0 0 8 4 4 0 0 0 0-8Z" fill="#212429"/></svg>